G04 Layer_Physical_Order=2*
G04 Layer_Color=16711680*
%FSLAX23Y23*%
%MOIN*%
%TF.FileFunction,Copper,L2,Bot,Signal*%
%TF.Part,Single*%
G01*
G75*
%TA.AperFunction,SMDPad*%
%ADD11R,0.063X0.071*%
%TA.AperFunction,SMDPad*%
%ADD12O,0.087X0.024*%
%TA.AperFunction,SMDPad*%
%ADD13R,0.059X0.051*%
%TA.AperFunction,SMDPad*%
%ADD16R,0.051X0.059*%
%ADD20C,0.010*%
%ADD22C,0.020*%
%TA.AperFunction,ViaPad*%
%ADD25C,0.065*%
%TA.AperFunction,ViaPad*%
%ADD26R,0.065X0.065*%
%TA.AperFunction,ViaPad*%
%ADD27C,0.059*%
%TA.AperFunction,ViaPad*%
%ADD28R,0.059X0.059*%
%TA.AperFunction,ConnectorPad*%
%ADD29C,0.197*%
%TA.AperFunction,ViaPad*%
%ADD30C,0.079*%
%TA.AperFunction,ViaPad*%
%ADD31R,0.079X0.079*%
%TA.AperFunction,ViaPad*%
%ADD32R,0.065X0.065*%
%TA.AperFunction,ViaPad*%
%ADD33R,0.079X0.079*%
%TA.AperFunction,ViaPad*%
%ADD34C,0.075*%
%TA.AperFunction,ViaPad*%
%ADD35C,0.039*%
%TA.AperFunction,ViaPad*%
%ADD36C,0.050*%
%TA.AperFunction,SMDPad*%
%ADD37R,0.071X0.063*%
%TA.AperFunction,SMDPad*%
%ADD38R,0.125X0.075*%
%TA.AperFunction,SMDPad*%
%ADD39R,0.047X0.083*%
%TA.AperFunction,SMDPad*%
%ADD40R,0.063X0.106*%
%TA.AperFunction,SMDPad*%
%ADD41R,0.106X0.063*%
%ADD42R,0.220X0.070*%
%ADD43R,0.216X0.205*%
%ADD44R,0.413X0.154*%
%ADD45R,0.545X0.209*%
G36*
X5630Y1378D02*
X984D01*
Y4567D01*
X5630D01*
Y1378D01*
D02*
G37*
%LPC*%
G36*
X3262Y2527D02*
X3224D01*
Y2489D01*
X3262D01*
Y2527D01*
D02*
G37*
G36*
X3311D02*
X3274D01*
Y2489D01*
X3311D01*
Y2527D01*
D02*
G37*
G36*
X3781Y2515D02*
X3746D01*
Y2484D01*
X3781D01*
Y2515D01*
D02*
G37*
G36*
X4960Y2657D02*
X4681D01*
X4675Y2656D01*
X4670Y2653D01*
X4623Y2606D01*
X4620Y2601D01*
X4619Y2595D01*
Y2552D01*
X4594D01*
Y2483D01*
X4593Y2478D01*
X4593Y2476D01*
Y2448D01*
X4675D01*
Y2476D01*
X4675Y2478D01*
X4674Y2483D01*
Y2552D01*
X4649D01*
Y2589D01*
X4687Y2627D01*
X4878D01*
X4880Y2622D01*
X4873Y2611D01*
X4870Y2598D01*
X4873Y2584D01*
X4880Y2572D01*
X4890Y2566D01*
Y2559D01*
X4874D01*
X4866Y2558D01*
X4858Y2553D01*
X4853Y2546D01*
X4852Y2537D01*
X4853Y2529D01*
X4858Y2521D01*
X4866Y2517D01*
X4873Y2515D01*
Y2510D01*
X4865Y2509D01*
X4858Y2504D01*
X4853Y2496D01*
X4852Y2493D01*
X4959D01*
X4958Y2496D01*
X4953Y2504D01*
X4946Y2509D01*
X4939Y2510D01*
Y2515D01*
X4946Y2517D01*
X4953Y2521D01*
X4958Y2529D01*
X4959Y2537D01*
X4958Y2546D01*
X4953Y2553D01*
X4946Y2558D01*
X4937Y2559D01*
X4921D01*
Y2566D01*
X4931Y2572D01*
X4938Y2584D01*
X4941Y2598D01*
X4938Y2611D01*
X4931Y2622D01*
X4933Y2627D01*
X4954D01*
X4988Y2593D01*
Y2509D01*
X4989Y2503D01*
X4992Y2498D01*
X5014Y2476D01*
X5019Y2473D01*
X5025Y2472D01*
X5047D01*
X5047Y2471D01*
X5054Y2467D01*
X5063Y2465D01*
X5126D01*
X5134Y2467D01*
X5142Y2471D01*
X5147Y2479D01*
X5148Y2487D01*
X5147Y2496D01*
X5142Y2503D01*
X5134Y2508D01*
X5126Y2509D01*
X5063D01*
X5054Y2508D01*
X5047Y2503D01*
X5047Y2502D01*
X5031D01*
X5018Y2515D01*
Y2599D01*
X5017Y2605D01*
X5014Y2610D01*
X4971Y2653D01*
X4966Y2656D01*
X4960Y2657D01*
D02*
G37*
G36*
X3734Y2515D02*
X3700D01*
Y2484D01*
X3734D01*
Y2515D01*
D02*
G37*
G36*
X4728Y2621D02*
X4714Y2618D01*
X4703Y2610D01*
X4695Y2599D01*
X4692Y2585D01*
X4695Y2571D01*
X4703Y2560D01*
X4714Y2552D01*
X4728Y2549D01*
X4742Y2552D01*
X4753Y2560D01*
X4757Y2565D01*
X4762Y2566D01*
X4792Y2536D01*
X4791Y2531D01*
X4787Y2530D01*
X4782Y2536D01*
X4771Y2544D01*
X4757Y2547D01*
X4743Y2544D01*
X4732Y2536D01*
X4724Y2525D01*
X4721Y2511D01*
X4724Y2497D01*
X4732Y2486D01*
X4742Y2479D01*
Y2448D01*
X4743Y2442D01*
X4746Y2437D01*
X4807Y2376D01*
X4812Y2373D01*
X4818Y2372D01*
X4858D01*
X4858Y2371D01*
X4866Y2367D01*
X4874Y2365D01*
X4937D01*
X4946Y2367D01*
X4953Y2371D01*
X4958Y2379D01*
X4959Y2387D01*
X4958Y2396D01*
X4953Y2403D01*
X4946Y2408D01*
X4937Y2409D01*
X4874D01*
X4866Y2408D01*
X4858Y2403D01*
X4858Y2402D01*
X4824D01*
X4772Y2454D01*
Y2479D01*
X4782Y2486D01*
X4787Y2492D01*
X4792Y2491D01*
Y2454D01*
X4793Y2448D01*
X4796Y2443D01*
X4813Y2426D01*
X4818Y2423D01*
X4824Y2422D01*
X4858D01*
X4858Y2421D01*
X4866Y2417D01*
X4874Y2415D01*
X4937D01*
X4946Y2417D01*
X4953Y2421D01*
X4958Y2429D01*
X4959Y2437D01*
X4958Y2446D01*
X4953Y2453D01*
X4946Y2458D01*
X4939Y2459D01*
Y2464D01*
X4946Y2466D01*
X4953Y2471D01*
X4958Y2478D01*
X4959Y2481D01*
X4852D01*
X4853Y2478D01*
X4858Y2471D01*
X4865Y2466D01*
X4873Y2464D01*
Y2459D01*
X4866Y2458D01*
X4858Y2453D01*
X4858Y2452D01*
X4830D01*
X4822Y2460D01*
Y2542D01*
X4821Y2548D01*
X4818Y2553D01*
X4775Y2596D01*
X4770Y2599D01*
X4764Y2600D01*
X4760D01*
X4753Y2610D01*
X4742Y2618D01*
X4728Y2621D01*
D02*
G37*
G36*
X4137Y2756D02*
X4052D01*
Y2671D01*
X4137D01*
Y2756D01*
D02*
G37*
G36*
X3303Y2718D02*
X3272D01*
Y2683D01*
X3303D01*
Y2718D01*
D02*
G37*
G36*
X3539Y2671D02*
X3509D01*
Y2637D01*
X3539D01*
Y2671D01*
D02*
G37*
G36*
X1181Y2880D02*
X1165Y2876D01*
X1150Y2867D01*
X1141Y2853D01*
X1138Y2836D01*
X1141Y2820D01*
X1150Y2806D01*
X1165Y2796D01*
X1166Y2796D01*
Y2775D01*
X1167Y2769D01*
X1170Y2764D01*
X1209Y2725D01*
Y2683D01*
X1183D01*
Y2592D01*
X1266D01*
Y2683D01*
X1240D01*
Y2732D01*
X1239Y2737D01*
X1235Y2742D01*
X1196Y2781D01*
Y2796D01*
X1198Y2796D01*
X1212Y2806D01*
X1221Y2820D01*
X1224Y2836D01*
X1221Y2853D01*
X1212Y2867D01*
X1198Y2876D01*
X1181Y2880D01*
D02*
G37*
G36*
X3303Y2671D02*
X3272D01*
Y2637D01*
X3303D01*
Y2671D01*
D02*
G37*
G36*
X5126Y2559D02*
X5063D01*
X5054Y2558D01*
X5047Y2553D01*
X5042Y2546D01*
X5041Y2537D01*
X5042Y2529D01*
X5047Y2521D01*
X5054Y2517D01*
X5063Y2515D01*
X5126D01*
X5134Y2517D01*
X5142Y2521D01*
X5142Y2522D01*
X5171D01*
X5182Y2512D01*
X5187Y2508D01*
X5193Y2507D01*
X5215D01*
X5218Y2504D01*
Y2488D01*
X5218Y2487D01*
Y2483D01*
X5218Y2482D01*
Y2463D01*
X5198D01*
X5192Y2462D01*
X5187Y2458D01*
X5181Y2452D01*
X5142D01*
X5142Y2453D01*
X5134Y2458D01*
X5126Y2459D01*
X5063D01*
X5054Y2458D01*
X5047Y2453D01*
X5042Y2446D01*
X5041Y2437D01*
X5042Y2429D01*
X5047Y2421D01*
X5054Y2417D01*
X5063Y2415D01*
X5126D01*
X5134Y2417D01*
X5142Y2421D01*
X5142Y2422D01*
X5187D01*
X5193Y2423D01*
X5198Y2426D01*
X5204Y2432D01*
X5218D01*
Y2412D01*
X5298D01*
Y2482D01*
X5298Y2483D01*
Y2487D01*
X5298Y2488D01*
Y2558D01*
X5218D01*
Y2538D01*
X5199D01*
X5189Y2548D01*
X5184Y2551D01*
X5178Y2552D01*
X5142D01*
X5142Y2553D01*
X5134Y2558D01*
X5126Y2559D01*
D02*
G37*
G36*
X2857Y2484D02*
X2841Y2481D01*
X2827Y2472D01*
X2817Y2458D01*
X2814Y2441D01*
X2817Y2424D01*
X2827Y2410D01*
X2841Y2401D01*
X2857Y2398D01*
X2874Y2401D01*
X2888Y2410D01*
X2897Y2424D01*
X2901Y2441D01*
X2897Y2458D01*
X2888Y2472D01*
X2874Y2481D01*
X2857Y2484D01*
D02*
G37*
G36*
X2957D02*
X2941Y2481D01*
X2927Y2472D01*
X2917Y2458D01*
X2914Y2441D01*
X2917Y2424D01*
X2927Y2410D01*
X2941Y2401D01*
X2957Y2398D01*
X2974Y2401D01*
X2988Y2410D01*
X2997Y2424D01*
X3001Y2441D01*
X2997Y2458D01*
X2988Y2472D01*
X2974Y2481D01*
X2957Y2484D01*
D02*
G37*
G36*
X2757D02*
X2741Y2481D01*
X2727Y2472D01*
X2717Y2458D01*
X2714Y2441D01*
X2717Y2424D01*
X2727Y2410D01*
X2741Y2401D01*
X2757Y2398D01*
X2774Y2401D01*
X2788Y2410D01*
X2797Y2424D01*
X2801Y2441D01*
X2797Y2458D01*
X2788Y2472D01*
X2774Y2481D01*
X2757Y2484D01*
D02*
G37*
G36*
X1175Y2389D02*
X1138D01*
Y2352D01*
X1175D01*
Y2389D01*
D02*
G37*
G36*
X1225D02*
X1187D01*
Y2352D01*
X1225D01*
Y2389D01*
D02*
G37*
G36*
X2651Y2435D02*
X2614D01*
X2617Y2424D01*
X2626Y2410D01*
X2641Y2400D01*
X2651Y2398D01*
Y2435D01*
D02*
G37*
G36*
Y2484D02*
X2641Y2482D01*
X2626Y2472D01*
X2617Y2458D01*
X2614Y2447D01*
X2651D01*
Y2484D01*
D02*
G37*
G36*
X2663D02*
Y2447D01*
X2701D01*
X2698Y2458D01*
X2689Y2472D01*
X2674Y2482D01*
X2663Y2484D01*
D02*
G37*
G36*
X3311Y2477D02*
X3274D01*
Y2440D01*
X3311D01*
Y2477D01*
D02*
G37*
G36*
X2701Y2435D02*
X2663D01*
Y2398D01*
X2674Y2400D01*
X2689Y2410D01*
X2698Y2424D01*
X2701Y2435D01*
D02*
G37*
G36*
X3262Y2477D02*
X3224D01*
Y2440D01*
X3262D01*
Y2477D01*
D02*
G37*
G36*
X5476Y2874D02*
X5391D01*
Y2847D01*
X5374D01*
X5369Y2846D01*
X5364Y2842D01*
X5339Y2818D01*
X5336Y2813D01*
X5335Y2807D01*
Y2410D01*
X5336Y2404D01*
X5339Y2399D01*
X5363Y2376D01*
X5368Y2372D01*
X5373Y2371D01*
X5389D01*
X5391Y2366D01*
X5346Y2321D01*
X5343Y2316D01*
X5342Y2311D01*
Y1736D01*
X5164Y1559D01*
X5160Y1561D01*
X5161Y1569D01*
X5075D01*
X5077Y1558D01*
X5087Y1543D01*
X5092Y1540D01*
X5090Y1535D01*
X5044D01*
X5043Y1540D01*
X5049Y1544D01*
X5058Y1558D01*
X5061Y1575D01*
X5058Y1591D01*
X5049Y1605D01*
X5035Y1615D01*
X5033Y1615D01*
Y1634D01*
X5077Y1678D01*
X5251D01*
X5257Y1679D01*
X5262Y1682D01*
X5322Y1742D01*
X5325Y1747D01*
X5326Y1753D01*
Y2031D01*
X5325Y2037D01*
X5322Y2042D01*
X5260Y2104D01*
X5255Y2107D01*
X5249Y2108D01*
X5138D01*
X5110Y2137D01*
Y2165D01*
X5126D01*
X5134Y2167D01*
X5142Y2171D01*
X5147Y2179D01*
X5148Y2187D01*
X5147Y2196D01*
X5142Y2203D01*
X5134Y2208D01*
X5126Y2209D01*
X5063D01*
X5054Y2208D01*
X5047Y2203D01*
X5042Y2196D01*
X5041Y2187D01*
X5042Y2179D01*
X5047Y2171D01*
X5054Y2167D01*
X5063Y2165D01*
X5079D01*
Y2131D01*
X5080Y2125D01*
X5084Y2120D01*
X5121Y2082D01*
X5126Y2079D01*
X5132Y2078D01*
X5243D01*
X5296Y2025D01*
Y1759D01*
X5245Y1708D01*
X5071D01*
X5065Y1707D01*
X5060Y1704D01*
X5007Y1651D01*
X5004Y1646D01*
X5003Y1640D01*
Y1615D01*
X5002Y1615D01*
X4987Y1605D01*
X4978Y1591D01*
X4975Y1575D01*
X4978Y1558D01*
X4987Y1544D01*
X4994Y1540D01*
X4992Y1535D01*
X4961D01*
Y1617D01*
X4933D01*
Y1652D01*
X5022Y1741D01*
X5207D01*
X5213Y1742D01*
X5218Y1745D01*
X5256Y1783D01*
X5259Y1788D01*
X5260Y1794D01*
Y1992D01*
X5259Y1998D01*
X5256Y2003D01*
X5209Y2050D01*
X5204Y2053D01*
X5198Y2054D01*
X5081D01*
X5033Y2102D01*
Y2202D01*
X5051Y2219D01*
X5054Y2217D01*
X5063Y2215D01*
X5126D01*
X5134Y2217D01*
X5142Y2221D01*
X5147Y2229D01*
X5148Y2237D01*
X5147Y2246D01*
X5142Y2253D01*
X5134Y2258D01*
X5126Y2259D01*
X5063D01*
X5054Y2258D01*
X5047Y2253D01*
X5047Y2252D01*
X5041Y2251D01*
X5036Y2248D01*
X5007Y2219D01*
X5004Y2214D01*
X5003Y2208D01*
Y2096D01*
X5004Y2090D01*
X5007Y2085D01*
X5064Y2028D01*
X5069Y2025D01*
X5075Y2024D01*
X5192D01*
X5230Y1986D01*
Y1800D01*
X5201Y1771D01*
X5016D01*
X5010Y1770D01*
X5005Y1767D01*
X4907Y1669D01*
X4904Y1664D01*
X4903Y1658D01*
Y1617D01*
X4876D01*
Y1535D01*
X4850D01*
X4782Y1603D01*
Y1741D01*
X4781Y1747D01*
X4778Y1752D01*
X4689Y1841D01*
X4684Y1844D01*
X4678Y1845D01*
X4585D01*
X4578Y1855D01*
X4567Y1863D01*
X4553Y1866D01*
X4539Y1863D01*
X4528Y1855D01*
X4520Y1844D01*
X4517Y1830D01*
X4520Y1816D01*
X4528Y1805D01*
X4539Y1797D01*
X4553Y1794D01*
X4567Y1797D01*
X4578Y1805D01*
X4585Y1815D01*
X4672D01*
X4752Y1735D01*
Y1597D01*
X4753Y1591D01*
X4756Y1586D01*
X4827Y1515D01*
X4826Y1510D01*
X4497D01*
X4482Y1525D01*
Y1535D01*
X4484Y1535D01*
X4498Y1544D01*
X4507Y1558D01*
X4510Y1575D01*
X4507Y1591D01*
X4498Y1605D01*
X4484Y1615D01*
X4467Y1618D01*
X4450Y1615D01*
X4436Y1605D01*
X4427Y1591D01*
X4424Y1575D01*
X4427Y1558D01*
X4436Y1544D01*
X4450Y1535D01*
X4452Y1535D01*
Y1519D01*
X4453Y1513D01*
X4456Y1508D01*
X4480Y1484D01*
X4485Y1481D01*
X4491Y1480D01*
X5165D01*
X5171Y1481D01*
X5176Y1484D01*
X5502Y1810D01*
X5505Y1815D01*
X5506Y1821D01*
Y2429D01*
X5505Y2435D01*
X5502Y2439D01*
X5472Y2469D01*
X5473Y2470D01*
X5476Y2487D01*
X5473Y2503D01*
X5464Y2517D01*
X5450Y2527D01*
X5433Y2530D01*
X5416Y2527D01*
X5402Y2517D01*
X5393Y2503D01*
X5390Y2487D01*
X5393Y2470D01*
X5402Y2456D01*
X5416Y2447D01*
X5433Y2443D01*
X5450Y2447D01*
X5451Y2447D01*
X5476Y2422D01*
Y2408D01*
X5471Y2407D01*
X5464Y2417D01*
X5450Y2427D01*
X5433Y2430D01*
X5416Y2427D01*
X5402Y2417D01*
X5393Y2403D01*
X5393Y2402D01*
X5380D01*
X5365Y2416D01*
Y2801D01*
X5381Y2816D01*
X5391D01*
Y2789D01*
X5476D01*
Y2874D01*
D02*
G37*
G36*
X5433Y3275D02*
X5416Y3272D01*
X5402Y3262D01*
X5393Y3248D01*
X5390Y3231D01*
X5393Y3215D01*
X5402Y3201D01*
X5416Y3191D01*
X5433Y3188D01*
X5450Y3191D01*
X5464Y3201D01*
X5473Y3215D01*
X5476Y3231D01*
X5473Y3248D01*
X5464Y3262D01*
X5450Y3272D01*
X5433Y3275D01*
D02*
G37*
G36*
X3462Y3263D02*
X3431D01*
Y3228D01*
X3462D01*
Y3263D01*
D02*
G37*
G36*
X1181Y3569D02*
X1165Y3565D01*
X1150Y3556D01*
X1141Y3542D01*
X1138Y3525D01*
X1141Y3509D01*
X1150Y3495D01*
X1165Y3485D01*
X1181Y3482D01*
X1198Y3485D01*
X1212Y3495D01*
X1219Y3505D01*
X1260D01*
X1299Y3466D01*
X1306Y3461D01*
X1314Y3460D01*
X1333D01*
Y3439D01*
X1423D01*
Y3460D01*
X1445D01*
X1476Y3430D01*
Y3222D01*
X1441Y3188D01*
X1417D01*
Y3203D01*
X1338D01*
Y3134D01*
X1337Y3129D01*
X1337Y3127D01*
Y3099D01*
X1418D01*
Y3127D01*
X1418Y3129D01*
X1417Y3134D01*
Y3143D01*
X1421Y3147D01*
X1449D01*
X1457Y3148D01*
X1464Y3153D01*
X1510Y3200D01*
X1515Y3206D01*
X1516Y3214D01*
Y3438D01*
X1516Y3438D01*
X1515Y3446D01*
X1510Y3452D01*
X1468Y3495D01*
X1461Y3499D01*
X1454Y3501D01*
X1423D01*
Y3522D01*
X1333D01*
Y3501D01*
X1322D01*
X1283Y3540D01*
X1277Y3544D01*
X1269Y3546D01*
X1219D01*
X1212Y3556D01*
X1198Y3565D01*
X1181Y3569D01*
D02*
G37*
G36*
X1856Y3222D02*
X1828D01*
Y3176D01*
X1856D01*
Y3222D01*
D02*
G37*
G36*
X1897D02*
X1868D01*
Y3176D01*
X1897D01*
Y3222D01*
D02*
G37*
G36*
X1856Y3281D02*
X1828D01*
Y3234D01*
X1856D01*
Y3281D01*
D02*
G37*
G36*
X5201Y4153D02*
X5187Y4150D01*
X5176Y4142D01*
X5168Y4131D01*
X5165Y4117D01*
X5168Y4103D01*
X5176Y4092D01*
X5186Y4085D01*
Y3894D01*
X4932Y3640D01*
X4928Y3635D01*
X4927Y3630D01*
Y3387D01*
X4926Y3386D01*
X4912Y3377D01*
X4903Y3363D01*
X4899Y3346D01*
X4903Y3330D01*
X4912Y3316D01*
X4926Y3306D01*
X4943Y3303D01*
X4959Y3306D01*
X4973Y3316D01*
X4983Y3330D01*
X4986Y3346D01*
X4983Y3363D01*
X4973Y3377D01*
X4959Y3386D01*
X4958Y3387D01*
Y3623D01*
X5212Y3877D01*
X5215Y3882D01*
X5216Y3888D01*
Y4030D01*
X5221Y4031D01*
X5225Y4025D01*
X5235Y4019D01*
Y3297D01*
X5210Y3271D01*
X4874D01*
X4858Y3288D01*
Y3306D01*
X4859Y3306D01*
X4873Y3316D01*
X4883Y3330D01*
X4886Y3346D01*
X4883Y3363D01*
X4873Y3377D01*
X4859Y3386D01*
X4843Y3390D01*
X4826Y3386D01*
X4812Y3377D01*
X4803Y3363D01*
X4799Y3346D01*
X4803Y3330D01*
X4812Y3316D01*
X4826Y3306D01*
X4827Y3306D01*
Y3281D01*
X4828Y3276D01*
X4832Y3271D01*
X4857Y3245D01*
X4857Y3245D01*
X4856Y3240D01*
X4335D01*
X4329Y3239D01*
X4324Y3236D01*
X4097Y3008D01*
X3402D01*
X3395Y3018D01*
X3384Y3026D01*
X3370Y3029D01*
X3356Y3026D01*
X3345Y3018D01*
X3337Y3007D01*
X3334Y2993D01*
X3337Y2979D01*
X3345Y2968D01*
X3356Y2960D01*
X3370Y2957D01*
X3384Y2960D01*
X3395Y2968D01*
X3402Y2978D01*
X3421D01*
X3421Y2973D01*
X3412Y2971D01*
X3400Y2963D01*
X3392Y2951D01*
X3390Y2938D01*
X3392Y2926D01*
X3373Y2907D01*
X3370Y2902D01*
X3369Y2896D01*
Y2720D01*
X3365Y2717D01*
X3350D01*
X3346Y2718D01*
X3344Y2718D01*
X3315D01*
Y2677D01*
Y2637D01*
X3344D01*
X3346Y2637D01*
X3350Y2638D01*
X3419D01*
Y2717D01*
X3399D01*
Y2890D01*
X3413Y2904D01*
X3425Y2902D01*
X3439Y2905D01*
X3450Y2913D01*
X3452Y2914D01*
X3456Y2913D01*
X3457Y2910D01*
X3465Y2899D01*
X3475Y2892D01*
Y2779D01*
X3434Y2739D01*
X3431Y2734D01*
X3430Y2728D01*
Y2374D01*
X3114Y2058D01*
X2969D01*
X2963Y2057D01*
X2958Y2054D01*
X2794Y1889D01*
X2790Y1884D01*
X2789Y1878D01*
Y1778D01*
X2779Y1772D01*
X2771Y1760D01*
X2769Y1746D01*
X2771Y1733D01*
X2779Y1721D01*
X2791Y1713D01*
X2804Y1711D01*
X2818Y1713D01*
X2830Y1721D01*
X2837Y1733D01*
X2840Y1746D01*
X2837Y1760D01*
X2830Y1772D01*
X2820Y1778D01*
Y1872D01*
X2975Y2028D01*
X3120D01*
X3126Y2029D01*
X3131Y2032D01*
X3456Y2357D01*
X3459Y2362D01*
X3460Y2365D01*
X3465Y2365D01*
Y2350D01*
X3137Y2022D01*
X2986D01*
X2980Y2021D01*
X2975Y2018D01*
X2893Y1936D01*
X2890Y1931D01*
X2889Y1925D01*
Y1777D01*
X2879Y1770D01*
X2871Y1759D01*
X2868Y1745D01*
X2871Y1731D01*
X2879Y1720D01*
X2890Y1712D01*
X2904Y1709D01*
X2918Y1712D01*
X2929Y1720D01*
X2937Y1731D01*
X2940Y1745D01*
X2937Y1759D01*
X2929Y1770D01*
X2919Y1777D01*
Y1918D01*
X2993Y1992D01*
X3143D01*
X3149Y1993D01*
X3154Y1996D01*
X3491Y2333D01*
X3494Y2338D01*
X3495Y2341D01*
X3498Y2344D01*
X3500Y2344D01*
X3589D01*
Y2371D01*
X3611D01*
X3618Y2361D01*
X3630Y2353D01*
X3643Y2350D01*
X3657Y2353D01*
X3668Y2361D01*
X3675Y2371D01*
X3678D01*
X3684Y2372D01*
X3689Y2375D01*
X3696Y2382D01*
X3701Y2380D01*
Y2368D01*
X3780D01*
Y2437D01*
X3781Y2442D01*
X3781Y2444D01*
Y2472D01*
X3700D01*
Y2444D01*
X3700Y2442D01*
X3701Y2437D01*
Y2422D01*
X3697Y2419D01*
X3696D01*
X3690Y2418D01*
X3685Y2414D01*
X3676Y2406D01*
X3671Y2407D01*
X3668Y2411D01*
X3657Y2419D01*
X3643Y2422D01*
X3630Y2419D01*
X3618Y2411D01*
X3611Y2401D01*
X3589D01*
Y2427D01*
X3500D01*
X3498Y2427D01*
X3495Y2431D01*
Y2451D01*
X3498Y2455D01*
X3500Y2455D01*
X3589D01*
Y2481D01*
X3603D01*
X3609Y2482D01*
X3614Y2485D01*
X3631Y2502D01*
X3634Y2507D01*
X3635Y2513D01*
Y2638D01*
X3656D01*
Y2662D01*
X3803D01*
X4077Y2389D01*
X4077Y2388D01*
X4076Y2383D01*
X4064Y2375D01*
X4054Y2361D01*
X4051Y2344D01*
X4054Y2328D01*
X4064Y2313D01*
X4078Y2304D01*
X4094Y2301D01*
X4111Y2304D01*
X4112Y2305D01*
X4157Y2260D01*
Y1805D01*
X4158Y1799D01*
X4161Y1794D01*
X4234Y1722D01*
X4231Y1710D01*
X4234Y1696D01*
X4242Y1685D01*
X4252Y1678D01*
Y1590D01*
X4188Y1526D01*
X2606D01*
X2558Y1575D01*
X2553Y1578D01*
X2547Y1579D01*
X2338D01*
X2338Y1580D01*
X2329Y1593D01*
X2316Y1601D01*
X2300Y1604D01*
X2285Y1601D01*
X2272Y1593D01*
X2263Y1580D01*
X2260Y1564D01*
X2263Y1549D01*
X2272Y1536D01*
X2285Y1527D01*
X2300Y1524D01*
X2316Y1527D01*
X2329Y1536D01*
X2338Y1549D01*
X2338Y1549D01*
X2540D01*
X2589Y1500D01*
X2594Y1497D01*
X2600Y1496D01*
X4194D01*
X4200Y1497D01*
X4205Y1500D01*
X4278Y1573D01*
X4281Y1578D01*
X4282Y1584D01*
Y1678D01*
X4292Y1685D01*
X4300Y1696D01*
X4303Y1710D01*
X4300Y1724D01*
X4292Y1735D01*
X4281Y1743D01*
X4267Y1746D01*
X4255Y1743D01*
X4187Y1811D01*
Y2267D01*
X4186Y2272D01*
X4183Y2277D01*
X4134Y2326D01*
X4135Y2328D01*
X4138Y2344D01*
X4135Y2361D01*
X4125Y2375D01*
X4111Y2384D01*
X4110Y2384D01*
Y2393D01*
X4109Y2398D01*
X4105Y2403D01*
X3827Y2682D01*
X3828Y2687D01*
X3832Y2688D01*
X3976Y2543D01*
X3981Y2540D01*
X3987Y2539D01*
X4213D01*
X4237Y2515D01*
Y2005D01*
X4227Y1998D01*
X4219Y1987D01*
X4216Y1973D01*
X4219Y1959D01*
X4227Y1948D01*
X4238Y1940D01*
X4252Y1937D01*
X4266Y1940D01*
X4277Y1948D01*
X4285Y1959D01*
X4288Y1973D01*
X4285Y1987D01*
X4277Y1998D01*
X4267Y2005D01*
Y2521D01*
X4266Y2527D01*
X4263Y2532D01*
X4243Y2552D01*
Y2556D01*
X4310Y2623D01*
X4313Y2628D01*
X4314Y2634D01*
Y2717D01*
X4360Y2763D01*
X4372Y2760D01*
X4386Y2763D01*
X4397Y2771D01*
X4405Y2782D01*
X4408Y2796D01*
X4405Y2810D01*
X4397Y2821D01*
X4386Y2829D01*
X4372Y2832D01*
X4358Y2829D01*
X4347Y2821D01*
X4339Y2810D01*
X4336Y2796D01*
X4339Y2784D01*
X4288Y2734D01*
X4285Y2729D01*
X4284Y2723D01*
Y2640D01*
X4213Y2569D01*
X3993D01*
X3852Y2710D01*
X3855Y2722D01*
X3854Y2727D01*
X3858Y2729D01*
X4008Y2579D01*
X4013Y2576D01*
X4019Y2575D01*
X4201D01*
X4207Y2576D01*
X4212Y2579D01*
X4272Y2639D01*
X4275Y2644D01*
X4276Y2650D01*
Y2768D01*
X4281Y2772D01*
X4289Y2770D01*
X4303Y2773D01*
X4314Y2781D01*
X4322Y2792D01*
X4325Y2806D01*
X4322Y2820D01*
X4314Y2831D01*
X4303Y2839D01*
X4289Y2842D01*
X4275Y2839D01*
X4264Y2831D01*
X4256Y2820D01*
X4253Y2806D01*
X4256Y2794D01*
X4250Y2789D01*
X4247Y2784D01*
X4246Y2778D01*
Y2656D01*
X4195Y2605D01*
X4025D01*
X3852Y2779D01*
X3847Y2782D01*
X3841Y2783D01*
X3785D01*
X3778Y2793D01*
X3767Y2801D01*
X3753Y2804D01*
X3739Y2801D01*
X3728Y2793D01*
X3720Y2782D01*
X3717Y2768D01*
X3720Y2754D01*
X3728Y2743D01*
X3739Y2735D01*
X3753Y2732D01*
X3767Y2735D01*
X3778Y2743D01*
X3785Y2753D01*
X3793D01*
X3795Y2748D01*
X3794Y2747D01*
X3786Y2736D01*
X3783Y2722D01*
X3786Y2708D01*
X3793Y2697D01*
X3792Y2692D01*
X3656D01*
Y2717D01*
X3639D01*
X3637Y2722D01*
X3643Y2726D01*
X3651Y2737D01*
X3654Y2751D01*
X3651Y2765D01*
X3643Y2776D01*
X3632Y2784D01*
X3618Y2787D01*
X3604Y2784D01*
X3593Y2776D01*
X3585Y2765D01*
X3582Y2751D01*
X3585Y2737D01*
X3593Y2726D01*
X3599Y2722D01*
X3597Y2717D01*
X3586D01*
X3582Y2718D01*
X3580Y2718D01*
X3551D01*
Y2677D01*
Y2637D01*
X3580D01*
X3582Y2637D01*
X3586Y2638D01*
X3601D01*
X3605Y2634D01*
Y2519D01*
X3597Y2511D01*
X3589D01*
Y2538D01*
X3500D01*
X3498Y2538D01*
X3495Y2541D01*
Y2708D01*
X3504Y2716D01*
X3509Y2714D01*
Y2683D01*
X3539D01*
Y2718D01*
X3512D01*
X3510Y2723D01*
X3574Y2786D01*
X3577Y2791D01*
X3578Y2797D01*
Y2887D01*
X3588Y2894D01*
X3596Y2905D01*
X3599Y2919D01*
X3596Y2933D01*
X3588Y2944D01*
X3577Y2952D01*
X3563Y2955D01*
X3549Y2952D01*
X3538Y2944D01*
X3530Y2933D01*
X3530Y2930D01*
X3524D01*
X3523Y2938D01*
X3515Y2949D01*
X3504Y2957D01*
X3490Y2960D01*
X3476Y2957D01*
X3465Y2949D01*
X3464Y2948D01*
X3459Y2949D01*
X3458Y2951D01*
X3450Y2963D01*
X3439Y2971D01*
X3429Y2973D01*
X3430Y2978D01*
X3957D01*
X3959Y2973D01*
X3954Y2969D01*
X3946Y2958D01*
X3943Y2944D01*
X3946Y2930D01*
X3953Y2921D01*
X3949Y2917D01*
X3936Y2930D01*
X3931Y2933D01*
X3925Y2934D01*
X3925D01*
X3918Y2944D01*
X3907Y2952D01*
X3893Y2955D01*
X3879Y2952D01*
X3868Y2944D01*
X3860Y2933D01*
X3857Y2919D01*
X3860Y2905D01*
X3868Y2894D01*
X3879Y2886D01*
X3893Y2883D01*
X3905Y2886D01*
X3907Y2881D01*
X3906Y2880D01*
X3898Y2869D01*
X3895Y2855D01*
X3898Y2841D01*
X3906Y2830D01*
X3917Y2822D01*
X3931Y2819D01*
X3945Y2822D01*
X3956Y2830D01*
X3964Y2841D01*
X3966Y2853D01*
X4068D01*
X4070Y2848D01*
X4064Y2844D01*
X4054Y2830D01*
X4051Y2813D01*
X4054Y2797D01*
X4064Y2783D01*
X4078Y2773D01*
X4094Y2770D01*
X4111Y2773D01*
X4125Y2783D01*
X4135Y2797D01*
X4138Y2813D01*
X4135Y2830D01*
X4125Y2844D01*
X4118Y2849D01*
X4119Y2854D01*
X4123Y2857D01*
X4381Y3116D01*
X4731D01*
X5013Y2834D01*
Y2719D01*
X5003Y2712D01*
X4995Y2701D01*
X4992Y2687D01*
X4995Y2673D01*
X5003Y2662D01*
X5014Y2654D01*
X5028Y2651D01*
X5042Y2654D01*
X5053Y2662D01*
X5061Y2673D01*
X5064Y2687D01*
X5061Y2701D01*
X5053Y2712D01*
X5043Y2719D01*
Y2840D01*
X5042Y2846D01*
X5039Y2851D01*
X4748Y3142D01*
X4743Y3145D01*
X4740Y3146D01*
X4740Y3151D01*
X4766D01*
X5145Y2771D01*
Y2655D01*
X5135Y2649D01*
X5128Y2637D01*
X5125Y2624D01*
X5128Y2610D01*
X5135Y2598D01*
X5147Y2591D01*
X5161Y2588D01*
X5174Y2591D01*
X5186Y2598D01*
X5193Y2610D01*
X5196Y2624D01*
X5193Y2637D01*
X5186Y2649D01*
X5176Y2655D01*
Y2777D01*
X5175Y2783D01*
X5171Y2788D01*
X4785Y3175D01*
X4787Y3180D01*
X4814D01*
X5236Y2758D01*
X5233Y2746D01*
X5236Y2732D01*
X5244Y2721D01*
X5255Y2713D01*
X5269Y2710D01*
X5283Y2713D01*
X5294Y2721D01*
X5302Y2732D01*
X5305Y2746D01*
X5302Y2760D01*
X5294Y2771D01*
X5283Y2779D01*
X5269Y2782D01*
X5257Y2779D01*
X4832Y3205D01*
X4833Y3209D01*
X4834Y3210D01*
X5040D01*
X5094Y3156D01*
X5091Y3144D01*
X5094Y3130D01*
X5102Y3119D01*
X5113Y3111D01*
X5127Y3108D01*
X5141Y3111D01*
X5152Y3119D01*
X5160Y3130D01*
X5163Y3144D01*
X5160Y3158D01*
X5152Y3169D01*
X5141Y3177D01*
X5127Y3180D01*
X5115Y3177D01*
X5057Y3236D01*
X5057Y3236D01*
X5058Y3241D01*
X5210D01*
X5220Y3231D01*
Y2910D01*
X5210Y2903D01*
X5202Y2892D01*
X5199Y2878D01*
X5202Y2864D01*
X5210Y2853D01*
X5221Y2845D01*
X5235Y2842D01*
X5249Y2845D01*
X5260Y2853D01*
X5268Y2864D01*
X5271Y2878D01*
X5268Y2892D01*
X5260Y2903D01*
X5250Y2910D01*
Y3237D01*
X5249Y3243D01*
X5246Y3248D01*
X5240Y3253D01*
Y3259D01*
X5261Y3280D01*
X5265Y3285D01*
X5266Y3290D01*
Y4019D01*
X5276Y4025D01*
X5283Y4037D01*
X5286Y4050D01*
X5283Y4064D01*
X5276Y4076D01*
X5264Y4083D01*
X5251Y4086D01*
X5237Y4083D01*
X5225Y4076D01*
X5221Y4070D01*
X5216Y4071D01*
Y4085D01*
X5226Y4092D01*
X5234Y4103D01*
X5237Y4117D01*
X5234Y4131D01*
X5226Y4142D01*
X5215Y4150D01*
X5201Y4153D01*
D02*
G37*
G36*
X5427Y3325D02*
X5390D01*
X5392Y3315D01*
X5402Y3300D01*
X5416Y3291D01*
X5427Y3288D01*
Y3325D01*
D02*
G37*
G36*
X2667Y3514D02*
X2653Y3511D01*
X2642Y3503D01*
X2634Y3492D01*
X2631Y3478D01*
X2634Y3464D01*
X2642Y3453D01*
X2652Y3446D01*
Y3353D01*
X2653Y3347D01*
X2656Y3342D01*
X2704Y3294D01*
X2709Y3291D01*
X2715Y3290D01*
X2771D01*
X2778Y3280D01*
X2789Y3272D01*
X2803Y3269D01*
X2817Y3272D01*
X2828Y3280D01*
X2836Y3291D01*
X2839Y3305D01*
X2836Y3319D01*
X2828Y3330D01*
X2817Y3338D01*
X2803Y3341D01*
X2789Y3338D01*
X2778Y3330D01*
X2771Y3320D01*
X2721D01*
X2682Y3359D01*
Y3446D01*
X2692Y3453D01*
X2700Y3464D01*
X2703Y3478D01*
X2700Y3492D01*
X2692Y3503D01*
X2681Y3511D01*
X2667Y3514D01*
D02*
G37*
G36*
X1897Y3281D02*
X1868D01*
Y3234D01*
X1897D01*
Y3281D01*
D02*
G37*
G36*
X4179Y3313D02*
X4088D01*
Y3248D01*
X4084Y3244D01*
X4061D01*
X4057Y3250D01*
X4047Y3256D01*
X4035Y3259D01*
X4024Y3256D01*
X4014Y3250D01*
X4007Y3240D01*
X4005Y3228D01*
X4007Y3217D01*
X4014Y3207D01*
X4024Y3200D01*
X4035Y3198D01*
X4047Y3200D01*
X4057Y3207D01*
X4061Y3213D01*
X4091D01*
X4096Y3214D01*
X4101Y3218D01*
X4114Y3230D01*
X4179D01*
Y3313D01*
D02*
G37*
G36*
X2798Y3671D02*
X2590D01*
X2584Y3670D01*
X2579Y3667D01*
X2505Y3593D01*
X2502Y3588D01*
X2500Y3582D01*
Y3549D01*
X2474D01*
Y3459D01*
X2557D01*
Y3549D01*
X2531D01*
Y3575D01*
X2596Y3641D01*
X2792D01*
X2819Y3613D01*
Y3577D01*
X2795D01*
Y3508D01*
X2794Y3503D01*
X2794Y3501D01*
Y3473D01*
X2875D01*
Y3501D01*
X2875Y3503D01*
X2874Y3508D01*
Y3523D01*
X2875Y3524D01*
X2882D01*
X2889Y3517D01*
X2886Y3505D01*
X2889Y3491D01*
X2897Y3480D01*
X2907Y3473D01*
Y3446D01*
X2858Y3398D01*
X2855Y3393D01*
X2854Y3387D01*
Y3248D01*
X2855Y3242D01*
X2858Y3237D01*
X2896Y3200D01*
X2894Y3195D01*
X2876D01*
Y3111D01*
X2875Y3111D01*
X2861Y3108D01*
X2850Y3100D01*
X2845Y3093D01*
X2838Y3092D01*
X2837Y3092D01*
Y3136D01*
X2836Y3142D01*
X2833Y3147D01*
X2831Y3148D01*
X2834Y3153D01*
X2835Y3152D01*
X2849Y3155D01*
X2860Y3163D01*
X2868Y3174D01*
X2871Y3188D01*
X2868Y3202D01*
X2860Y3213D01*
X2849Y3221D01*
X2835Y3224D01*
X2823Y3221D01*
X2817Y3228D01*
X2812Y3231D01*
X2806Y3232D01*
X2755D01*
X2748Y3242D01*
X2737Y3250D01*
X2723Y3253D01*
X2709Y3250D01*
X2698Y3242D01*
X2690Y3231D01*
X2687Y3217D01*
X2690Y3203D01*
X2698Y3192D01*
X2704Y3187D01*
X2703Y3182D01*
X2669D01*
X2649Y3202D01*
Y3216D01*
X2659Y3223D01*
X2667Y3234D01*
X2670Y3248D01*
X2667Y3262D01*
X2659Y3273D01*
X2648Y3281D01*
X2634Y3284D01*
X2620Y3281D01*
X2609Y3273D01*
X2602Y3263D01*
X2557D01*
Y3293D01*
X2474D01*
Y3203D01*
X2557D01*
Y3233D01*
X2602D01*
X2609Y3223D01*
X2619Y3216D01*
Y3196D01*
X2620Y3190D01*
X2623Y3185D01*
X2652Y3156D01*
X2657Y3153D01*
X2663Y3152D01*
X2708D01*
X2710Y3148D01*
Y3122D01*
X2680D01*
X2674Y3120D01*
X2669Y3117D01*
X2579Y3027D01*
X2534D01*
Y3051D01*
X2513D01*
Y3073D01*
X2512Y3079D01*
X2509Y3084D01*
X2421Y3172D01*
Y3203D01*
X2447D01*
Y3293D01*
X2421D01*
Y3459D01*
X2447D01*
Y3549D01*
X2364D01*
Y3519D01*
X2304D01*
X2297Y3529D01*
X2286Y3537D01*
X2272Y3540D01*
X2258Y3537D01*
X2247Y3529D01*
X2239Y3518D01*
X2236Y3504D01*
X2239Y3490D01*
X2247Y3479D01*
X2258Y3471D01*
X2272Y3468D01*
X2286Y3471D01*
X2297Y3479D01*
X2304Y3489D01*
X2364D01*
Y3459D01*
X2390D01*
Y3293D01*
X2364D01*
Y3268D01*
X2065D01*
X2057Y3267D01*
X2051Y3262D01*
X1991Y3202D01*
X1986Y3196D01*
X1985Y3188D01*
Y3034D01*
X1980Y3033D01*
X1973Y3042D01*
X1963Y3049D01*
Y3219D01*
X2055Y3311D01*
X2299D01*
X2306Y3301D01*
X2317Y3293D01*
X2331Y3290D01*
X2345Y3293D01*
X2356Y3301D01*
X2364Y3312D01*
X2367Y3326D01*
X2364Y3340D01*
X2356Y3351D01*
X2345Y3359D01*
X2331Y3362D01*
X2317Y3359D01*
X2306Y3351D01*
X2299Y3341D01*
X2049D01*
X2043Y3340D01*
X2038Y3337D01*
X1937Y3236D01*
X1934Y3231D01*
X1933Y3225D01*
Y3049D01*
X1923Y3042D01*
X1915Y3031D01*
X1912Y3017D01*
X1915Y3003D01*
X1923Y2992D01*
X1934Y2984D01*
X1948Y2981D01*
X1962Y2984D01*
X1973Y2992D01*
X1980Y3001D01*
X1985Y3000D01*
Y2963D01*
X1975Y2954D01*
X1737D01*
Y2968D01*
X1758D01*
Y3095D01*
X1742D01*
X1739Y3100D01*
X1786Y3146D01*
X1790Y3153D01*
X1792Y3161D01*
Y3177D01*
X1805D01*
Y3280D01*
X1738D01*
Y3177D01*
X1751D01*
Y3169D01*
X1702Y3120D01*
X1698Y3113D01*
X1696Y3106D01*
Y3095D01*
X1675D01*
Y2968D01*
X1696D01*
Y2936D01*
X1660Y2899D01*
X1389D01*
X1389Y2899D01*
X1381Y2898D01*
X1375Y2893D01*
X1375Y2893D01*
X1320Y2839D01*
X1316Y2832D01*
X1314Y2825D01*
Y2683D01*
X1293D01*
Y2592D01*
X1314D01*
Y2093D01*
X1293D01*
Y2002D01*
X1318D01*
Y1644D01*
X1319Y1638D01*
X1322Y1633D01*
X1351Y1604D01*
X1356Y1601D01*
X1362Y1600D01*
X1374D01*
X1375Y1595D01*
X1372Y1593D01*
X1363Y1580D01*
X1360Y1564D01*
X1363Y1549D01*
X1372Y1536D01*
X1385Y1527D01*
X1400Y1524D01*
X1416Y1527D01*
X1429Y1536D01*
X1438Y1549D01*
X1441Y1564D01*
X1438Y1580D01*
X1429Y1593D01*
X1426Y1595D01*
X1427Y1600D01*
X1474D01*
X1475Y1595D01*
X1472Y1593D01*
X1463Y1580D01*
X1460Y1564D01*
X1463Y1549D01*
X1472Y1536D01*
X1485Y1527D01*
X1500Y1524D01*
X1516Y1527D01*
X1529Y1536D01*
X1538Y1549D01*
X1541Y1564D01*
X1538Y1580D01*
X1529Y1593D01*
X1526Y1595D01*
X1527Y1600D01*
X1543D01*
X1563Y1580D01*
X1563Y1580D01*
X1560Y1564D01*
X1563Y1549D01*
X1572Y1536D01*
X1585Y1527D01*
X1600Y1524D01*
X1616Y1527D01*
X1629Y1536D01*
X1638Y1549D01*
X1641Y1564D01*
X1638Y1580D01*
X1638Y1580D01*
X1685Y1627D01*
X1685Y1627D01*
X1700Y1624D01*
X1716Y1627D01*
X1729Y1636D01*
X1731Y1635D01*
X1734Y1634D01*
Y1616D01*
X1735Y1610D01*
X1738Y1605D01*
X1763Y1580D01*
X1763Y1580D01*
X1760Y1564D01*
X1763Y1549D01*
X1772Y1536D01*
X1785Y1527D01*
X1800Y1524D01*
X1816Y1527D01*
X1829Y1536D01*
X1838Y1549D01*
X1841Y1564D01*
X1838Y1580D01*
X1829Y1593D01*
X1816Y1601D01*
X1800Y1604D01*
X1785Y1601D01*
X1785Y1601D01*
X1764Y1622D01*
Y1638D01*
X1769Y1640D01*
X1772Y1636D01*
X1785Y1627D01*
X1800Y1624D01*
X1816Y1627D01*
X1829Y1636D01*
X1832Y1640D01*
X1837Y1639D01*
Y1613D01*
X1838Y1607D01*
X1841Y1602D01*
X1863Y1580D01*
X1863Y1580D01*
X1860Y1564D01*
X1863Y1549D01*
X1872Y1536D01*
X1885Y1527D01*
X1900Y1524D01*
X1916Y1527D01*
X1929Y1536D01*
X1938Y1549D01*
X1941Y1564D01*
X1938Y1580D01*
X1929Y1593D01*
X1916Y1601D01*
X1900Y1604D01*
X1885Y1601D01*
X1885Y1601D01*
X1867Y1619D01*
Y1634D01*
X1872Y1635D01*
X1885Y1627D01*
X1900Y1624D01*
X1916Y1627D01*
X1929Y1636D01*
X1932Y1640D01*
X1937Y1639D01*
Y1613D01*
X1938Y1607D01*
X1941Y1602D01*
X1963Y1580D01*
X1963Y1580D01*
X1960Y1564D01*
X1963Y1549D01*
X1972Y1536D01*
X1985Y1527D01*
X2000Y1524D01*
X2016Y1527D01*
X2029Y1536D01*
X2038Y1549D01*
X2041Y1564D01*
X2038Y1580D01*
X2029Y1593D01*
X2016Y1601D01*
X2000Y1604D01*
X1985Y1601D01*
X1985Y1601D01*
X1967Y1619D01*
Y1634D01*
X1972Y1635D01*
X1985Y1627D01*
X2000Y1624D01*
X2016Y1627D01*
X2029Y1636D01*
X2038Y1649D01*
X2041Y1664D01*
X2038Y1680D01*
X2029Y1693D01*
X2020Y1698D01*
X2020Y1703D01*
X2528Y2211D01*
X2531Y2216D01*
X2532Y2222D01*
Y2245D01*
X2542Y2252D01*
X2550Y2263D01*
X2553Y2277D01*
X2550Y2291D01*
X2542Y2302D01*
X2538Y2305D01*
X2540Y2310D01*
X2575D01*
X2577Y2305D01*
X2573Y2302D01*
X2565Y2291D01*
X2562Y2277D01*
X2565Y2263D01*
X2573Y2252D01*
X2583Y2245D01*
Y2235D01*
X2090Y1742D01*
X2086Y1737D01*
X2085Y1731D01*
Y1701D01*
X2085Y1701D01*
X2072Y1693D01*
X2063Y1680D01*
X2060Y1664D01*
X2063Y1649D01*
X2072Y1636D01*
X2085Y1627D01*
X2100Y1624D01*
X2116Y1627D01*
X2129Y1636D01*
X2131Y1639D01*
X2136Y1637D01*
Y1621D01*
X2116Y1601D01*
X2116Y1601D01*
X2100Y1604D01*
X2085Y1601D01*
X2072Y1593D01*
X2063Y1580D01*
X2060Y1564D01*
X2063Y1549D01*
X2072Y1536D01*
X2085Y1527D01*
X2100Y1524D01*
X2116Y1527D01*
X2129Y1536D01*
X2138Y1549D01*
X2141Y1564D01*
X2138Y1580D01*
X2138Y1580D01*
X2162Y1604D01*
X2165Y1609D01*
X2166Y1615D01*
Y1635D01*
X2171Y1637D01*
X2172Y1636D01*
X2185Y1627D01*
X2200Y1624D01*
X2216Y1627D01*
X2227Y1634D01*
X2232Y1632D01*
Y1617D01*
X2216Y1601D01*
X2216Y1601D01*
X2200Y1604D01*
X2185Y1601D01*
X2172Y1593D01*
X2163Y1580D01*
X2160Y1564D01*
X2163Y1549D01*
X2172Y1536D01*
X2185Y1527D01*
X2200Y1524D01*
X2216Y1527D01*
X2229Y1536D01*
X2238Y1549D01*
X2241Y1564D01*
X2238Y1580D01*
X2238Y1580D01*
X2258Y1600D01*
X2261Y1605D01*
X2262Y1611D01*
Y1624D01*
X2294D01*
Y1664D01*
Y1705D01*
X2262D01*
Y1732D01*
X2704Y2174D01*
X2832D01*
X2839Y2164D01*
X2850Y2156D01*
X2864Y2153D01*
X2877Y2156D01*
X2878Y2156D01*
X2879Y2150D01*
X2872Y2143D01*
X2785D01*
X2779Y2142D01*
X2774Y2139D01*
X2467Y1831D01*
X2455Y1834D01*
X2441Y1831D01*
X2430Y1823D01*
X2422Y1812D01*
X2419Y1798D01*
X2422Y1784D01*
X2430Y1773D01*
X2441Y1765D01*
X2455Y1762D01*
X2469Y1765D01*
X2480Y1773D01*
X2488Y1784D01*
X2491Y1798D01*
X2488Y1810D01*
X2791Y2113D01*
X2878D01*
X2884Y2114D01*
X2889Y2117D01*
X2915Y2143D01*
X2919Y2141D01*
X2919Y2137D01*
X2921Y2124D01*
X2929Y2112D01*
X2941Y2104D01*
X2954Y2102D01*
X2968Y2104D01*
X2980Y2112D01*
X2986Y2122D01*
X3089D01*
X3095Y2123D01*
X3100Y2127D01*
X3177Y2203D01*
X3182Y2201D01*
Y2188D01*
X3090Y2096D01*
X2946D01*
X2940Y2095D01*
X2935Y2092D01*
X2655Y1812D01*
X2652Y1807D01*
X2651Y1801D01*
Y1788D01*
X2641Y1781D01*
X2633Y1770D01*
X2630Y1756D01*
X2633Y1742D01*
X2641Y1731D01*
X2652Y1723D01*
X2666Y1720D01*
X2680Y1723D01*
X2691Y1731D01*
X2699Y1742D01*
X2702Y1756D01*
X2699Y1770D01*
X2691Y1781D01*
X2681Y1788D01*
Y1795D01*
X2952Y2066D01*
X3096D01*
X3102Y2067D01*
X3107Y2070D01*
X3208Y2171D01*
X3211Y2176D01*
X3212Y2182D01*
Y2593D01*
X3212Y2594D01*
Y2631D01*
X3213Y2632D01*
X3220Y2631D01*
X3220Y2630D01*
X3334Y2517D01*
Y2412D01*
X3320Y2399D01*
X3308D01*
X3308Y2400D01*
X3298Y2414D01*
X3284Y2423D01*
X3268Y2427D01*
X3251Y2423D01*
X3237Y2414D01*
X3228Y2400D01*
X3224Y2383D01*
X3228Y2367D01*
X3237Y2353D01*
X3251Y2343D01*
X3268Y2340D01*
X3284Y2343D01*
X3298Y2353D01*
X3308Y2367D01*
X3308Y2368D01*
X3326D01*
X3332Y2369D01*
X3337Y2373D01*
X3360Y2395D01*
X3363Y2400D01*
X3364Y2406D01*
Y2523D01*
X3363Y2529D01*
X3360Y2534D01*
X3246Y2647D01*
Y2959D01*
X3250Y2962D01*
X3254Y2961D01*
X3268Y2964D01*
X3279Y2972D01*
X3287Y2983D01*
X3290Y2997D01*
X3287Y3011D01*
X3279Y3022D01*
X3268Y3030D01*
X3254Y3033D01*
X3240Y3030D01*
X3229Y3022D01*
X3221Y3011D01*
X3218Y2997D01*
X3221Y2985D01*
X3220Y2985D01*
X3220Y2984D01*
X3213Y2983D01*
X3212Y2984D01*
Y3040D01*
X3217Y3042D01*
X3223Y3038D01*
X3237Y3035D01*
X3251Y3038D01*
X3262Y3046D01*
X3263Y3047D01*
X3268Y3045D01*
Y3037D01*
X3347D01*
Y3058D01*
X3367D01*
X3373Y3059D01*
X3378Y3062D01*
X3411Y3095D01*
X3508D01*
X3510Y3090D01*
X3503Y3085D01*
X3495Y3074D01*
X3492Y3060D01*
X3495Y3046D01*
X3503Y3035D01*
X3514Y3027D01*
X3528Y3024D01*
X3542Y3027D01*
X3553Y3035D01*
X3560Y3045D01*
X4024D01*
X4030Y3046D01*
X4035Y3049D01*
X4093Y3108D01*
X4105Y3105D01*
X4119Y3108D01*
X4130Y3116D01*
X4138Y3127D01*
X4141Y3141D01*
X4138Y3155D01*
X4130Y3166D01*
X4119Y3174D01*
X4105Y3177D01*
X4091Y3174D01*
X4080Y3166D01*
X4072Y3155D01*
X4069Y3141D01*
X4072Y3129D01*
X4018Y3075D01*
X3678D01*
X3676Y3080D01*
X3683Y3085D01*
X3691Y3097D01*
X3694Y3110D01*
X3691Y3124D01*
X3683Y3135D01*
X3681Y3137D01*
X3683Y3142D01*
X3946D01*
X3953Y3132D01*
X3964Y3124D01*
X3978Y3121D01*
X3992Y3124D01*
X4003Y3132D01*
X4011Y3143D01*
X4014Y3157D01*
X4011Y3171D01*
X4003Y3182D01*
X3992Y3190D01*
X3978Y3193D01*
X3964Y3190D01*
X3953Y3182D01*
X3946Y3172D01*
X3505D01*
X3499Y3181D01*
X3490Y3188D01*
X3491Y3193D01*
X3530D01*
X3536Y3194D01*
X3541Y3197D01*
X3553Y3210D01*
X3557Y3215D01*
X3558Y3220D01*
Y3229D01*
X3578D01*
Y3309D01*
X3558D01*
Y3309D01*
X3557Y3314D01*
X3553Y3319D01*
X3538Y3334D01*
X3541Y3346D01*
X3538Y3360D01*
X3530Y3371D01*
X3519Y3379D01*
X3505Y3382D01*
X3493Y3379D01*
X3419Y3454D01*
X3414Y3457D01*
X3408Y3458D01*
X3100D01*
X3093Y3468D01*
X3083Y3475D01*
Y3500D01*
X3087Y3504D01*
X3106D01*
X3111Y3503D01*
X3113Y3503D01*
X3142D01*
Y3543D01*
Y3584D01*
X3113D01*
X3111Y3584D01*
X3106Y3583D01*
X3037D01*
Y3504D01*
X3053D01*
Y3475D01*
X3043Y3468D01*
X3036Y3458D01*
X3030D01*
X3024Y3457D01*
X3019Y3454D01*
X2999Y3434D01*
X2996Y3429D01*
X2995Y3423D01*
Y3390D01*
X2991Y3386D01*
X2976D01*
X2972Y3387D01*
X2970Y3387D01*
X2941D01*
Y3346D01*
Y3306D01*
X2970D01*
X2972Y3306D01*
X2976Y3307D01*
X3045D01*
Y3386D01*
X3025D01*
Y3417D01*
X3033Y3425D01*
X3038Y3424D01*
X3043Y3418D01*
X3054Y3410D01*
X3068Y3407D01*
X3082Y3410D01*
X3093Y3418D01*
X3100Y3428D01*
X3402D01*
X3472Y3358D01*
X3469Y3346D01*
X3472Y3332D01*
X3480Y3321D01*
X3489Y3315D01*
X3488Y3310D01*
X3474D01*
Y3269D01*
Y3228D01*
X3502D01*
X3504Y3228D01*
X3509Y3229D01*
X3518D01*
X3521Y3224D01*
X3520Y3223D01*
X3443D01*
X3437Y3222D01*
X3432Y3219D01*
X3394Y3181D01*
X3391Y3176D01*
X3390Y3170D01*
Y3117D01*
X3360Y3088D01*
X3347D01*
Y3108D01*
X3348Y3111D01*
X3348D01*
X3348Y3113D01*
Y3142D01*
X3307D01*
Y3154D01*
X3348D01*
Y3180D01*
X3369D01*
X3375Y3181D01*
X3380Y3184D01*
X3407Y3211D01*
X3410Y3216D01*
X3411Y3222D01*
Y3296D01*
X3421Y3303D01*
X3425Y3309D01*
X3426Y3309D01*
X3431Y3306D01*
X3431Y3305D01*
Y3275D01*
X3462D01*
Y3310D01*
X3436D01*
X3433Y3310D01*
X3432Y3310D01*
X3429Y3312D01*
X3429Y3313D01*
X3429Y3314D01*
X3429Y3315D01*
X3432Y3328D01*
X3429Y3342D01*
X3421Y3353D01*
X3410Y3361D01*
X3396Y3364D01*
X3382Y3361D01*
X3371Y3353D01*
X3363Y3342D01*
X3360Y3328D01*
X3363Y3314D01*
X3371Y3303D01*
X3381Y3296D01*
Y3290D01*
X3376Y3288D01*
X3372Y3293D01*
X3361Y3301D01*
X3347Y3304D01*
X3333Y3301D01*
X3322Y3293D01*
X3317Y3286D01*
X3311D01*
X3305Y3294D01*
X3294Y3302D01*
X3280Y3305D01*
X3266Y3302D01*
X3255Y3294D01*
X3248Y3284D01*
X3222D01*
X3216Y3283D01*
X3211Y3280D01*
X3120Y3189D01*
X3120Y3189D01*
X3115Y3190D01*
Y3214D01*
X3114Y3220D01*
X3111Y3225D01*
X3076Y3260D01*
X3071Y3263D01*
X3065Y3264D01*
X3013D01*
X3006Y3274D01*
X2995Y3282D01*
X2981Y3285D01*
X2967Y3282D01*
X2956Y3274D01*
X2948Y3263D01*
X2945Y3249D01*
X2948Y3235D01*
X2956Y3224D01*
X2967Y3216D01*
X2981Y3213D01*
X2995Y3216D01*
X3006Y3224D01*
X3013Y3234D01*
X3059D01*
X3085Y3208D01*
Y3074D01*
X3080Y3073D01*
X3077Y3076D01*
X3066Y3084D01*
X3052Y3087D01*
X3039Y3084D01*
X3027Y3076D01*
X3019Y3065D01*
X3016Y3051D01*
X3019Y3038D01*
X3027Y3026D01*
X3037Y3019D01*
Y2817D01*
X3007Y2786D01*
X2995Y2789D01*
X2981Y2786D01*
X2970Y2778D01*
X2962Y2767D01*
X2959Y2753D01*
X2962Y2739D01*
X2970Y2728D01*
X2981Y2720D01*
X2995Y2717D01*
X3009Y2720D01*
X3020Y2728D01*
X3028Y2739D01*
X3031Y2753D01*
X3028Y2765D01*
X3063Y2799D01*
X3066Y2804D01*
X3067Y2810D01*
Y3019D01*
X3077Y3026D01*
X3080Y3030D01*
X3085Y3028D01*
Y2438D01*
X3013Y2366D01*
X2553D01*
X2552Y2367D01*
X2551Y2371D01*
X2568Y2389D01*
X2572Y2394D01*
X2573Y2399D01*
Y2401D01*
X2574Y2401D01*
X2588Y2410D01*
X2597Y2424D01*
X2601Y2441D01*
X2597Y2458D01*
X2588Y2472D01*
X2574Y2481D01*
X2557Y2484D01*
X2541Y2481D01*
X2527Y2472D01*
X2517Y2458D01*
X2514Y2441D01*
X2517Y2424D01*
X2527Y2410D01*
X2535Y2405D01*
X2536Y2400D01*
X2532Y2396D01*
X2504D01*
X2500Y2398D01*
X2500Y2401D01*
Y2483D01*
X2473D01*
Y2491D01*
X3005Y3023D01*
X3008Y3028D01*
X3009Y3034D01*
Y3069D01*
X3038Y3098D01*
X3042Y3103D01*
X3042Y3104D01*
X3069D01*
Y3195D01*
X2986D01*
Y3104D01*
X2995D01*
X2997Y3100D01*
X2988Y3090D01*
X2907D01*
X2901Y3099D01*
X2903Y3104D01*
X2959D01*
Y3195D01*
X2933D01*
Y3200D01*
X2931Y3206D01*
X2928Y3210D01*
X2884Y3254D01*
Y3381D01*
X2933Y3429D01*
X2936Y3434D01*
X2937Y3440D01*
Y3473D01*
X2947Y3480D01*
X2955Y3491D01*
X2958Y3505D01*
X2955Y3519D01*
X2947Y3530D01*
X2936Y3538D01*
X2922Y3541D01*
X2910Y3538D01*
X2896Y3552D01*
X2892Y3555D01*
X2886Y3557D01*
X2874D01*
Y3577D01*
X2850D01*
Y3619D01*
X2849Y3625D01*
X2845Y3630D01*
X2809Y3667D01*
X2804Y3670D01*
X2798Y3671D01*
D02*
G37*
G36*
X1821Y3025D02*
X1784D01*
Y2967D01*
X1821D01*
Y3025D01*
D02*
G37*
G36*
X1869D02*
X1833D01*
Y2967D01*
X1869D01*
Y3025D01*
D02*
G37*
G36*
X1622Y2980D02*
X1608Y2977D01*
X1597Y2969D01*
X1590Y2959D01*
X1224D01*
Y2979D01*
X1139D01*
Y2894D01*
X1224D01*
Y2929D01*
X1590D01*
X1597Y2919D01*
X1608Y2911D01*
X1622Y2908D01*
X1635Y2911D01*
X1647Y2919D01*
X1655Y2930D01*
X1658Y2944D01*
X1655Y2957D01*
X1647Y2969D01*
X1635Y2977D01*
X1622Y2980D01*
D02*
G37*
G36*
X4454Y3094D02*
X4426Y3091D01*
X4399Y3080D01*
X4377Y3062D01*
X4359Y3040D01*
X4348Y3013D01*
X4345Y2985D01*
X4348Y2957D01*
X4359Y2930D01*
X4377Y2908D01*
X4399Y2890D01*
X4426Y2879D01*
X4454Y2876D01*
X4482Y2879D01*
X4509Y2890D01*
X4531Y2908D01*
X4549Y2930D01*
X4560Y2957D01*
X4563Y2985D01*
X4560Y3013D01*
X4549Y3040D01*
X4531Y3062D01*
X4509Y3080D01*
X4482Y3091D01*
X4454Y3094D01*
D02*
G37*
G36*
X5433Y2975D02*
X5416Y2972D01*
X5402Y2962D01*
X5393Y2948D01*
X5390Y2931D01*
X5393Y2915D01*
X5402Y2901D01*
X5416Y2891D01*
X5433Y2888D01*
X5450Y2891D01*
X5464Y2901D01*
X5473Y2915D01*
X5476Y2931D01*
X5473Y2948D01*
X5464Y2962D01*
X5450Y2972D01*
X5433Y2975D01*
D02*
G37*
G36*
Y3075D02*
X5416Y3072D01*
X5402Y3062D01*
X5393Y3048D01*
X5390Y3031D01*
X5393Y3015D01*
X5402Y3001D01*
X5416Y2991D01*
X5433Y2988D01*
X5450Y2991D01*
X5464Y3001D01*
X5473Y3015D01*
X5476Y3031D01*
X5473Y3048D01*
X5464Y3062D01*
X5450Y3072D01*
X5433Y3075D01*
D02*
G37*
G36*
X1418Y3087D02*
X1384D01*
Y3056D01*
X1418D01*
Y3087D01*
D02*
G37*
G36*
X5433Y3175D02*
X5416Y3172D01*
X5402Y3162D01*
X5393Y3148D01*
X5390Y3131D01*
X5393Y3115D01*
X5402Y3101D01*
X5416Y3091D01*
X5433Y3088D01*
X5450Y3091D01*
X5464Y3101D01*
X5473Y3115D01*
X5476Y3131D01*
X5473Y3148D01*
X5464Y3162D01*
X5450Y3172D01*
X5433Y3175D01*
D02*
G37*
G36*
X1372Y3087D02*
X1337D01*
Y3056D01*
X1372D01*
Y3087D01*
D02*
G37*
G36*
X1821Y3096D02*
X1784D01*
Y3037D01*
X1821D01*
Y3096D01*
D02*
G37*
G36*
X1869D02*
X1833D01*
Y3037D01*
X1869D01*
Y3096D01*
D02*
G37*
G36*
X1694Y1604D02*
X1685Y1602D01*
X1671Y1593D01*
X1662Y1580D01*
X1660Y1570D01*
X1694D01*
Y1604D01*
D02*
G37*
G36*
X1706D02*
Y1570D01*
X1741D01*
X1739Y1580D01*
X1730Y1593D01*
X1716Y1602D01*
X1706Y1604D01*
D02*
G37*
G36*
X3583Y1617D02*
X3498D01*
Y1532D01*
X3583D01*
Y1617D01*
D02*
G37*
G36*
X4610Y1569D02*
X4573D01*
Y1532D01*
X4584Y1534D01*
X4598Y1543D01*
X4608Y1558D01*
X4610Y1569D01*
D02*
G37*
G36*
X2716Y1617D02*
X2632D01*
Y1532D01*
X2716D01*
Y1617D01*
D02*
G37*
G36*
X4561Y1618D02*
X4550Y1616D01*
X4536Y1606D01*
X4526Y1592D01*
X4524Y1581D01*
X4561D01*
Y1618D01*
D02*
G37*
G36*
X2341Y1658D02*
X2306D01*
Y1624D01*
X2341D01*
Y1658D01*
D02*
G37*
G36*
X3393Y1704D02*
X3380Y1702D01*
X3368Y1694D01*
X3360Y1682D01*
X3358Y1669D01*
X3360Y1655D01*
X3368Y1643D01*
X3380Y1636D01*
X3393Y1633D01*
X3407Y1636D01*
X3419Y1643D01*
X3426Y1655D01*
X3429Y1669D01*
X3426Y1682D01*
X3419Y1694D01*
X3407Y1702D01*
X3393Y1704D01*
D02*
G37*
G36*
X5124Y1618D02*
Y1581D01*
X5161D01*
X5159Y1592D01*
X5149Y1606D01*
X5135Y1616D01*
X5124Y1618D01*
D02*
G37*
G36*
X4573D02*
Y1581D01*
X4610D01*
X4608Y1592D01*
X4598Y1606D01*
X4584Y1616D01*
X4573Y1618D01*
D02*
G37*
G36*
X5112D02*
X5101Y1616D01*
X5087Y1606D01*
X5077Y1592D01*
X5075Y1581D01*
X5112D01*
Y1618D01*
D02*
G37*
G36*
X4561Y1569D02*
X4524D01*
X4526Y1558D01*
X4536Y1543D01*
X4550Y1534D01*
X4561Y1532D01*
Y1569D01*
D02*
G37*
G36*
X1741Y1558D02*
X1706D01*
Y1524D01*
X1716Y1526D01*
X1730Y1535D01*
X1739Y1548D01*
X1741Y1558D01*
D02*
G37*
G36*
X2774Y1618D02*
X2757Y1615D01*
X2743Y1605D01*
X2734Y1591D01*
X2731Y1575D01*
X2734Y1558D01*
X2743Y1544D01*
X2757Y1535D01*
X2774Y1531D01*
X2791Y1535D01*
X2805Y1544D01*
X2814Y1558D01*
X2817Y1575D01*
X2814Y1591D01*
X2805Y1605D01*
X2791Y1615D01*
X2774Y1618D01*
D02*
G37*
G36*
X1694Y1558D02*
X1660D01*
X1662Y1548D01*
X1671Y1535D01*
X1685Y1526D01*
X1694Y1524D01*
Y1558D01*
D02*
G37*
G36*
X1142Y1645D02*
X1113Y1641D01*
X1087Y1630D01*
X1064Y1613D01*
X1047Y1590D01*
X1036Y1564D01*
X1032Y1535D01*
X1036Y1507D01*
X1047Y1481D01*
X1064Y1458D01*
X1087Y1441D01*
X1113Y1430D01*
X1142Y1426D01*
X1170Y1430D01*
X1196Y1441D01*
X1219Y1458D01*
X1236Y1481D01*
X1247Y1507D01*
X1251Y1535D01*
X1247Y1564D01*
X1236Y1590D01*
X1219Y1613D01*
X1196Y1630D01*
X1170Y1641D01*
X1142Y1645D01*
D02*
G37*
G36*
X5472D02*
X5444Y1641D01*
X5418Y1630D01*
X5395Y1613D01*
X5378Y1590D01*
X5367Y1564D01*
X5363Y1535D01*
X5367Y1507D01*
X5378Y1481D01*
X5395Y1458D01*
X5418Y1441D01*
X5444Y1430D01*
X5472Y1426D01*
X5501Y1430D01*
X5527Y1441D01*
X5550Y1458D01*
X5567Y1481D01*
X5578Y1507D01*
X5582Y1535D01*
X5578Y1564D01*
X5567Y1590D01*
X5550Y1613D01*
X5527Y1630D01*
X5501Y1641D01*
X5472Y1645D01*
D02*
G37*
G36*
X2874Y1618D02*
X2857Y1615D01*
X2843Y1605D01*
X2834Y1591D01*
X2831Y1575D01*
X2834Y1558D01*
X2843Y1544D01*
X2857Y1535D01*
X2874Y1531D01*
X2891Y1535D01*
X2905Y1544D01*
X2914Y1558D01*
X2917Y1575D01*
X2914Y1591D01*
X2905Y1605D01*
X2891Y1615D01*
X2874Y1618D01*
D02*
G37*
G36*
X3940D02*
X3924Y1615D01*
X3910Y1605D01*
X3900Y1591D01*
X3897Y1575D01*
X3900Y1558D01*
X3910Y1544D01*
X3924Y1535D01*
X3940Y1531D01*
X3957Y1535D01*
X3971Y1544D01*
X3980Y1558D01*
X3983Y1575D01*
X3980Y1591D01*
X3971Y1605D01*
X3957Y1615D01*
X3940Y1618D01*
D02*
G37*
G36*
X3752Y1983D02*
X3738Y1980D01*
X3727Y1972D01*
X3719Y1961D01*
X3716Y1947D01*
X3719Y1933D01*
X3727Y1922D01*
X3738Y1914D01*
X3752Y1911D01*
X3766Y1914D01*
X3777Y1922D01*
X3784Y1932D01*
X3982D01*
X4025Y1889D01*
Y1615D01*
X4024Y1615D01*
X4010Y1605D01*
X4000Y1591D01*
X3997Y1575D01*
X4000Y1558D01*
X4010Y1544D01*
X4024Y1535D01*
X4040Y1531D01*
X4057Y1535D01*
X4071Y1544D01*
X4080Y1558D01*
X4083Y1575D01*
X4080Y1591D01*
X4071Y1605D01*
X4057Y1615D01*
X4055Y1615D01*
Y1895D01*
X4054Y1901D01*
X4051Y1906D01*
X3999Y1958D01*
X3994Y1961D01*
X3988Y1962D01*
X3784D01*
X3777Y1972D01*
X3766Y1980D01*
X3752Y1983D01*
D02*
G37*
G36*
X3058D02*
X3044Y1980D01*
X3033Y1972D01*
X3025Y1961D01*
X3022Y1947D01*
X3025Y1933D01*
X3033Y1922D01*
X3044Y1914D01*
X3058Y1911D01*
X3070Y1914D01*
X3159Y1825D01*
Y1615D01*
X3157Y1615D01*
X3143Y1605D01*
X3134Y1591D01*
X3131Y1575D01*
X3134Y1558D01*
X3143Y1544D01*
X3157Y1535D01*
X3174Y1531D01*
X3191Y1535D01*
X3205Y1544D01*
X3214Y1558D01*
X3217Y1575D01*
X3214Y1591D01*
X3205Y1605D01*
X3191Y1615D01*
X3189Y1615D01*
Y1831D01*
X3188Y1837D01*
X3185Y1842D01*
X3091Y1935D01*
X3094Y1947D01*
X3091Y1961D01*
X3083Y1972D01*
X3072Y1980D01*
X3058Y1983D01*
D02*
G37*
G36*
X2974Y1618D02*
X2957Y1615D01*
X2943Y1605D01*
X2934Y1591D01*
X2931Y1575D01*
X2934Y1558D01*
X2943Y1544D01*
X2957Y1535D01*
X2974Y1531D01*
X2991Y1535D01*
X3005Y1544D01*
X3014Y1558D01*
X3017Y1575D01*
X3014Y1591D01*
X3005Y1605D01*
X2991Y1615D01*
X2974Y1618D01*
D02*
G37*
G36*
X3074D02*
X3057Y1615D01*
X3043Y1605D01*
X3034Y1591D01*
X3031Y1575D01*
X3034Y1558D01*
X3043Y1544D01*
X3057Y1535D01*
X3074Y1531D01*
X3091Y1535D01*
X3105Y1544D01*
X3114Y1558D01*
X3117Y1575D01*
X3114Y1591D01*
X3105Y1605D01*
X3091Y1615D01*
X3074Y1618D01*
D02*
G37*
G36*
X3948Y1787D02*
X3934Y1784D01*
X3923Y1776D01*
X3915Y1765D01*
X3912Y1751D01*
X3915Y1737D01*
X3923Y1726D01*
X3933Y1719D01*
Y1674D01*
X3908Y1649D01*
X3603D01*
X3527Y1726D01*
X3529Y1738D01*
X3526Y1751D01*
X3519Y1763D01*
X3507Y1771D01*
X3493Y1773D01*
X3480Y1771D01*
X3468Y1763D01*
X3460Y1751D01*
X3458Y1738D01*
X3460Y1724D01*
X3468Y1712D01*
X3480Y1705D01*
X3493Y1702D01*
X3505Y1704D01*
X3586Y1623D01*
X3591Y1620D01*
X3597Y1619D01*
X3620D01*
X3622Y1614D01*
X3610Y1605D01*
X3600Y1591D01*
X3597Y1575D01*
X3600Y1558D01*
X3610Y1544D01*
X3624Y1535D01*
X3640Y1531D01*
X3657Y1535D01*
X3671Y1544D01*
X3680Y1558D01*
X3683Y1575D01*
X3680Y1591D01*
X3671Y1605D01*
X3658Y1614D01*
X3660Y1619D01*
X3720D01*
X3722Y1614D01*
X3710Y1605D01*
X3700Y1591D01*
X3697Y1575D01*
X3700Y1558D01*
X3710Y1544D01*
X3724Y1535D01*
X3740Y1531D01*
X3757Y1535D01*
X3771Y1544D01*
X3780Y1558D01*
X3783Y1575D01*
X3780Y1591D01*
X3771Y1605D01*
X3758Y1614D01*
X3760Y1619D01*
X3820D01*
X3822Y1614D01*
X3810Y1605D01*
X3800Y1591D01*
X3797Y1575D01*
X3800Y1558D01*
X3810Y1544D01*
X3824Y1535D01*
X3840Y1531D01*
X3857Y1535D01*
X3871Y1544D01*
X3880Y1558D01*
X3883Y1575D01*
X3880Y1591D01*
X3871Y1605D01*
X3858Y1614D01*
X3860Y1619D01*
X3914D01*
X3920Y1620D01*
X3925Y1623D01*
X3959Y1657D01*
X3962Y1662D01*
X3963Y1668D01*
Y1719D01*
X3973Y1726D01*
X3981Y1737D01*
X3984Y1751D01*
X3981Y1765D01*
X3973Y1776D01*
X3962Y1784D01*
X3948Y1787D01*
D02*
G37*
G36*
X5126Y2409D02*
X5063D01*
X5054Y2408D01*
X5047Y2403D01*
X5042Y2396D01*
X5041Y2387D01*
X5042Y2379D01*
X5047Y2371D01*
X5054Y2367D01*
X5063Y2365D01*
X5126D01*
X5134Y2367D01*
X5142Y2371D01*
X5142Y2372D01*
X5195D01*
X5243Y2325D01*
Y2301D01*
X5218D01*
Y2231D01*
X5218Y2230D01*
Y2226D01*
X5218Y2225D01*
Y2206D01*
X5206D01*
X5199Y2212D01*
Y2314D01*
X5198Y2320D01*
X5195Y2325D01*
X5172Y2348D01*
X5167Y2351D01*
X5161Y2352D01*
X5142D01*
X5142Y2353D01*
X5134Y2358D01*
X5126Y2359D01*
X5063D01*
X5054Y2358D01*
X5047Y2353D01*
X5042Y2346D01*
X5041Y2337D01*
X5042Y2329D01*
X5047Y2321D01*
X5054Y2317D01*
X5063Y2315D01*
X5126D01*
X5134Y2317D01*
X5142Y2321D01*
X5142Y2322D01*
X5154D01*
X5169Y2308D01*
Y2206D01*
X5170Y2200D01*
X5173Y2195D01*
X5189Y2180D01*
X5194Y2176D01*
X5199Y2175D01*
X5218D01*
Y2155D01*
X5298D01*
Y2225D01*
X5298Y2226D01*
Y2230D01*
X5298Y2231D01*
Y2301D01*
X5273D01*
Y2331D01*
X5272Y2337D01*
X5269Y2342D01*
X5213Y2398D01*
X5208Y2401D01*
X5202Y2402D01*
X5142D01*
X5142Y2403D01*
X5134Y2408D01*
X5126Y2409D01*
D02*
G37*
G36*
X4804Y2265D02*
X4790Y2262D01*
X4779Y2254D01*
X4771Y2243D01*
X4768Y2229D01*
X4771Y2216D01*
X4779Y2204D01*
X4790Y2196D01*
X4804Y2194D01*
X4817Y2196D01*
X4829Y2204D01*
X4837Y2216D01*
X4838Y2222D01*
X4858D01*
X4858Y2221D01*
X4866Y2217D01*
X4874Y2215D01*
X4937D01*
X4946Y2217D01*
X4953Y2221D01*
X4958Y2229D01*
X4959Y2237D01*
X4958Y2246D01*
X4953Y2253D01*
X4946Y2258D01*
X4937Y2259D01*
X4874D01*
X4866Y2258D01*
X4858Y2253D01*
X4858Y2252D01*
X4830D01*
X4829Y2254D01*
X4817Y2262D01*
X4804Y2265D01*
D02*
G37*
G36*
X4094Y2287D02*
X4078Y2284D01*
X4064Y2275D01*
X4054Y2261D01*
X4051Y2244D01*
X4054Y2228D01*
X4064Y2213D01*
X4078Y2204D01*
X4094Y2201D01*
X4111Y2204D01*
X4125Y2213D01*
X4135Y2228D01*
X4138Y2244D01*
X4135Y2261D01*
X4125Y2275D01*
X4111Y2284D01*
X4094Y2287D01*
D02*
G37*
G36*
Y2187D02*
X4078Y2184D01*
X4064Y2175D01*
X4054Y2161D01*
X4051Y2144D01*
X4054Y2128D01*
X4064Y2113D01*
X4078Y2104D01*
X4094Y2101D01*
X4111Y2104D01*
X4125Y2113D01*
X4135Y2128D01*
X4138Y2144D01*
X4135Y2161D01*
X4125Y2175D01*
X4111Y2184D01*
X4094Y2187D01*
D02*
G37*
G36*
X3672Y2179D02*
X3658Y2176D01*
X3647Y2168D01*
X3639Y2157D01*
X3636Y2143D01*
X3639Y2129D01*
X3647Y2118D01*
X3658Y2110D01*
X3672Y2107D01*
X3686Y2110D01*
X3697Y2118D01*
X3705Y2129D01*
X3708Y2143D01*
X3705Y2157D01*
X3697Y2168D01*
X3686Y2176D01*
X3672Y2179D01*
D02*
G37*
G36*
X5126Y2309D02*
X5063D01*
X5054Y2308D01*
X5047Y2303D01*
X5047Y2302D01*
X5033D01*
X5027Y2301D01*
X5022Y2298D01*
X4970Y2246D01*
X4967Y2241D01*
X4966Y2235D01*
Y2149D01*
X4958Y2141D01*
X4664D01*
X4652Y2154D01*
X4654Y2159D01*
X4675D01*
Y2228D01*
X4676Y2233D01*
X4676Y2235D01*
Y2263D01*
X4594D01*
Y2235D01*
X4594Y2233D01*
X4595Y2228D01*
Y2159D01*
X4620D01*
Y2149D01*
X4621Y2143D01*
X4624Y2138D01*
X4647Y2115D01*
X4652Y2112D01*
X4658Y2111D01*
X4964D01*
X4970Y2112D01*
X4975Y2115D01*
X4992Y2132D01*
X4995Y2137D01*
X4996Y2143D01*
Y2229D01*
X5040Y2272D01*
X5047D01*
X5047Y2271D01*
X5054Y2267D01*
X5063Y2265D01*
X5126D01*
X5134Y2267D01*
X5142Y2271D01*
X5147Y2279D01*
X5148Y2287D01*
X5147Y2296D01*
X5142Y2303D01*
X5134Y2308D01*
X5126Y2309D01*
D02*
G37*
G36*
X1225Y2340D02*
X1187D01*
Y2302D01*
X1225D01*
Y2340D01*
D02*
G37*
G36*
X4675Y2436D02*
X4593D01*
Y2405D01*
X4500D01*
X4494Y2404D01*
X4489Y2401D01*
X4401Y2313D01*
X4398Y2308D01*
X4397Y2302D01*
Y1902D01*
X4382Y1887D01*
X4370Y1890D01*
X4356Y1887D01*
X4345Y1879D01*
X4337Y1868D01*
X4334Y1854D01*
X4337Y1840D01*
X4345Y1829D01*
X4352Y1824D01*
Y1617D01*
X4324D01*
Y1532D01*
X4409D01*
Y1617D01*
X4382D01*
Y1821D01*
X4384Y1821D01*
X4395Y1829D01*
X4403Y1840D01*
X4406Y1854D01*
X4403Y1866D01*
X4423Y1885D01*
X4426Y1890D01*
X4427Y1896D01*
Y2296D01*
X4457Y2325D01*
X4462Y2323D01*
X4462Y2323D01*
Y1849D01*
X4446Y1833D01*
X4434Y1836D01*
X4420Y1833D01*
X4409Y1825D01*
X4401Y1814D01*
X4398Y1800D01*
X4401Y1786D01*
X4409Y1775D01*
X4420Y1767D01*
X4434Y1764D01*
X4448Y1767D01*
X4459Y1775D01*
X4467Y1786D01*
X4470Y1800D01*
X4467Y1812D01*
X4488Y1832D01*
X4491Y1837D01*
X4492Y1843D01*
Y2317D01*
X4519Y2344D01*
X4546D01*
X4547Y2343D01*
X4548Y2339D01*
X4522Y2313D01*
X4519Y2308D01*
X4518Y2302D01*
Y1971D01*
X4519Y1965D01*
X4522Y1960D01*
X4539Y1944D01*
X4536Y1932D01*
X4539Y1918D01*
X4547Y1907D01*
X4558Y1899D01*
X4572Y1896D01*
X4586Y1899D01*
X4597Y1907D01*
X4605Y1918D01*
X4608Y1932D01*
X4605Y1946D01*
X4597Y1957D01*
X4586Y1965D01*
X4572Y1968D01*
X4560Y1965D01*
X4548Y1977D01*
Y2296D01*
X4566Y2314D01*
X4683D01*
X4701Y2296D01*
Y2202D01*
X4702Y2196D01*
X4705Y2191D01*
X4744Y2152D01*
X4749Y2149D01*
X4755Y2148D01*
X4822D01*
X4828Y2149D01*
X4833Y2152D01*
X4853Y2172D01*
X4858D01*
X4858Y2171D01*
X4866Y2167D01*
X4874Y2165D01*
X4937D01*
X4946Y2167D01*
X4953Y2171D01*
X4958Y2179D01*
X4959Y2187D01*
X4958Y2196D01*
X4953Y2203D01*
X4946Y2208D01*
X4937Y2209D01*
X4874D01*
X4866Y2208D01*
X4858Y2203D01*
X4858Y2202D01*
X4846D01*
X4840Y2201D01*
X4835Y2198D01*
X4816Y2178D01*
X4761D01*
X4731Y2208D01*
Y2302D01*
X4730Y2308D01*
X4727Y2313D01*
X4701Y2339D01*
X4702Y2343D01*
X4703Y2344D01*
X4714D01*
X4781Y2276D01*
X4786Y2273D01*
X4792Y2272D01*
X4858D01*
X4858Y2271D01*
X4866Y2267D01*
X4874Y2265D01*
X4937D01*
X4946Y2267D01*
X4953Y2271D01*
X4958Y2279D01*
X4959Y2287D01*
X4958Y2296D01*
X4953Y2303D01*
X4946Y2308D01*
X4937Y2309D01*
X4874D01*
X4866Y2308D01*
X4858Y2303D01*
X4858Y2302D01*
X4798D01*
X4783Y2317D01*
X4786Y2322D01*
X4786Y2322D01*
X4858D01*
X4858Y2321D01*
X4866Y2317D01*
X4874Y2315D01*
X4937D01*
X4946Y2317D01*
X4953Y2321D01*
X4958Y2329D01*
X4959Y2337D01*
X4958Y2346D01*
X4953Y2353D01*
X4946Y2358D01*
X4937Y2359D01*
X4874D01*
X4866Y2358D01*
X4858Y2353D01*
X4858Y2352D01*
X4792D01*
X4744Y2401D01*
X4739Y2404D01*
X4733Y2405D01*
X4678D01*
X4675Y2409D01*
Y2436D01*
D02*
G37*
G36*
X1175Y2340D02*
X1138D01*
Y2302D01*
X1175D01*
Y2340D01*
D02*
G37*
G36*
X4629Y2306D02*
X4594D01*
Y2275D01*
X4629D01*
Y2306D01*
D02*
G37*
G36*
X4676D02*
X4641D01*
Y2275D01*
X4676D01*
Y2306D01*
D02*
G37*
G36*
X4775Y2106D02*
X4761Y2103D01*
X4750Y2095D01*
X4744Y2087D01*
X4738D01*
X4734Y2092D01*
X4723Y2100D01*
X4709Y2103D01*
X4695Y2100D01*
X4684Y2092D01*
X4676Y2081D01*
X4673Y2067D01*
X4676Y2053D01*
X4684Y2042D01*
X4695Y2034D01*
X4709Y2031D01*
X4721Y2034D01*
X4769Y1985D01*
X4774Y1982D01*
X4780Y1981D01*
X4876D01*
X4903Y1954D01*
Y1932D01*
X4876D01*
Y1847D01*
X4961D01*
Y1932D01*
X4933D01*
Y1960D01*
X4932Y1966D01*
X4929Y1971D01*
X4893Y2007D01*
X4888Y2010D01*
X4882Y2011D01*
X4786D01*
X4767Y2031D01*
X4769Y2035D01*
X4775Y2034D01*
X4787Y2037D01*
X4802Y2021D01*
X4807Y2018D01*
X4813Y2017D01*
X4945D01*
X5003Y1959D01*
Y1930D01*
X5002Y1930D01*
X4987Y1920D01*
X4978Y1906D01*
X4975Y1890D01*
X4978Y1873D01*
X4987Y1859D01*
X5002Y1850D01*
X5018Y1846D01*
X5035Y1850D01*
X5049Y1859D01*
X5058Y1873D01*
X5061Y1890D01*
X5058Y1906D01*
X5049Y1920D01*
X5035Y1930D01*
X5033Y1930D01*
Y1965D01*
X5032Y1971D01*
X5029Y1976D01*
X4962Y2043D01*
X4957Y2046D01*
X4951Y2047D01*
X4819D01*
X4808Y2058D01*
X4811Y2070D01*
X4808Y2084D01*
X4800Y2095D01*
X4789Y2103D01*
X4775Y2106D01*
D02*
G37*
G36*
X5161Y1884D02*
X5124D01*
Y1847D01*
X5135Y1849D01*
X5149Y1858D01*
X5159Y1873D01*
X5161Y1884D01*
D02*
G37*
G36*
X5112Y1933D02*
X5101Y1931D01*
X5087Y1921D01*
X5077Y1907D01*
X5075Y1896D01*
X5112D01*
Y1933D01*
D02*
G37*
G36*
Y1884D02*
X5075D01*
X5077Y1873D01*
X5087Y1858D01*
X5101Y1849D01*
X5112Y1847D01*
Y1884D01*
D02*
G37*
G36*
X2341Y1705D02*
X2306D01*
Y1670D01*
X2341D01*
Y1705D01*
D02*
G37*
G36*
X3972Y1897D02*
X3958Y1894D01*
X3947Y1886D01*
X3939Y1875D01*
X3936Y1861D01*
X3939Y1849D01*
X3831Y1741D01*
X3671D01*
X3664Y1751D01*
X3653Y1759D01*
X3639Y1762D01*
X3625Y1759D01*
X3614Y1751D01*
X3606Y1740D01*
X3603Y1726D01*
X3606Y1712D01*
X3614Y1701D01*
X3625Y1693D01*
X3639Y1690D01*
X3653Y1693D01*
X3664Y1701D01*
X3671Y1711D01*
X3837D01*
X3843Y1712D01*
X3848Y1715D01*
X3960Y1828D01*
X3972Y1825D01*
X3986Y1828D01*
X3997Y1836D01*
X4005Y1847D01*
X4008Y1861D01*
X4005Y1875D01*
X3997Y1886D01*
X3986Y1894D01*
X3972Y1897D01*
D02*
G37*
G36*
X5124Y1933D02*
Y1896D01*
X5161D01*
X5159Y1907D01*
X5149Y1921D01*
X5135Y1931D01*
X5124Y1933D01*
D02*
G37*
G36*
X4088Y2088D02*
X4051D01*
Y2050D01*
X4088D01*
Y2088D01*
D02*
G37*
G36*
X4138D02*
X4100D01*
Y2050D01*
X4138D01*
Y2088D01*
D02*
G37*
G36*
X1181Y2289D02*
X1165Y2286D01*
X1150Y2276D01*
X1141Y2262D01*
X1138Y2246D01*
X1141Y2229D01*
X1150Y2215D01*
X1161Y2208D01*
Y2174D01*
X1162Y2166D01*
X1167Y2159D01*
X1204Y2122D01*
Y2093D01*
X1183D01*
Y2002D01*
X1266D01*
Y2093D01*
X1245D01*
Y2131D01*
X1243Y2138D01*
X1239Y2145D01*
X1201Y2182D01*
Y2208D01*
X1212Y2215D01*
X1221Y2229D01*
X1224Y2246D01*
X1221Y2262D01*
X1212Y2276D01*
X1198Y2286D01*
X1181Y2289D01*
D02*
G37*
G36*
X4088Y2038D02*
X4051D01*
Y2001D01*
X4088D01*
Y2038D01*
D02*
G37*
G36*
X4138D02*
X4100D01*
Y2001D01*
X4138D01*
Y2038D01*
D02*
G37*
G36*
X5476Y3325D02*
X5439D01*
Y3288D01*
X5450Y3291D01*
X5464Y3300D01*
X5474Y3315D01*
X5476Y3325D01*
D02*
G37*
G36*
X2175Y4271D02*
X2077D01*
Y4172D01*
X2175D01*
Y4271D01*
D02*
G37*
G36*
X1875Y4286D02*
X1857Y4282D01*
X1841Y4272D01*
X1831Y4256D01*
X1827Y4238D01*
X1831Y4219D01*
X1841Y4203D01*
X1857Y4193D01*
X1875Y4189D01*
X1894Y4193D01*
X1910Y4203D01*
X1920Y4219D01*
X1924Y4238D01*
X1920Y4256D01*
X1910Y4272D01*
X1894Y4282D01*
X1875Y4286D01*
D02*
G37*
G36*
X1669Y4232D02*
X1627D01*
X1630Y4219D01*
X1640Y4203D01*
X1657Y4192D01*
X1669Y4189D01*
Y4232D01*
D02*
G37*
G36*
X1856Y3963D02*
X1773D01*
Y3938D01*
X1671D01*
Y3963D01*
X1588D01*
Y3872D01*
X1671D01*
Y3897D01*
X1773D01*
Y3872D01*
X1800D01*
Y3860D01*
X1801Y3854D01*
X1804Y3849D01*
X1830Y3823D01*
X1835Y3820D01*
X1841Y3819D01*
X1991D01*
X1997Y3820D01*
X2002Y3823D01*
X2047Y3869D01*
X2235D01*
X2242Y3859D01*
X2253Y3851D01*
X2267Y3848D01*
X2281Y3851D01*
X2292Y3859D01*
X2300Y3870D01*
X2303Y3884D01*
X2300Y3898D01*
X2292Y3909D01*
X2281Y3917D01*
X2267Y3920D01*
X2253Y3917D01*
X2242Y3909D01*
X2235Y3899D01*
X2041D01*
X2035Y3898D01*
X2030Y3895D01*
X1985Y3849D01*
X1847D01*
X1830Y3866D01*
Y3872D01*
X1856D01*
Y3963D01*
D02*
G37*
G36*
X4916Y4239D02*
X4903Y4237D01*
X4891Y4229D01*
X4883Y4217D01*
X4881Y4204D01*
X4883Y4190D01*
X4891Y4178D01*
X4903Y4171D01*
X4916Y4168D01*
X4922Y4169D01*
X5045Y4047D01*
Y4032D01*
X5020D01*
Y3949D01*
X5110D01*
Y4032D01*
X5085D01*
Y4055D01*
X5084Y4063D01*
X5079Y4069D01*
X4951Y4198D01*
X4952Y4204D01*
X4949Y4217D01*
X4942Y4229D01*
X4930Y4237D01*
X4916Y4239D01*
D02*
G37*
G36*
X4858Y4091D02*
X4845Y4088D01*
X4833Y4080D01*
X4825Y4069D01*
X4823Y4055D01*
X4825Y4041D01*
X4833Y4030D01*
X4845Y4022D01*
X4858Y4019D01*
X4864Y4021D01*
X4876Y4009D01*
Y3951D01*
X4967D01*
Y4034D01*
X4909D01*
X4893Y4049D01*
X4894Y4055D01*
X4891Y4069D01*
X4884Y4080D01*
X4872Y4088D01*
X4858Y4091D01*
D02*
G37*
G36*
X1724Y4232D02*
X1681D01*
Y4189D01*
X1694Y4192D01*
X1710Y4203D01*
X1721Y4219D01*
X1724Y4232D01*
D02*
G37*
G36*
X1669Y4286D02*
X1657Y4283D01*
X1640Y4272D01*
X1630Y4256D01*
X1627Y4244D01*
X1669D01*
Y4286D01*
D02*
G37*
G36*
X1681D02*
Y4244D01*
X1724D01*
X1721Y4256D01*
X1710Y4272D01*
X1694Y4283D01*
X1681Y4286D01*
D02*
G37*
G36*
X3599Y4321D02*
X3565D01*
Y4287D01*
X3599D01*
Y4321D01*
D02*
G37*
G36*
Y4275D02*
X3565D01*
Y4240D01*
X3599D01*
Y4275D01*
D02*
G37*
G36*
X4105Y4321D02*
X4090Y4318D01*
X4077Y4309D01*
X4068Y4296D01*
X4065Y4281D01*
X4068Y4265D01*
X4077Y4252D01*
X4090Y4243D01*
X4105Y4240D01*
X4121Y4243D01*
X4134Y4252D01*
X4142Y4265D01*
X4145Y4281D01*
X4142Y4296D01*
X4134Y4309D01*
X4121Y4318D01*
X4105Y4321D01*
D02*
G37*
G36*
X4405D02*
X4390Y4318D01*
X4377Y4309D01*
X4368Y4296D01*
X4365Y4281D01*
X4368Y4265D01*
X4377Y4252D01*
X4390Y4243D01*
X4405Y4240D01*
X4421Y4243D01*
X4434Y4252D01*
X4442Y4265D01*
X4445Y4281D01*
X4442Y4296D01*
X4434Y4309D01*
X4421Y4318D01*
X4405Y4321D01*
D02*
G37*
G36*
X1968Y3964D02*
X1931D01*
Y3923D01*
X1968D01*
Y3964D01*
D02*
G37*
G36*
X3637Y3845D02*
X3579D01*
Y3808D01*
X3637D01*
Y3845D01*
D02*
G37*
G36*
X2921Y3903D02*
X2904Y3900D01*
X2890Y3891D01*
X2881Y3877D01*
X2878Y3860D01*
X2881Y3843D01*
X2890Y3829D01*
X2904Y3820D01*
X2921Y3817D01*
X2938Y3820D01*
X2952Y3829D01*
X2961Y3843D01*
X2964Y3860D01*
X2961Y3877D01*
X2952Y3891D01*
X2938Y3900D01*
X2921Y3903D01*
D02*
G37*
G36*
X3021D02*
X3004Y3900D01*
X2990Y3891D01*
X2981Y3877D01*
X2978Y3860D01*
X2981Y3843D01*
X2990Y3829D01*
X3004Y3820D01*
X3021Y3817D01*
X3038Y3820D01*
X3052Y3829D01*
X3061Y3843D01*
X3064Y3860D01*
X3061Y3877D01*
X3052Y3891D01*
X3038Y3900D01*
X3021Y3903D01*
D02*
G37*
G36*
X3731Y3831D02*
X3693D01*
Y3794D01*
X3731D01*
Y3831D01*
D02*
G37*
G36*
X3780D02*
X3743D01*
Y3794D01*
X3780D01*
Y3831D01*
D02*
G37*
G36*
X3567Y3845D02*
X3509D01*
Y3808D01*
X3567D01*
Y3845D01*
D02*
G37*
G36*
X3163Y3902D02*
X3079D01*
Y3818D01*
X3163D01*
Y3902D01*
D02*
G37*
G36*
X1968Y3911D02*
X1931D01*
Y3871D01*
X1968D01*
Y3911D01*
D02*
G37*
G36*
X1478Y4286D02*
X1460Y4282D01*
X1444Y4272D01*
X1434Y4256D01*
X1430Y4238D01*
X1434Y4219D01*
X1444Y4203D01*
X1458Y4194D01*
Y4116D01*
X1460Y4108D01*
X1464Y4101D01*
X1499Y4066D01*
Y3963D01*
X1478D01*
Y3872D01*
X1561D01*
Y3963D01*
X1540D01*
Y4074D01*
X1539Y4082D01*
X1534Y4089D01*
X1499Y4124D01*
Y4194D01*
X1513Y4203D01*
X1523Y4219D01*
X1527Y4238D01*
X1523Y4256D01*
X1513Y4272D01*
X1497Y4282D01*
X1478Y4286D01*
D02*
G37*
G36*
X1919Y3964D02*
X1883D01*
Y3923D01*
X1919D01*
Y3964D01*
D02*
G37*
G36*
X4575Y4469D02*
X2726D01*
X2718Y4468D01*
X2712Y4463D01*
X2512Y4263D01*
X2507Y4257D01*
X2506Y4249D01*
Y3922D01*
X2342Y3758D01*
X2146D01*
X2145Y3763D01*
X2162Y3774D01*
X2172Y3791D01*
X2176Y3810D01*
X2172Y3829D01*
X2162Y3845D01*
X2145Y3856D01*
X2126Y3860D01*
X2107Y3856D01*
X2090Y3845D01*
X2079Y3829D01*
X2076Y3810D01*
X2079Y3791D01*
X2090Y3774D01*
X2107Y3763D01*
X2106Y3758D01*
X2063D01*
X2055Y3757D01*
X2049Y3752D01*
X1905Y3608D01*
X1903Y3609D01*
X1889Y3606D01*
X1878Y3598D01*
X1870Y3587D01*
X1867Y3573D01*
X1870Y3559D01*
X1878Y3548D01*
X1889Y3540D01*
X1903Y3537D01*
X1917Y3540D01*
X1928Y3548D01*
X1936Y3559D01*
X1939Y3573D01*
X1937Y3583D01*
X2071Y3718D01*
X2350D01*
X2358Y3719D01*
X2364Y3724D01*
X2540Y3900D01*
X2545Y3906D01*
X2546Y3914D01*
Y4241D01*
X2734Y4429D01*
X4567D01*
X4622Y4374D01*
Y3956D01*
X4623Y3948D01*
X4628Y3942D01*
X4702Y3867D01*
X4702Y3867D01*
X4708Y3863D01*
X4716Y3861D01*
X4716Y3861D01*
X4876D01*
Y3840D01*
X4901D01*
Y3731D01*
X4866Y3696D01*
X4860Y3697D01*
X4847Y3694D01*
X4835Y3687D01*
X4827Y3675D01*
X4825Y3661D01*
X4827Y3648D01*
X4835Y3636D01*
X4840Y3633D01*
Y3567D01*
X4728Y3455D01*
X4724Y3448D01*
X4722Y3441D01*
Y3384D01*
X4712Y3377D01*
X4703Y3363D01*
X4699Y3346D01*
X4703Y3330D01*
X4712Y3316D01*
X4726Y3306D01*
X4743Y3303D01*
X4759Y3306D01*
X4773Y3316D01*
X4783Y3330D01*
X4786Y3346D01*
X4783Y3363D01*
X4773Y3377D01*
X4763Y3384D01*
Y3432D01*
X4875Y3544D01*
X4875Y3544D01*
X4879Y3551D01*
X4881Y3558D01*
X4881Y3558D01*
Y3633D01*
X4886Y3636D01*
X4893Y3648D01*
X4896Y3661D01*
X4895Y3667D01*
X4936Y3708D01*
X4940Y3714D01*
X4942Y3722D01*
Y3840D01*
X4967D01*
Y3861D01*
X5020D01*
Y3838D01*
X5110D01*
Y3921D01*
X5020D01*
Y3902D01*
X4967D01*
Y3923D01*
X4876D01*
Y3902D01*
X4725D01*
X4662Y3964D01*
Y4382D01*
X4661Y4390D01*
X4656Y4396D01*
X4589Y4463D01*
X4583Y4468D01*
X4575Y4469D01*
D02*
G37*
G36*
X3731Y3881D02*
X3693D01*
Y3843D01*
X3731D01*
Y3881D01*
D02*
G37*
G36*
X1919Y3911D02*
X1883D01*
Y3871D01*
X1919D01*
Y3911D01*
D02*
G37*
G36*
X4205Y4421D02*
X4190Y4418D01*
X4177Y4409D01*
X4168Y4396D01*
X4165Y4381D01*
X4168Y4365D01*
X4177Y4352D01*
X4190Y4343D01*
X4205Y4340D01*
X4221Y4343D01*
X4234Y4352D01*
X4242Y4365D01*
X4245Y4381D01*
X4242Y4396D01*
X4234Y4409D01*
X4221Y4418D01*
X4205Y4421D01*
D02*
G37*
G36*
X4405D02*
X4390Y4418D01*
X4377Y4409D01*
X4368Y4396D01*
X4365Y4381D01*
X4368Y4365D01*
X4377Y4352D01*
X4390Y4343D01*
X4405Y4340D01*
X4421Y4343D01*
X4434Y4352D01*
X4442Y4365D01*
X4445Y4381D01*
X4442Y4396D01*
X4434Y4409D01*
X4421Y4418D01*
X4405Y4421D01*
D02*
G37*
G36*
X4499Y4375D02*
X4465D01*
X4467Y4365D01*
X4476Y4351D01*
X4489Y4343D01*
X4499Y4341D01*
Y4375D01*
D02*
G37*
G36*
X3805Y4421D02*
X3790Y4418D01*
X3777Y4409D01*
X3768Y4396D01*
X3765Y4381D01*
X3768Y4365D01*
X3777Y4352D01*
X3790Y4343D01*
X3805Y4340D01*
X3821Y4343D01*
X3834Y4352D01*
X3842Y4365D01*
X3845Y4381D01*
X3842Y4396D01*
X3834Y4409D01*
X3821Y4418D01*
X3805Y4421D01*
D02*
G37*
G36*
X4005D02*
X3990Y4418D01*
X3977Y4409D01*
X3968Y4396D01*
X3965Y4381D01*
X3968Y4365D01*
X3977Y4352D01*
X3990Y4343D01*
X4005Y4340D01*
X4021Y4343D01*
X4034Y4352D01*
X4042Y4365D01*
X4045Y4381D01*
X4042Y4396D01*
X4034Y4409D01*
X4021Y4418D01*
X4005Y4421D01*
D02*
G37*
G36*
X4105D02*
X4090Y4418D01*
X4077Y4409D01*
X4068Y4396D01*
X4065Y4381D01*
X4068Y4365D01*
X4077Y4352D01*
X4090Y4343D01*
X4105Y4340D01*
X4121Y4343D01*
X4134Y4352D01*
X4142Y4365D01*
X4145Y4381D01*
X4142Y4396D01*
X4134Y4409D01*
X4121Y4418D01*
X4105Y4421D01*
D02*
G37*
G36*
X4545Y4375D02*
X4511D01*
Y4341D01*
X4521Y4343D01*
X4534Y4351D01*
X4543Y4365D01*
X4545Y4375D01*
D02*
G37*
G36*
X2777Y4413D02*
Y4376D01*
X2814D01*
X2812Y4387D01*
X2802Y4401D01*
X2788Y4411D01*
X2777Y4413D01*
D02*
G37*
G36*
X4499Y4421D02*
X4489Y4419D01*
X4476Y4410D01*
X4467Y4397D01*
X4465Y4387D01*
X4499D01*
Y4421D01*
D02*
G37*
G36*
X4511D02*
Y4387D01*
X4545D01*
X4543Y4397D01*
X4534Y4410D01*
X4521Y4419D01*
X4511Y4421D01*
D02*
G37*
G36*
X2277Y4413D02*
X2266Y4411D01*
X2252Y4401D01*
X2243Y4387D01*
X2240Y4376D01*
X2277D01*
Y4413D01*
D02*
G37*
G36*
X2289D02*
Y4376D01*
X2327D01*
X2324Y4387D01*
X2315Y4401D01*
X2300Y4411D01*
X2289Y4413D01*
D02*
G37*
G36*
X2765D02*
X2754Y4411D01*
X2740Y4401D01*
X2730Y4387D01*
X2728Y4376D01*
X2765D01*
Y4413D01*
D02*
G37*
G36*
X3313Y4413D02*
X3228D01*
Y4328D01*
X3313D01*
Y4413D01*
D02*
G37*
G36*
X2383Y4413D02*
X2367Y4410D01*
X2353Y4401D01*
X2343Y4387D01*
X2340Y4370D01*
X2343Y4354D01*
X2353Y4339D01*
X2367Y4330D01*
X2383Y4327D01*
X2400Y4330D01*
X2414Y4339D01*
X2423Y4354D01*
X2427Y4370D01*
X2423Y4387D01*
X2414Y4401D01*
X2400Y4410D01*
X2383Y4413D01*
D02*
G37*
G36*
X2871D02*
X2854Y4410D01*
X2840Y4401D01*
X2831Y4387D01*
X2828Y4370D01*
X2831Y4354D01*
X2840Y4339D01*
X2854Y4330D01*
X2871Y4327D01*
X2887Y4330D01*
X2901Y4339D01*
X2911Y4354D01*
X2914Y4370D01*
X2911Y4387D01*
X2901Y4401D01*
X2887Y4410D01*
X2871Y4413D01*
D02*
G37*
G36*
X2971D02*
X2954Y4410D01*
X2940Y4401D01*
X2931Y4387D01*
X2928Y4370D01*
X2931Y4354D01*
X2940Y4339D01*
X2954Y4330D01*
X2971Y4327D01*
X2987Y4330D01*
X3001Y4339D01*
X3011Y4354D01*
X3014Y4370D01*
X3011Y4387D01*
X3001Y4401D01*
X2987Y4410D01*
X2971Y4413D01*
D02*
G37*
G36*
X1142Y4519D02*
X1113Y4515D01*
X1087Y4504D01*
X1064Y4487D01*
X1047Y4464D01*
X1036Y4438D01*
X1032Y4409D01*
X1036Y4381D01*
X1047Y4355D01*
X1064Y4332D01*
X1087Y4315D01*
X1113Y4304D01*
X1142Y4300D01*
X1170Y4304D01*
X1196Y4315D01*
X1219Y4332D01*
X1236Y4355D01*
X1247Y4381D01*
X1251Y4409D01*
X1247Y4438D01*
X1236Y4464D01*
X1219Y4487D01*
X1196Y4504D01*
X1170Y4515D01*
X1142Y4519D01*
D02*
G37*
G36*
X5472D02*
X5444Y4515D01*
X5418Y4504D01*
X5395Y4487D01*
X5378Y4464D01*
X5367Y4438D01*
X5363Y4409D01*
X5367Y4381D01*
X5378Y4355D01*
X5395Y4332D01*
X5418Y4315D01*
X5444Y4304D01*
X5472Y4300D01*
X5501Y4304D01*
X5527Y4315D01*
X5550Y4332D01*
X5567Y4355D01*
X5578Y4381D01*
X5582Y4409D01*
X5578Y4438D01*
X5567Y4464D01*
X5550Y4487D01*
X5527Y4504D01*
X5501Y4515D01*
X5472Y4519D01*
D02*
G37*
G36*
X4305Y4421D02*
X4290Y4418D01*
X4277Y4409D01*
X4268Y4396D01*
X4265Y4381D01*
X4268Y4365D01*
X4268Y4365D01*
X4244Y4341D01*
X4241Y4336D01*
X4240Y4331D01*
Y4309D01*
X4235Y4307D01*
X4234Y4309D01*
X4221Y4318D01*
X4205Y4321D01*
X4190Y4318D01*
X4177Y4309D01*
X4168Y4296D01*
X4165Y4281D01*
X4168Y4265D01*
X4177Y4252D01*
X4190Y4243D01*
X4205Y4240D01*
X4221Y4243D01*
X4234Y4252D01*
X4235Y4254D01*
X4240Y4253D01*
Y4200D01*
X4204Y4164D01*
X4085D01*
X4083Y4169D01*
X4090Y4179D01*
X4093Y4193D01*
X4090Y4207D01*
X4082Y4218D01*
X4071Y4226D01*
X4057Y4229D01*
X4043Y4226D01*
X4032Y4218D01*
X4025Y4208D01*
X4020D01*
X3990Y4238D01*
X3993Y4243D01*
X4005Y4240D01*
X4021Y4243D01*
X4034Y4252D01*
X4042Y4265D01*
X4045Y4281D01*
X4042Y4296D01*
X4034Y4309D01*
X4021Y4318D01*
X4005Y4321D01*
X3990Y4318D01*
X3977Y4310D01*
X3972Y4311D01*
Y4329D01*
X3971Y4335D01*
X3968Y4340D01*
X3942Y4365D01*
X3942Y4365D01*
X3945Y4381D01*
X3942Y4396D01*
X3934Y4409D01*
X3921Y4418D01*
X3905Y4421D01*
X3890Y4418D01*
X3877Y4409D01*
X3868Y4396D01*
X3865Y4381D01*
X3868Y4365D01*
X3877Y4352D01*
X3890Y4343D01*
X3905Y4340D01*
X3921Y4343D01*
X3921Y4344D01*
X3942Y4323D01*
Y4306D01*
X3937Y4305D01*
X3934Y4309D01*
X3921Y4318D01*
X3905Y4321D01*
X3890Y4318D01*
X3877Y4309D01*
X3868Y4296D01*
X3865Y4281D01*
X3868Y4265D01*
X3877Y4252D01*
X3890Y4243D01*
X3905Y4240D01*
X3921Y4243D01*
X3934Y4252D01*
X3937Y4257D01*
X3942Y4255D01*
Y4250D01*
X3943Y4244D01*
X3946Y4239D01*
X4003Y4182D01*
X4008Y4179D01*
X4014Y4178D01*
X4025D01*
X4031Y4169D01*
X4029Y4164D01*
X4010D01*
X3961Y4214D01*
X3956Y4217D01*
X3950Y4218D01*
X3787D01*
X3781Y4217D01*
X3776Y4214D01*
X3621Y4058D01*
X3159D01*
X3159Y4063D01*
X3163Y4064D01*
X3174Y4072D01*
X3181Y4082D01*
X3621D01*
X3627Y4083D01*
X3632Y4086D01*
X3790Y4244D01*
X3790Y4243D01*
X3805Y4240D01*
X3821Y4243D01*
X3834Y4252D01*
X3842Y4265D01*
X3845Y4281D01*
X3842Y4296D01*
X3834Y4309D01*
X3821Y4318D01*
X3805Y4321D01*
X3790Y4318D01*
X3777Y4309D01*
X3768Y4296D01*
X3765Y4281D01*
X3768Y4265D01*
X3768Y4265D01*
X3615Y4112D01*
X3181D01*
X3174Y4122D01*
X3173Y4123D01*
X3175Y4128D01*
X3596D01*
X3602Y4129D01*
X3607Y4132D01*
X3668Y4193D01*
X3671Y4198D01*
X3672Y4204D01*
Y4250D01*
X3677Y4252D01*
X3690Y4243D01*
X3705Y4240D01*
X3721Y4243D01*
X3734Y4252D01*
X3742Y4265D01*
X3745Y4281D01*
X3742Y4296D01*
X3734Y4309D01*
X3721Y4318D01*
X3705Y4321D01*
X3690Y4318D01*
X3677Y4310D01*
X3672Y4311D01*
Y4326D01*
X3690Y4344D01*
X3690Y4343D01*
X3705Y4340D01*
X3721Y4343D01*
X3734Y4352D01*
X3742Y4365D01*
X3745Y4381D01*
X3742Y4396D01*
X3734Y4409D01*
X3721Y4418D01*
X3705Y4421D01*
X3690Y4418D01*
X3677Y4409D01*
X3668Y4396D01*
X3665Y4381D01*
X3668Y4365D01*
X3668Y4365D01*
X3646Y4343D01*
X3643Y4338D01*
X3642Y4333D01*
Y4321D01*
X3611D01*
Y4281D01*
Y4240D01*
X3642D01*
Y4210D01*
X3590Y4158D01*
X3076D01*
X3069Y4168D01*
X3062Y4173D01*
X3061Y4180D01*
X3061Y4181D01*
X3368D01*
X3374Y4182D01*
X3379Y4185D01*
X3559Y4365D01*
X3568D01*
X3568Y4365D01*
X3577Y4352D01*
X3590Y4343D01*
X3605Y4340D01*
X3621Y4343D01*
X3634Y4352D01*
X3642Y4365D01*
X3645Y4381D01*
X3642Y4396D01*
X3634Y4409D01*
X3621Y4418D01*
X3605Y4421D01*
X3590Y4418D01*
X3577Y4409D01*
X3568Y4396D01*
X3568Y4396D01*
X3553D01*
X3547Y4395D01*
X3542Y4392D01*
X3362Y4211D01*
X2683D01*
X2677Y4210D01*
X2672Y4207D01*
X2610Y4145D01*
X2607Y4140D01*
X2606Y4134D01*
Y3948D01*
X2596Y3941D01*
X2588Y3930D01*
X2585Y3916D01*
X2588Y3904D01*
X2387Y3703D01*
X2092D01*
X2086Y3702D01*
X2081Y3699D01*
X2025Y3643D01*
X2022Y3638D01*
X2021Y3632D01*
Y3381D01*
X1977Y3337D01*
X1717D01*
X1711Y3336D01*
X1706Y3333D01*
X1670Y3297D01*
X1667Y3292D01*
X1666Y3286D01*
Y3280D01*
X1647D01*
Y3177D01*
X1661D01*
Y3152D01*
X1548Y3039D01*
X1542Y3040D01*
X1528Y3037D01*
X1517Y3029D01*
X1514Y3024D01*
X1311D01*
X1272Y3063D01*
Y3323D01*
X1300Y3350D01*
X1333D01*
Y3329D01*
X1423D01*
Y3412D01*
X1333D01*
Y3390D01*
X1291D01*
X1291Y3390D01*
X1283Y3389D01*
X1277Y3384D01*
X1238Y3345D01*
X1233Y3339D01*
X1232Y3331D01*
Y3055D01*
X1233Y3047D01*
X1238Y3041D01*
X1289Y2990D01*
X1295Y2985D01*
X1303Y2984D01*
X1514D01*
X1517Y2979D01*
X1528Y2971D01*
X1542Y2968D01*
X1556Y2971D01*
X1567Y2979D01*
X1575Y2990D01*
X1578Y3004D01*
X1577Y3010D01*
X1696Y3129D01*
X1700Y3135D01*
X1701Y3143D01*
X1701Y3143D01*
Y3177D01*
X1715D01*
Y3280D01*
X1703D01*
X1701Y3285D01*
X1723Y3307D01*
X1983D01*
X1989Y3308D01*
X1994Y3311D01*
X2047Y3364D01*
X2050Y3369D01*
X2051Y3375D01*
Y3626D01*
X2098Y3673D01*
X2292D01*
X2293Y3668D01*
X2284Y3661D01*
X2276Y3650D01*
X2273Y3636D01*
X2276Y3622D01*
X2284Y3611D01*
X2295Y3603D01*
X2309Y3600D01*
X2323Y3603D01*
X2334Y3611D01*
X2341Y3621D01*
X2402D01*
X2408Y3622D01*
X2413Y3625D01*
X2489Y3702D01*
X3165D01*
X3172Y3692D01*
X3183Y3684D01*
X3197Y3681D01*
X3211Y3684D01*
X3222Y3692D01*
X3230Y3703D01*
X3233Y3717D01*
X3230Y3731D01*
X3222Y3742D01*
X3211Y3750D01*
X3197Y3753D01*
X3183Y3750D01*
X3172Y3742D01*
X3165Y3732D01*
X2483D01*
X2477Y3731D01*
X2472Y3728D01*
X2396Y3651D01*
X2341D01*
X2334Y3661D01*
X2325Y3668D01*
X2326Y3673D01*
X2393D01*
X2399Y3674D01*
X2404Y3677D01*
X2609Y3883D01*
X2621Y3880D01*
X2635Y3883D01*
X2646Y3891D01*
X2654Y3902D01*
X2657Y3916D01*
X2654Y3928D01*
X2664Y3938D01*
X2719D01*
Y3911D01*
X2809D01*
Y3994D01*
X2719D01*
Y3968D01*
X2658D01*
X2652Y3967D01*
X2647Y3964D01*
X2641Y3958D01*
X2636Y3959D01*
Y4128D01*
X2689Y4181D01*
X3027D01*
X3027Y4180D01*
X3026Y4173D01*
X3019Y4168D01*
X3011Y4157D01*
X3008Y4143D01*
X3011Y4129D01*
X3019Y4118D01*
X3030Y4110D01*
X3044Y4107D01*
X3058Y4110D01*
X3069Y4118D01*
X3076Y4128D01*
X3123D01*
X3125Y4123D01*
X3124Y4122D01*
X3116Y4111D01*
X3113Y4097D01*
X3116Y4083D01*
X3124Y4072D01*
X3135Y4064D01*
X3139Y4063D01*
X3139Y4058D01*
X3074D01*
X3067Y4068D01*
X3056Y4076D01*
X3042Y4079D01*
X3028Y4076D01*
X3017Y4068D01*
X3009Y4057D01*
X3006Y4043D01*
X3009Y4029D01*
X3017Y4018D01*
X3028Y4010D01*
X3042Y4007D01*
X3056Y4010D01*
X3067Y4018D01*
X3074Y4028D01*
X3196D01*
X3196Y4023D01*
X3187Y4021D01*
X3176Y4013D01*
X3168Y4002D01*
X3165Y3988D01*
X3168Y3974D01*
X3176Y3963D01*
X3184Y3957D01*
X3182Y3952D01*
X2985D01*
X2864Y4074D01*
X2859Y4077D01*
X2853Y4078D01*
X2809D01*
Y4105D01*
X2719D01*
Y4022D01*
X2809D01*
Y4048D01*
X2847D01*
X2968Y3926D01*
X2973Y3923D01*
X2979Y3922D01*
X3643D01*
X3649Y3923D01*
X3654Y3926D01*
X3819Y4092D01*
X3825Y4091D01*
X3825Y4090D01*
X3822Y4077D01*
X3825Y4063D01*
X3833Y4052D01*
X3844Y4044D01*
X3858Y4041D01*
X3870Y4044D01*
X3879Y4035D01*
X3876Y4030D01*
X3875Y4030D01*
X3794D01*
Y3945D01*
X3800D01*
X3801Y3940D01*
X3796Y3939D01*
X3785Y3931D01*
X3777Y3920D01*
X3774Y3906D01*
X3777Y3892D01*
X3782Y3885D01*
X3779Y3881D01*
X3776Y3881D01*
X3743D01*
Y3843D01*
X3780D01*
Y3876D01*
X3780Y3879D01*
X3783Y3880D01*
X3785Y3881D01*
X3796Y3873D01*
X3810Y3870D01*
X3824Y3873D01*
X3835Y3881D01*
X3842Y3891D01*
X4021D01*
X4021Y3888D01*
X4029Y3877D01*
X4040Y3869D01*
X4054Y3866D01*
X4068Y3869D01*
X4079Y3877D01*
X4087Y3888D01*
X4090Y3902D01*
X4087Y3916D01*
X4079Y3927D01*
X4068Y3935D01*
X4054Y3938D01*
X4040Y3935D01*
X4029Y3927D01*
X4025Y3921D01*
X3842D01*
X3835Y3931D01*
X3824Y3939D01*
X3819Y3940D01*
X3820Y3945D01*
X3879D01*
Y4026D01*
X3879Y4027D01*
X3884Y4029D01*
X3944Y3969D01*
X3949Y3966D01*
X3955Y3965D01*
X4049D01*
X4056Y3955D01*
X4067Y3947D01*
X4081Y3944D01*
X4095Y3947D01*
X4106Y3955D01*
X4114Y3966D01*
X4117Y3980D01*
X4114Y3994D01*
X4106Y4005D01*
X4095Y4013D01*
X4081Y4016D01*
X4067Y4013D01*
X4056Y4005D01*
X4049Y3995D01*
X3961D01*
X3891Y4065D01*
X3894Y4077D01*
X3891Y4091D01*
X3883Y4102D01*
X3872Y4110D01*
X3868Y4111D01*
X3868Y4116D01*
X3901D01*
X3940Y4076D01*
X3945Y4073D01*
X3951Y4072D01*
X4421D01*
X4427Y4073D01*
X4432Y4076D01*
X4516Y4160D01*
X4519Y4165D01*
X4520Y4171D01*
Y4243D01*
X4521Y4243D01*
X4534Y4252D01*
X4542Y4265D01*
X4545Y4281D01*
X4542Y4296D01*
X4534Y4309D01*
X4521Y4318D01*
X4505Y4321D01*
X4490Y4318D01*
X4477Y4309D01*
X4468Y4296D01*
X4465Y4281D01*
X4468Y4265D01*
X4477Y4252D01*
X4490Y4243D01*
X4490Y4243D01*
Y4177D01*
X4415Y4102D01*
X4261D01*
X4260Y4107D01*
X4260Y4107D01*
X4316Y4163D01*
X4319Y4168D01*
X4320Y4174D01*
Y4243D01*
X4321Y4243D01*
X4334Y4252D01*
X4342Y4265D01*
X4345Y4281D01*
X4342Y4296D01*
X4334Y4309D01*
X4321Y4318D01*
X4305Y4321D01*
X4290Y4318D01*
X4277Y4309D01*
X4275Y4307D01*
X4270Y4308D01*
Y4324D01*
X4290Y4344D01*
X4290Y4343D01*
X4305Y4340D01*
X4321Y4343D01*
X4334Y4352D01*
X4342Y4365D01*
X4345Y4381D01*
X4342Y4396D01*
X4334Y4409D01*
X4321Y4418D01*
X4305Y4421D01*
D02*
G37*
G36*
X3071Y4413D02*
X3054Y4410D01*
X3040Y4401D01*
X3031Y4387D01*
X3028Y4370D01*
X3031Y4354D01*
X3040Y4339D01*
X3054Y4330D01*
X3071Y4327D01*
X3087Y4330D01*
X3101Y4339D01*
X3111Y4354D01*
X3114Y4370D01*
X3111Y4387D01*
X3101Y4401D01*
X3087Y4410D01*
X3071Y4413D01*
D02*
G37*
G36*
X2765Y4364D02*
X2728D01*
X2730Y4353D01*
X2740Y4339D01*
X2754Y4329D01*
X2765Y4327D01*
Y4364D01*
D02*
G37*
G36*
X2814D02*
X2777D01*
Y4327D01*
X2788Y4329D01*
X2802Y4339D01*
X2812Y4353D01*
X2814Y4364D01*
D02*
G37*
G36*
X2526Y4413D02*
X2441D01*
Y4328D01*
X2526D01*
Y4413D01*
D02*
G37*
G36*
X3171Y4413D02*
X3154Y4410D01*
X3140Y4401D01*
X3131Y4387D01*
X3128Y4370D01*
X3131Y4354D01*
X3140Y4339D01*
X3154Y4330D01*
X3171Y4327D01*
X3187Y4330D01*
X3201Y4339D01*
X3211Y4354D01*
X3214Y4370D01*
X3211Y4387D01*
X3201Y4401D01*
X3187Y4410D01*
X3171Y4413D01*
D02*
G37*
G36*
X2277Y4364D02*
X2240D01*
X2243Y4353D01*
X2252Y4339D01*
X2266Y4329D01*
X2277Y4327D01*
Y4364D01*
D02*
G37*
G36*
X2327D02*
X2289D01*
Y4327D01*
X2300Y4329D01*
X2315Y4339D01*
X2324Y4353D01*
X2327Y4364D01*
D02*
G37*
G36*
X3020Y3674D02*
X3006Y3671D01*
X2995Y3663D01*
X2987Y3652D01*
X2984Y3638D01*
X2987Y3624D01*
X2995Y3613D01*
X3006Y3605D01*
X3020Y3602D01*
X3034Y3605D01*
X3045Y3613D01*
X3053Y3624D01*
X3056Y3638D01*
X3053Y3652D01*
X3045Y3663D01*
X3034Y3671D01*
X3020Y3674D01*
D02*
G37*
G36*
X2875Y3461D02*
X2841D01*
Y3430D01*
X2875D01*
Y3461D01*
D02*
G37*
G36*
X3264Y3664D02*
X3250Y3661D01*
X3239Y3653D01*
X3231Y3642D01*
X3228Y3628D01*
X3231Y3614D01*
X3239Y3603D01*
X3250Y3595D01*
X3264Y3592D01*
X3278Y3595D01*
X3289Y3603D01*
X3297Y3614D01*
X3300Y3628D01*
X3297Y3642D01*
X3289Y3653D01*
X3278Y3661D01*
X3264Y3664D01*
D02*
G37*
G36*
X1187Y3468D02*
Y3431D01*
X1224D01*
X1222Y3442D01*
X1212Y3457D01*
X1198Y3466D01*
X1187Y3468D01*
D02*
G37*
G36*
X1175D02*
X1164Y3466D01*
X1150Y3457D01*
X1140Y3442D01*
X1138Y3431D01*
X1175D01*
Y3468D01*
D02*
G37*
G36*
Y3419D02*
X1138D01*
X1140Y3408D01*
X1150Y3394D01*
X1164Y3384D01*
X1175Y3382D01*
Y3419D01*
D02*
G37*
G36*
X4686Y3390D02*
X4649D01*
Y3352D01*
X4686D01*
Y3390D01*
D02*
G37*
G36*
X1504Y3666D02*
X1459D01*
Y3621D01*
X1504D01*
Y3666D01*
D02*
G37*
G36*
X2829Y3461D02*
X2794D01*
Y3430D01*
X2829D01*
Y3461D01*
D02*
G37*
G36*
X1224Y3419D02*
X1187D01*
Y3382D01*
X1198Y3384D01*
X1212Y3394D01*
X1222Y3408D01*
X1224Y3419D01*
D02*
G37*
G36*
X3636Y3733D02*
X3510D01*
Y3650D01*
X3558D01*
Y3570D01*
X3546Y3559D01*
X3538D01*
Y3583D01*
X3517D01*
Y3590D01*
X3516Y3596D01*
X3513Y3601D01*
X3503Y3610D01*
X3506Y3622D01*
X3503Y3636D01*
X3495Y3647D01*
X3484Y3655D01*
X3470Y3658D01*
X3456Y3655D01*
X3445Y3647D01*
X3437Y3636D01*
X3434Y3622D01*
X3437Y3608D01*
X3445Y3597D01*
X3456Y3589D01*
X3457Y3589D01*
X3457Y3584D01*
X3433D01*
Y3543D01*
Y3503D01*
X3462D01*
X3464Y3503D01*
X3468Y3504D01*
X3538D01*
Y3528D01*
X3552D01*
X3558Y3529D01*
X3563Y3532D01*
X3584Y3553D01*
X3587Y3558D01*
X3588Y3564D01*
Y3650D01*
X3636D01*
Y3733D01*
D02*
G37*
G36*
X3421Y3537D02*
X3391D01*
Y3503D01*
X3421D01*
Y3537D01*
D02*
G37*
G36*
Y3584D02*
X3391D01*
Y3549D01*
X3421D01*
Y3584D01*
D02*
G37*
G36*
X4601Y3717D02*
X4587Y3714D01*
X4576Y3706D01*
X4568Y3695D01*
X4565Y3681D01*
X4568Y3667D01*
X4576Y3656D01*
X4586Y3649D01*
Y3583D01*
X4511Y3508D01*
X4353D01*
X4350Y3513D01*
X4356Y3522D01*
X4359Y3536D01*
X4356Y3550D01*
X4348Y3561D01*
X4337Y3569D01*
X4333Y3570D01*
X4333Y3575D01*
X4374D01*
X4377Y3571D01*
X4375Y3563D01*
X4378Y3549D01*
X4386Y3538D01*
X4397Y3530D01*
X4411Y3527D01*
X4425Y3530D01*
X4436Y3538D01*
X4444Y3549D01*
X4447Y3563D01*
X4444Y3577D01*
X4436Y3588D01*
X4425Y3596D01*
X4411Y3599D01*
X4399Y3596D01*
X4395Y3601D01*
X4390Y3604D01*
X4384Y3605D01*
X3732D01*
X3726Y3615D01*
X3714Y3623D01*
X3700Y3626D01*
X3687Y3623D01*
X3675Y3615D01*
X3667Y3604D01*
X3665Y3590D01*
X3667Y3576D01*
X3675Y3565D01*
X3687Y3557D01*
X3700Y3554D01*
X3714Y3557D01*
X3726Y3565D01*
X3732Y3575D01*
X4313D01*
X4313Y3570D01*
X4309Y3569D01*
X4298Y3561D01*
X3757D01*
X3751Y3560D01*
X3746Y3557D01*
X3739Y3549D01*
X3727Y3552D01*
X3713Y3549D01*
X3702Y3541D01*
X3694Y3530D01*
X3691Y3516D01*
X3694Y3502D01*
X3702Y3491D01*
X3713Y3483D01*
X3727Y3480D01*
X3741Y3483D01*
X3752Y3491D01*
X3760Y3502D01*
X3763Y3516D01*
X3761Y3527D01*
X3764Y3531D01*
X3813D01*
X3813Y3530D01*
X3812Y3523D01*
X3805Y3518D01*
X3797Y3507D01*
X3794Y3493D01*
X3797Y3479D01*
X3805Y3468D01*
X3816Y3460D01*
X3830Y3457D01*
X3844Y3460D01*
X3855Y3468D01*
X3862Y3478D01*
X3956D01*
X3958Y3473D01*
X3916Y3430D01*
X3864D01*
X3857Y3440D01*
X3846Y3448D01*
X3832Y3451D01*
X3818Y3448D01*
X3807Y3440D01*
X3799Y3429D01*
X3796Y3415D01*
X3799Y3401D01*
X3807Y3390D01*
X3818Y3382D01*
X3832Y3379D01*
X3846Y3382D01*
X3857Y3390D01*
X3864Y3400D01*
X3922D01*
X3928Y3401D01*
X3933Y3404D01*
X3978Y3450D01*
X4010D01*
X4013Y3445D01*
X4007Y3437D01*
X4005Y3425D01*
X4007Y3414D01*
X4014Y3404D01*
X4024Y3397D01*
X4035Y3395D01*
X4047Y3397D01*
X4057Y3404D01*
X4061Y3410D01*
X4084D01*
X4088Y3406D01*
Y3340D01*
X4179D01*
Y3423D01*
X4114D01*
X4101Y3436D01*
X4096Y3439D01*
X4091Y3440D01*
X4061D01*
X4058Y3445D01*
X4061Y3450D01*
X4409D01*
X4432Y3427D01*
X4429Y3415D01*
X4432Y3401D01*
X4440Y3390D01*
X4451Y3382D01*
X4465Y3379D01*
X4479Y3382D01*
X4490Y3390D01*
X4498Y3401D01*
X4501Y3415D01*
X4498Y3429D01*
X4490Y3440D01*
X4479Y3448D01*
X4465Y3451D01*
X4453Y3448D01*
X4429Y3473D01*
X4431Y3478D01*
X4517D01*
X4523Y3479D01*
X4528Y3482D01*
X4612Y3566D01*
X4615Y3571D01*
X4616Y3577D01*
Y3649D01*
X4626Y3656D01*
X4634Y3667D01*
X4637Y3681D01*
X4634Y3695D01*
X4626Y3706D01*
X4615Y3714D01*
X4601Y3717D01*
D02*
G37*
G36*
X3154Y3584D02*
Y3549D01*
X3184D01*
Y3584D01*
X3154D01*
D02*
G37*
G36*
X2240Y3665D02*
X2141D01*
Y3566D01*
X2240D01*
Y3665D01*
D02*
G37*
G36*
X1266Y3963D02*
X1183D01*
Y3872D01*
X1204D01*
Y3817D01*
X1167Y3780D01*
X1162Y3773D01*
X1161Y3765D01*
Y3668D01*
X1139D01*
Y3583D01*
X1224D01*
Y3668D01*
X1201D01*
Y3757D01*
X1239Y3794D01*
X1243Y3801D01*
X1245Y3808D01*
Y3872D01*
X1266D01*
Y3963D01*
D02*
G37*
G36*
X1560Y3609D02*
X1516D01*
Y3565D01*
X1560D01*
Y3609D01*
D02*
G37*
G36*
X1504D02*
X1459D01*
Y3565D01*
X1504D01*
Y3609D01*
D02*
G37*
G36*
X3184Y3537D02*
X3154D01*
Y3503D01*
X3184D01*
Y3537D01*
D02*
G37*
G36*
X5427Y3375D02*
X5416Y3372D01*
X5402Y3363D01*
X5392Y3348D01*
X5390Y3337D01*
X5427D01*
Y3375D01*
D02*
G37*
G36*
X2929Y3340D02*
X2898D01*
Y3306D01*
X2929D01*
Y3340D01*
D02*
G37*
G36*
X5439Y3375D02*
Y3337D01*
X5476D01*
X5474Y3348D01*
X5464Y3363D01*
X5450Y3372D01*
X5439Y3375D01*
D02*
G37*
G36*
X4439Y3753D02*
X4409D01*
X4411Y3745D01*
X4419Y3733D01*
X4431Y3725D01*
X4439Y3723D01*
Y3753D01*
D02*
G37*
G36*
X4481D02*
X4451D01*
Y3723D01*
X4459Y3725D01*
X4471Y3733D01*
X4479Y3745D01*
X4481Y3753D01*
D02*
G37*
G36*
X4686Y3340D02*
X4649D01*
Y3303D01*
X4686D01*
Y3340D01*
D02*
G37*
G36*
X1376Y3963D02*
X1293D01*
Y3872D01*
X1319D01*
Y3810D01*
X1321Y3805D01*
X1324Y3800D01*
X1357Y3766D01*
X1362Y3763D01*
X1368Y3762D01*
X1930D01*
X1937Y3752D01*
X1948Y3744D01*
X1962Y3741D01*
X1976Y3744D01*
X1987Y3752D01*
X1995Y3763D01*
X1998Y3777D01*
X1995Y3791D01*
X1987Y3802D01*
X1976Y3810D01*
X1962Y3813D01*
X1948Y3810D01*
X1937Y3802D01*
X1930Y3792D01*
X1374D01*
X1350Y3817D01*
Y3872D01*
X1376D01*
Y3963D01*
D02*
G37*
G36*
X4637Y3340D02*
X4599D01*
Y3303D01*
X4637D01*
Y3340D01*
D02*
G37*
G36*
X3567Y3796D02*
X3509D01*
Y3760D01*
X3567D01*
Y3796D01*
D02*
G37*
G36*
X1832Y3722D02*
X1616D01*
X1608Y3719D01*
X1605Y3711D01*
Y3528D01*
X1552D01*
X1544Y3525D01*
X1541Y3517D01*
Y3363D01*
X1544Y3355D01*
X1552Y3352D01*
X1965D01*
X1973Y3355D01*
X1976Y3363D01*
Y3517D01*
X1973Y3525D01*
X1965Y3528D01*
X1843D01*
Y3711D01*
X1840Y3719D01*
X1832Y3722D01*
D02*
G37*
G36*
X3979Y3880D02*
X3894D01*
Y3795D01*
X3921D01*
Y3715D01*
X3922Y3710D01*
X3926Y3705D01*
X3963Y3667D01*
X3968Y3664D01*
X3974Y3663D01*
X4094D01*
X4101Y3653D01*
X4105Y3650D01*
X4103Y3645D01*
X3780D01*
X3713Y3712D01*
X3716Y3724D01*
X3713Y3738D01*
X3705Y3749D01*
X3694Y3757D01*
X3680Y3760D01*
X3666Y3757D01*
X3655Y3749D01*
X3647Y3738D01*
X3644Y3724D01*
X3647Y3710D01*
X3655Y3699D01*
X3666Y3691D01*
X3680Y3688D01*
X3692Y3691D01*
X3763Y3619D01*
X3768Y3616D01*
X3774Y3615D01*
X4388D01*
X4394Y3616D01*
X4399Y3619D01*
X4411Y3632D01*
X4423Y3629D01*
X4437Y3632D01*
X4448Y3640D01*
X4456Y3651D01*
X4459Y3665D01*
X4456Y3679D01*
X4448Y3690D01*
X4437Y3698D01*
X4423Y3701D01*
X4409Y3698D01*
X4398Y3690D01*
X4390Y3679D01*
X4387Y3665D01*
X4390Y3653D01*
X4382Y3645D01*
X4290D01*
X4288Y3650D01*
X4292Y3653D01*
X4300Y3664D01*
X4303Y3678D01*
X4300Y3692D01*
X4292Y3703D01*
X4285Y3708D01*
Y3782D01*
X4295Y3789D01*
X4303Y3800D01*
X4306Y3814D01*
X4303Y3828D01*
X4295Y3839D01*
X4284Y3847D01*
X4270Y3850D01*
X4256Y3847D01*
X4245Y3839D01*
X4237Y3828D01*
X4234Y3814D01*
X4237Y3800D01*
X4245Y3789D01*
X4255Y3782D01*
Y3711D01*
X4253Y3711D01*
X4242Y3703D01*
X4234Y3692D01*
X4232Y3683D01*
X4227D01*
X4225Y3695D01*
X4217Y3706D01*
X4207Y3713D01*
Y3788D01*
X4206Y3794D01*
X4203Y3799D01*
X4187Y3814D01*
X4190Y3826D01*
X4187Y3840D01*
X4179Y3851D01*
X4168Y3859D01*
X4154Y3862D01*
X4140Y3859D01*
X4129Y3851D01*
X4121Y3840D01*
X4118Y3826D01*
X4121Y3812D01*
X4129Y3801D01*
X4140Y3793D01*
X4154Y3790D01*
X4166Y3793D01*
X4177Y3782D01*
Y3713D01*
X4167Y3706D01*
X4161Y3698D01*
X4155D01*
X4151Y3703D01*
X4140Y3711D01*
X4126Y3714D01*
X4112Y3711D01*
X4101Y3703D01*
X4094Y3693D01*
X3980D01*
X3952Y3722D01*
Y3795D01*
X3979D01*
Y3880D01*
D02*
G37*
G36*
X3637Y3796D02*
X3579D01*
Y3760D01*
X3637D01*
Y3796D01*
D02*
G37*
G36*
X5169Y3794D02*
X5155Y3791D01*
X5144Y3783D01*
X5136Y3772D01*
X5133Y3758D01*
X5136Y3746D01*
X5032Y3642D01*
X5028Y3637D01*
X5027Y3632D01*
Y3387D01*
X5026Y3386D01*
X5012Y3377D01*
X5003Y3363D01*
X4999Y3346D01*
X5003Y3330D01*
X5012Y3316D01*
X5026Y3306D01*
X5043Y3303D01*
X5059Y3306D01*
X5073Y3316D01*
X5083Y3330D01*
X5086Y3346D01*
X5083Y3363D01*
X5073Y3377D01*
X5059Y3386D01*
X5058Y3387D01*
Y3625D01*
X5157Y3725D01*
X5169Y3722D01*
X5183Y3725D01*
X5194Y3733D01*
X5202Y3744D01*
X5205Y3758D01*
X5202Y3772D01*
X5194Y3783D01*
X5183Y3791D01*
X5169Y3794D01*
D02*
G37*
G36*
X4439Y3795D02*
X4431Y3793D01*
X4419Y3785D01*
X4411Y3773D01*
X4409Y3765D01*
X4439D01*
Y3795D01*
D02*
G37*
G36*
X4637Y3390D02*
X4599D01*
Y3352D01*
X4637D01*
Y3390D01*
D02*
G37*
G36*
X2929Y3387D02*
X2898D01*
Y3352D01*
X2929D01*
Y3387D01*
D02*
G37*
G36*
X1560Y3666D02*
X1516D01*
Y3621D01*
X1560D01*
Y3666D01*
D02*
G37*
G36*
X4451Y3795D02*
Y3765D01*
X4481D01*
X4479Y3773D01*
X4471Y3785D01*
X4459Y3793D01*
X4451Y3795D01*
D02*
G37*
%LPD*%
G36*
X2776Y2309D02*
X2775Y2302D01*
X2768Y2297D01*
X2761Y2287D01*
X2713D01*
X2707Y2286D01*
X2702Y2283D01*
X2140Y1721D01*
X2137Y1716D01*
X2136Y1710D01*
Y1691D01*
X2131Y1690D01*
X2129Y1693D01*
X2116Y1701D01*
X2116Y1701D01*
Y1725D01*
X2609Y2218D01*
X2612Y2223D01*
X2613Y2229D01*
Y2245D01*
X2623Y2252D01*
X2631Y2263D01*
X2634Y2277D01*
X2631Y2291D01*
X2623Y2302D01*
X2619Y2305D01*
X2621Y2310D01*
X2776D01*
X2776Y2309D01*
D02*
G37*
G36*
X2316Y2331D02*
X1941Y1956D01*
X1938Y1951D01*
X1937Y1945D01*
Y1690D01*
X1932Y1688D01*
X1929Y1693D01*
X1916Y1701D01*
X1916Y1701D01*
Y1943D01*
X2308Y2336D01*
X2315D01*
X2316Y2331D01*
D02*
G37*
G36*
X2496Y2305D02*
X2492Y2302D01*
X2484Y2291D01*
X2481Y2277D01*
X2484Y2263D01*
X2492Y2252D01*
X2502Y2245D01*
Y2228D01*
X1990Y1716D01*
X1986Y1711D01*
X1985Y1705D01*
Y1701D01*
X1985Y1701D01*
X1972Y1693D01*
X1967Y1694D01*
Y1939D01*
X2338Y2310D01*
X2494D01*
X2496Y2305D01*
D02*
G37*
G36*
X4290Y3522D02*
X4296Y3513D01*
X4293Y3508D01*
X3862D01*
X3855Y3518D01*
X3848Y3523D01*
X3847Y3530D01*
X3847Y3531D01*
X4288D01*
X4290Y3522D01*
D02*
G37*
G36*
X3993Y4138D02*
X3993Y4138D01*
X3992Y4133D01*
X3980D01*
X3936Y4178D01*
X3931Y4181D01*
X3925Y4182D01*
X3813D01*
X3807Y4181D01*
X3802Y4178D01*
X3628Y4003D01*
X3233D01*
X3226Y4013D01*
X3215Y4021D01*
X3206Y4023D01*
X3206Y4028D01*
X3627D01*
X3633Y4029D01*
X3638Y4032D01*
X3793Y4188D01*
X3944D01*
X3993Y4138D01*
D02*
G37*
G36*
X2807Y3125D02*
Y3048D01*
X2808Y3042D01*
X2811Y3037D01*
X2834Y3015D01*
X2831Y3003D01*
X2834Y2989D01*
X2842Y2978D01*
X2853Y2970D01*
X2867Y2967D01*
X2881Y2970D01*
X2892Y2978D01*
X2900Y2989D01*
X2903Y3003D01*
X2900Y3017D01*
X2892Y3028D01*
X2881Y3035D01*
X2881Y3038D01*
X2882Y3041D01*
X2889Y3042D01*
X2900Y3050D01*
X2907Y3060D01*
X2979D01*
Y3040D01*
X2447Y2508D01*
X2443Y2503D01*
X2442Y2497D01*
Y2483D01*
X2415D01*
Y2401D01*
X2415Y2398D01*
X2411Y2396D01*
X2361D01*
X2333Y2424D01*
Y2778D01*
X2355Y2800D01*
X2364D01*
Y2770D01*
X2447D01*
Y2860D01*
X2425D01*
X2423Y2865D01*
X2509Y2951D01*
X2512Y2956D01*
X2513Y2962D01*
Y2972D01*
X2534D01*
Y2997D01*
X2586D01*
X2592Y2998D01*
X2597Y3001D01*
X2687Y3091D01*
X2710D01*
Y3065D01*
X2801D01*
Y3123D01*
X2806Y3126D01*
X2807Y3125D01*
D02*
G37*
G36*
X3962Y4108D02*
X3961Y4103D01*
X3957Y4103D01*
X3918Y4142D01*
X3913Y4145D01*
X3907Y4146D01*
X3837D01*
X3831Y4145D01*
X3826Y4142D01*
X3637Y3952D01*
X3220D01*
X3218Y3957D01*
X3226Y3963D01*
X3233Y3973D01*
X3634D01*
X3640Y3974D01*
X3645Y3977D01*
X3819Y4152D01*
X3919D01*
X3962Y4108D01*
D02*
G37*
G36*
X3255Y3244D02*
X3256Y3243D01*
X3254Y3238D01*
X3234D01*
X3228Y3237D01*
X3223Y3234D01*
X3157Y3168D01*
X3154Y3163D01*
X3153Y3157D01*
Y2222D01*
X3122Y2192D01*
X3118Y2194D01*
X3120Y2204D01*
X3117Y2218D01*
X3109Y2229D01*
X3098Y2237D01*
X3084Y2240D01*
X3070Y2237D01*
X3059Y2229D01*
X3052Y2219D01*
X2954D01*
X2948Y2218D01*
X2943Y2215D01*
X2903Y2174D01*
X2897Y2175D01*
X2897Y2176D01*
X2900Y2189D01*
X2897Y2203D01*
X2889Y2214D01*
X2878Y2222D01*
X2864Y2225D01*
X2850Y2222D01*
X2839Y2214D01*
X2832Y2204D01*
X2698D01*
X2692Y2203D01*
X2687Y2200D01*
X2236Y1749D01*
X2233Y1744D01*
X2232Y1738D01*
Y1697D01*
X2227Y1694D01*
X2216Y1701D01*
X2200Y1704D01*
X2185Y1701D01*
X2172Y1693D01*
X2171Y1691D01*
X2166Y1693D01*
Y1704D01*
X2719Y2257D01*
X2761D01*
X2768Y2247D01*
X2779Y2239D01*
X2793Y2236D01*
X2807Y2239D01*
X2818Y2247D01*
X2826Y2258D01*
X2829Y2272D01*
X2826Y2286D01*
X2818Y2297D01*
X2811Y2302D01*
X2810Y2309D01*
X2810Y2310D01*
X3046D01*
X3052Y2311D01*
X3057Y2314D01*
X3142Y2399D01*
X3145Y2404D01*
X3146Y2410D01*
Y3172D01*
X3228Y3254D01*
X3248D01*
X3255Y3244D01*
D02*
G37*
G36*
X3059Y2179D02*
X3070Y2171D01*
X3084Y2168D01*
X3094Y2170D01*
X3096Y2166D01*
X3083Y2153D01*
X2986D01*
X2980Y2163D01*
X2968Y2170D01*
X2954Y2173D01*
X2951Y2172D01*
X2948Y2177D01*
X2960Y2189D01*
X3052D01*
X3059Y2179D01*
D02*
G37*
G36*
X5476Y2365D02*
Y2308D01*
X5471Y2307D01*
X5464Y2317D01*
X5450Y2327D01*
X5433Y2330D01*
X5416Y2327D01*
X5402Y2317D01*
X5393Y2303D01*
X5390Y2287D01*
X5393Y2270D01*
X5402Y2256D01*
X5416Y2247D01*
X5433Y2243D01*
X5450Y2247D01*
X5464Y2256D01*
X5471Y2266D01*
X5476Y2265D01*
Y2208D01*
X5471Y2207D01*
X5464Y2217D01*
X5450Y2227D01*
X5433Y2230D01*
X5416Y2227D01*
X5402Y2217D01*
X5393Y2203D01*
X5390Y2187D01*
X5393Y2170D01*
X5402Y2156D01*
X5416Y2147D01*
X5433Y2143D01*
X5450Y2147D01*
X5464Y2156D01*
X5471Y2166D01*
X5476Y2165D01*
Y2108D01*
X5471Y2107D01*
X5464Y2117D01*
X5450Y2127D01*
X5433Y2130D01*
X5416Y2127D01*
X5402Y2117D01*
X5393Y2103D01*
X5390Y2087D01*
X5393Y2070D01*
X5402Y2056D01*
X5416Y2047D01*
X5433Y2043D01*
X5450Y2047D01*
X5464Y2056D01*
X5471Y2066D01*
X5476Y2065D01*
Y2008D01*
X5471Y2007D01*
X5464Y2017D01*
X5450Y2027D01*
X5433Y2030D01*
X5416Y2027D01*
X5402Y2017D01*
X5393Y2003D01*
X5390Y1987D01*
X5393Y1970D01*
X5402Y1956D01*
X5416Y1947D01*
X5433Y1943D01*
X5450Y1947D01*
X5464Y1956D01*
X5471Y1966D01*
X5476Y1965D01*
Y1930D01*
X5439D01*
Y1887D01*
Y1843D01*
X5476D01*
Y1827D01*
X5377Y1729D01*
X5375Y1729D01*
X5372Y1731D01*
Y2304D01*
X5415Y2347D01*
X5416Y2347D01*
X5433Y2343D01*
X5450Y2347D01*
X5464Y2356D01*
X5471Y2366D01*
X5476Y2365D01*
D02*
G37*
G36*
X2216Y2500D02*
Y2402D01*
X1790Y1976D01*
X1786Y1971D01*
X1785Y1965D01*
Y1701D01*
X1785Y1701D01*
X1772Y1693D01*
X1769Y1688D01*
X1764Y1690D01*
Y1968D01*
X2100Y2303D01*
X2103Y2308D01*
X2104Y2314D01*
Y2457D01*
X2141Y2493D01*
X2146Y2493D01*
X2152Y2485D01*
X2163Y2477D01*
X2177Y2474D01*
X2191Y2477D01*
X2202Y2485D01*
X2210Y2496D01*
X2211Y2500D01*
X2216Y2500D01*
D02*
G37*
G36*
X2364Y3203D02*
X2390D01*
Y3165D01*
X2391Y3160D01*
X2395Y3155D01*
X2483Y3067D01*
Y3055D01*
X2479Y3051D01*
X2464D01*
X2460Y3052D01*
X2458Y3052D01*
X2429D01*
Y3012D01*
Y2971D01*
X2458D01*
X2460Y2971D01*
X2464Y2972D01*
X2480D01*
X2482Y2967D01*
X2395Y2880D01*
X2391Y2875D01*
X2390Y2870D01*
Y2860D01*
X2364D01*
Y2830D01*
X2349D01*
X2343Y2829D01*
X2338Y2826D01*
X2307Y2795D01*
X2304Y2790D01*
X2303Y2784D01*
Y2418D01*
X2304Y2412D01*
X2307Y2407D01*
X2343Y2371D01*
X2342Y2367D01*
X2341Y2366D01*
X2302D01*
X2296Y2365D01*
X2291Y2362D01*
X1890Y1960D01*
X1886Y1955D01*
X1885Y1949D01*
Y1701D01*
X1885Y1701D01*
X1872Y1693D01*
X1867Y1694D01*
Y1951D01*
X2285Y2368D01*
X2288Y2373D01*
X2289Y2379D01*
Y3151D01*
X2299Y3158D01*
X2307Y3169D01*
X2310Y3183D01*
X2307Y3197D01*
X2299Y3208D01*
X2288Y3216D01*
X2274Y3219D01*
X2260Y3216D01*
X2249Y3208D01*
X2241Y3197D01*
X2238Y3183D01*
X2241Y3169D01*
X2249Y3158D01*
X2259Y3151D01*
Y2385D01*
X1841Y1968D01*
X1838Y1963D01*
X1837Y1957D01*
Y1690D01*
X1832Y1688D01*
X1829Y1693D01*
X1816Y1701D01*
X1816Y1701D01*
Y1959D01*
X2242Y2385D01*
X2245Y2390D01*
X2246Y2396D01*
Y3036D01*
X2245Y3042D01*
X2242Y3047D01*
X2204Y3084D01*
X2207Y3096D01*
X2204Y3110D01*
X2196Y3121D01*
X2185Y3129D01*
X2171Y3132D01*
X2157Y3129D01*
X2146Y3121D01*
X2138Y3110D01*
X2135Y3096D01*
X2138Y3082D01*
X2146Y3071D01*
X2157Y3063D01*
X2171Y3060D01*
X2183Y3063D01*
X2216Y3030D01*
Y2520D01*
X2211Y2520D01*
X2210Y2524D01*
X2202Y2535D01*
X2191Y2543D01*
X2177Y2546D01*
X2163Y2543D01*
X2152Y2535D01*
X2145Y2525D01*
X2136D01*
X2130Y2524D01*
X2125Y2521D01*
X2078Y2474D01*
X2075Y2469D01*
X2074Y2463D01*
Y2320D01*
X1738Y1985D01*
X1735Y1980D01*
X1734Y1974D01*
Y1694D01*
X1731Y1693D01*
X1729Y1693D01*
X1716Y1701D01*
X1700Y1704D01*
X1685Y1701D01*
X1672Y1693D01*
X1663Y1680D01*
X1660Y1664D01*
X1663Y1649D01*
X1663Y1649D01*
X1616Y1601D01*
X1616Y1601D01*
X1600Y1604D01*
X1585Y1601D01*
X1585Y1601D01*
X1560Y1626D01*
X1555Y1629D01*
X1550Y1630D01*
X1529D01*
X1528Y1635D01*
X1529Y1636D01*
X1538Y1649D01*
X1541Y1664D01*
X1538Y1680D01*
X1529Y1693D01*
X1516Y1701D01*
X1516Y1701D01*
Y1840D01*
X1974Y2298D01*
X1977Y2303D01*
X1978Y2309D01*
Y2478D01*
X2016Y2516D01*
X2028Y2513D01*
X2042Y2516D01*
X2053Y2524D01*
X2061Y2535D01*
X2064Y2549D01*
X2061Y2563D01*
X2053Y2574D01*
X2042Y2582D01*
X2028Y2585D01*
X2014Y2582D01*
X2003Y2574D01*
X1995Y2563D01*
X1992Y2549D01*
X1995Y2537D01*
X1952Y2495D01*
X1949Y2490D01*
X1948Y2484D01*
Y2315D01*
X1490Y1857D01*
X1486Y1852D01*
X1485Y1846D01*
Y1701D01*
X1485Y1701D01*
X1472Y1693D01*
X1463Y1680D01*
X1460Y1664D01*
X1463Y1649D01*
X1472Y1636D01*
X1473Y1635D01*
X1471Y1630D01*
X1429D01*
X1428Y1635D01*
X1429Y1636D01*
X1438Y1649D01*
X1441Y1664D01*
X1438Y1680D01*
X1429Y1693D01*
X1416Y1701D01*
X1400Y1704D01*
X1385Y1701D01*
X1372Y1693D01*
X1363Y1680D01*
X1360Y1664D01*
X1363Y1649D01*
X1370Y1638D01*
X1369Y1632D01*
X1367Y1632D01*
X1348Y1650D01*
Y2002D01*
X1376D01*
Y2093D01*
X1355D01*
Y2592D01*
X1376D01*
Y2683D01*
X1355D01*
Y2816D01*
X1397Y2859D01*
X1668D01*
X1676Y2860D01*
X1682Y2865D01*
X1731Y2913D01*
X1983D01*
X1991Y2915D01*
X1998Y2919D01*
X2019Y2941D01*
X2024Y2947D01*
X2025Y2955D01*
Y3180D01*
X2073Y3228D01*
X2364D01*
Y3203D01*
D02*
G37*
G36*
X3530Y2905D02*
X3538Y2894D01*
X3548Y2887D01*
Y2803D01*
X3507Y2763D01*
X3503Y2766D01*
X3504Y2767D01*
X3505Y2773D01*
Y2892D01*
X3515Y2899D01*
X3523Y2910D01*
X3523Y2913D01*
X3529D01*
X3530Y2905D01*
D02*
G37*
%LPC*%
G36*
X1594Y1658D02*
X1560D01*
X1562Y1648D01*
X1571Y1635D01*
X1585Y1626D01*
X1594Y1624D01*
Y1658D01*
D02*
G37*
G36*
X2417Y3052D02*
X2387D01*
Y3018D01*
X2417D01*
Y3052D01*
D02*
G37*
G36*
X2801Y3038D02*
X2710D01*
Y3011D01*
X2640D01*
X2634Y3010D01*
X2629Y3007D01*
X2612Y2989D01*
X2600Y2992D01*
X2586Y2989D01*
X2575Y2981D01*
X2567Y2970D01*
X2564Y2956D01*
X2567Y2942D01*
X2575Y2931D01*
X2586Y2923D01*
X2600Y2920D01*
X2614Y2923D01*
X2625Y2931D01*
X2633Y2942D01*
X2636Y2956D01*
X2633Y2968D01*
X2646Y2981D01*
X2710D01*
Y2955D01*
X2801D01*
Y3038D01*
D02*
G37*
G36*
X2417Y3006D02*
X2387D01*
Y2971D01*
X2417D01*
Y3006D01*
D02*
G37*
G36*
X1856Y2592D02*
X1828D01*
Y2545D01*
X1856D01*
Y2592D01*
D02*
G37*
G36*
X1821Y2337D02*
X1784D01*
Y2278D01*
X1821D01*
Y2337D01*
D02*
G37*
G36*
X1869D02*
X1833D01*
Y2278D01*
X1869D01*
Y2337D01*
D02*
G37*
G36*
X1560Y2105D02*
X1516D01*
Y2060D01*
X1560D01*
Y2105D01*
D02*
G37*
G36*
X1968Y2896D02*
X1748D01*
X1740Y2893D01*
X1737Y2885D01*
Y2836D01*
X1422D01*
X1414Y2833D01*
X1411Y2825D01*
Y2616D01*
X1414Y2608D01*
X1422Y2605D01*
X1967D01*
X1975Y2608D01*
X1978Y2616D01*
Y2813D01*
X1979Y2815D01*
Y2885D01*
X1976Y2893D01*
X1968Y2896D01*
D02*
G37*
G36*
X1897Y2592D02*
X1868D01*
Y2545D01*
X1897D01*
Y2592D01*
D02*
G37*
G36*
X1869Y2407D02*
X1833D01*
Y2349D01*
X1869D01*
Y2407D01*
D02*
G37*
G36*
X1805Y2591D02*
X1738D01*
Y2488D01*
X1745D01*
X1747Y2483D01*
X1702Y2439D01*
X1698Y2432D01*
X1696Y2425D01*
Y2406D01*
X1675D01*
Y2363D01*
X1517D01*
X1470Y2410D01*
X1471Y2416D01*
X1468Y2430D01*
X1460Y2441D01*
X1449Y2449D01*
X1435Y2452D01*
X1421Y2449D01*
X1410Y2441D01*
X1402Y2430D01*
X1399Y2416D01*
X1402Y2402D01*
X1410Y2391D01*
X1421Y2383D01*
X1435Y2380D01*
X1441Y2381D01*
X1494Y2328D01*
X1501Y2324D01*
X1508Y2322D01*
X1675D01*
Y2279D01*
X1758D01*
Y2406D01*
X1737D01*
Y2416D01*
X1786Y2465D01*
X1790Y2472D01*
X1792Y2480D01*
Y2488D01*
X1805D01*
Y2591D01*
D02*
G37*
G36*
X1715D02*
X1647D01*
Y2488D01*
X1661D01*
Y2482D01*
X1631Y2452D01*
X1601D01*
X1598Y2457D01*
X1587Y2464D01*
X1573Y2467D01*
X1559Y2464D01*
X1548Y2457D01*
X1540Y2445D01*
X1537Y2431D01*
X1540Y2418D01*
X1548Y2406D01*
X1559Y2398D01*
X1573Y2396D01*
X1587Y2398D01*
X1598Y2406D01*
X1601Y2411D01*
X1639D01*
X1647Y2412D01*
X1654Y2417D01*
X1696Y2459D01*
X1700Y2465D01*
X1701Y2473D01*
Y2488D01*
X1715D01*
Y2591D01*
D02*
G37*
G36*
X1897Y2533D02*
X1868D01*
Y2487D01*
X1897D01*
Y2533D01*
D02*
G37*
G36*
X1856D02*
X1828D01*
Y2487D01*
X1856D01*
Y2533D01*
D02*
G37*
G36*
X1821Y2407D02*
X1784D01*
Y2349D01*
X1821D01*
Y2407D01*
D02*
G37*
G36*
X2030Y2442D02*
X2016Y2439D01*
X2005Y2431D01*
X1997Y2420D01*
X1994Y2406D01*
X1997Y2392D01*
X2005Y2381D01*
X2015Y2374D01*
Y2319D01*
X1666Y1971D01*
X1663Y1966D01*
X1662Y1960D01*
Y1803D01*
X1652Y1796D01*
X1644Y1785D01*
X1641Y1771D01*
X1644Y1757D01*
X1652Y1746D01*
X1663Y1738D01*
X1677Y1735D01*
X1691Y1738D01*
X1702Y1746D01*
X1710Y1757D01*
X1713Y1771D01*
X1710Y1785D01*
X1702Y1796D01*
X1692Y1803D01*
Y1954D01*
X2041Y2302D01*
X2044Y2307D01*
X2045Y2313D01*
Y2374D01*
X2055Y2381D01*
X2063Y2392D01*
X2066Y2406D01*
X2063Y2420D01*
X2055Y2431D01*
X2044Y2439D01*
X2030Y2442D01*
D02*
G37*
G36*
X5427Y1881D02*
X5390D01*
Y1843D01*
X5427D01*
Y1881D01*
D02*
G37*
G36*
X2122Y2950D02*
X2108Y2947D01*
X2097Y2939D01*
X2089Y2928D01*
X2086Y2914D01*
X2089Y2902D01*
X2022Y2836D01*
X2019Y2831D01*
X2018Y2825D01*
Y2660D01*
X2008Y2653D01*
X2000Y2642D01*
X1997Y2628D01*
X2000Y2614D01*
X2008Y2603D01*
X2019Y2595D01*
X2033Y2592D01*
X2047Y2595D01*
X2058Y2603D01*
X2066Y2614D01*
X2069Y2628D01*
X2066Y2642D01*
X2058Y2653D01*
X2048Y2660D01*
Y2819D01*
X2110Y2881D01*
X2122Y2878D01*
X2136Y2881D01*
X2147Y2889D01*
X2155Y2900D01*
X2158Y2914D01*
X2155Y2928D01*
X2147Y2939D01*
X2136Y2947D01*
X2122Y2950D01*
D02*
G37*
G36*
X1641Y1658D02*
X1606D01*
Y1624D01*
X1616Y1626D01*
X1630Y1635D01*
X1639Y1648D01*
X1641Y1658D01*
D02*
G37*
G36*
X1594Y1704D02*
X1585Y1702D01*
X1571Y1693D01*
X1562Y1680D01*
X1560Y1670D01*
X1594D01*
Y1704D01*
D02*
G37*
G36*
X1606D02*
Y1670D01*
X1641D01*
X1639Y1680D01*
X1630Y1693D01*
X1616Y1702D01*
X1606Y1704D01*
D02*
G37*
G36*
X1560Y2048D02*
X1516D01*
Y2004D01*
X1560D01*
Y2048D01*
D02*
G37*
G36*
X2240Y2104D02*
X2141D01*
Y2005D01*
X2240D01*
Y2104D01*
D02*
G37*
G36*
X1504Y2105D02*
X1459D01*
Y2060D01*
X1504D01*
Y2105D01*
D02*
G37*
G36*
X5427Y1930D02*
X5390D01*
Y1893D01*
X5427D01*
Y1930D01*
D02*
G37*
G36*
X2693Y2910D02*
X2679Y2907D01*
X2668Y2899D01*
X2660Y2888D01*
X2657Y2874D01*
X2660Y2862D01*
X2628Y2830D01*
X2557D01*
Y2860D01*
X2474D01*
Y2770D01*
X2557D01*
Y2800D01*
X2634D01*
X2640Y2801D01*
X2645Y2804D01*
X2681Y2841D01*
X2693Y2838D01*
X2707Y2841D01*
X2718Y2849D01*
X2726Y2860D01*
X2729Y2874D01*
X2726Y2888D01*
X2718Y2899D01*
X2707Y2907D01*
X2693Y2910D01*
D02*
G37*
G36*
X1504Y2048D02*
X1459D01*
Y2004D01*
X1504D01*
Y2048D01*
D02*
G37*
%LPD*%
D11*
X2516Y3504D02*
D03*
X2406D02*
D03*
X2516Y3248D02*
D03*
X2406D02*
D03*
X2516Y2815D02*
D03*
X2406D02*
D03*
X3028Y3150D02*
D03*
X2917D02*
D03*
X1335Y3917D02*
D03*
X1224D02*
D03*
X1224Y2638D02*
D03*
X1335D02*
D03*
X1335Y2047D02*
D03*
X1224D02*
D03*
X1925Y3917D02*
D03*
X1815D02*
D03*
X1630D02*
D03*
X1520D02*
D03*
D12*
X4906Y2187D02*
D03*
Y2237D02*
D03*
Y2287D02*
D03*
Y2337D02*
D03*
Y2387D02*
D03*
Y2437D02*
D03*
Y2487D02*
D03*
Y2537D02*
D03*
X5094Y2187D02*
D03*
Y2237D02*
D03*
Y2287D02*
D03*
Y2337D02*
D03*
Y2387D02*
D03*
Y2437D02*
D03*
Y2487D02*
D03*
Y2537D02*
D03*
D13*
X3307Y3073D02*
D03*
Y3148D02*
D03*
X4635Y2195D02*
D03*
Y2269D02*
D03*
X4634Y2516D02*
D03*
Y2442D02*
D03*
X5258Y2265D02*
D03*
Y2191D02*
D03*
X5258Y2522D02*
D03*
Y2448D02*
D03*
X3740Y2404D02*
D03*
Y2478D02*
D03*
X2835Y3541D02*
D03*
Y3467D02*
D03*
X1378Y3167D02*
D03*
Y3093D02*
D03*
D16*
X3502Y3543D02*
D03*
X3427D02*
D03*
X3010Y3346D02*
D03*
X2935D02*
D03*
X3542Y3269D02*
D03*
X3468D02*
D03*
X3384Y2677D02*
D03*
X3309D02*
D03*
X3620D02*
D03*
X3545D02*
D03*
X3073Y3543D02*
D03*
X3148D02*
D03*
X2423Y3012D02*
D03*
X2498D02*
D03*
D20*
X2822Y3048D02*
Y3136D01*
X2791Y3167D02*
X2822Y3136D01*
X2663Y3167D02*
X2791D01*
X2634Y3196D02*
X2663Y3167D01*
X2822Y3048D02*
X2867Y3003D01*
X2406Y3165D02*
Y3248D01*
Y3165D02*
X2498Y3073D01*
Y3012D02*
Y3073D01*
Y3012D02*
X2586D01*
X2680Y3106D01*
X2756D01*
X2600Y2956D02*
X2640Y2996D01*
X2756D01*
X4375Y3131D02*
X4737D01*
X5028Y2840D01*
Y2687D02*
Y2840D01*
X4366Y3166D02*
X4772D01*
X5161Y2777D01*
Y2624D02*
Y2777D01*
X4820Y3195D02*
X5269Y2746D01*
X5216Y3256D02*
X5235Y3237D01*
Y2878D02*
Y3237D01*
X4351Y3195D02*
X4820D01*
X4100Y2944D02*
X4351Y3195D01*
X3979Y2944D02*
X4100D01*
X4112Y2868D02*
X4375Y3131D01*
X3944Y2868D02*
X4112D01*
X3931Y2855D02*
X3944Y2868D01*
X4098Y2898D02*
X4366Y3166D01*
X3946Y2898D02*
X4098D01*
X3925Y2919D02*
X3946Y2898D01*
X3893Y2919D02*
X3925D01*
X5046Y3225D02*
X5127Y3144D01*
X4335Y3225D02*
X5046D01*
X4103Y2993D02*
X4335Y3225D01*
X5251Y3290D02*
Y4050D01*
X5216Y3256D02*
X5251Y3290D01*
X4868Y3256D02*
X5216D01*
X4843Y3281D02*
X4868Y3256D01*
X4843Y3281D02*
Y3346D01*
X4299Y2723D02*
X4372Y2796D01*
X4299Y2634D02*
Y2723D01*
X4261Y2778D02*
X4289Y2806D01*
X4261Y2650D02*
Y2778D01*
X4733Y2390D02*
X4786Y2337D01*
X4500Y2390D02*
X4733D01*
X4412Y2302D02*
X4500Y2390D01*
X4720Y2359D02*
X4792Y2287D01*
X4513Y2359D02*
X4720D01*
X4477Y2323D02*
X4513Y2359D01*
X4219Y2554D02*
X4299Y2634D01*
X4201Y2590D02*
X4261Y2650D01*
X2878Y2128D02*
X2954Y2204D01*
X3084D01*
X2785Y2128D02*
X2878D01*
X2455Y1798D02*
X2785Y2128D01*
X4388Y3630D02*
X4423Y3665D01*
X3774Y3630D02*
X4388D01*
X4014Y4193D02*
X4057D01*
X3957Y4250D02*
X4014Y4193D01*
X3957Y4250D02*
Y4329D01*
X3408Y3443D02*
X3505Y3346D01*
X3068Y3443D02*
X3408D01*
X4267Y1584D02*
Y1710D01*
X4194Y1511D02*
X4267Y1584D01*
X2600Y1511D02*
X4194D01*
X2547Y1564D02*
X2600Y1511D01*
X2300Y1564D02*
X2547D01*
X1333Y1644D02*
Y2047D01*
Y1644D02*
X1362Y1615D01*
X3563Y2797D02*
Y2919D01*
X3837Y1726D02*
X3972Y1861D01*
X3639Y1726D02*
X3837D01*
X3493Y1738D02*
X3597Y1634D01*
X3914D01*
X3948Y1668D01*
Y1751D01*
X4040Y1575D02*
Y1895D01*
X3988Y1947D02*
X4040Y1895D01*
X3752Y1947D02*
X3988D01*
X3052Y2810D02*
Y3051D01*
X2033Y2628D02*
Y2825D01*
X2122Y2914D01*
X3405Y3111D02*
X3406Y3110D01*
X3658D01*
X3542Y3220D02*
Y3269D01*
X3530Y3208D02*
X3542Y3220D01*
X3443Y3208D02*
X3530D01*
X3405Y3170D02*
X3443Y3208D01*
X3405Y3111D02*
Y3170D01*
X3367Y3073D02*
X3405Y3111D01*
X3307Y3073D02*
X3367D01*
X5165Y1495D02*
X5491Y1821D01*
X4491Y1495D02*
X5165D01*
X4467Y1519D02*
X4491Y1495D01*
X5147Y1520D02*
X5357Y1730D01*
X4844Y1520D02*
X5147D01*
X4767Y1597D02*
X4844Y1520D01*
X5491Y1821D02*
Y2429D01*
X4094Y2344D02*
Y2393D01*
X3810Y2677D02*
X4094Y2393D01*
X3620Y2677D02*
X3810D01*
X4767Y1597D02*
Y1741D01*
X4678Y1830D02*
X4767Y1741D01*
X4553Y1830D02*
X4678D01*
X4172Y1805D02*
X4267Y1710D01*
X4172Y1805D02*
Y2267D01*
X4094Y2344D02*
X4172Y2267D01*
X5357Y1730D02*
Y2311D01*
X5433Y2387D01*
X4467Y1519D02*
Y1575D01*
X5433Y2487D02*
X5491Y2429D01*
X3974Y4118D02*
X4249D01*
X3925Y4167D02*
X3974Y4118D01*
X3813Y4167D02*
X3925D01*
X2683Y4196D02*
X3368D01*
X2621Y4134D02*
X2683Y4196D01*
X2621Y3916D02*
Y4134D01*
X2764Y4063D02*
X2853D01*
X2979Y3937D01*
X3643D01*
X3837Y4131D01*
X3907D01*
X3951Y4087D01*
X4421D01*
X4505Y4171D01*
Y4281D01*
X3657Y4204D02*
Y4333D01*
X3596Y4143D02*
X3657Y4204D01*
X3044Y4143D02*
X3596D01*
X3634Y3988D02*
X3813Y4167D01*
X3201Y3988D02*
X3634D01*
X3787Y4203D02*
X3950D01*
X3627Y4043D02*
X3787Y4203D01*
X3042Y4043D02*
X3627D01*
X4249Y4118D02*
X4305Y4174D01*
X3950Y4203D02*
X4004Y4149D01*
X4210D01*
X3368Y4196D02*
X3553Y4381D01*
X3605D01*
X3704D02*
Y4392D01*
X3657Y4333D02*
X3705Y4381D01*
X3621Y4097D02*
X3805Y4281D01*
X3149Y4097D02*
X3621D01*
X3937Y3715D02*
X3974Y3678D01*
X3937Y3715D02*
Y3837D01*
X4601Y3577D02*
Y3681D01*
X4517Y3493D02*
X4601Y3577D01*
X3830Y3493D02*
X4517D01*
X2517Y2222D02*
Y2277D01*
X2000Y1705D02*
X2517Y2222D01*
X2000Y1664D02*
Y1705D01*
X2598Y2229D02*
Y2277D01*
X2100Y1731D02*
X2598Y2229D01*
X2100Y1664D02*
Y1731D01*
X2713Y2272D02*
X2793D01*
X2151Y1710D02*
X2713Y2272D01*
X2151Y1615D02*
Y1710D01*
X3490Y2773D02*
Y2924D01*
X3445Y2728D02*
X3490Y2773D01*
X3445Y2368D02*
Y2728D01*
X3120Y2043D02*
X3445Y2368D01*
X2969Y2043D02*
X3120D01*
X3197Y2182D02*
Y2593D01*
X3096Y2081D02*
X3197Y2182D01*
X2946Y2081D02*
X3096D01*
X2666Y1756D02*
Y1801D01*
X2355Y2381D02*
X2539D01*
X2318Y2418D02*
X2355Y2381D01*
X2318Y2418D02*
Y2784D01*
X2981Y3249D02*
X3065D01*
X3100Y3214D01*
Y2432D02*
Y3214D01*
X5350Y2410D02*
X5373Y2387D01*
X5433D01*
X3502Y3543D02*
Y3590D01*
X3470Y3622D02*
X3502Y3590D01*
X2723Y3217D02*
X2806D01*
X2835Y3188D01*
X4219Y2554D02*
X4252Y2521D01*
Y1973D02*
Y2521D01*
X4533Y1971D02*
X4572Y1932D01*
X4533Y1971D02*
Y2302D01*
X4560Y2329D01*
X4689D01*
X4716Y2302D01*
Y2202D02*
Y2302D01*
Y2202D02*
X4755Y2163D01*
X4822D01*
X4846Y2187D01*
X4906D01*
X4477Y1843D02*
Y2323D01*
X4792Y2287D02*
X4906D01*
Y2537D02*
Y2598D01*
X4367Y1851D02*
X4370Y1854D01*
X4367Y1575D02*
Y1851D01*
X4370Y1854D02*
X4412Y1896D01*
Y2302D01*
X4434Y1800D02*
X4477Y1843D01*
X4804Y2237D02*
X4906D01*
X4804Y2229D02*
Y2237D01*
X4786Y2337D02*
X4906D01*
X4757Y2448D02*
Y2511D01*
Y2448D02*
X4818Y2387D01*
X4906D01*
X4824Y2437D02*
X4906D01*
X4807Y2454D02*
X4824Y2437D01*
X4807Y2454D02*
Y2542D01*
X4764Y2585D02*
X4807Y2542D01*
X4728Y2585D02*
X4764D01*
X3370Y2993D02*
X4103D01*
X1362Y1615D02*
X1550D01*
X1600Y1564D01*
X1700Y1664D01*
X2100Y1564D02*
X2151Y1615D01*
X2247Y1611D02*
Y1738D01*
X2200Y1564D02*
X2247Y1611D01*
X1368Y3777D02*
X1962D01*
X1335Y3810D02*
X1368Y3777D01*
X1335Y3810D02*
Y3917D01*
X1181Y2936D02*
X1189Y2944D01*
X1622D01*
X3030Y3443D02*
X3068D01*
X3010Y3423D02*
X3030Y3443D01*
X3010Y3346D02*
Y3423D01*
X3068Y3538D02*
X3073Y3543D01*
X3068Y3443D02*
Y3538D01*
X3753Y2768D02*
X3841D01*
X3819Y2722D02*
X3987Y2554D01*
X4219D01*
X5374Y2831D02*
X5433D01*
X5350Y2807D02*
X5374Y2831D01*
X5350Y2410D02*
Y2807D01*
X3197Y2591D02*
Y3145D01*
X2666Y1801D02*
X2946Y2081D01*
X2804Y1878D02*
X2969Y2043D01*
X2904Y1925D02*
X2986Y2007D01*
X3143D01*
X3480Y2344D01*
Y2714D02*
X3563Y2797D01*
X3480Y2344D02*
Y2714D01*
X2804Y1746D02*
Y1878D01*
X2904Y1745D02*
Y1925D01*
X1717Y3322D02*
X1983D01*
X1681Y3286D02*
X1717Y3322D01*
X1681Y3228D02*
Y3286D01*
X1983Y3322D02*
X2036Y3375D01*
Y3632D01*
X2092Y3688D01*
X2393D01*
X2621Y3916D01*
X3174Y1575D02*
Y1831D01*
X3058Y1947D02*
X3174Y1831D01*
X2406Y3248D02*
Y3504D01*
X2516Y3248D02*
X2634D01*
X2634Y2815D02*
X2693Y2874D01*
X2516Y2815D02*
X2634D01*
X2498Y2962D02*
Y3012D01*
X2406Y2870D02*
X2498Y2962D01*
X2406Y2815D02*
Y2870D01*
X3643Y2386D02*
X3678D01*
X3696Y2404D01*
X3740D01*
X3543Y2386D02*
X3643D01*
X3543Y2496D02*
X3603D01*
X3620Y2513D01*
Y2677D01*
X3384D02*
Y2896D01*
X3425Y2938D01*
X3239Y3073D02*
X3307D01*
X3237Y3071D02*
X3239Y3073D01*
X4918Y1575D02*
Y1658D01*
X5016Y1756D01*
X5207D01*
X5245Y1794D01*
Y1992D01*
X5198Y2039D02*
X5245Y1992D01*
X5075Y2039D02*
X5198D01*
X5018Y2096D02*
X5075Y2039D01*
X5018Y2096D02*
Y2208D01*
X5047Y2237D01*
X5094D01*
X4981Y2235D02*
X5033Y2287D01*
X4981Y2143D02*
Y2235D01*
X4964Y2126D02*
X4981Y2143D01*
X5094Y2131D02*
Y2187D01*
Y2131D02*
X5132Y2093D01*
X5249D01*
X5311Y2031D01*
Y1753D02*
Y2031D01*
X5251Y1693D02*
X5311Y1753D01*
X5071Y1693D02*
X5251D01*
X5018Y1640D02*
X5071Y1693D01*
X5018Y1575D02*
Y1640D01*
X4635Y2149D02*
Y2195D01*
Y2149D02*
X4658Y2126D01*
X4964D01*
X5033Y2287D02*
X5094D01*
X5025Y2487D02*
X5094D01*
X5003Y2509D02*
X5025Y2487D01*
X5003Y2509D02*
Y2599D01*
X4960Y2642D02*
X5003Y2599D01*
X4681Y2642D02*
X4960D01*
X4634Y2595D02*
X4681Y2642D01*
X4634Y2516D02*
Y2595D01*
X5018Y1890D02*
Y1965D01*
X4951Y2032D02*
X5018Y1965D01*
X4813Y2032D02*
X4951D01*
X4775Y2070D02*
X4813Y2032D01*
X4709Y2067D02*
X4780Y1996D01*
X4882D01*
X4918Y1960D01*
Y1890D02*
Y1960D01*
X5094Y2337D02*
X5161D01*
X5184Y2314D01*
Y2206D02*
Y2314D01*
Y2206D02*
X5199Y2191D01*
X5258D01*
Y2265D02*
Y2331D01*
X5202Y2387D02*
X5258Y2331D01*
X5094Y2387D02*
X5202D01*
X5198Y2448D02*
X5258D01*
X5187Y2437D02*
X5198Y2448D01*
X5094Y2437D02*
X5187D01*
X5193Y2522D02*
X5258D01*
X5178Y2537D02*
X5193Y2522D01*
X5094Y2537D02*
X5178D01*
X1224Y2638D02*
Y2732D01*
X1181Y2775D02*
X1224Y2732D01*
X1181Y2775D02*
Y2836D01*
X2516Y3504D02*
X2516Y3504D01*
X4091Y3228D02*
X4134Y3272D01*
X4035Y3228D02*
X4091D01*
X4091Y3425D02*
X4134Y3382D01*
X4035Y3425D02*
X4091D01*
X2634Y3196D02*
Y3248D01*
X4054Y3902D02*
Y3906D01*
X3810D02*
X4054D01*
X2658Y3953D02*
X2764D01*
X2621Y3916D02*
X2658Y3953D01*
X3974Y3678D02*
X4126D01*
X3905Y4381D02*
X3957Y4329D01*
X2483Y3717D02*
X3197D01*
X2402Y3636D02*
X2483Y3717D01*
X2309Y3636D02*
X2402D01*
X2041Y3884D02*
X2267D01*
X1991Y3834D02*
X2041Y3884D01*
X1841Y3834D02*
X1991D01*
X1815Y3860D02*
X1841Y3834D01*
X1815Y3860D02*
Y3917D01*
X4305Y4174D02*
Y4281D01*
X4255Y4194D02*
Y4331D01*
X4305Y4381D01*
X3858Y4077D02*
X3955Y3980D01*
X4081D01*
X4210Y4149D02*
X4255Y4194D01*
X3841Y2768D02*
X4019Y2590D01*
X4201D01*
X4154Y3826D02*
X4192Y3788D01*
Y3681D02*
Y3788D01*
X4270Y3681D02*
Y3814D01*
X4267Y3678D02*
X4270Y3681D01*
X3542Y3269D02*
Y3309D01*
X3505Y3346D02*
X3542Y3309D01*
X3474Y3156D02*
Y3157D01*
X4024Y3060D02*
X4105Y3141D01*
X3528Y3060D02*
X4024D01*
X3474Y3157D02*
X3978D01*
X3618Y2751D02*
X3620Y2749D01*
Y2677D02*
Y2749D01*
X4943Y3346D02*
Y3630D01*
X5201Y3888D01*
Y4117D01*
X5043Y3346D02*
Y3632D01*
X5169Y3758D01*
X3573Y3564D02*
Y3692D01*
X3552Y3543D02*
X3573Y3564D01*
X3502Y3543D02*
X3552D01*
X3832Y3415D02*
X3922D01*
X3972Y3465D01*
X4415D01*
X4465Y3415D01*
X4313Y3546D02*
X4323Y3536D01*
X3727Y3516D02*
X3757Y3546D01*
X4313D01*
X3680Y3724D02*
X3774Y3630D01*
X3700Y3590D02*
X4384D01*
X4411Y3563D01*
X1800Y1664D02*
Y1965D01*
X1749Y1616D02*
X1800Y1564D01*
X1749Y1616D02*
Y1974D01*
X1900Y1664D02*
Y1949D01*
X1852Y1613D02*
X1900Y1564D01*
X1852Y1613D02*
Y1957D01*
X1952Y1613D02*
X2000Y1564D01*
X1952Y1613D02*
Y1945D01*
X1677Y1771D02*
Y1960D01*
X3396Y3222D02*
Y3328D01*
X3280Y3269D02*
X3285D01*
X3197Y3145D02*
X3247Y3195D01*
X3369D01*
X3396Y3222D01*
X3234Y3223D02*
X3336D01*
X3347Y3234D01*
Y3268D01*
X3168Y3157D02*
X3234Y3223D01*
X2917Y3150D02*
Y3200D01*
X2869Y3248D02*
X2917Y3200D01*
X2030Y2313D02*
Y2406D01*
X1677Y1960D02*
X2030Y2313D01*
X1500Y1664D02*
Y1846D01*
X1963Y2309D01*
X1948Y3017D02*
Y3225D01*
X1963Y2484D02*
X2028Y2549D01*
X1963Y2309D02*
Y2484D01*
X1749Y1974D02*
X2089Y2314D01*
X2954Y2137D02*
X3089D01*
X3168Y2216D01*
Y3157D01*
X2698Y2189D02*
X2864D01*
X2247Y1738D02*
X2698Y2189D01*
X3131Y2410D02*
Y3178D01*
X3222Y3269D01*
X3280D01*
X3268Y2383D02*
X3326D01*
X3349Y2406D01*
Y2523D01*
X3231Y2641D02*
X3349Y2523D01*
X3231Y2641D02*
Y2974D01*
X3254Y2997D01*
X2089Y2314D02*
Y2463D01*
X2136Y2510D01*
X2995Y2753D02*
X3052Y2810D01*
X2715Y3305D02*
X2803D01*
X2667Y3353D02*
X2715Y3305D01*
X2667Y3353D02*
Y3478D01*
X2136Y2510D02*
X2177D01*
X2516Y3504D02*
Y3582D01*
X2590Y3656D01*
X2798D01*
X2835Y3619D01*
Y3541D02*
Y3619D01*
X2886Y3541D02*
X2922Y3505D01*
X2835Y3541D02*
X2886D01*
X2869Y3248D02*
Y3387D01*
X2922Y3440D01*
Y3505D01*
X2272Y3504D02*
X2406D01*
X2272Y3504D02*
X2272Y3504D01*
X1800Y1965D02*
X2231Y2396D01*
Y3036D01*
X1852Y1957D02*
X2274Y2379D01*
Y3183D01*
X2049Y3326D02*
X2331D01*
X1948Y3225D02*
X2049Y3326D01*
X2171Y3096D02*
X2231Y3036D01*
X2875Y3075D02*
X2994D01*
X3028Y3109D01*
Y3150D01*
X1952Y1945D02*
X2332Y2325D01*
X3046D01*
X3131Y2410D01*
X1900Y1949D02*
X2302Y2351D01*
X3019D01*
X3100Y2432D01*
X2557Y2399D02*
Y2441D01*
X2539Y2381D02*
X2557Y2399D01*
X2318Y2784D02*
X2349Y2815D01*
X2406D01*
X2457Y2441D02*
Y2497D01*
X2994Y3034D01*
Y3075D01*
D22*
X1542Y3004D02*
X1681Y3143D01*
Y3228D01*
X1303Y3004D02*
X1542D01*
X1252Y3055D02*
X1303Y3004D01*
X1252Y3055D02*
Y3331D01*
X1291Y3370D01*
X1378D01*
X1573Y2431D02*
X1639D01*
X1681Y2473D01*
Y2539D01*
X4860Y3558D02*
Y3661D01*
X4743Y3441D02*
X4860Y3558D01*
X4743Y3346D02*
Y3441D01*
X1903Y3573D02*
Y3578D01*
X1435Y2416D02*
X1508Y2343D01*
X1717D01*
X1903Y3578D02*
X2063Y3738D01*
X2350D01*
X2526Y3914D01*
Y4249D01*
X2726Y4449D01*
X4575D01*
X4642Y4382D01*
Y3956D02*
Y4382D01*
Y3956D02*
X4716Y3882D01*
X4921D01*
X1335Y2047D02*
Y2825D01*
X1717Y2928D02*
Y2933D01*
Y3031D01*
X1335Y2825D02*
X1389Y2879D01*
X1668D01*
X1717Y2928D01*
X1496Y3214D02*
Y3438D01*
X1454Y3480D02*
X1496Y3438D01*
X1378Y3480D02*
X1454D01*
X1449Y3167D02*
X1496Y3214D01*
X1378Y3167D02*
X1449D01*
X1224Y2047D02*
Y2131D01*
X1181Y2174D02*
X1224Y2131D01*
X1181Y2174D02*
Y2246D01*
X5063Y3882D02*
X5065Y3880D01*
X4921Y3882D02*
X5063D01*
X4921Y3722D02*
Y3882D01*
X4860Y3661D02*
X4921Y3722D01*
X4858Y4055D02*
X4921Y3992D01*
X1717Y2343D02*
Y2425D01*
X1772Y2480D01*
Y2539D01*
X1717Y3031D02*
Y3106D01*
X1772Y3161D01*
Y3228D01*
X1181Y3525D02*
X1269D01*
X1314Y3480D01*
X1378D01*
X1181Y3625D02*
Y3765D01*
X1224Y3808D01*
Y3917D01*
X1630Y3917D02*
X1815D01*
X1520D02*
Y4074D01*
X1478Y4116D02*
X1520Y4074D01*
X1478Y4116D02*
Y4238D01*
X5065Y3990D02*
Y4055D01*
X4916Y4204D02*
X5065Y4055D01*
X1717Y2933D02*
X1983D01*
X2005Y2955D01*
Y3188D01*
X2065Y3248D01*
X2406D01*
D25*
X4567Y1575D02*
D03*
X4467D02*
D03*
X1181Y2246D02*
D03*
Y2836D02*
D03*
X1181Y3425D02*
D03*
Y3525D02*
D03*
X2921Y3860D02*
D03*
X3021D02*
D03*
X3640Y1575D02*
D03*
X3740D02*
D03*
X3840D02*
D03*
X3940D02*
D03*
X4040D02*
D03*
X2774D02*
D03*
X2874D02*
D03*
X2974D02*
D03*
X3074D02*
D03*
X3174D02*
D03*
X4743Y3346D02*
D03*
X4843D02*
D03*
X4943D02*
D03*
X5043D02*
D03*
X5433Y2931D02*
D03*
Y3031D02*
D03*
Y3131D02*
D03*
Y3231D02*
D03*
Y3331D02*
D03*
Y2387D02*
D03*
Y2287D02*
D03*
Y2187D02*
D03*
Y2087D02*
D03*
Y1987D02*
D03*
Y2487D02*
D03*
X3171Y4370D02*
D03*
X3071D02*
D03*
X2971D02*
D03*
X2871D02*
D03*
X2771D02*
D03*
X2283D02*
D03*
X2383D02*
D03*
X3268Y2383D02*
D03*
X2557Y2441D02*
D03*
X2657D02*
D03*
X2757D02*
D03*
X2857D02*
D03*
X2957D02*
D03*
X4094Y2813D02*
D03*
Y2144D02*
D03*
Y2244D02*
D03*
Y2344D02*
D03*
X5118Y1575D02*
D03*
X5018D02*
D03*
X5118Y1890D02*
D03*
X5018D02*
D03*
D26*
X4367Y1575D02*
D03*
X3121Y3860D02*
D03*
X3540Y1575D02*
D03*
X2674D02*
D03*
X4643Y3346D02*
D03*
X3737Y3837D02*
D03*
X3271Y4370D02*
D03*
X2483D02*
D03*
X2457Y2441D02*
D03*
X4918Y1575D02*
D03*
X4918Y1890D02*
D03*
D27*
X1700Y1664D02*
D03*
Y1564D02*
D03*
X1800Y1664D02*
D03*
Y1564D02*
D03*
X2300D02*
D03*
X2200Y1664D02*
D03*
Y1564D02*
D03*
X2100Y1664D02*
D03*
Y1564D02*
D03*
X2000Y1664D02*
D03*
Y1564D02*
D03*
X1900Y1664D02*
D03*
Y1564D02*
D03*
X1600D02*
D03*
Y1664D02*
D03*
X1500Y1564D02*
D03*
Y1664D02*
D03*
X1400Y1564D02*
D03*
Y1664D02*
D03*
X4205Y4281D02*
D03*
Y4381D02*
D03*
X4105Y4281D02*
D03*
Y4381D02*
D03*
X3605D02*
D03*
X3705Y4281D02*
D03*
Y4381D02*
D03*
X3805Y4281D02*
D03*
Y4381D02*
D03*
X3905Y4281D02*
D03*
Y4381D02*
D03*
X4005Y4281D02*
D03*
Y4381D02*
D03*
X4305D02*
D03*
Y4281D02*
D03*
X4405Y4381D02*
D03*
Y4281D02*
D03*
X4505Y4381D02*
D03*
Y4281D02*
D03*
D28*
X2300Y1664D02*
D03*
X3605Y4281D02*
D03*
D29*
X4454Y2985D02*
D03*
X5472Y4409D02*
D03*
Y1535D02*
D03*
X1142D02*
D03*
Y4409D02*
D03*
D30*
X2126Y3810D02*
D03*
D31*
Y4222D02*
D03*
D32*
X1181Y2346D02*
D03*
Y2936D02*
D03*
X1181Y3625D02*
D03*
X5433Y2831D02*
D03*
Y1887D02*
D03*
X3837Y3987D02*
D03*
X3937Y3837D02*
D03*
X3268Y2483D02*
D03*
X4094Y2713D02*
D03*
Y2044D02*
D03*
D33*
X2191Y3615D02*
D03*
X1510D02*
D03*
X2191Y2054D02*
D03*
X1510D02*
D03*
D34*
X1675Y4238D02*
D03*
X1875D02*
D03*
X1478D02*
D03*
D35*
X4035Y3228D02*
D03*
Y3425D02*
D03*
D36*
X3276Y2747D02*
D03*
X4298Y3330D02*
D03*
X3862Y2506D02*
D03*
X3010Y1746D02*
D03*
X3243Y3134D02*
D03*
X4445Y3759D02*
D03*
X2600Y2956D02*
D03*
X1542Y3004D02*
D03*
X5028Y2687D02*
D03*
X5161Y2624D02*
D03*
X5269Y2746D02*
D03*
X5235Y2878D02*
D03*
X3979Y2944D02*
D03*
X5127Y3144D02*
D03*
X4372Y2796D02*
D03*
X4289Y2806D02*
D03*
X3084Y2204D02*
D03*
X2455Y1798D02*
D03*
X3563Y2919D02*
D03*
X3948Y1751D02*
D03*
X3972Y1861D02*
D03*
X3052Y3051D02*
D03*
X2867Y3003D02*
D03*
X2122Y2914D02*
D03*
X3672Y2143D02*
D03*
X3639Y1726D02*
D03*
X3493Y1738D02*
D03*
X3393Y1669D02*
D03*
X1903Y3573D02*
D03*
X1435Y2416D02*
D03*
X4553Y1830D02*
D03*
X4267Y1710D02*
D03*
X3044Y4143D02*
D03*
X3042Y4043D02*
D03*
X3149Y4097D02*
D03*
X2981Y3249D02*
D03*
X3931Y2855D02*
D03*
X3893Y2919D02*
D03*
X3470Y3622D02*
D03*
X2723Y3217D02*
D03*
X2835Y3188D02*
D03*
X4252Y1973D02*
D03*
X4572Y1932D02*
D03*
X4906Y2598D02*
D03*
X4370Y1854D02*
D03*
X4434Y1800D02*
D03*
X4804Y2229D02*
D03*
X4757Y2511D02*
D03*
X4728Y2585D02*
D03*
X2598Y2277D02*
D03*
X2517D02*
D03*
X1962Y3777D02*
D03*
X1622Y2944D02*
D03*
X3068Y3443D02*
D03*
X3753Y2768D02*
D03*
X3819Y2722D02*
D03*
X2954Y2137D02*
D03*
X2666Y1756D02*
D03*
X2804Y1746D02*
D03*
X3490Y2924D02*
D03*
X2904Y1745D02*
D03*
X2621Y3916D02*
D03*
X3752Y1947D02*
D03*
X3058D02*
D03*
X2634Y3248D02*
D03*
X2693Y2874D02*
D03*
X3643Y2386D02*
D03*
X3425Y2938D02*
D03*
X3658Y3110D02*
D03*
X3237Y3071D02*
D03*
X4775Y2070D02*
D03*
X4709Y2067D02*
D03*
X4860Y3661D02*
D03*
X4858Y4055D02*
D03*
X1573Y2431D02*
D03*
X2875Y3075D02*
D03*
X3810Y3906D02*
D03*
X4054Y3902D02*
D03*
X4081Y3980D02*
D03*
X4126Y3678D02*
D03*
X4057Y4193D02*
D03*
X3264Y3628D02*
D03*
X3020Y3638D02*
D03*
X3197Y3717D02*
D03*
X2309Y3636D02*
D03*
X2267Y3884D02*
D03*
X3201Y3988D02*
D03*
X3858Y4077D02*
D03*
X4154Y3826D02*
D03*
X4192Y3681D02*
D03*
X4270Y3814D02*
D03*
X4267Y3678D02*
D03*
X3505Y3346D02*
D03*
X3978Y3157D02*
D03*
X4105Y3141D02*
D03*
X3474Y3156D02*
D03*
X3528Y3060D02*
D03*
X3618Y2751D02*
D03*
X3680Y3724D02*
D03*
X3832Y3415D02*
D03*
X3830Y3493D02*
D03*
X5251Y4050D02*
D03*
X5201Y4117D02*
D03*
X5169Y3758D02*
D03*
X4916Y4204D02*
D03*
X4465Y3415D02*
D03*
X4323Y3536D02*
D03*
X3727Y3516D02*
D03*
X4423Y3665D02*
D03*
X3700Y3590D02*
D03*
X4411Y3563D02*
D03*
X4601Y3681D02*
D03*
X1677Y1771D02*
D03*
X3396Y3328D02*
D03*
X3347Y3268D02*
D03*
X3280Y3269D02*
D03*
X2803Y3305D02*
D03*
X2030Y2406D02*
D03*
X1948Y3017D02*
D03*
X2028Y2549D02*
D03*
X2033Y2628D02*
D03*
X2864Y2189D02*
D03*
X3370Y2993D02*
D03*
X3254Y2997D02*
D03*
X2995Y2753D02*
D03*
X2667Y3478D02*
D03*
X2177Y2510D02*
D03*
X2922Y3505D02*
D03*
X2272Y3504D02*
D03*
X2331Y3326D02*
D03*
X2274Y3183D02*
D03*
X2171Y3096D02*
D03*
X2793Y2272D02*
D03*
D37*
X4134Y3272D02*
D03*
Y3382D02*
D03*
X2764Y3953D02*
D03*
Y4063D02*
D03*
X2756Y2996D02*
D03*
Y3106D02*
D03*
X3543Y2386D02*
D03*
Y2496D02*
D03*
X4921Y3882D02*
D03*
Y3992D02*
D03*
X5065Y3990D02*
D03*
Y3880D02*
D03*
X1378Y3370D02*
D03*
Y3480D02*
D03*
D38*
X1772Y3463D02*
D03*
Y2774D02*
D03*
D39*
X1862Y3228D02*
D03*
X1772D02*
D03*
X1681D02*
D03*
Y2539D02*
D03*
X1772D02*
D03*
X1862D02*
D03*
D40*
X1827Y3031D02*
D03*
X1717D02*
D03*
X1827Y2343D02*
D03*
X1717D02*
D03*
D41*
X3573Y3802D02*
D03*
Y3692D02*
D03*
D42*
X1858Y2850D02*
D03*
D43*
X1724Y3609D02*
D03*
D44*
X1758Y3440D02*
D03*
D45*
X1694Y2720D02*
D03*
%TF.MD5,1FE42B5DF03213010D4402DA73B0716D*%
M02*
