G04 Layer_Color=128*
%FSLAX23Y23*%
%MOIN*%
%TF.FileFunction,Paste,Bot*%
%TF.Part,Single*%
G01*
G75*
%TA.AperFunction,SMDPad*%
%ADD11R,0.063X0.071*%
%TA.AperFunction,SMDPad*%
%ADD12O,0.087X0.024*%
%TA.AperFunction,SMDPad*%
%ADD13R,0.059X0.051*%
%TA.AperFunction,SMDPad*%
%ADD16R,0.051X0.059*%
%TA.AperFunction,SMDPad*%
%ADD37R,0.071X0.063*%
%TA.AperFunction,SMDPad*%
%ADD38R,0.125X0.075*%
%TA.AperFunction,SMDPad*%
%ADD39R,0.047X0.083*%
%TA.AperFunction,SMDPad*%
%ADD40R,0.063X0.106*%
%TA.AperFunction,SMDPad*%
%ADD41R,0.106X0.063*%
D11*
X2516Y3504D02*
D03*
X2406D02*
D03*
X2516Y3248D02*
D03*
X2406D02*
D03*
X2516Y2815D02*
D03*
X2406D02*
D03*
X3028Y3150D02*
D03*
X2917D02*
D03*
X1335Y3917D02*
D03*
X1224D02*
D03*
X1224Y2638D02*
D03*
X1335D02*
D03*
X1335Y2047D02*
D03*
X1224D02*
D03*
X1925Y3917D02*
D03*
X1815D02*
D03*
X1630D02*
D03*
X1520D02*
D03*
D12*
X4906Y2187D02*
D03*
Y2237D02*
D03*
Y2287D02*
D03*
Y2337D02*
D03*
Y2387D02*
D03*
Y2437D02*
D03*
Y2487D02*
D03*
Y2537D02*
D03*
X5094Y2187D02*
D03*
Y2237D02*
D03*
Y2287D02*
D03*
Y2337D02*
D03*
Y2387D02*
D03*
Y2437D02*
D03*
Y2487D02*
D03*
Y2537D02*
D03*
D13*
X3307Y3073D02*
D03*
Y3148D02*
D03*
X4635Y2195D02*
D03*
Y2269D02*
D03*
X4634Y2516D02*
D03*
Y2442D02*
D03*
X5258Y2265D02*
D03*
Y2191D02*
D03*
X5258Y2522D02*
D03*
Y2448D02*
D03*
X3740Y2404D02*
D03*
Y2478D02*
D03*
X2835Y3541D02*
D03*
Y3467D02*
D03*
X1378Y3167D02*
D03*
Y3093D02*
D03*
D16*
X3502Y3543D02*
D03*
X3427D02*
D03*
X3010Y3346D02*
D03*
X2935D02*
D03*
X3542Y3269D02*
D03*
X3468D02*
D03*
X3384Y2677D02*
D03*
X3309D02*
D03*
X3620D02*
D03*
X3545D02*
D03*
X3073Y3543D02*
D03*
X3148D02*
D03*
X2423Y3012D02*
D03*
X2498D02*
D03*
D37*
X4134Y3272D02*
D03*
Y3382D02*
D03*
X2764Y3953D02*
D03*
Y4063D02*
D03*
X2756Y2996D02*
D03*
Y3106D02*
D03*
X3543Y2386D02*
D03*
Y2496D02*
D03*
X4921Y3882D02*
D03*
Y3992D02*
D03*
X5065Y3990D02*
D03*
Y3880D02*
D03*
X1378Y3370D02*
D03*
Y3480D02*
D03*
D38*
X1772Y3463D02*
D03*
Y2774D02*
D03*
D39*
X1862Y3228D02*
D03*
X1772D02*
D03*
X1681D02*
D03*
Y2539D02*
D03*
X1772D02*
D03*
X1862D02*
D03*
D40*
X1827Y3031D02*
D03*
X1717D02*
D03*
X1827Y2343D02*
D03*
X1717D02*
D03*
D41*
X3573Y3802D02*
D03*
Y3692D02*
D03*
%TF.MD5,088C032348790FCBE18F53EF9F739B3E*%
M02*
