G04 Layer_Physical_Order=1*
G04 Layer_Color=255*
%FSLAX23Y23*%
%MOIN*%
%TF.FileFunction,Copper,L1,Top,Signal*%
%TF.Part,Single*%
G01*
G75*
%TA.AperFunction,SMDPad*%
%ADD10R,0.079X0.039*%
%TA.AperFunction,SMDPad*%
%ADD11R,0.063X0.071*%
%TA.AperFunction,SMDPad*%
%ADD12O,0.087X0.024*%
%TA.AperFunction,SMDPad*%
%ADD13R,0.059X0.051*%
%TA.AperFunction,SMDPad*%
%ADD14R,0.051X0.065*%
%TA.AperFunction,SMDPad*%
%ADD15R,0.065X0.051*%
%TA.AperFunction,SMDPad*%
%ADD16R,0.051X0.059*%
%TA.AperFunction,SMDPad*%
%ADD17O,0.012X0.071*%
%TA.AperFunction,SMDPad*%
%ADD18O,0.071X0.012*%
%TA.AperFunction,SMDPad*%
%ADD19O,0.028X0.098*%
%ADD20C,0.010*%
%ADD21C,0.030*%
%ADD22C,0.020*%
%ADD23C,0.120*%
%ADD24C,0.080*%
%TA.AperFunction,ViaPad*%
%ADD25C,0.065*%
%TA.AperFunction,ViaPad*%
%ADD26R,0.065X0.065*%
%TA.AperFunction,ViaPad*%
%ADD27C,0.059*%
%TA.AperFunction,ViaPad*%
%ADD28R,0.059X0.059*%
%TA.AperFunction,ConnectorPad*%
%ADD29C,0.197*%
%TA.AperFunction,ViaPad*%
%ADD30C,0.079*%
%TA.AperFunction,ViaPad*%
%ADD31R,0.079X0.079*%
%TA.AperFunction,ViaPad*%
%ADD32R,0.065X0.065*%
%TA.AperFunction,ViaPad*%
%ADD33R,0.079X0.079*%
%TA.AperFunction,ViaPad*%
%ADD34C,0.075*%
%TA.AperFunction,ViaPad*%
%ADD35C,0.039*%
%TA.AperFunction,ViaPad*%
%ADD36C,0.050*%
G36*
X5630Y1378D02*
X984D01*
Y4567D01*
X5630D01*
Y1378D01*
D02*
G37*
%LPC*%
G36*
X4137Y2039D02*
X4099D01*
Y2002D01*
X4137D01*
Y2039D01*
D02*
G37*
G36*
X3643Y1913D02*
X3634Y1911D01*
X3625Y1906D01*
X3621Y1899D01*
X3621Y1899D01*
X3616D01*
X3616Y1899D01*
X3611Y1906D01*
X3603Y1911D01*
X3593Y1913D01*
X3584Y1911D01*
X3575Y1906D01*
X3571Y1899D01*
X3571Y1899D01*
X3566D01*
X3566Y1899D01*
X3561Y1906D01*
X3553Y1911D01*
X3543Y1913D01*
X3534Y1911D01*
X3525Y1906D01*
X3521Y1899D01*
X3521Y1899D01*
X3516D01*
X3516Y1899D01*
X3511Y1906D01*
X3503Y1911D01*
X3493Y1913D01*
X3484Y1911D01*
X3475Y1906D01*
X3471Y1899D01*
X3471Y1899D01*
X3466D01*
X3466Y1899D01*
X3461Y1906D01*
X3453Y1911D01*
X3443Y1913D01*
X3434Y1911D01*
X3425Y1906D01*
X3421Y1899D01*
X3421Y1899D01*
X3416D01*
X3416Y1899D01*
X3411Y1906D01*
X3403Y1911D01*
X3393Y1913D01*
X3384Y1911D01*
X3375Y1906D01*
X3370Y1897D01*
X3368Y1888D01*
Y1817D01*
X3370Y1807D01*
X3375Y1799D01*
X3377Y1798D01*
Y1701D01*
X3367Y1695D01*
X3359Y1683D01*
X3357Y1669D01*
X3359Y1655D01*
X3367Y1643D01*
X3379Y1635D01*
X3393Y1632D01*
X3407Y1635D01*
X3419Y1643D01*
X3427Y1655D01*
X3430Y1669D01*
X3427Y1683D01*
X3419Y1695D01*
X3410Y1701D01*
Y1798D01*
X3411Y1799D01*
X3416Y1806D01*
X3416Y1806D01*
X3421D01*
X3421Y1806D01*
X3425Y1799D01*
X3427Y1798D01*
Y1713D01*
X3428Y1706D01*
X3432Y1701D01*
X3510Y1623D01*
X3508Y1618D01*
X3497D01*
Y1531D01*
X3584D01*
Y1618D01*
X3556D01*
X3555Y1622D01*
X3552Y1627D01*
X3481Y1698D01*
X3483Y1703D01*
X3493Y1701D01*
X3507Y1704D01*
X3519Y1712D01*
X3527Y1724D01*
X3529Y1734D01*
X3535Y1735D01*
X3624Y1646D01*
Y1616D01*
X3623Y1616D01*
X3609Y1606D01*
X3599Y1592D01*
X3596Y1575D01*
X3599Y1558D01*
X3609Y1543D01*
X3623Y1534D01*
X3640Y1530D01*
X3657Y1534D01*
X3672Y1543D01*
X3681Y1558D01*
X3684Y1575D01*
X3681Y1592D01*
X3672Y1606D01*
X3657Y1616D01*
X3656Y1616D01*
Y1653D01*
X3655Y1659D01*
X3652Y1664D01*
X3630Y1686D01*
X3633Y1691D01*
X3639Y1689D01*
X3653Y1692D01*
X3665Y1700D01*
X3673Y1712D01*
X3676Y1726D01*
X3675Y1730D01*
X3679Y1733D01*
X3724Y1688D01*
Y1616D01*
X3723Y1616D01*
X3709Y1606D01*
X3699Y1592D01*
X3696Y1575D01*
X3699Y1558D01*
X3709Y1543D01*
X3723Y1534D01*
X3740Y1530D01*
X3757Y1534D01*
X3772Y1543D01*
X3781Y1558D01*
X3784Y1575D01*
X3781Y1592D01*
X3772Y1606D01*
X3757Y1616D01*
X3756Y1616D01*
Y1695D01*
X3755Y1701D01*
X3752Y1706D01*
X3661Y1797D01*
X3661Y1799D01*
X3666Y1806D01*
X3668Y1807D01*
X3669Y1807D01*
X3672Y1807D01*
X3676Y1800D01*
X3684Y1795D01*
X3688Y1794D01*
Y1852D01*
Y1911D01*
X3684Y1910D01*
X3676Y1905D01*
X3672Y1898D01*
X3669Y1898D01*
X3668Y1898D01*
X3666Y1898D01*
X3661Y1906D01*
X3653Y1911D01*
X3643Y1913D01*
D02*
G37*
G36*
X1559Y2049D02*
X1515D01*
Y2005D01*
X1559D01*
Y2049D01*
D02*
G37*
G36*
X1505D02*
X1460D01*
Y2005D01*
X1505D01*
Y2049D01*
D02*
G37*
G36*
X1176Y3468D02*
X1165Y3465D01*
X1150Y3456D01*
X1141Y3442D01*
X1139Y3430D01*
X1176D01*
Y3468D01*
D02*
G37*
G36*
X5123Y1932D02*
Y1895D01*
X5160D01*
X5158Y1906D01*
X5149Y1920D01*
X5135Y1930D01*
X5123Y1932D01*
D02*
G37*
G36*
X2364Y4454D02*
X1550D01*
X1544Y4453D01*
X1538Y4450D01*
X1376Y4288D01*
X1373Y4282D01*
X1372Y4276D01*
Y2540D01*
X1316Y2484D01*
X1153D01*
X1147Y2483D01*
X1141Y2480D01*
X1103Y2442D01*
X1100Y2436D01*
X1099Y2430D01*
Y1864D01*
X1100Y1858D01*
X1103Y1852D01*
X1354Y1601D01*
X1360Y1598D01*
X1366Y1597D01*
X1368D01*
X1370Y1592D01*
X1362Y1580D01*
X1359Y1564D01*
X1362Y1548D01*
X1371Y1535D01*
X1385Y1526D01*
X1400Y1523D01*
X1416Y1526D01*
X1430Y1535D01*
X1439Y1548D01*
X1442Y1564D01*
X1439Y1580D01*
X1431Y1592D01*
X1433Y1597D01*
X1468D01*
X1470Y1592D01*
X1462Y1580D01*
X1459Y1564D01*
X1462Y1548D01*
X1471Y1535D01*
X1485Y1526D01*
X1500Y1523D01*
X1516Y1526D01*
X1530Y1535D01*
X1539Y1548D01*
X1542Y1564D01*
X1539Y1580D01*
X1531Y1592D01*
X1533Y1597D01*
X1568D01*
X1570Y1592D01*
X1562Y1580D01*
X1559Y1564D01*
X1562Y1548D01*
X1571Y1535D01*
X1585Y1526D01*
X1600Y1523D01*
X1616Y1526D01*
X1643Y1498D01*
X1648Y1495D01*
X1655Y1494D01*
X2246D01*
X2252Y1495D01*
X2258Y1498D01*
X2285Y1526D01*
X2300Y1523D01*
X2316Y1526D01*
X2330Y1535D01*
X2339Y1548D01*
X2342Y1564D01*
X2339Y1580D01*
X2331Y1592D01*
X2333Y1597D01*
X2373D01*
X2379Y1598D01*
X2385Y1601D01*
X2467Y1683D01*
X2470Y1689D01*
X2471Y1695D01*
Y1766D01*
X2481Y1772D01*
X2489Y1784D01*
X2492Y1798D01*
X2489Y1812D01*
X2481Y1824D01*
X2469Y1832D01*
X2455Y1835D01*
X2441Y1832D01*
X2429Y1824D01*
X2421Y1812D01*
X2418Y1798D01*
X2421Y1784D01*
X2429Y1772D01*
X2439Y1766D01*
Y1702D01*
X2366Y1629D01*
X2340D01*
Y1659D01*
X2261D01*
Y1629D01*
X2230D01*
X2228Y1634D01*
X2230Y1635D01*
X2239Y1648D01*
X2242Y1664D01*
X2239Y1680D01*
X2230Y1693D01*
X2217Y1702D01*
Y1737D01*
X2215Y1743D01*
X2212Y1748D01*
X2178Y1783D01*
X2172Y1786D01*
X2166Y1787D01*
X1709D01*
X1703Y1797D01*
X1691Y1805D01*
X1677Y1808D01*
X1663Y1805D01*
X1651Y1797D01*
X1643Y1785D01*
X1640Y1771D01*
X1643Y1757D01*
X1651Y1745D01*
X1663Y1737D01*
X1677Y1734D01*
X1691Y1737D01*
X1703Y1745D01*
X1709Y1755D01*
X2159D01*
X2184Y1730D01*
Y1702D01*
X2171Y1693D01*
X2162Y1680D01*
X2159Y1664D01*
X2162Y1648D01*
X2171Y1635D01*
X2172Y1634D01*
X2171Y1629D01*
X2130D01*
X2128Y1634D01*
X2130Y1635D01*
X2139Y1648D01*
X2142Y1664D01*
X2139Y1680D01*
X2130Y1693D01*
X2116Y1702D01*
X2100Y1705D01*
X2085Y1702D01*
X2071Y1693D01*
X2062Y1680D01*
X2059Y1664D01*
X2062Y1648D01*
X2071Y1635D01*
X2072Y1634D01*
X2071Y1629D01*
X2030D01*
X2028Y1634D01*
X2030Y1635D01*
X2039Y1648D01*
X2042Y1664D01*
X2039Y1680D01*
X2030Y1693D01*
X2016Y1702D01*
X2000Y1705D01*
X1985Y1702D01*
X1971Y1693D01*
X1962Y1680D01*
X1959Y1664D01*
X1962Y1648D01*
X1971Y1635D01*
X1972Y1634D01*
X1971Y1629D01*
X1930D01*
X1928Y1634D01*
X1930Y1635D01*
X1939Y1648D01*
X1942Y1664D01*
X1939Y1680D01*
X1930Y1693D01*
X1916Y1702D01*
X1900Y1705D01*
X1885Y1702D01*
X1871Y1693D01*
X1862Y1680D01*
X1859Y1664D01*
X1862Y1648D01*
X1871Y1635D01*
X1872Y1634D01*
X1871Y1629D01*
X1830D01*
X1828Y1634D01*
X1830Y1635D01*
X1839Y1648D01*
X1842Y1664D01*
X1839Y1680D01*
X1830Y1693D01*
X1816Y1702D01*
X1800Y1705D01*
X1785Y1702D01*
X1771Y1693D01*
X1762Y1680D01*
X1759Y1664D01*
X1762Y1648D01*
X1771Y1635D01*
X1772Y1634D01*
X1771Y1629D01*
X1730D01*
X1728Y1634D01*
X1730Y1635D01*
X1739Y1648D01*
X1742Y1664D01*
X1739Y1680D01*
X1730Y1693D01*
X1716Y1702D01*
X1700Y1705D01*
X1685Y1702D01*
X1671Y1693D01*
X1662Y1680D01*
X1659Y1664D01*
X1662Y1648D01*
X1671Y1635D01*
X1672Y1634D01*
X1671Y1629D01*
X1628D01*
X1627Y1634D01*
X1629Y1636D01*
X1638Y1649D01*
X1640Y1659D01*
X1561D01*
X1563Y1649D01*
X1572Y1636D01*
X1574Y1634D01*
X1573Y1629D01*
X1530D01*
X1528Y1634D01*
X1530Y1635D01*
X1539Y1648D01*
X1542Y1664D01*
X1539Y1680D01*
X1530Y1693D01*
X1516Y1702D01*
X1500Y1705D01*
X1485Y1702D01*
X1471Y1693D01*
X1462Y1680D01*
X1459Y1664D01*
X1462Y1648D01*
X1471Y1635D01*
X1472Y1634D01*
X1471Y1629D01*
X1430D01*
X1428Y1634D01*
X1430Y1635D01*
X1439Y1648D01*
X1442Y1664D01*
X1439Y1680D01*
X1430Y1693D01*
X1416Y1702D01*
X1400Y1705D01*
X1385Y1702D01*
X1371Y1693D01*
X1362Y1680D01*
X1359Y1664D01*
X1362Y1648D01*
X1365Y1644D01*
X1361Y1641D01*
X1131Y1871D01*
Y2423D01*
X1160Y2452D01*
X1323D01*
X1329Y2453D01*
X1335Y2456D01*
X1400Y2521D01*
X1403Y2527D01*
X1404Y2533D01*
Y4269D01*
X1557Y4422D01*
X2357D01*
X2364Y4415D01*
X2363Y4409D01*
X2352Y4401D01*
X2343Y4387D01*
X2339Y4370D01*
X2343Y4353D01*
X2352Y4339D01*
X2366Y4329D01*
X2383Y4326D01*
X2400Y4329D01*
X2415Y4339D01*
X2424Y4353D01*
X2427Y4365D01*
X2432Y4364D01*
X2430Y4354D01*
Y4269D01*
X2404Y4243D01*
X2334D01*
X2315Y4240D01*
X2298Y4233D01*
X2283Y4222D01*
X2075Y4014D01*
X2064Y3999D01*
X2057Y3982D01*
X2054Y3963D01*
Y3810D01*
X2057Y3791D01*
X2064Y3774D01*
X2075Y3759D01*
X2119Y3715D01*
Y3615D01*
X2122Y3597D01*
X2129Y3579D01*
X2140Y3565D01*
X2155Y3553D01*
X2172Y3546D01*
X2191Y3544D01*
X2209Y3546D01*
X2227Y3553D01*
X2242Y3565D01*
X2253Y3579D01*
X2260Y3597D01*
X2263Y3615D01*
Y3745D01*
X2260Y3763D01*
X2253Y3781D01*
X2242Y3796D01*
X2198Y3840D01*
Y3933D01*
X2364Y4099D01*
X2434D01*
X2453Y4102D01*
X2470Y4109D01*
X2485Y4120D01*
X2553Y4188D01*
X2564Y4203D01*
X2571Y4220D01*
X2574Y4239D01*
Y4354D01*
X2571Y4373D01*
X2564Y4390D01*
X2553Y4405D01*
X2538Y4416D01*
X2521Y4423D01*
X2502Y4426D01*
X2483Y4423D01*
X2476Y4420D01*
X2466Y4418D01*
X2459Y4414D01*
X2440D01*
Y4393D01*
X2438Y4390D01*
X2436Y4380D01*
X2433Y4373D01*
X2433Y4371D01*
X2428Y4371D01*
X2424Y4387D01*
X2415Y4401D01*
X2400Y4411D01*
X2400Y4411D01*
Y4419D01*
X2399Y4425D01*
X2395Y4430D01*
X2376Y4450D01*
X2370Y4453D01*
X2364Y4454D01*
D02*
G37*
G36*
X1186Y3468D02*
Y3430D01*
X1223D01*
X1221Y3442D01*
X1212Y3456D01*
X1198Y3465D01*
X1186Y3468D01*
D02*
G37*
G36*
X1181Y3570D02*
X1164Y3566D01*
X1150Y3557D01*
X1140Y3542D01*
X1137Y3525D01*
X1140Y3508D01*
X1150Y3494D01*
X1164Y3484D01*
X1181Y3481D01*
X1198Y3484D01*
X1212Y3494D01*
X1222Y3508D01*
X1225Y3525D01*
X1222Y3542D01*
X1212Y3557D01*
X1198Y3566D01*
X1181Y3570D01*
D02*
G37*
G36*
X4685Y3341D02*
X4648D01*
Y3304D01*
X4685D01*
Y3341D01*
D02*
G37*
G36*
X5438Y3374D02*
Y3336D01*
X5475D01*
X5473Y3348D01*
X5464Y3362D01*
X5450Y3372D01*
X5438Y3374D01*
D02*
G37*
G36*
X4743Y3391D02*
X4726Y3387D01*
X4711Y3378D01*
X4702Y3363D01*
X4698Y3346D01*
X4702Y3329D01*
X4711Y3315D01*
X4726Y3305D01*
X4743Y3302D01*
X4759Y3305D01*
X4774Y3315D01*
X4783Y3329D01*
X4787Y3346D01*
X4783Y3363D01*
X4774Y3378D01*
X4759Y3387D01*
X4743Y3391D01*
D02*
G37*
G36*
X4638Y3341D02*
X4600D01*
Y3304D01*
X4638D01*
Y3341D01*
D02*
G37*
G36*
X4521Y2330D02*
X4436D01*
Y2237D01*
X4457D01*
Y2133D01*
X4436D01*
Y2040D01*
X4521D01*
Y2133D01*
X4500D01*
Y2237D01*
X4521D01*
Y2330D01*
D02*
G37*
G36*
X1176Y3420D02*
X1139D01*
X1141Y3409D01*
X1150Y3395D01*
X1165Y3385D01*
X1176Y3383D01*
Y3420D01*
D02*
G37*
G36*
X1223D02*
X1186D01*
Y3383D01*
X1198Y3385D01*
X1212Y3395D01*
X1221Y3409D01*
X1223Y3420D01*
D02*
G37*
G36*
X4638Y3389D02*
X4600D01*
Y3351D01*
X4638D01*
Y3389D01*
D02*
G37*
G36*
X4685D02*
X4648D01*
Y3351D01*
X4685D01*
Y3389D01*
D02*
G37*
G36*
X3275Y1901D02*
X3240D01*
Y1870D01*
X3275D01*
Y1901D01*
D02*
G37*
G36*
X5349Y3691D02*
X5305D01*
Y3666D01*
X5349D01*
Y3691D01*
D02*
G37*
G36*
X5404Y3656D02*
X5359D01*
Y3632D01*
X5404D01*
Y3656D01*
D02*
G37*
G36*
X3320Y1901D02*
X3285D01*
Y1870D01*
X3320D01*
Y1901D01*
D02*
G37*
G36*
X5404Y3691D02*
X5359D01*
Y3666D01*
X5404D01*
Y3691D01*
D02*
G37*
G36*
X4860Y3698D02*
X4846Y3695D01*
X4834Y3687D01*
X4831Y3683D01*
X4775D01*
Y3692D01*
X4674D01*
Y3631D01*
X4775D01*
Y3640D01*
X4831D01*
X4834Y3635D01*
X4846Y3628D01*
X4860Y3625D01*
X4874Y3628D01*
X4886Y3635D01*
X4894Y3647D01*
X4897Y3661D01*
X4894Y3675D01*
X4886Y3687D01*
X4874Y3695D01*
X4860Y3698D01*
D02*
G37*
G36*
X4775Y3771D02*
X4674D01*
Y3709D01*
X4775D01*
Y3771D01*
D02*
G37*
G36*
X2448Y4062D02*
X2363D01*
Y3969D01*
X2384D01*
Y3962D01*
X2362D01*
Y3870D01*
X2362Y3870D01*
X2363Y3865D01*
Y3772D01*
X2384D01*
Y3767D01*
X2363D01*
Y3674D01*
X2448D01*
Y3767D01*
X2427D01*
Y3772D01*
X2448D01*
Y3865D01*
X2448Y3865D01*
X2447Y3870D01*
Y3962D01*
X2427D01*
Y3969D01*
X2448D01*
Y4062D01*
D02*
G37*
G36*
X3698Y1911D02*
Y1857D01*
X3718D01*
Y1888D01*
X3716Y1897D01*
X3710Y1905D01*
X3703Y1910D01*
X3698Y1911D01*
D02*
G37*
G36*
X1225Y3669D02*
X1138D01*
Y3582D01*
X1225D01*
Y3669D01*
D02*
G37*
G36*
X5113Y1932D02*
X5102Y1930D01*
X5087Y1920D01*
X5078Y1906D01*
X5076Y1895D01*
X5113D01*
Y1932D01*
D02*
G37*
G36*
X1505Y3610D02*
X1460D01*
Y3566D01*
X1505D01*
Y3610D01*
D02*
G37*
G36*
X1559D02*
X1515D01*
Y3566D01*
X1559D01*
Y3610D01*
D02*
G37*
G36*
X5476Y1929D02*
X5438D01*
Y1892D01*
X5476D01*
Y1929D01*
D02*
G37*
G36*
X1559Y3665D02*
X1515D01*
Y3620D01*
X1559D01*
Y3665D01*
D02*
G37*
G36*
X5349Y3656D02*
X5305D01*
Y3632D01*
X5349D01*
Y3656D01*
D02*
G37*
G36*
X5428Y1929D02*
X5391D01*
Y1892D01*
X5428D01*
Y1929D01*
D02*
G37*
G36*
X1505Y3665D02*
X1460D01*
Y3620D01*
X1505D01*
Y3665D01*
D02*
G37*
G36*
X5477Y2875D02*
X5390D01*
Y2788D01*
X5477D01*
Y2875D01*
D02*
G37*
G36*
X1181Y2881D02*
X1164Y2877D01*
X1150Y2868D01*
X1140Y2853D01*
X1137Y2836D01*
X1140Y2819D01*
X1150Y2805D01*
X1164Y2795D01*
X1181Y2792D01*
X1198Y2795D01*
X1212Y2805D01*
X1222Y2819D01*
X1225Y2836D01*
X1222Y2853D01*
X1212Y2868D01*
X1198Y2877D01*
X1181Y2881D01*
D02*
G37*
G36*
X1224Y2341D02*
X1186D01*
Y2303D01*
X1224D01*
Y2341D01*
D02*
G37*
G36*
X1176D02*
X1139D01*
Y2303D01*
X1176D01*
Y2341D01*
D02*
G37*
G36*
X5043Y3391D02*
X5026Y3387D01*
X5011Y3378D01*
X5002Y3363D01*
X4998Y3346D01*
X5002Y3329D01*
X5011Y3315D01*
X5021Y3308D01*
Y2884D01*
X4961Y2824D01*
X4838D01*
Y2840D01*
X4751D01*
Y2826D01*
X4746Y2825D01*
X4698Y2874D01*
X4691Y2878D01*
X4682Y2880D01*
X4680D01*
X4677Y2884D01*
X4677Y2895D01*
X4676Y2900D01*
Y2928D01*
X4596D01*
Y2900D01*
X4595Y2895D01*
X4595Y2893D01*
Y2822D01*
X4677D01*
Y2828D01*
X4681Y2830D01*
X4723Y2788D01*
X4730Y2783D01*
X4738Y2782D01*
X4751D01*
Y2766D01*
X4838D01*
Y2782D01*
X5079D01*
X5082Y2778D01*
X5082Y2766D01*
X5078Y2764D01*
X4880D01*
X4874Y2763D01*
X4868Y2760D01*
X4807Y2699D01*
X4804Y2693D01*
X4803Y2687D01*
Y2266D01*
X4790Y2263D01*
X4778Y2255D01*
X4772Y2247D01*
X4767Y2248D01*
Y2476D01*
X4771Y2477D01*
X4783Y2485D01*
X4791Y2497D01*
X4794Y2511D01*
X4791Y2525D01*
X4783Y2537D01*
X4771Y2545D01*
X4757Y2548D01*
X4743Y2545D01*
X4731Y2537D01*
X4730Y2536D01*
X4725Y2537D01*
Y2546D01*
X4728Y2548D01*
X4742Y2551D01*
X4754Y2559D01*
X4762Y2571D01*
X4765Y2585D01*
X4762Y2599D01*
X4754Y2611D01*
X4742Y2619D01*
X4728Y2622D01*
X4714Y2619D01*
X4702Y2611D01*
X4694Y2599D01*
X4691Y2585D01*
X4694Y2572D01*
X4693Y2566D01*
Y2099D01*
X4683Y2093D01*
X4675Y2081D01*
X4672Y2067D01*
X4675Y2053D01*
X4683Y2041D01*
X4695Y2033D01*
X4709Y2030D01*
X4723Y2033D01*
X4735Y2041D01*
X4740Y2049D01*
X4746D01*
X4749Y2044D01*
X4761Y2036D01*
X4775Y2033D01*
X4789Y2036D01*
X4801Y2044D01*
X4809Y2056D01*
X4812Y2070D01*
X4809Y2084D01*
X4801Y2096D01*
X4789Y2104D01*
X4775Y2107D01*
X4771Y2106D01*
X4767Y2109D01*
Y2210D01*
X4772Y2212D01*
X4778Y2203D01*
X4790Y2195D01*
X4804Y2193D01*
X4818Y2195D01*
X4830Y2203D01*
X4838Y2215D01*
X4840Y2229D01*
X4838Y2243D01*
X4835Y2247D01*
Y2680D01*
X4887Y2732D01*
X5190D01*
X5196Y2733D01*
X5202Y2736D01*
X5237Y2772D01*
X5241Y2769D01*
X5235Y2760D01*
X5232Y2746D01*
X5235Y2732D01*
X5243Y2720D01*
X5255Y2712D01*
X5269Y2709D01*
X5280Y2712D01*
X5337Y2655D01*
Y2314D01*
X5338Y2308D01*
X5341Y2302D01*
X5369Y2275D01*
X5374Y2272D01*
X5380Y2270D01*
X5392D01*
X5392Y2270D01*
X5402Y2255D01*
X5416Y2246D01*
X5433Y2242D01*
X5450Y2246D01*
X5464Y2255D01*
X5471Y2265D01*
X5476Y2263D01*
Y2210D01*
X5471Y2209D01*
X5464Y2218D01*
X5450Y2228D01*
X5433Y2231D01*
X5416Y2228D01*
X5402Y2218D01*
X5392Y2204D01*
X5392Y2203D01*
X5366D01*
X5330Y2239D01*
Y2635D01*
X5329Y2641D01*
X5326Y2647D01*
X5274Y2699D01*
X5268Y2702D01*
X5262Y2703D01*
X5060D01*
X5054Y2713D01*
X5042Y2721D01*
X5028Y2724D01*
X5014Y2721D01*
X5002Y2713D01*
X4994Y2701D01*
X4991Y2687D01*
X4994Y2673D01*
X5002Y2661D01*
X5014Y2653D01*
X5028Y2650D01*
X5042Y2653D01*
X5054Y2661D01*
X5060Y2671D01*
X5255D01*
X5298Y2628D01*
Y2232D01*
X5299Y2226D01*
X5302Y2220D01*
X5348Y2175D01*
X5353Y2172D01*
X5359Y2170D01*
X5392D01*
X5392Y2170D01*
X5402Y2155D01*
X5416Y2146D01*
X5433Y2142D01*
X5450Y2146D01*
X5464Y2155D01*
X5471Y2165D01*
X5476Y2163D01*
Y2110D01*
X5471Y2109D01*
X5464Y2118D01*
X5450Y2128D01*
X5433Y2131D01*
X5416Y2128D01*
X5402Y2118D01*
X5392Y2104D01*
X5392Y2103D01*
X5334D01*
X5285Y2152D01*
Y2572D01*
X5284Y2578D01*
X5281Y2584D01*
X5229Y2635D01*
X5224Y2639D01*
X5218Y2640D01*
X5193D01*
X5186Y2649D01*
X5175Y2657D01*
X5161Y2660D01*
X5146Y2657D01*
X5135Y2649D01*
X5127Y2638D01*
X5124Y2624D01*
X5127Y2609D01*
X5135Y2598D01*
X5146Y2590D01*
X5161Y2587D01*
X5175Y2590D01*
X5186Y2598D01*
X5193Y2607D01*
X5211D01*
X5253Y2565D01*
Y2145D01*
X5254Y2139D01*
X5257Y2133D01*
X5316Y2075D01*
X5321Y2072D01*
X5327Y2070D01*
X5392D01*
X5392Y2070D01*
X5402Y2055D01*
X5416Y2046D01*
X5433Y2042D01*
X5450Y2046D01*
X5464Y2055D01*
X5471Y2065D01*
X5476Y2063D01*
Y2014D01*
X5474Y2012D01*
X5468Y2013D01*
X5464Y2018D01*
X5450Y2028D01*
X5433Y2031D01*
X5416Y2028D01*
X5402Y2018D01*
X5392Y2004D01*
X5389Y1987D01*
X5392Y1970D01*
X5402Y1955D01*
X5416Y1946D01*
X5433Y1942D01*
X5450Y1946D01*
X5464Y1955D01*
X5474Y1970D01*
X5474Y1970D01*
X5476D01*
X5482Y1972D01*
X5487Y1975D01*
X5504Y1991D01*
X5507Y1997D01*
X5508Y2003D01*
Y2606D01*
X5507Y2612D01*
X5504Y2618D01*
X5340Y2781D01*
Y2875D01*
X5339Y2881D01*
X5336Y2887D01*
X5143Y3079D01*
Y3112D01*
X5153Y3118D01*
X5161Y3130D01*
X5164Y3144D01*
X5161Y3158D01*
X5153Y3170D01*
X5141Y3178D01*
X5127Y3181D01*
X5113Y3178D01*
X5101Y3170D01*
X5093Y3158D01*
X5090Y3144D01*
X5093Y3130D01*
X5101Y3118D01*
X5111Y3112D01*
Y3072D01*
X5112Y3066D01*
X5115Y3060D01*
X5163Y3013D01*
X5161Y3009D01*
X5132D01*
Y2978D01*
X5169D01*
Y3000D01*
X5174Y3002D01*
X5308Y2868D01*
Y2774D01*
X5309Y2768D01*
X5312Y2762D01*
X5476Y2599D01*
Y2510D01*
X5471Y2509D01*
X5464Y2518D01*
X5450Y2528D01*
X5433Y2531D01*
X5416Y2528D01*
X5402Y2518D01*
X5392Y2504D01*
X5389Y2487D01*
X5392Y2470D01*
X5402Y2455D01*
X5416Y2446D01*
X5433Y2442D01*
X5450Y2446D01*
X5464Y2455D01*
X5471Y2465D01*
X5476Y2463D01*
Y2410D01*
X5471Y2409D01*
X5464Y2418D01*
X5450Y2428D01*
X5433Y2431D01*
X5416Y2428D01*
X5402Y2418D01*
X5392Y2404D01*
X5389Y2387D01*
X5392Y2370D01*
X5402Y2355D01*
X5416Y2346D01*
X5433Y2342D01*
X5450Y2346D01*
X5464Y2355D01*
X5471Y2365D01*
X5476Y2363D01*
Y2310D01*
X5471Y2309D01*
X5464Y2318D01*
X5450Y2328D01*
X5433Y2331D01*
X5416Y2328D01*
X5402Y2318D01*
X5392Y2304D01*
X5392Y2303D01*
X5387D01*
X5369Y2321D01*
Y2662D01*
X5368Y2668D01*
X5365Y2674D01*
X5303Y2735D01*
X5306Y2746D01*
X5303Y2760D01*
X5295Y2772D01*
X5283Y2780D01*
X5269Y2783D01*
X5255Y2780D01*
X5246Y2774D01*
X5243Y2778D01*
X5247Y2781D01*
X5250Y2787D01*
X5251Y2793D01*
Y2846D01*
X5261Y2852D01*
X5269Y2864D01*
X5272Y2878D01*
X5269Y2892D01*
X5261Y2904D01*
X5249Y2912D01*
X5235Y2915D01*
X5221Y2912D01*
X5209Y2904D01*
X5201Y2892D01*
X5198Y2878D01*
X5201Y2864D01*
X5209Y2852D01*
X5219Y2846D01*
Y2800D01*
X5183Y2764D01*
X5173D01*
X5169Y2766D01*
X5169Y2769D01*
Y2840D01*
X5082D01*
Y2824D01*
X5028D01*
X5026Y2829D01*
X5058Y2860D01*
X5062Y2867D01*
X5064Y2876D01*
Y3308D01*
X5074Y3315D01*
X5083Y3329D01*
X5087Y3346D01*
X5083Y3363D01*
X5074Y3378D01*
X5059Y3387D01*
X5043Y3391D01*
D02*
G37*
G36*
X1225Y2980D02*
X1138D01*
Y2893D01*
X1225D01*
Y2980D01*
D02*
G37*
G36*
X2499Y2951D02*
X2451D01*
X2452Y2948D01*
X2457Y2941D01*
X2464Y2936D01*
X2472Y2934D01*
X2499D01*
Y2951D01*
D02*
G37*
G36*
X4454Y3095D02*
X4425Y3092D01*
X4399Y3081D01*
X4376Y3063D01*
X4358Y3040D01*
X4347Y3014D01*
X4344Y2985D01*
X4347Y2956D01*
X4358Y2930D01*
X4376Y2907D01*
X4399Y2889D01*
X4425Y2878D01*
X4454Y2875D01*
X4483Y2878D01*
X4509Y2889D01*
X4532Y2907D01*
X4550Y2930D01*
X4561Y2956D01*
X4564Y2985D01*
X4561Y3014D01*
X4550Y3040D01*
X4532Y3063D01*
X4509Y3081D01*
X4483Y3092D01*
X4454Y3095D01*
D02*
G37*
G36*
X4465Y3452D02*
X4451Y3449D01*
X4439Y3441D01*
X4431Y3429D01*
X4428Y3415D01*
X4431Y3401D01*
X4439Y3389D01*
X4451Y3381D01*
X4465Y3378D01*
X4479Y3381D01*
X4491Y3389D01*
X4497Y3399D01*
X5125D01*
X5192Y3332D01*
Y3051D01*
X5193Y3045D01*
X5196Y3039D01*
X5316Y2920D01*
X5321Y2916D01*
X5328Y2915D01*
X5392D01*
X5392Y2915D01*
X5402Y2900D01*
X5416Y2891D01*
X5433Y2887D01*
X5450Y2891D01*
X5464Y2900D01*
X5474Y2915D01*
X5477Y2931D01*
X5474Y2948D01*
X5464Y2963D01*
X5450Y2972D01*
X5433Y2976D01*
X5416Y2972D01*
X5402Y2963D01*
X5392Y2948D01*
X5392Y2948D01*
X5334D01*
X5224Y3058D01*
Y3339D01*
X5223Y3345D01*
X5220Y3351D01*
X5144Y3427D01*
X5138Y3430D01*
X5132Y3431D01*
X4497D01*
X4491Y3441D01*
X4479Y3449D01*
X4465Y3452D01*
D02*
G37*
G36*
X4358Y2524D02*
X4322D01*
Y2484D01*
X4358D01*
Y2524D01*
D02*
G37*
G36*
X4405D02*
X4368D01*
Y2484D01*
X4405D01*
Y2524D01*
D02*
G37*
G36*
Y2474D02*
X4368D01*
Y2433D01*
X4405D01*
Y2474D01*
D02*
G37*
G36*
X4358D02*
X4322D01*
Y2433D01*
X4358D01*
Y2474D01*
D02*
G37*
G36*
X4516Y2722D02*
X4431D01*
Y2629D01*
X4452D01*
Y2525D01*
X4431D01*
Y2432D01*
X4516D01*
Y2525D01*
X4495D01*
Y2629D01*
X4516D01*
Y2722D01*
D02*
G37*
G36*
X1224Y2388D02*
X1186D01*
Y2351D01*
X1224D01*
Y2388D01*
D02*
G37*
G36*
X1176D02*
X1139D01*
Y2351D01*
X1176D01*
Y2388D01*
D02*
G37*
G36*
X5042Y2441D02*
Y2407D01*
X5073D01*
Y2441D01*
X5042D01*
D02*
G37*
G36*
X5073Y2397D02*
X5042D01*
Y2362D01*
X5073D01*
Y2397D01*
D02*
G37*
G36*
X4363Y2132D02*
X4327D01*
Y2091D01*
X4363D01*
Y2132D01*
D02*
G37*
G36*
X1559Y2104D02*
X1515D01*
Y2059D01*
X1559D01*
Y2104D01*
D02*
G37*
G36*
X4837Y3010D02*
X4800D01*
Y2979D01*
X4837D01*
Y3010D01*
D02*
G37*
G36*
X4410Y2132D02*
X4373D01*
Y2091D01*
X4410D01*
Y2132D01*
D02*
G37*
G36*
X1505Y2104D02*
X1460D01*
Y2059D01*
X1505D01*
Y2104D01*
D02*
G37*
G36*
X4363Y2081D02*
X4327D01*
Y2041D01*
X4363D01*
Y2081D01*
D02*
G37*
G36*
X5475Y3326D02*
X5438D01*
Y3289D01*
X5450Y3291D01*
X5464Y3301D01*
X5473Y3315D01*
X5475Y3326D01*
D02*
G37*
G36*
X4137Y2087D02*
X4099D01*
Y2049D01*
X4137D01*
Y2087D01*
D02*
G37*
G36*
X4410Y2081D02*
X4373D01*
Y2041D01*
X4410D01*
Y2081D01*
D02*
G37*
G36*
X5169Y2968D02*
X5132D01*
Y2937D01*
X5169D01*
Y2968D01*
D02*
G37*
G36*
X4631Y2969D02*
X4596D01*
Y2938D01*
X4631D01*
Y2969D01*
D02*
G37*
G36*
X2557Y2951D02*
X2509D01*
Y2934D01*
X2535D01*
X2544Y2936D01*
X2551Y2941D01*
X2556Y2948D01*
X2557Y2951D01*
D02*
G37*
G36*
X5122Y2968D02*
X5084D01*
Y2937D01*
X5122D01*
Y2968D01*
D02*
G37*
G36*
X4676Y2969D02*
X4641D01*
Y2938D01*
X4676D01*
Y2969D01*
D02*
G37*
G36*
X5122Y3009D02*
X5084D01*
Y2978D01*
X5122D01*
Y3009D01*
D02*
G37*
G36*
X4790Y3010D02*
X4752D01*
Y2979D01*
X4790D01*
Y3010D01*
D02*
G37*
G36*
Y2969D02*
X4752D01*
Y2938D01*
X4790D01*
Y2969D01*
D02*
G37*
G36*
X4837D02*
X4800D01*
Y2938D01*
X4837D01*
Y2969D01*
D02*
G37*
G36*
X4572Y1617D02*
Y1580D01*
X4609D01*
X4607Y1591D01*
X4598Y1605D01*
X4584Y1615D01*
X4572Y1617D01*
D02*
G37*
G36*
X4562D02*
X4550Y1615D01*
X4536Y1605D01*
X4527Y1591D01*
X4525Y1580D01*
X4562D01*
Y1617D01*
D02*
G37*
G36*
X5113D02*
X5102Y1615D01*
X5087Y1605D01*
X5078Y1591D01*
X5076Y1580D01*
X5113D01*
Y1617D01*
D02*
G37*
G36*
X4305Y4322D02*
X4289Y4319D01*
X4276Y4310D01*
X4267Y4297D01*
X4264Y4281D01*
X4267Y4265D01*
X4276Y4251D01*
X4289Y4243D01*
X4305Y4239D01*
X4321Y4243D01*
X4334Y4251D01*
X4343Y4265D01*
X4346Y4281D01*
X4343Y4297D01*
X4334Y4310D01*
X4321Y4319D01*
X4305Y4322D01*
D02*
G37*
G36*
X1670Y4285D02*
X1657Y4282D01*
X1641Y4272D01*
X1631Y4256D01*
X1628Y4243D01*
X1670D01*
Y4285D01*
D02*
G37*
G36*
X5113Y1570D02*
X5076D01*
X5078Y1558D01*
X5087Y1544D01*
X5102Y1535D01*
X5113Y1532D01*
Y1570D01*
D02*
G37*
G36*
X4609D02*
X4572D01*
Y1532D01*
X4584Y1535D01*
X4598Y1544D01*
X4607Y1558D01*
X4609Y1570D01*
D02*
G37*
G36*
X1680Y4285D02*
Y4243D01*
X1723D01*
X1720Y4256D01*
X1710Y4272D01*
X1694Y4282D01*
X1680Y4285D01*
D02*
G37*
G36*
X5160Y1570D02*
X5123D01*
Y1532D01*
X5135Y1535D01*
X5149Y1544D01*
X5158Y1558D01*
X5160Y1570D01*
D02*
G37*
G36*
X4775Y4165D02*
X4674D01*
Y4103D01*
X4775D01*
Y4165D01*
D02*
G37*
G36*
X1875Y4309D02*
X1857Y4307D01*
X1840Y4300D01*
X1825Y4288D01*
X1813Y4273D01*
X1806Y4256D01*
X1804Y4238D01*
X1806Y4219D01*
X1813Y4202D01*
X1825Y4187D01*
X1841Y4171D01*
X1856Y4160D01*
X1873Y4152D01*
X1891Y4150D01*
X2126D01*
X2145Y4152D01*
X2162Y4160D01*
X2177Y4171D01*
X2188Y4186D01*
X2195Y4203D01*
X2198Y4222D01*
X2195Y4240D01*
X2188Y4257D01*
X2177Y4272D01*
X2162Y4284D01*
X2145Y4291D01*
X2126Y4293D01*
X1919D01*
X1911Y4300D01*
X1894Y4307D01*
X1875Y4309D01*
D02*
G37*
G36*
X5405Y4086D02*
X5304D01*
Y4024D01*
X5405D01*
Y4086D01*
D02*
G37*
G36*
X4858Y4092D02*
X4844Y4089D01*
X4832Y4081D01*
X4829Y4077D01*
X4775D01*
Y4086D01*
X4674D01*
Y4024D01*
X4775D01*
Y4034D01*
X4829D01*
X4832Y4029D01*
X4844Y4021D01*
X4858Y4018D01*
X4872Y4021D01*
X4884Y4029D01*
X4892Y4041D01*
X4895Y4055D01*
X4892Y4069D01*
X4884Y4081D01*
X4872Y4089D01*
X4858Y4092D01*
D02*
G37*
G36*
X5123Y1617D02*
Y1580D01*
X5160D01*
X5158Y1591D01*
X5149Y1605D01*
X5135Y1615D01*
X5123Y1617D01*
D02*
G37*
G36*
X1670Y4233D02*
X1628D01*
X1631Y4219D01*
X1641Y4203D01*
X1657Y4193D01*
X1670Y4190D01*
Y4233D01*
D02*
G37*
G36*
X1723D02*
X1680D01*
Y4190D01*
X1694Y4193D01*
X1710Y4203D01*
X1720Y4219D01*
X1723Y4233D01*
D02*
G37*
G36*
X5405Y4243D02*
X5304D01*
Y4229D01*
X5262D01*
X5255Y4228D01*
X5250Y4224D01*
X5191Y4166D01*
X5188Y4160D01*
X5187Y4154D01*
Y4151D01*
X5175Y4143D01*
X5167Y4131D01*
X5164Y4117D01*
X5167Y4103D01*
X5175Y4091D01*
X5187Y4083D01*
X5201Y4080D01*
X5215Y4083D01*
X5227Y4091D01*
X5231Y4097D01*
X5235Y4095D01*
X5234Y4089D01*
Y4083D01*
X5225Y4076D01*
X5217Y4065D01*
X5214Y4050D01*
X5217Y4036D01*
X5225Y4025D01*
X5236Y4017D01*
X5251Y4014D01*
X5265Y4017D01*
X5276Y4025D01*
X5284Y4036D01*
X5287Y4050D01*
X5284Y4065D01*
X5276Y4076D01*
X5271Y4080D01*
X5270Y4085D01*
X5299Y4114D01*
X5304Y4112D01*
Y4103D01*
X5405D01*
Y4165D01*
X5304D01*
Y4150D01*
X5296D01*
X5296Y4150D01*
X5290Y4149D01*
X5284Y4145D01*
X5239Y4100D01*
X5235Y4103D01*
X5235Y4103D01*
X5238Y4117D01*
X5235Y4131D01*
X5227Y4143D01*
X5223Y4146D01*
X5223Y4151D01*
X5268Y4196D01*
X5304D01*
Y4182D01*
X5405D01*
Y4243D01*
D02*
G37*
G36*
X1478Y4287D02*
X1460Y4283D01*
X1443Y4272D01*
X1433Y4256D01*
X1429Y4238D01*
X1433Y4219D01*
X1443Y4203D01*
X1460Y4192D01*
X1478Y4188D01*
X1497Y4192D01*
X1513Y4203D01*
X1524Y4219D01*
X1528Y4238D01*
X1524Y4256D01*
X1513Y4272D01*
X1497Y4283D01*
X1478Y4287D01*
D02*
G37*
G36*
X4562Y1570D02*
X4525D01*
X4527Y1558D01*
X4536Y1544D01*
X4550Y1535D01*
X4562Y1532D01*
Y1570D01*
D02*
G37*
G36*
X4544Y4376D02*
X4510D01*
Y4341D01*
X4521Y4343D01*
X4534Y4352D01*
X4542Y4365D01*
X4544Y4376D01*
D02*
G37*
G36*
X2278Y4412D02*
X2267Y4410D01*
X2253Y4401D01*
X2243Y4387D01*
X2241Y4375D01*
X2278D01*
Y4412D01*
D02*
G37*
G36*
X4305Y4422D02*
X4289Y4419D01*
X4276Y4410D01*
X4267Y4397D01*
X4264Y4381D01*
X4267Y4365D01*
X4276Y4351D01*
X4289Y4343D01*
X4305Y4339D01*
X4321Y4343D01*
X4334Y4351D01*
X4343Y4365D01*
X4346Y4381D01*
X4343Y4397D01*
X4334Y4410D01*
X4321Y4419D01*
X4305Y4422D01*
D02*
G37*
G36*
X4500Y4376D02*
X4466D01*
X4468Y4365D01*
X4477Y4352D01*
X4490Y4343D01*
X4500Y4341D01*
Y4376D01*
D02*
G37*
G36*
X2288Y4412D02*
Y4375D01*
X2326D01*
X2323Y4387D01*
X2314Y4401D01*
X2300Y4410D01*
X2288Y4412D01*
D02*
G37*
G36*
X4500Y4420D02*
X4490Y4418D01*
X4477Y4409D01*
X4468Y4396D01*
X4466Y4386D01*
X4500D01*
Y4420D01*
D02*
G37*
G36*
X4510D02*
Y4386D01*
X4544D01*
X4542Y4396D01*
X4534Y4409D01*
X4521Y4418D01*
X4510Y4420D01*
D02*
G37*
G36*
X5472Y1646D02*
X5444Y1642D01*
X5417Y1631D01*
X5394Y1613D01*
X5377Y1591D01*
X5366Y1564D01*
X5362Y1535D01*
X5366Y1507D01*
X5377Y1480D01*
X5394Y1457D01*
X5417Y1440D01*
X5444Y1429D01*
X5472Y1425D01*
X5501Y1429D01*
X5528Y1440D01*
X5550Y1457D01*
X5568Y1480D01*
X5579Y1507D01*
X5583Y1535D01*
X5579Y1564D01*
X5568Y1591D01*
X5550Y1613D01*
X5528Y1631D01*
X5501Y1642D01*
X5472Y1646D01*
D02*
G37*
G36*
X1142D02*
X1113Y1642D01*
X1087Y1631D01*
X1064Y1613D01*
X1046Y1591D01*
X1035Y1564D01*
X1031Y1535D01*
X1035Y1507D01*
X1046Y1480D01*
X1064Y1457D01*
X1087Y1440D01*
X1113Y1429D01*
X1142Y1425D01*
X1170Y1429D01*
X1197Y1440D01*
X1220Y1457D01*
X1237Y1480D01*
X1248Y1507D01*
X1252Y1535D01*
X1248Y1564D01*
X1237Y1591D01*
X1220Y1613D01*
X1197Y1631D01*
X1170Y1642D01*
X1142Y1646D01*
D02*
G37*
G36*
X4085Y4471D02*
X3539D01*
X3533Y4470D01*
X3527Y4467D01*
X3444Y4384D01*
X3441Y4378D01*
X3440Y4372D01*
Y4189D01*
X3439Y4189D01*
X3435Y4187D01*
X3324Y4299D01*
X3318Y4302D01*
X3312Y4303D01*
X3214D01*
X3191Y4326D01*
X3191Y4331D01*
X3202Y4339D01*
X3212Y4353D01*
X3215Y4370D01*
X3212Y4387D01*
X3202Y4401D01*
X3188Y4411D01*
X3180Y4413D01*
X3180Y4418D01*
X3225D01*
X3227Y4414D01*
Y4327D01*
X3314D01*
Y4414D01*
X3287D01*
Y4419D01*
X3286Y4425D01*
X3282Y4431D01*
X3268Y4446D01*
X3262Y4449D01*
X3256Y4450D01*
X2731D01*
X2725Y4449D01*
X2719Y4446D01*
X2676Y4403D01*
X2673Y4397D01*
X2672Y4391D01*
Y3781D01*
X2628Y3737D01*
X2558D01*
Y3767D01*
X2473D01*
Y3674D01*
X2494D01*
X2496Y3669D01*
X2422Y3595D01*
X2315D01*
X2314Y3600D01*
X2323Y3602D01*
X2335Y3610D01*
X2343Y3622D01*
X2346Y3636D01*
X2343Y3650D01*
X2335Y3662D01*
X2325Y3668D01*
Y3842D01*
X2324Y3848D01*
X2321Y3854D01*
X2301Y3873D01*
X2304Y3884D01*
X2301Y3898D01*
X2293Y3910D01*
X2281Y3918D01*
X2267Y3921D01*
X2253Y3918D01*
X2241Y3910D01*
X2233Y3898D01*
X2230Y3884D01*
X2233Y3870D01*
X2241Y3858D01*
X2253Y3850D01*
X2267Y3847D01*
X2278Y3850D01*
X2293Y3835D01*
Y3668D01*
X2283Y3662D01*
X2275Y3650D01*
X2272Y3636D01*
X2275Y3622D01*
X2283Y3610D01*
X2295Y3602D01*
X2304Y3600D01*
X2304Y3595D01*
X2298Y3594D01*
X2292Y3591D01*
X2260Y3559D01*
X2257Y3553D01*
X2256Y3547D01*
Y3536D01*
X2246Y3530D01*
X2240Y3520D01*
X2129D01*
X2123Y3519D01*
X2117Y3516D01*
X2064Y3463D01*
X2061Y3457D01*
X2060Y3451D01*
Y3046D01*
X2061Y3040D01*
X2064Y3034D01*
X2104Y2995D01*
X2109Y2991D01*
X2116Y2990D01*
X2456D01*
X2456Y2990D01*
X2464Y2985D01*
X2471Y2984D01*
Y2978D01*
X2464Y2977D01*
X2457Y2972D01*
X2452Y2965D01*
X2451Y2961D01*
X2557D01*
X2556Y2965D01*
X2551Y2972D01*
X2544Y2977D01*
X2537Y2978D01*
Y2984D01*
X2544Y2985D01*
X2552Y2990D01*
X2552Y2990D01*
X2568D01*
X2575Y2991D01*
X2580Y2995D01*
X2625Y3040D01*
X2645D01*
X2645Y3040D01*
X2653Y3035D01*
X2657Y3034D01*
Y3029D01*
X2653Y3028D01*
X2645Y3023D01*
X2645Y3023D01*
X2624D01*
X2618Y3022D01*
X2613Y3018D01*
X2588Y2994D01*
X2586Y2990D01*
X2586Y2990D01*
X2574Y2982D01*
X2566Y2970D01*
X2563Y2956D01*
X2566Y2942D01*
X2574Y2930D01*
X2586Y2922D01*
X2600Y2919D01*
X2614Y2922D01*
X2626Y2930D01*
X2634Y2942D01*
X2635Y2947D01*
X2639Y2948D01*
X2640Y2947D01*
X2645Y2940D01*
X2653Y2935D01*
X2661Y2933D01*
X2677D01*
Y2906D01*
X2667Y2900D01*
X2659Y2888D01*
X2656Y2874D01*
X2659Y2860D01*
X2667Y2848D01*
X2679Y2840D01*
X2693Y2837D01*
X2707Y2840D01*
X2719Y2848D01*
X2727Y2860D01*
X2730Y2874D01*
X2727Y2888D01*
X2719Y2900D01*
X2709Y2906D01*
Y2933D01*
X2724D01*
X2733Y2935D01*
X2741Y2940D01*
X2741Y2940D01*
X2757D01*
X2764Y2941D01*
X2769Y2945D01*
X2826Y3001D01*
X2831Y3000D01*
X2833Y2989D01*
X2841Y2977D01*
X2853Y2969D01*
X2867Y2966D01*
X2869Y2967D01*
X2871Y2962D01*
X2702Y2793D01*
X2027D01*
X2017Y2803D01*
Y2989D01*
X2019Y2990D01*
X2022Y2991D01*
X2088Y2925D01*
X2085Y2914D01*
X2088Y2900D01*
X2096Y2888D01*
X2108Y2880D01*
X2122Y2877D01*
X2136Y2880D01*
X2148Y2888D01*
X2156Y2900D01*
X2159Y2914D01*
X2156Y2928D01*
X2148Y2940D01*
X2136Y2948D01*
X2122Y2951D01*
X2111Y2948D01*
X2049Y3010D01*
Y3706D01*
X2048Y3712D01*
X2045Y3718D01*
X1996Y3766D01*
X1999Y3777D01*
X1996Y3791D01*
X1988Y3803D01*
X1976Y3811D01*
X1962Y3814D01*
X1948Y3811D01*
X1936Y3803D01*
X1928Y3791D01*
X1925Y3777D01*
X1928Y3763D01*
X1936Y3751D01*
X1948Y3743D01*
X1962Y3740D01*
X1973Y3743D01*
X2017Y3699D01*
Y3101D01*
X2015Y3100D01*
X2012Y3099D01*
X1962Y3150D01*
X1956Y3153D01*
X1950Y3154D01*
X1522D01*
X1522Y3154D01*
X1519Y3159D01*
X1898Y3537D01*
X1903Y3536D01*
X1917Y3539D01*
X1929Y3547D01*
X1937Y3559D01*
X1940Y3573D01*
X1937Y3587D01*
X1929Y3599D01*
X1917Y3607D01*
X1903Y3610D01*
X1889Y3607D01*
X1877Y3599D01*
X1869Y3587D01*
X1866Y3573D01*
X1867Y3568D01*
X1420Y3120D01*
X1415Y3113D01*
X1414Y3105D01*
Y2445D01*
X1409Y2442D01*
X1401Y2430D01*
X1398Y2416D01*
X1401Y2402D01*
X1409Y2390D01*
X1421Y2382D01*
X1435Y2379D01*
X1449Y2382D01*
X1461Y2390D01*
X1468Y2400D01*
X1473Y2399D01*
Y2307D01*
X1428Y2262D01*
X1222D01*
X1222Y2263D01*
X1212Y2277D01*
X1198Y2287D01*
X1181Y2290D01*
X1164Y2287D01*
X1150Y2277D01*
X1140Y2263D01*
X1137Y2246D01*
X1140Y2229D01*
X1150Y2214D01*
X1164Y2205D01*
X1181Y2201D01*
X1198Y2205D01*
X1212Y2214D01*
X1222Y2229D01*
X1222Y2229D01*
X1435D01*
X1441Y2231D01*
X1446Y2234D01*
X1501Y2288D01*
X1504Y2294D01*
X1505Y2300D01*
Y2985D01*
X1510Y2987D01*
X1515Y2979D01*
Y2459D01*
X1518Y2449D01*
X1523Y2440D01*
X1537Y2426D01*
X1539Y2417D01*
X1547Y2405D01*
X1559Y2397D01*
X1568Y2396D01*
X1928Y2035D01*
X1937Y2030D01*
X1947Y2028D01*
X2140D01*
Y2004D01*
X2241D01*
Y2028D01*
X2322D01*
X2385Y1965D01*
X2393Y1959D01*
X2404Y1957D01*
X2407D01*
X2529Y1835D01*
Y1576D01*
X2530Y1570D01*
X2533Y1564D01*
X2600Y1497D01*
X2606Y1494D01*
X2612Y1493D01*
X3229D01*
X3235Y1494D01*
X3241Y1497D01*
X3258Y1515D01*
X3275Y1497D01*
X3281Y1494D01*
X3287Y1493D01*
X4461D01*
X4467Y1494D01*
X4473Y1497D01*
X4478Y1503D01*
X4482Y1509D01*
X4483Y1515D01*
Y1534D01*
X4484Y1534D01*
X4498Y1543D01*
X4508Y1558D01*
X4511Y1575D01*
X4508Y1592D01*
X4498Y1606D01*
X4484Y1616D01*
X4483Y1616D01*
Y1646D01*
X4974Y2137D01*
X4978Y2142D01*
X4979Y2149D01*
Y2358D01*
X4982Y2361D01*
X4997D01*
X4999Y2361D01*
X5004Y2362D01*
X5032D01*
Y2402D01*
Y2441D01*
X5004D01*
X4999Y2442D01*
X4997Y2442D01*
X4979D01*
Y2574D01*
X4978Y2581D01*
X4974Y2586D01*
X4951Y2609D01*
X4946Y2613D01*
X4939Y2614D01*
X4938D01*
X4931Y2623D01*
X4920Y2631D01*
X4906Y2634D01*
X4891Y2631D01*
X4880Y2623D01*
X4872Y2612D01*
X4869Y2598D01*
X4872Y2583D01*
X4880Y2572D01*
X4891Y2564D01*
X4906Y2561D01*
X4920Y2564D01*
X4931Y2572D01*
X4934Y2575D01*
X4939Y2575D01*
X4946Y2568D01*
Y2442D01*
X4926D01*
Y2361D01*
X4946D01*
Y2155D01*
X4455Y1664D01*
X4452Y1659D01*
X4451Y1653D01*
Y1616D01*
X4450Y1616D01*
X4436Y1606D01*
X4426Y1592D01*
X4423Y1575D01*
X4426Y1558D01*
X4436Y1543D01*
X4450Y1534D01*
X4451Y1534D01*
Y1525D01*
X3294D01*
X3274Y1545D01*
Y1669D01*
X3273Y1675D01*
X3270Y1681D01*
X3198Y1752D01*
Y1948D01*
X3214Y1964D01*
X3236D01*
X3239Y1961D01*
Y1946D01*
X3239Y1944D01*
X3240Y1939D01*
Y1911D01*
X3320D01*
Y1939D01*
X3321Y1944D01*
X3321Y1946D01*
Y2017D01*
X3321Y2017D01*
X3321D01*
X3321Y2022D01*
X3323Y2024D01*
X3368D01*
Y2010D01*
X3370Y2000D01*
X3375Y1992D01*
X3384Y1986D01*
X3393Y1985D01*
X3403Y1986D01*
X3411Y1992D01*
X3416Y1998D01*
X3416Y1999D01*
X3421D01*
X3421Y1998D01*
X3425Y1992D01*
X3434Y1986D01*
X3443Y1985D01*
X3453Y1986D01*
X3461Y1992D01*
X3466Y1998D01*
X3466Y1999D01*
X3471D01*
X3471Y1998D01*
X3475Y1992D01*
X3477Y1991D01*
Y1987D01*
X3478Y1980D01*
X3482Y1975D01*
X3521Y1935D01*
X3527Y1932D01*
X3533Y1931D01*
X3720D01*
X3726Y1921D01*
X3738Y1913D01*
X3752Y1910D01*
X3766Y1913D01*
X3778Y1921D01*
X3786Y1933D01*
X3789Y1947D01*
X3786Y1961D01*
X3778Y1973D01*
X3766Y1981D01*
X3752Y1984D01*
X3738Y1981D01*
X3726Y1973D01*
X3720Y1963D01*
X3540D01*
X3511Y1992D01*
X3511Y1992D01*
X3516Y1998D01*
X3516Y1999D01*
X3521D01*
X3521Y1998D01*
X3525Y1992D01*
X3534Y1986D01*
X3543Y1985D01*
X3553Y1986D01*
X3561Y1992D01*
X3566Y1998D01*
X3566Y1999D01*
X3571D01*
X3571Y1998D01*
X3575Y1992D01*
X3584Y1986D01*
X3593Y1985D01*
X3603Y1986D01*
X3611Y1992D01*
X3616Y1998D01*
X3616Y1999D01*
X3621D01*
X3621Y1998D01*
X3625Y1992D01*
X3634Y1986D01*
X3643Y1985D01*
X3653Y1986D01*
X3661Y1992D01*
X3666Y1998D01*
X3666Y1999D01*
X3671D01*
X3671Y1998D01*
X3675Y1992D01*
X3684Y1986D01*
X3693Y1985D01*
X3703Y1986D01*
X3711Y1992D01*
X3717Y2000D01*
X3719Y2010D01*
Y2029D01*
X3753D01*
X3794Y1988D01*
Y1605D01*
X3795Y1599D01*
X3798Y1593D01*
X3800Y1592D01*
X3799Y1592D01*
X3796Y1575D01*
X3799Y1558D01*
X3809Y1543D01*
X3823Y1534D01*
X3840Y1530D01*
X3857Y1534D01*
X3872Y1543D01*
X3881Y1558D01*
X3884Y1575D01*
X3881Y1592D01*
X3872Y1606D01*
X3857Y1616D01*
X3840Y1619D01*
X3830Y1617D01*
X3826Y1620D01*
Y1995D01*
X3825Y2001D01*
X3822Y2007D01*
X3771Y2057D01*
X3766Y2060D01*
X3760Y2062D01*
X3719D01*
Y2081D01*
X3717Y2090D01*
X3711Y2099D01*
X3703Y2104D01*
X3693Y2106D01*
X3689Y2105D01*
X3687Y2110D01*
X3698Y2117D01*
X3706Y2129D01*
X3709Y2143D01*
X3706Y2157D01*
X3698Y2169D01*
X3692Y2173D01*
X3694Y2178D01*
X3710D01*
X3834Y2054D01*
Y1665D01*
X3835Y1659D01*
X3838Y1653D01*
X3900Y1592D01*
X3899Y1592D01*
X3896Y1575D01*
X3899Y1558D01*
X3909Y1543D01*
X3923Y1534D01*
X3940Y1530D01*
X3957Y1534D01*
X3972Y1543D01*
X3981Y1558D01*
X3984Y1575D01*
X3981Y1592D01*
X3972Y1606D01*
X3957Y1616D01*
X3940Y1619D01*
X3923Y1616D01*
X3923Y1615D01*
X3866Y1672D01*
Y2061D01*
X3865Y2067D01*
X3862Y2073D01*
X3729Y2206D01*
X3723Y2209D01*
X3720Y2210D01*
X3721Y2215D01*
X3811D01*
X3817Y2216D01*
X3823Y2219D01*
X3887Y2284D01*
X3892Y2282D01*
Y1791D01*
X3893Y1785D01*
X3896Y1779D01*
X3914Y1762D01*
X3911Y1751D01*
X3914Y1737D01*
X3922Y1725D01*
X3934Y1717D01*
X3948Y1714D01*
X3962Y1717D01*
X3974Y1725D01*
X3982Y1737D01*
X3985Y1751D01*
X3982Y1765D01*
X3974Y1777D01*
X3962Y1785D01*
X3948Y1788D01*
X3937Y1785D01*
X3924Y1798D01*
Y1879D01*
X3929Y1881D01*
X3938Y1872D01*
X3935Y1861D01*
X3938Y1847D01*
X3946Y1835D01*
X3958Y1827D01*
X3972Y1824D01*
X3986Y1827D01*
X3998Y1835D01*
X4006Y1847D01*
X4009Y1861D01*
X4006Y1875D01*
X3998Y1887D01*
X3986Y1895D01*
X3972Y1898D01*
X3961Y1895D01*
X3954Y1902D01*
Y2539D01*
X3953Y2545D01*
X3950Y2551D01*
X3870Y2631D01*
X3864Y2634D01*
X3858Y2635D01*
X3644D01*
X3540Y2739D01*
Y2783D01*
X3543Y2786D01*
X3550Y2787D01*
X3553Y2789D01*
X3556Y2787D01*
X3563Y2786D01*
X3570Y2787D01*
X3574Y2790D01*
X3576Y2788D01*
X3583Y2787D01*
X3586Y2784D01*
Y2768D01*
X3584Y2765D01*
X3581Y2751D01*
X3584Y2737D01*
X3592Y2725D01*
X3604Y2717D01*
X3618Y2714D01*
X3632Y2717D01*
X3644Y2725D01*
X3652Y2737D01*
X3654Y2745D01*
X3659Y2747D01*
X3695Y2710D01*
X3701Y2707D01*
X3707Y2706D01*
X3787D01*
X3793Y2696D01*
X3805Y2688D01*
X3819Y2685D01*
X3833Y2688D01*
X3845Y2696D01*
X3853Y2708D01*
X3856Y2722D01*
X3853Y2736D01*
X3845Y2748D01*
X3833Y2756D01*
X3819Y2759D01*
X3805Y2756D01*
X3793Y2748D01*
X3787Y2738D01*
X3782D01*
X3780Y2743D01*
X3787Y2754D01*
X3790Y2768D01*
X3787Y2782D01*
X3779Y2794D01*
X3767Y2802D01*
X3753Y2805D01*
X3739Y2802D01*
X3727Y2794D01*
X3721Y2784D01*
X3701D01*
X3697Y2788D01*
Y2799D01*
X3698Y2803D01*
Y2862D01*
X3697Y2869D01*
X3693Y2874D01*
X3688Y2878D01*
X3681Y2879D01*
X3675Y2878D01*
X3671Y2876D01*
X3668Y2878D01*
X3661Y2879D01*
X3658Y2882D01*
Y3051D01*
X3657Y3058D01*
X3653Y3063D01*
X3645Y3071D01*
X3647Y3076D01*
X3658Y3074D01*
X3672Y3076D01*
X3684Y3084D01*
X3689Y3091D01*
X3695Y3091D01*
X3695Y3091D01*
X3697Y3084D01*
X3699Y3081D01*
X3697Y3077D01*
X3695Y3071D01*
X3697Y3064D01*
X3699Y3061D01*
X3697Y3058D01*
X3695Y3051D01*
X3697Y3045D01*
X3699Y3041D01*
X3697Y3038D01*
X3695Y3031D01*
X3697Y3025D01*
X3699Y3022D01*
X3697Y3018D01*
X3695Y3012D01*
X3697Y3005D01*
X3699Y3002D01*
X3697Y2999D01*
X3695Y2992D01*
X3697Y2986D01*
X3699Y2982D01*
X3697Y2979D01*
X3695Y2972D01*
X3697Y2966D01*
X3699Y2963D01*
X3697Y2959D01*
X3695Y2953D01*
X3697Y2946D01*
X3699Y2943D01*
X3697Y2940D01*
X3695Y2933D01*
X3697Y2926D01*
X3699Y2923D01*
X3697Y2920D01*
X3695Y2913D01*
X3697Y2907D01*
X3699Y2904D01*
X3697Y2900D01*
X3695Y2894D01*
X3697Y2887D01*
X3700Y2882D01*
X3706Y2878D01*
X3713Y2876D01*
X3772D01*
X3776Y2877D01*
X3777D01*
X3923Y2731D01*
Y2607D01*
X3924Y2601D01*
X3927Y2595D01*
X3994Y2529D01*
Y1988D01*
X3995Y1982D01*
X3998Y1976D01*
X4043Y1932D01*
X4049Y1928D01*
X4055Y1927D01*
X4163D01*
X4301Y1788D01*
X4307Y1785D01*
X4313Y1784D01*
X4402D01*
X4408Y1774D01*
X4420Y1766D01*
X4434Y1763D01*
X4448Y1766D01*
X4460Y1774D01*
X4468Y1786D01*
X4471Y1800D01*
X4468Y1814D01*
X4460Y1826D01*
X4448Y1834D01*
X4434Y1837D01*
X4420Y1834D01*
X4408Y1826D01*
X4402Y1816D01*
X4387D01*
X4386Y1821D01*
X4396Y1828D01*
X4404Y1840D01*
X4407Y1854D01*
X4404Y1868D01*
X4396Y1880D01*
X4384Y1888D01*
X4370Y1891D01*
X4356Y1888D01*
X4344Y1880D01*
X4338Y1870D01*
X4304D01*
X4241Y1933D01*
X4243Y1938D01*
X4252Y1936D01*
X4263Y1939D01*
X4281Y1920D01*
X4287Y1917D01*
X4293Y1916D01*
X4293Y1916D01*
X4540D01*
X4546Y1906D01*
X4558Y1898D01*
X4572Y1895D01*
X4586Y1898D01*
X4598Y1906D01*
X4606Y1918D01*
X4609Y1932D01*
X4606Y1946D01*
X4598Y1958D01*
X4586Y1966D01*
X4572Y1969D01*
X4558Y1966D01*
X4546Y1958D01*
X4540Y1948D01*
X4300D01*
X4286Y1962D01*
X4289Y1973D01*
X4286Y1987D01*
X4278Y1999D01*
X4266Y2007D01*
X4252Y2010D01*
X4238Y2007D01*
X4226Y1999D01*
X4218Y1987D01*
X4215Y1973D01*
X4217Y1964D01*
X4212Y1962D01*
X4192Y1983D01*
X4186Y1986D01*
X4180Y1987D01*
X4073D01*
X4063Y1997D01*
X4065Y2002D01*
X4089D01*
Y2044D01*
Y2087D01*
X4053D01*
Y2118D01*
X4058Y2120D01*
X4063Y2113D01*
X4078Y2103D01*
X4094Y2100D01*
X4111Y2103D01*
X4126Y2113D01*
X4135Y2127D01*
X4136Y2128D01*
X4152D01*
X4158Y2129D01*
X4164Y2133D01*
X4204Y2172D01*
X4207Y2178D01*
X4208Y2184D01*
Y2464D01*
X4213Y2466D01*
X4345Y2334D01*
X4343Y2330D01*
X4326D01*
Y2237D01*
X4411D01*
Y2330D01*
X4384D01*
Y2334D01*
X4383Y2340D01*
X4380Y2345D01*
X4182Y2543D01*
Y2708D01*
X4187Y2710D01*
X4233Y2664D01*
X4238Y2660D01*
X4245Y2659D01*
X4321D01*
Y2629D01*
X4406D01*
Y2722D01*
X4321D01*
Y2692D01*
X4251D01*
X4213Y2730D01*
Y3026D01*
X4212Y3032D01*
X4209Y3037D01*
X4144Y3102D01*
X4138Y3106D01*
X4132Y3107D01*
X4128D01*
X4126Y3112D01*
X4131Y3115D01*
X4139Y3127D01*
X4142Y3141D01*
X4140Y3148D01*
X4144Y3153D01*
X4307D01*
X4309Y3153D01*
X4311Y3148D01*
X4277Y3115D01*
X4274Y3109D01*
X4273Y3103D01*
Y2838D01*
X4263Y2832D01*
X4255Y2820D01*
X4252Y2806D01*
X4255Y2792D01*
X4263Y2780D01*
X4275Y2772D01*
X4289Y2769D01*
X4303Y2772D01*
X4315Y2780D01*
X4323Y2792D01*
X4326Y2806D01*
X4324Y2814D01*
X4329Y2816D01*
X4338Y2807D01*
X4335Y2796D01*
X4338Y2782D01*
X4346Y2770D01*
X4358Y2762D01*
X4372Y2759D01*
X4386Y2762D01*
X4398Y2770D01*
X4406Y2782D01*
X4409Y2796D01*
X4406Y2810D01*
X4398Y2822D01*
X4386Y2830D01*
X4372Y2833D01*
X4361Y2830D01*
X4336Y2855D01*
Y3083D01*
X4460Y3207D01*
X4914D01*
X4920Y3208D01*
X4926Y3211D01*
X4954Y3240D01*
X4958Y3245D01*
X4959Y3252D01*
Y3305D01*
X4959Y3305D01*
X4974Y3315D01*
X4983Y3329D01*
X4987Y3346D01*
X4983Y3363D01*
X4974Y3378D01*
X4959Y3387D01*
X4943Y3391D01*
X4926Y3387D01*
X4911Y3378D01*
X4902Y3363D01*
X4898Y3346D01*
X4902Y3329D01*
X4911Y3315D01*
X4926Y3305D01*
X4926Y3305D01*
Y3258D01*
X4907Y3239D01*
X4829D01*
X4828Y3244D01*
X4830Y3245D01*
X4854Y3270D01*
X4858Y3275D01*
X4859Y3282D01*
Y3305D01*
X4859Y3305D01*
X4874Y3315D01*
X4883Y3329D01*
X4887Y3346D01*
X4883Y3363D01*
X4874Y3378D01*
X4859Y3387D01*
X4843Y3391D01*
X4826Y3387D01*
X4811Y3378D01*
X4802Y3363D01*
X4798Y3346D01*
X4802Y3329D01*
X4811Y3315D01*
X4826Y3305D01*
X4826Y3305D01*
Y3288D01*
X4811Y3273D01*
X4443D01*
X4437Y3272D01*
X4431Y3269D01*
X4393Y3230D01*
X4388Y3232D01*
X4388Y3234D01*
Y3410D01*
X4387Y3416D01*
X4384Y3422D01*
X4308Y3497D01*
X4310Y3502D01*
X4323Y3499D01*
X4337Y3502D01*
X4344Y3507D01*
X5153D01*
X5244Y3416D01*
Y3120D01*
X5245Y3114D01*
X5248Y3108D01*
X5337Y3020D01*
X5342Y3016D01*
X5349Y3015D01*
X5392D01*
X5392Y3015D01*
X5402Y3000D01*
X5416Y2991D01*
X5433Y2987D01*
X5450Y2991D01*
X5464Y3000D01*
X5474Y3015D01*
X5477Y3031D01*
X5474Y3048D01*
X5464Y3063D01*
X5450Y3072D01*
X5433Y3076D01*
X5416Y3072D01*
X5402Y3063D01*
X5392Y3048D01*
X5392Y3048D01*
X5355D01*
X5276Y3127D01*
Y3423D01*
X5276Y3423D01*
X5275Y3429D01*
X5272Y3435D01*
X5172Y3535D01*
X5168Y3537D01*
X5170Y3542D01*
X5182D01*
X5319Y3405D01*
Y3183D01*
X5320Y3177D01*
X5323Y3171D01*
X5375Y3120D01*
X5380Y3116D01*
X5387Y3115D01*
X5392D01*
X5392Y3115D01*
X5402Y3100D01*
X5416Y3091D01*
X5433Y3087D01*
X5450Y3091D01*
X5464Y3100D01*
X5474Y3115D01*
X5477Y3131D01*
X5474Y3148D01*
X5464Y3163D01*
X5450Y3172D01*
X5433Y3176D01*
X5416Y3172D01*
X5402Y3163D01*
X5395Y3152D01*
X5390Y3152D01*
X5351Y3190D01*
Y3289D01*
X5356Y3289D01*
X5357Y3286D01*
X5360Y3281D01*
X5392Y3249D01*
X5392Y3248D01*
X5389Y3231D01*
X5392Y3215D01*
X5402Y3200D01*
X5416Y3191D01*
X5433Y3187D01*
X5450Y3191D01*
X5464Y3200D01*
X5474Y3215D01*
X5477Y3231D01*
X5474Y3248D01*
X5464Y3263D01*
X5450Y3272D01*
X5433Y3276D01*
X5416Y3272D01*
X5416Y3272D01*
X5388Y3299D01*
Y3311D01*
X5389Y3312D01*
X5396Y3311D01*
X5402Y3301D01*
X5416Y3291D01*
X5428Y3289D01*
Y3331D01*
Y3374D01*
X5416Y3372D01*
X5402Y3362D01*
X5396Y3352D01*
X5389Y3351D01*
X5388Y3352D01*
Y3450D01*
X5387Y3456D01*
X5384Y3462D01*
X5242Y3604D01*
X5236Y3607D01*
X5230Y3608D01*
X4550D01*
X4545Y3609D01*
X4545Y3613D01*
Y3696D01*
X4531D01*
Y3941D01*
X4546D01*
Y4028D01*
X4526D01*
Y4119D01*
X4660Y4253D01*
X4931D01*
X5298Y3886D01*
X5303Y3883D01*
X5304Y3882D01*
Y3867D01*
X5405D01*
Y3928D01*
X5304D01*
X5304Y3928D01*
Y3928D01*
X5300Y3930D01*
X4950Y4281D01*
X4944Y4284D01*
X4938Y4285D01*
X4653D01*
X4647Y4284D01*
X4641Y4281D01*
X4498Y4137D01*
X4494Y4132D01*
X4493Y4125D01*
Y4032D01*
X4490Y4028D01*
X4473Y4028D01*
X4471Y4033D01*
Y4250D01*
X4476Y4251D01*
X4489Y4243D01*
X4505Y4239D01*
X4521Y4243D01*
X4534Y4251D01*
X4543Y4265D01*
X4546Y4281D01*
X4543Y4297D01*
X4534Y4310D01*
X4521Y4319D01*
X4505Y4322D01*
X4489Y4319D01*
X4476Y4310D01*
X4471Y4311D01*
Y4331D01*
X4470Y4337D01*
X4467Y4342D01*
X4443Y4365D01*
X4446Y4381D01*
X4443Y4397D01*
X4434Y4410D01*
X4421Y4419D01*
X4405Y4422D01*
X4389Y4419D01*
X4376Y4410D01*
X4367Y4397D01*
X4364Y4381D01*
X4367Y4365D01*
X4376Y4351D01*
X4389Y4343D01*
X4405Y4339D01*
X4420Y4342D01*
X4439Y4324D01*
Y4312D01*
X4434Y4310D01*
X4421Y4319D01*
X4405Y4322D01*
X4389Y4319D01*
X4376Y4310D01*
X4367Y4297D01*
X4364Y4281D01*
X4367Y4265D01*
X4376Y4251D01*
X4389Y4243D01*
Y3857D01*
X4308Y3776D01*
X4287D01*
X4286Y3781D01*
X4296Y3788D01*
X4304Y3800D01*
X4307Y3814D01*
X4304Y3828D01*
X4296Y3840D01*
X4284Y3848D01*
X4270Y3851D01*
X4259Y3848D01*
X4221Y3886D01*
Y4243D01*
X4234Y4251D01*
X4243Y4265D01*
X4246Y4281D01*
X4243Y4297D01*
X4234Y4310D01*
X4221Y4319D01*
X4205Y4322D01*
X4189Y4319D01*
X4176Y4310D01*
X4175Y4309D01*
X4170Y4310D01*
Y4323D01*
X4190Y4342D01*
X4205Y4339D01*
X4221Y4343D01*
X4234Y4351D01*
X4243Y4365D01*
X4246Y4381D01*
X4243Y4397D01*
X4234Y4410D01*
X4221Y4419D01*
X4205Y4422D01*
X4189Y4419D01*
X4176Y4410D01*
X4167Y4397D01*
X4164Y4381D01*
X4167Y4365D01*
X4142Y4341D01*
X4139Y4336D01*
X4138Y4330D01*
Y4313D01*
X4133Y4311D01*
X4121Y4319D01*
X4105Y4322D01*
X4090Y4319D01*
X4072Y4337D01*
Y4349D01*
X4077Y4351D01*
X4089Y4343D01*
X4105Y4339D01*
X4121Y4343D01*
X4134Y4351D01*
X4143Y4365D01*
X4146Y4381D01*
X4143Y4397D01*
X4134Y4410D01*
X4121Y4419D01*
Y4435D01*
X4120Y4441D01*
X4117Y4446D01*
X4097Y4467D01*
X4091Y4470D01*
X4085Y4471D01*
D02*
G37*
G36*
X2278Y4365D02*
X2241D01*
X2243Y4354D01*
X2253Y4339D01*
X2267Y4330D01*
X2278Y4328D01*
Y4365D01*
D02*
G37*
G36*
X1142Y4520D02*
X1113Y4516D01*
X1087Y4505D01*
X1064Y4487D01*
X1046Y4465D01*
X1035Y4438D01*
X1031Y4409D01*
X1035Y4381D01*
X1046Y4354D01*
X1064Y4331D01*
X1087Y4314D01*
X1113Y4303D01*
X1142Y4299D01*
X1170Y4303D01*
X1197Y4314D01*
X1220Y4331D01*
X1237Y4354D01*
X1248Y4381D01*
X1252Y4409D01*
X1248Y4438D01*
X1237Y4465D01*
X1220Y4487D01*
X1197Y4505D01*
X1170Y4516D01*
X1142Y4520D01*
D02*
G37*
G36*
X5472D02*
X5444Y4516D01*
X5417Y4505D01*
X5394Y4487D01*
X5377Y4465D01*
X5366Y4438D01*
X5362Y4409D01*
X5366Y4381D01*
X5377Y4354D01*
X5394Y4331D01*
X5417Y4314D01*
X5444Y4303D01*
X5472Y4299D01*
X5501Y4303D01*
X5528Y4314D01*
X5550Y4331D01*
X5568Y4354D01*
X5579Y4381D01*
X5583Y4409D01*
X5579Y4438D01*
X5568Y4465D01*
X5550Y4487D01*
X5528Y4505D01*
X5501Y4516D01*
X5472Y4520D01*
D02*
G37*
G36*
X2326Y4365D02*
X2288D01*
Y4328D01*
X2300Y4330D01*
X2314Y4339D01*
X2323Y4354D01*
X2326Y4365D01*
D02*
G37*
G36*
X5018Y1619D02*
X5001Y1616D01*
X4987Y1606D01*
X4977Y1592D01*
X4974Y1575D01*
X4977Y1558D01*
X4987Y1543D01*
X5001Y1534D01*
X5018Y1530D01*
X5035Y1534D01*
X5049Y1543D01*
X5059Y1558D01*
X5062Y1575D01*
X5059Y1592D01*
X5049Y1606D01*
X5035Y1616D01*
X5018Y1619D01*
D02*
G37*
G36*
X4040D02*
X4023Y1616D01*
X4009Y1606D01*
X3999Y1592D01*
X3996Y1575D01*
X3999Y1558D01*
X4009Y1543D01*
X4023Y1534D01*
X4040Y1530D01*
X4057Y1534D01*
X4072Y1543D01*
X4081Y1558D01*
X4084Y1575D01*
X4081Y1592D01*
X4072Y1606D01*
X4057Y1616D01*
X4040Y1619D01*
D02*
G37*
G36*
X4962Y1618D02*
X4875D01*
Y1531D01*
X4962D01*
Y1618D01*
D02*
G37*
G36*
X4410D02*
X4323D01*
Y1531D01*
X4410D01*
Y1618D01*
D02*
G37*
G36*
X2557Y4061D02*
X2521D01*
Y4021D01*
X2557D01*
Y4061D01*
D02*
G37*
G36*
X5405Y3850D02*
X5304D01*
Y3788D01*
X5405D01*
Y3850D01*
D02*
G37*
G36*
X5428Y1882D02*
X5391D01*
Y1844D01*
X5428D01*
Y1882D01*
D02*
G37*
G36*
X4775Y3850D02*
X4674D01*
Y3788D01*
X4775D01*
Y3850D01*
D02*
G37*
G36*
X2511Y3814D02*
X2474D01*
Y3773D01*
X2511D01*
Y3814D01*
D02*
G37*
G36*
X2557D02*
X2521D01*
Y3773D01*
X2557D01*
Y3814D01*
D02*
G37*
G36*
X4553Y1867D02*
X4539Y1864D01*
X4527Y1856D01*
X4519Y1844D01*
X4516Y1830D01*
X4519Y1819D01*
X4426Y1726D01*
X4299D01*
X4293Y1736D01*
X4281Y1744D01*
X4267Y1747D01*
X4253Y1744D01*
X4241Y1736D01*
X4233Y1724D01*
X4230Y1710D01*
X4233Y1696D01*
X4241Y1684D01*
X4253Y1676D01*
X4267Y1673D01*
X4281Y1676D01*
X4293Y1684D01*
X4299Y1694D01*
X4433D01*
X4439Y1695D01*
X4445Y1698D01*
X4542Y1796D01*
X4553Y1793D01*
X4567Y1796D01*
X4579Y1804D01*
X4587Y1816D01*
X4590Y1830D01*
X4587Y1844D01*
X4579Y1856D01*
X4567Y1864D01*
X4553Y1867D01*
D02*
G37*
G36*
X2340Y1704D02*
X2305D01*
Y1669D01*
X2340D01*
Y1704D01*
D02*
G37*
G36*
X2557Y3864D02*
X2521D01*
Y3824D01*
X2557D01*
Y3864D01*
D02*
G37*
G36*
X3718Y1847D02*
X3698D01*
Y1794D01*
X3703Y1795D01*
X3710Y1800D01*
X3716Y1808D01*
X3718Y1817D01*
Y1847D01*
D02*
G37*
G36*
X2511Y3864D02*
X2474D01*
Y3824D01*
X2511D01*
Y3864D01*
D02*
G37*
G36*
X5160Y1885D02*
X5123D01*
Y1847D01*
X5135Y1850D01*
X5149Y1859D01*
X5158Y1873D01*
X5160Y1885D01*
D02*
G37*
G36*
X5113D02*
X5076D01*
X5078Y1873D01*
X5087Y1859D01*
X5102Y1850D01*
X5113Y1847D01*
Y1885D01*
D02*
G37*
G36*
X4775Y4243D02*
X4674D01*
Y4229D01*
X4665D01*
X4658Y4228D01*
X4653Y4224D01*
X4589Y4161D01*
X4586Y4155D01*
X4585Y4149D01*
Y3713D01*
X4575Y3707D01*
X4567Y3695D01*
X4564Y3681D01*
X4567Y3667D01*
X4575Y3655D01*
X4587Y3647D01*
X4601Y3644D01*
X4615Y3647D01*
X4627Y3655D01*
X4635Y3667D01*
X4638Y3681D01*
X4635Y3695D01*
X4627Y3707D01*
X4617Y3713D01*
Y4142D01*
X4669Y4194D01*
X4674Y4192D01*
Y4182D01*
X4775D01*
Y4196D01*
X4881D01*
X4882Y4190D01*
X4890Y4178D01*
X4902Y4170D01*
X4916Y4167D01*
X4927Y4169D01*
X5153Y3943D01*
Y3791D01*
X5143Y3784D01*
X5135Y3772D01*
X5132Y3758D01*
X5135Y3744D01*
X5143Y3732D01*
X5155Y3724D01*
X5169Y3721D01*
X5183Y3724D01*
X5195Y3732D01*
X5203Y3744D01*
X5206Y3758D01*
X5203Y3772D01*
X5195Y3784D01*
X5185Y3791D01*
Y3950D01*
X5184Y3956D01*
X5181Y3961D01*
X4951Y4191D01*
X4953Y4204D01*
X4950Y4218D01*
X4942Y4230D01*
X4930Y4238D01*
X4916Y4240D01*
X4902Y4238D01*
X4890Y4230D01*
X4890Y4229D01*
X4775D01*
Y4243D01*
D02*
G37*
G36*
X5349Y3735D02*
X5305D01*
Y3710D01*
X5349D01*
Y3735D01*
D02*
G37*
G36*
X5404D02*
X5359D01*
Y3710D01*
X5404D01*
Y3735D01*
D02*
G37*
G36*
X5018Y1934D02*
X5001Y1931D01*
X4987Y1921D01*
X4977Y1907D01*
X4974Y1890D01*
X4977Y1873D01*
X4987Y1858D01*
X5001Y1849D01*
X5018Y1845D01*
X5035Y1849D01*
X5049Y1858D01*
X5059Y1873D01*
X5062Y1890D01*
X5059Y1907D01*
X5049Y1921D01*
X5035Y1931D01*
X5018Y1934D01*
D02*
G37*
G36*
X5476Y1882D02*
X5438D01*
Y1844D01*
X5476D01*
Y1882D01*
D02*
G37*
G36*
X5404Y3770D02*
X5359D01*
Y3745D01*
X5404D01*
Y3770D01*
D02*
G37*
G36*
X4962Y1933D02*
X4875D01*
Y1846D01*
X4962D01*
Y1933D01*
D02*
G37*
G36*
X5349Y3770D02*
X5305D01*
Y3745D01*
X5349D01*
Y3770D01*
D02*
G37*
G36*
X4775Y3928D02*
X4674D01*
Y3867D01*
X4775D01*
Y3928D01*
D02*
G37*
G36*
Y4007D02*
X4674D01*
Y3946D01*
X4775D01*
Y4007D01*
D02*
G37*
G36*
X4374Y3980D02*
X4343D01*
Y3942D01*
X4374D01*
Y3980D01*
D02*
G37*
G36*
X1605Y1703D02*
Y1669D01*
X1640D01*
X1638Y1680D01*
X1629Y1693D01*
X1616Y1701D01*
X1605Y1703D01*
D02*
G37*
G36*
X5405Y4007D02*
X5304D01*
Y3946D01*
X5405D01*
Y4007D01*
D02*
G37*
G36*
X2511Y4011D02*
X2474D01*
Y3970D01*
X2511D01*
Y4011D01*
D02*
G37*
G36*
X2557D02*
X2521D01*
Y3970D01*
X2557D01*
Y4011D01*
D02*
G37*
G36*
X4333Y4027D02*
X4303D01*
Y3990D01*
X4333D01*
Y4027D01*
D02*
G37*
G36*
X2511Y4061D02*
X2474D01*
Y4021D01*
X2511D01*
Y4061D01*
D02*
G37*
G36*
X2295Y1704D02*
X2261D01*
Y1669D01*
X2295D01*
Y1704D01*
D02*
G37*
G36*
X4333Y3980D02*
X4303D01*
Y3942D01*
X4333D01*
Y3980D01*
D02*
G37*
G36*
X4374Y4027D02*
X4343D01*
Y3990D01*
X4374D01*
Y4027D01*
D02*
G37*
G36*
X1595Y1703D02*
X1585Y1701D01*
X1572Y1693D01*
X1563Y1680D01*
X1561Y1669D01*
X1595D01*
Y1703D01*
D02*
G37*
G36*
X2558Y3962D02*
X2473D01*
Y3870D01*
X2558D01*
Y3900D01*
X2589D01*
X2595Y3890D01*
X2607Y3882D01*
X2621Y3879D01*
X2635Y3882D01*
X2647Y3890D01*
X2655Y3902D01*
X2658Y3916D01*
X2655Y3930D01*
X2647Y3942D01*
X2635Y3950D01*
X2621Y3953D01*
X2607Y3950D01*
X2595Y3942D01*
X2589Y3932D01*
X2558D01*
Y3962D01*
D02*
G37*
%LPD*%
G36*
X3452Y2664D02*
X3453Y2663D01*
X3689Y2426D01*
X3695Y2423D01*
X3701Y2422D01*
X3813D01*
X3824Y2411D01*
X3822Y2407D01*
X3744D01*
Y2386D01*
X3680D01*
X3677Y2400D01*
X3669Y2412D01*
X3657Y2420D01*
X3643Y2423D01*
X3629Y2420D01*
X3617Y2412D01*
X3609Y2400D01*
X3607Y2386D01*
X3500D01*
Y2407D01*
X3413D01*
Y2386D01*
X3374D01*
X3365Y2395D01*
X3360Y2399D01*
X3354Y2400D01*
X3309D01*
X3309Y2400D01*
X3299Y2415D01*
X3285Y2424D01*
X3268Y2428D01*
X3251Y2424D01*
X3236Y2415D01*
X3227Y2400D01*
X3224Y2388D01*
X3219Y2389D01*
Y2593D01*
X3229Y2603D01*
X3378D01*
X3384Y2604D01*
X3390Y2607D01*
X3447Y2665D01*
X3452Y2664D01*
D02*
G37*
G36*
X1473Y3105D02*
X1473Y3105D01*
Y2433D01*
X1468Y2432D01*
X1461Y2442D01*
X1456Y2445D01*
Y3096D01*
X1468Y3108D01*
X1473Y3105D01*
D02*
G37*
G36*
X3132Y2054D02*
Y2006D01*
X3131Y2005D01*
X3124Y2006D01*
X3124Y2007D01*
X3073Y2057D01*
X3068Y2060D01*
X3062Y2062D01*
X3030D01*
Y2081D01*
X3028Y2090D01*
X3022Y2099D01*
X3014Y2104D01*
X3004Y2106D01*
X2995Y2104D01*
X2986Y2099D01*
X2982Y2092D01*
X2982Y2092D01*
X2977D01*
X2977Y2092D01*
X2972Y2099D01*
X2971Y2100D01*
Y2105D01*
X2980Y2111D01*
X2988Y2123D01*
X2991Y2137D01*
X2988Y2151D01*
X2980Y2163D01*
X2976Y2166D01*
X2978Y2171D01*
X3015D01*
X3132Y2054D01*
D02*
G37*
G36*
X3123Y2724D02*
X3069Y2671D01*
X3066Y2665D01*
X3065Y2659D01*
Y2472D01*
X2988Y2395D01*
X2978D01*
X2978Y2396D01*
X2979Y2403D01*
X2989Y2410D01*
X2998Y2424D01*
X3002Y2441D01*
X2998Y2458D01*
X2989Y2472D01*
X2974Y2482D01*
X2957Y2485D01*
X2941Y2482D01*
X2926Y2472D01*
X2917Y2458D01*
X2913Y2441D01*
X2917Y2424D01*
X2926Y2410D01*
X2936Y2403D01*
X2937Y2396D01*
X2937Y2395D01*
X2878D01*
X2878Y2396D01*
X2879Y2403D01*
X2889Y2410D01*
X2898Y2424D01*
X2902Y2441D01*
X2898Y2458D01*
X2889Y2472D01*
X2874Y2482D01*
X2874Y2482D01*
Y2506D01*
X3097Y2729D01*
X3121D01*
X3123Y2724D01*
D02*
G37*
G36*
X3050Y2218D02*
X3050Y2218D01*
X3047Y2204D01*
X3050Y2190D01*
X3052Y2187D01*
X3048Y2184D01*
X3034Y2199D01*
X3028Y2202D01*
X3022Y2203D01*
X2936D01*
X2930Y2202D01*
X2924Y2199D01*
X2904Y2178D01*
X2899Y2180D01*
X2901Y2189D01*
X2898Y2200D01*
X2921Y2223D01*
X3047D01*
X3050Y2218D01*
D02*
G37*
G36*
X3096Y1988D02*
Y1964D01*
X3091Y1963D01*
X3084Y1973D01*
X3072Y1981D01*
X3058Y1984D01*
X3044Y1981D01*
X3032Y1973D01*
X3026Y1963D01*
X2843D01*
X2821Y1985D01*
Y1991D01*
X2822Y1992D01*
X2827Y1998D01*
X2827Y1999D01*
X2832D01*
X2832Y1998D01*
X2836Y1992D01*
X2845Y1986D01*
X2854Y1985D01*
X2864Y1986D01*
X2872Y1992D01*
X2877Y1998D01*
X2877Y1999D01*
X2882D01*
X2882Y1998D01*
X2886Y1992D01*
X2895Y1986D01*
X2904Y1985D01*
X2914Y1986D01*
X2922Y1992D01*
X2927Y1998D01*
X2927Y1999D01*
X2932D01*
X2932Y1998D01*
X2936Y1992D01*
X2945Y1986D01*
X2954Y1985D01*
X2964Y1986D01*
X2972Y1992D01*
X2977Y1998D01*
X2977Y1999D01*
X2982D01*
X2982Y1998D01*
X2986Y1992D01*
X2995Y1986D01*
X3004Y1985D01*
X3014Y1986D01*
X3022Y1992D01*
X3028Y2000D01*
X3030Y2010D01*
Y2029D01*
X3055D01*
X3096Y1988D01*
D02*
G37*
G36*
X2019Y2727D02*
X2018Y2720D01*
X2017Y2720D01*
X1956Y2659D01*
X1953Y2653D01*
X1952Y2647D01*
Y2257D01*
X1953Y2251D01*
X1956Y2245D01*
X2028Y2174D01*
X2026Y2169D01*
X2025Y2168D01*
X1940Y2253D01*
Y2671D01*
X1997Y2728D01*
X2018D01*
X2019Y2727D01*
D02*
G37*
G36*
X2679Y2010D02*
X2681Y2000D01*
X2686Y1992D01*
X2695Y1986D01*
X2704Y1985D01*
X2714Y1986D01*
X2722Y1992D01*
X2727Y1998D01*
X2727Y1999D01*
X2732D01*
X2732Y1998D01*
X2736Y1992D01*
X2745Y1986D01*
X2754Y1985D01*
X2764Y1986D01*
X2772Y1992D01*
X2777Y1998D01*
X2777Y1999D01*
X2782D01*
X2782Y1998D01*
X2786Y1992D01*
X2788Y1991D01*
Y1979D01*
X2789Y1972D01*
X2793Y1967D01*
X2824Y1935D01*
X2830Y1932D01*
X2836Y1931D01*
X3026D01*
X3032Y1921D01*
X3044Y1913D01*
X3058Y1910D01*
X3072Y1913D01*
X3084Y1921D01*
X3091Y1931D01*
X3096Y1930D01*
Y1779D01*
X2962Y1646D01*
X2959Y1640D01*
X2958Y1634D01*
Y1616D01*
X2957Y1616D01*
X2943Y1606D01*
X2933Y1592D01*
X2930Y1575D01*
X2933Y1558D01*
X2943Y1543D01*
X2957Y1534D01*
X2974Y1530D01*
X2991Y1534D01*
X3005Y1543D01*
X3015Y1558D01*
X3018Y1575D01*
X3015Y1592D01*
X3005Y1606D01*
X2991Y1616D01*
X2990Y1616D01*
Y1627D01*
X3124Y1760D01*
X3124Y1761D01*
X3131Y1762D01*
X3132Y1761D01*
Y1750D01*
X3062Y1681D01*
X3059Y1675D01*
X3058Y1669D01*
Y1616D01*
X3057Y1616D01*
X3043Y1606D01*
X3033Y1592D01*
X3030Y1575D01*
X3033Y1558D01*
X3043Y1543D01*
X3057Y1534D01*
X3074Y1530D01*
X3091Y1534D01*
X3105Y1543D01*
X3115Y1558D01*
X3118Y1575D01*
X3115Y1592D01*
X3105Y1606D01*
X3091Y1616D01*
X3090Y1616D01*
Y1662D01*
X3160Y1731D01*
X3163Y1736D01*
X3165Y1737D01*
X3168Y1737D01*
X3170Y1733D01*
X3242Y1662D01*
Y1545D01*
X3222Y1525D01*
X2619D01*
X2561Y1583D01*
Y1842D01*
X2560Y1848D01*
X2557Y1854D01*
X2542Y1868D01*
X2544Y1873D01*
X2566D01*
Y1904D01*
X2531D01*
Y1885D01*
X2527Y1883D01*
X2458Y1952D01*
X2460Y1957D01*
X2530D01*
Y1949D01*
X2530Y1947D01*
X2530Y1947D01*
X2531Y1944D01*
X2531Y1944D01*
Y1914D01*
X2611D01*
Y1944D01*
X2611Y1944D01*
X2612Y1947D01*
X2612Y1947D01*
X2612Y1949D01*
Y2020D01*
X2614Y2024D01*
X2679D01*
Y2010D01*
D02*
G37*
G36*
X3227Y2366D02*
X3236Y2352D01*
X3251Y2343D01*
X3268Y2339D01*
X3285Y2343D01*
X3299Y2352D01*
X3309Y2366D01*
X3309Y2367D01*
X3347D01*
X3356Y2358D01*
X3361Y2355D01*
X3367Y2354D01*
X3413D01*
Y2333D01*
X3500D01*
Y2354D01*
X3627D01*
X3629Y2352D01*
X3643Y2349D01*
X3657Y2352D01*
X3660Y2354D01*
X3744D01*
Y2333D01*
X3831D01*
X3831Y2328D01*
Y2322D01*
X3794Y2285D01*
X3577D01*
X3571Y2284D01*
X3565Y2281D01*
X3432Y2147D01*
X3428Y2142D01*
X3427Y2135D01*
Y2100D01*
X3425Y2099D01*
X3421Y2092D01*
X3421Y2092D01*
X3416D01*
X3416Y2092D01*
X3411Y2099D01*
X3403Y2104D01*
X3393Y2106D01*
X3384Y2104D01*
X3375Y2099D01*
X3370Y2090D01*
X3368Y2081D01*
Y2067D01*
X3312D01*
X3304Y2065D01*
X3297Y2060D01*
X3265Y2028D01*
X3260Y2021D01*
X3259Y2017D01*
X3239D01*
Y1997D01*
X3207D01*
X3201Y1995D01*
X3196Y1992D01*
X3170Y1967D01*
X3169Y1965D01*
X3164Y1966D01*
Y2061D01*
X3163Y2067D01*
X3160Y2073D01*
X3064Y2168D01*
X3067Y2172D01*
X3070Y2170D01*
X3084Y2167D01*
X3098Y2170D01*
X3110Y2178D01*
X3118Y2190D01*
X3121Y2204D01*
X3118Y2215D01*
X3215Y2311D01*
X3218Y2317D01*
X3219Y2323D01*
Y2378D01*
X3224Y2379D01*
X3227Y2366D01*
D02*
G37*
G36*
X4176Y2246D02*
Y2191D01*
X4145Y2160D01*
X4136D01*
X4135Y2161D01*
X4126Y2175D01*
X4111Y2185D01*
X4094Y2188D01*
X4078Y2185D01*
X4063Y2175D01*
X4058Y2168D01*
X4053Y2170D01*
Y2218D01*
X4058Y2220D01*
X4063Y2213D01*
X4078Y2203D01*
X4094Y2200D01*
X4111Y2203D01*
X4126Y2213D01*
X4135Y2227D01*
X4136Y2228D01*
X4144D01*
X4150Y2229D01*
X4156Y2233D01*
X4171Y2248D01*
X4176Y2246D01*
D02*
G37*
G36*
X3801Y2248D02*
X3800Y2247D01*
X3612D01*
X3606Y2246D01*
X3600Y2243D01*
X3532Y2174D01*
X3528Y2169D01*
X3527Y2162D01*
Y2100D01*
X3525Y2099D01*
X3521Y2092D01*
X3521Y2092D01*
X3516D01*
X3516Y2092D01*
X3511Y2099D01*
X3503Y2104D01*
X3493Y2106D01*
X3484Y2104D01*
X3475Y2099D01*
X3471Y2092D01*
X3471Y2092D01*
X3466D01*
X3466Y2092D01*
X3461Y2099D01*
X3460Y2100D01*
Y2129D01*
X3584Y2253D01*
X3798D01*
X3801Y2248D01*
D02*
G37*
G36*
X2821Y2327D02*
X2822Y2324D01*
X2804Y2306D01*
X2793Y2309D01*
X2779Y2306D01*
X2767Y2298D01*
X2759Y2286D01*
X2756Y2272D01*
X2759Y2258D01*
X2766Y2248D01*
X2763Y2243D01*
X2655D01*
X2632Y2266D01*
X2635Y2277D01*
X2632Y2291D01*
X2624Y2303D01*
X2612Y2311D01*
X2598Y2314D01*
X2584Y2311D01*
X2575Y2305D01*
X2572Y2309D01*
X2592Y2329D01*
X2820D01*
X2821Y2327D01*
D02*
G37*
G36*
X2838Y2116D02*
Y2100D01*
X2836Y2099D01*
X2832Y2092D01*
X2832Y2092D01*
X2827D01*
X2827Y2092D01*
X2822Y2099D01*
X2814Y2104D01*
X2804Y2106D01*
X2795Y2104D01*
X2786Y2099D01*
X2782Y2092D01*
X2782Y2092D01*
X2777D01*
X2777Y2092D01*
X2772Y2099D01*
X2771Y2100D01*
Y2118D01*
X2769Y2124D01*
X2766Y2129D01*
X2734Y2162D01*
X2733Y2162D01*
X2735Y2167D01*
X2787D01*
X2838Y2116D01*
D02*
G37*
G36*
X4731Y2485D02*
X4735Y2483D01*
Y2099D01*
X4730Y2096D01*
X4725Y2099D01*
Y2485D01*
X4730Y2486D01*
X4731Y2485D01*
D02*
G37*
G36*
X4145Y2455D02*
Y2268D01*
X4140Y2263D01*
X4134Y2264D01*
X4126Y2275D01*
X4111Y2285D01*
X4094Y2288D01*
X4078Y2285D01*
X4063Y2275D01*
X4058Y2268D01*
X4053Y2270D01*
Y2318D01*
X4058Y2320D01*
X4063Y2313D01*
X4078Y2303D01*
X4094Y2300D01*
X4111Y2303D01*
X4126Y2313D01*
X4135Y2327D01*
X4139Y2344D01*
X4135Y2361D01*
X4126Y2375D01*
X4111Y2385D01*
X4094Y2388D01*
X4078Y2385D01*
X4063Y2375D01*
X4058Y2368D01*
X4053Y2370D01*
Y2540D01*
X4058Y2542D01*
X4145Y2455D01*
D02*
G37*
G36*
X3746Y2576D02*
X3746Y2572D01*
Y2545D01*
X3831D01*
Y2570D01*
X3836Y2572D01*
X3892Y2516D01*
Y2444D01*
X3887Y2442D01*
X3853Y2477D01*
X3847Y2480D01*
X3841Y2481D01*
X3722D01*
X3631Y2572D01*
X3633Y2577D01*
X3741D01*
X3746Y2576D01*
D02*
G37*
G36*
X3102Y3091D02*
X3103Y3084D01*
X3105Y3082D01*
X3102Y3077D01*
X3101Y3071D01*
X3098Y3067D01*
X3085D01*
X3078Y3077D01*
X3066Y3085D01*
X3052Y3088D01*
X3038Y3085D01*
X3026Y3077D01*
X3018Y3065D01*
X3015Y3051D01*
X3018Y3037D01*
X3021Y3033D01*
X3019Y3028D01*
X2944D01*
X2938Y3027D01*
X2936Y3026D01*
X2933Y3030D01*
X2997Y3094D01*
X3099D01*
X3102Y3091D01*
D02*
G37*
G36*
X1985Y3080D02*
Y3036D01*
X1980Y3034D01*
X1974Y3043D01*
X1962Y3051D01*
X1948Y3054D01*
X1934Y3051D01*
X1922Y3043D01*
X1914Y3031D01*
X1911Y3017D01*
X1914Y3003D01*
X1922Y2991D01*
X1932Y2985D01*
Y2980D01*
X1912Y2960D01*
X1654D01*
X1648Y2970D01*
X1636Y2978D01*
X1622Y2981D01*
X1608Y2978D01*
X1596Y2970D01*
X1588Y2958D01*
X1585Y2944D01*
X1588Y2930D01*
X1596Y2918D01*
X1608Y2910D01*
X1622Y2907D01*
X1636Y2910D01*
X1648Y2918D01*
X1654Y2928D01*
X1919D01*
X1925Y2929D01*
X1930Y2932D01*
X1960Y2961D01*
X1963Y2967D01*
X1964Y2973D01*
Y2985D01*
X1974Y2991D01*
X1980Y3000D01*
X1985Y2998D01*
Y2796D01*
X1986Y2790D01*
X1989Y2784D01*
X2008Y2765D01*
X2009Y2765D01*
X2007Y2760D01*
X1990D01*
X1984Y2759D01*
X1978Y2756D01*
X1912Y2690D01*
X1909Y2684D01*
X1908Y2678D01*
Y2246D01*
X1909Y2240D01*
X1912Y2234D01*
X2008Y2138D01*
X2014Y2135D01*
X2020Y2134D01*
X2715D01*
X2738Y2111D01*
Y2100D01*
X2736Y2099D01*
X2732Y2092D01*
X2732Y2092D01*
X2727D01*
X2727Y2092D01*
X2722Y2099D01*
X2714Y2104D01*
X2704Y2106D01*
X2695Y2104D01*
X2686Y2099D01*
X2681Y2090D01*
X2679Y2081D01*
Y2067D01*
X2589D01*
X2581Y2065D01*
X2574Y2060D01*
X2556Y2042D01*
X2551Y2035D01*
X2550Y2027D01*
Y2020D01*
X2530D01*
Y2010D01*
X2415D01*
X2352Y2073D01*
X2343Y2079D01*
X2333Y2081D01*
X2241D01*
Y2105D01*
X2140D01*
Y2081D01*
X1958D01*
X1609Y2429D01*
X1610Y2431D01*
X1607Y2445D01*
X1599Y2457D01*
X1587Y2465D01*
X1573Y2468D01*
X1573Y2468D01*
X1569Y2471D01*
Y2979D01*
X1576Y2990D01*
X1579Y3004D01*
X1576Y3018D01*
X1568Y3030D01*
X1556Y3038D01*
X1542Y3041D01*
X1528Y3038D01*
X1516Y3030D01*
X1510Y3021D01*
X1505Y3023D01*
Y3098D01*
X1529Y3122D01*
X1943D01*
X1985Y3080D01*
D02*
G37*
G36*
X3948Y3177D02*
X3944Y3171D01*
X3941Y3157D01*
X3944Y3143D01*
X3952Y3131D01*
X3964Y3123D01*
X3978Y3120D01*
X3992Y3123D01*
X4004Y3131D01*
X4010Y3141D01*
X4045D01*
X4051Y3142D01*
X4057Y3145D01*
X4066Y3155D01*
X4071Y3152D01*
X4068Y3141D01*
X4071Y3127D01*
X4079Y3115D01*
X4084Y3112D01*
X4082Y3107D01*
X3793D01*
X3791Y3110D01*
X3793Y3114D01*
X3871D01*
X3877Y3115D01*
X3882Y3118D01*
X3944Y3180D01*
X3948Y3177D01*
D02*
G37*
G36*
X3379Y3952D02*
Y3934D01*
X3374Y3932D01*
X3252Y4055D01*
X3246Y4058D01*
X3240Y4059D01*
X3166D01*
X3165Y4064D01*
X3175Y4071D01*
X3181Y4081D01*
X3250D01*
X3379Y3952D01*
D02*
G37*
G36*
X3942Y4254D02*
Y3990D01*
X3926Y3974D01*
X3921Y3976D01*
Y4243D01*
X3934Y4251D01*
X3937Y4255D01*
X3942Y4254D01*
D02*
G37*
G36*
X3399Y2912D02*
X3409Y2905D01*
Y2881D01*
X3406Y2878D01*
X3399Y2877D01*
X3397Y2875D01*
X3392Y2878D01*
X3386Y2879D01*
X3379Y2878D01*
X3376Y2876D01*
X3373Y2878D01*
X3366Y2879D01*
X3360Y2878D01*
X3356Y2876D01*
X3353Y2878D01*
X3346Y2879D01*
X3340Y2878D01*
X3337Y2876D01*
X3333Y2878D01*
X3327Y2879D01*
X3320Y2878D01*
X3316Y2875D01*
X3313Y2877D01*
X3307Y2878D01*
X3304Y2881D01*
Y2895D01*
X3331Y2921D01*
X3393D01*
X3399Y2912D01*
D02*
G37*
G36*
X3944Y2951D02*
X3942Y2944D01*
X3945Y2930D01*
X3953Y2918D01*
X3965Y2910D01*
X3979Y2907D01*
X3983Y2908D01*
X3986Y2904D01*
X3977Y2896D01*
X3974Y2890D01*
X3973Y2884D01*
Y2771D01*
X3968Y2769D01*
X3922Y2815D01*
X3924Y2820D01*
X3931Y2818D01*
X3945Y2821D01*
X3957Y2829D01*
X3965Y2841D01*
X3968Y2855D01*
X3965Y2869D01*
X3957Y2881D01*
X3945Y2889D01*
X3931Y2892D01*
X3923Y2890D01*
X3920Y2895D01*
X3927Y2905D01*
X3930Y2919D01*
X3927Y2933D01*
X3919Y2945D01*
X3910Y2951D01*
X3911Y2956D01*
X3940D01*
X3944Y2951D01*
D02*
G37*
G36*
X3344Y2967D02*
X3356Y2959D01*
X3355Y2954D01*
X3324D01*
X3318Y2953D01*
X3312Y2949D01*
X3276Y2913D01*
X3272Y2908D01*
X3271Y2901D01*
Y2882D01*
X3268Y2879D01*
X3261Y2878D01*
X3258Y2876D01*
X3255Y2878D01*
X3248Y2879D01*
X3241Y2878D01*
X3238Y2876D01*
X3235Y2878D01*
X3228Y2879D01*
X3222Y2878D01*
X3219Y2876D01*
X3215Y2878D01*
X3209Y2879D01*
X3202Y2878D01*
X3196Y2874D01*
X3193Y2869D01*
X3191Y2862D01*
Y2803D01*
X3192Y2799D01*
Y2778D01*
X3175Y2761D01*
X3090D01*
X3084Y2760D01*
X3078Y2757D01*
X2846Y2524D01*
X2842Y2519D01*
X2841Y2512D01*
Y2482D01*
X2841Y2482D01*
X2826Y2472D01*
X2817Y2458D01*
X2813Y2441D01*
X2817Y2424D01*
X2826Y2410D01*
X2836Y2403D01*
X2837Y2396D01*
X2837Y2395D01*
X2785D01*
X2781Y2399D01*
X2781Y2404D01*
X2789Y2410D01*
X2798Y2424D01*
X2802Y2441D01*
X2798Y2458D01*
X2789Y2472D01*
X2774Y2482D01*
X2757Y2485D01*
X2741Y2482D01*
X2726Y2472D01*
X2717Y2458D01*
X2713Y2441D01*
X2717Y2424D01*
X2726Y2410D01*
X2741Y2400D01*
X2741Y2400D01*
Y2400D01*
X2742Y2393D01*
X2746Y2388D01*
X2766Y2367D01*
X2768Y2366D01*
X2767Y2361D01*
X2585D01*
X2579Y2360D01*
X2573Y2357D01*
X2528Y2311D01*
X2517Y2314D01*
X2503Y2311D01*
X2491Y2303D01*
X2483Y2291D01*
X2480Y2277D01*
X2483Y2263D01*
X2491Y2251D01*
X2503Y2243D01*
X2517Y2240D01*
X2531Y2243D01*
X2543Y2251D01*
X2551Y2263D01*
X2554Y2277D01*
X2551Y2288D01*
X2566Y2303D01*
X2570Y2300D01*
X2564Y2291D01*
X2561Y2277D01*
X2564Y2263D01*
X2572Y2251D01*
X2584Y2243D01*
X2598Y2240D01*
X2609Y2243D01*
X2636Y2215D01*
X2642Y2212D01*
X2648Y2211D01*
X2826D01*
X2830Y2211D01*
X2833Y2207D01*
X2830Y2203D01*
X2827Y2189D01*
X2830Y2178D01*
X2825Y2175D01*
X2806Y2195D01*
X2800Y2198D01*
X2794Y2199D01*
X2049D01*
X1984Y2264D01*
Y2640D01*
X2036Y2692D01*
X2709D01*
X2711Y2687D01*
X2707Y2683D01*
X2072D01*
X2066Y2682D01*
X2060Y2679D01*
X2044Y2662D01*
X2033Y2665D01*
X2019Y2662D01*
X2007Y2654D01*
X1999Y2642D01*
X1996Y2628D01*
X1999Y2614D01*
X2007Y2602D01*
X2019Y2594D01*
X2033Y2591D01*
X2042Y2593D01*
X2044Y2588D01*
X2039Y2583D01*
X2028Y2586D01*
X2014Y2583D01*
X2002Y2575D01*
X1994Y2563D01*
X1991Y2549D01*
X1994Y2535D01*
X2002Y2523D01*
X2014Y2515D01*
X2028Y2512D01*
X2042Y2515D01*
X2054Y2523D01*
X2062Y2535D01*
X2065Y2549D01*
X2062Y2560D01*
X2112Y2610D01*
X2145D01*
X2146Y2605D01*
X2144Y2604D01*
X2018Y2478D01*
X2015Y2472D01*
X2014Y2466D01*
Y2438D01*
X2004Y2432D01*
X1996Y2420D01*
X1993Y2406D01*
X1996Y2392D01*
X2004Y2380D01*
X2016Y2372D01*
X2030Y2369D01*
X2044Y2372D01*
X2056Y2380D01*
X2064Y2392D01*
X2067Y2406D01*
X2064Y2420D01*
X2056Y2432D01*
X2046Y2438D01*
Y2459D01*
X2163Y2576D01*
X2739D01*
X2745Y2577D01*
X2751Y2580D01*
X3047Y2877D01*
X3113D01*
X3118Y2876D01*
X3177D01*
X3184Y2878D01*
X3189Y2882D01*
X3193Y2887D01*
X3194Y2894D01*
X3193Y2900D01*
X3191Y2904D01*
X3193Y2907D01*
X3194Y2913D01*
X3197Y2917D01*
X3263D01*
X3269Y2918D01*
X3275Y2922D01*
X3330Y2977D01*
X3338D01*
X3344Y2967D01*
D02*
G37*
G36*
X3409Y3018D02*
Y3008D01*
X3404Y3007D01*
X3396Y3019D01*
X3384Y3027D01*
X3370Y3030D01*
X3356Y3027D01*
X3344Y3019D01*
X3338Y3009D01*
X3323D01*
X3317Y3008D01*
X3311Y3005D01*
X3294Y2987D01*
X3289Y2989D01*
X3291Y2997D01*
X3288Y3011D01*
X3280Y3023D01*
X3268Y3031D01*
X3255Y3034D01*
X3254Y3036D01*
X3253Y3039D01*
X3263Y3045D01*
X3269Y3055D01*
X3372D01*
X3409Y3018D01*
D02*
G37*
G36*
X2801Y3174D02*
X2809Y3162D01*
X2821Y3154D01*
X2835Y3151D01*
X2846Y3154D01*
X2849Y3149D01*
X2849Y3149D01*
X2815Y3116D01*
X2812Y3110D01*
X2811Y3104D01*
Y3033D01*
X2751Y2973D01*
X2741D01*
X2741Y2973D01*
X2733Y2978D01*
X2728Y2979D01*
Y2984D01*
X2733Y2985D01*
X2741Y2990D01*
X2741Y2990D01*
X2753D01*
X2760Y2991D01*
X2765Y2995D01*
X2790Y3019D01*
X2793Y3025D01*
X2794Y3031D01*
Y3182D01*
X2799Y3183D01*
X2801Y3174D01*
D02*
G37*
G36*
X4439Y4250D02*
Y3848D01*
X4335Y3744D01*
X4329D01*
X4328Y3746D01*
X4327Y3749D01*
X4417Y3839D01*
X4420Y3844D01*
X4421Y3850D01*
Y4243D01*
X4434Y4251D01*
X4439Y4250D01*
D02*
G37*
G36*
X4488Y3696D02*
X4472D01*
Y3613D01*
X4472Y3609D01*
X4467Y3608D01*
X4467D01*
X4444Y3631D01*
X4444Y3636D01*
X4449Y3639D01*
X4457Y3651D01*
X4460Y3665D01*
X4457Y3679D01*
X4449Y3691D01*
X4437Y3699D01*
X4423Y3702D01*
X4409Y3699D01*
X4397Y3691D01*
X4389Y3679D01*
X4386Y3665D01*
X4389Y3651D01*
X4397Y3639D01*
X4407Y3633D01*
Y3629D01*
X4408Y3623D01*
X4411Y3617D01*
X4428Y3601D01*
X4425Y3597D01*
X4411Y3600D01*
X4397Y3597D01*
X4385Y3589D01*
X4377Y3577D01*
X4374Y3563D01*
X4377Y3549D01*
X4381Y3544D01*
X4378Y3539D01*
X4359D01*
X4357Y3550D01*
X4349Y3562D01*
X4337Y3570D01*
X4323Y3573D01*
X4309Y3570D01*
X4297Y3562D01*
X4289Y3550D01*
X4288Y3546D01*
X4283Y3547D01*
Y3646D01*
X4293Y3652D01*
X4298Y3659D01*
X4299Y3659D01*
X4333D01*
Y3696D01*
X4303D01*
X4303Y3696D01*
Y3696D01*
X4298Y3697D01*
X4293Y3704D01*
X4289Y3707D01*
X4290Y3712D01*
X4342D01*
X4348Y3713D01*
X4354Y3716D01*
X4406Y3769D01*
X4411Y3767D01*
X4410Y3764D01*
X4440D01*
Y3794D01*
X4437Y3793D01*
X4435Y3798D01*
X4467Y3829D01*
X4470Y3835D01*
X4471Y3841D01*
Y3937D01*
X4473Y3941D01*
X4476Y3941D01*
X4488D01*
Y3696D01*
D02*
G37*
G36*
X4233Y3664D02*
X4241Y3652D01*
X4251Y3646D01*
Y3515D01*
X4251Y3513D01*
X4246Y3511D01*
X4208Y3549D01*
Y3649D01*
X4218Y3655D01*
X4226Y3667D01*
X4227Y3671D01*
X4232D01*
X4233Y3664D01*
D02*
G37*
G36*
X3507Y3923D02*
Y3796D01*
X3507Y3795D01*
Y3640D01*
X3502Y3638D01*
X3496Y3648D01*
X3484Y3656D01*
X3470Y3659D01*
X3456Y3656D01*
X3444Y3648D01*
X3442Y3645D01*
X3437Y3646D01*
Y3979D01*
X3436Y3985D01*
X3433Y3990D01*
X3437Y3993D01*
X3507Y3923D01*
D02*
G37*
G36*
X3893Y3851D02*
Y3794D01*
X3978D01*
Y3738D01*
X3919Y3679D01*
X3918Y3680D01*
X3883Y3714D01*
Y3848D01*
X3888Y3853D01*
X3893Y3851D01*
D02*
G37*
G36*
X2787Y3338D02*
X2777Y3331D01*
X2769Y3319D01*
X2766Y3305D01*
X2769Y3291D01*
X2777Y3279D01*
X2789Y3271D01*
X2803Y3268D01*
X2817Y3271D01*
X2829Y3279D01*
X2835Y3289D01*
X2970D01*
X2971Y3284D01*
X2967Y3283D01*
X2955Y3275D01*
X2947Y3263D01*
X2944Y3249D01*
X2947Y3235D01*
X2955Y3223D01*
X2967Y3215D01*
X2981Y3212D01*
X2995Y3215D01*
X3007Y3223D01*
X3013Y3233D01*
X3022D01*
X3037Y3217D01*
X3043Y3213D01*
X3049Y3212D01*
X3096D01*
X3099Y3209D01*
X3096Y3205D01*
X2927D01*
X2877Y3256D01*
X2872Y3259D01*
X2865Y3260D01*
X2812D01*
X2806Y3259D01*
X2800Y3256D01*
X2766Y3222D01*
X2764Y3219D01*
X2759Y3220D01*
X2757Y3231D01*
X2749Y3243D01*
X2737Y3251D01*
X2723Y3254D01*
X2709Y3251D01*
X2697Y3243D01*
X2689Y3231D01*
X2686Y3217D01*
X2689Y3206D01*
X2655Y3172D01*
X2654Y3172D01*
X2650Y3178D01*
X2650Y3179D01*
Y3216D01*
X2660Y3222D01*
X2668Y3234D01*
X2671Y3248D01*
X2668Y3262D01*
X2660Y3274D01*
X2650Y3280D01*
X2649Y3286D01*
X2706Y3343D01*
X2786D01*
X2787Y3338D01*
D02*
G37*
G36*
X2762Y3200D02*
Y3038D01*
X2747Y3023D01*
X2741D01*
X2741Y3023D01*
X2733Y3028D01*
X2728Y3029D01*
Y3034D01*
X2733Y3035D01*
X2741Y3040D01*
X2746Y3048D01*
X2748Y3056D01*
X2746Y3065D01*
X2741Y3073D01*
X2733Y3078D01*
X2728Y3079D01*
Y3084D01*
X2733Y3085D01*
X2741Y3090D01*
X2746Y3098D01*
X2748Y3106D01*
X2746Y3115D01*
X2741Y3123D01*
X2733Y3128D01*
X2724Y3130D01*
X2666D01*
X2664Y3135D01*
X2712Y3183D01*
X2723Y3180D01*
X2737Y3183D01*
X2749Y3191D01*
X2757Y3203D01*
X2757Y3203D01*
X2762Y3200D01*
D02*
G37*
G36*
X3355Y3905D02*
Y3864D01*
X3350Y3862D01*
X3235Y3977D01*
X3238Y3988D01*
X3235Y4002D01*
X3227Y4014D01*
X3215Y4022D01*
X3215Y4022D01*
X3218Y4027D01*
X3233D01*
X3355Y3905D01*
D02*
G37*
G36*
X4092Y3689D02*
X4089Y3678D01*
X4092Y3664D01*
X4100Y3652D01*
X4112Y3644D01*
X4126Y3641D01*
X4140Y3644D01*
X4152Y3652D01*
X4157Y3660D01*
X4163D01*
X4166Y3655D01*
X4176Y3649D01*
Y3542D01*
X4177Y3536D01*
X4180Y3530D01*
X4282Y3429D01*
X4280Y3424D01*
X4256D01*
Y3389D01*
X4287D01*
Y3417D01*
X4292Y3419D01*
X4323Y3388D01*
Y3256D01*
X4287Y3220D01*
X4092D01*
X4086Y3219D01*
X4080Y3216D01*
X4038Y3173D01*
X4010D01*
X4004Y3183D01*
X3992Y3191D01*
X3978Y3194D01*
X3964Y3191D01*
X3958Y3187D01*
X3955Y3191D01*
X3976Y3212D01*
X4009D01*
X4013Y3206D01*
X4023Y3199D01*
X4035Y3197D01*
X4047Y3199D01*
X4058Y3206D01*
X4064Y3216D01*
X4067Y3228D01*
X4065Y3235D01*
X4088Y3258D01*
X4143D01*
Y3233D01*
X4214D01*
X4216Y3233D01*
X4221Y3234D01*
X4249D01*
Y3274D01*
Y3314D01*
X4221D01*
X4216Y3315D01*
X4214Y3315D01*
X4143D01*
Y3290D01*
X4081D01*
X4075Y3289D01*
X4070Y3286D01*
X4042Y3258D01*
X4035Y3260D01*
X4023Y3257D01*
X4013Y3250D01*
X4009Y3245D01*
X3983D01*
X3981Y3249D01*
X4047Y3315D01*
X4051Y3320D01*
X4052Y3326D01*
Y3399D01*
X4058Y3403D01*
X4061Y3409D01*
X4080D01*
X4116Y3372D01*
X4122Y3369D01*
X4128Y3368D01*
X4140D01*
Y3343D01*
X4211D01*
X4213Y3343D01*
X4218Y3344D01*
X4246D01*
Y3384D01*
Y3424D01*
X4218D01*
X4213Y3425D01*
X4211Y3425D01*
X4140D01*
Y3400D01*
X4135D01*
X4098Y3437D01*
X4093Y3440D01*
X4087Y3442D01*
X4061D01*
X4058Y3447D01*
X4047Y3454D01*
X4035Y3456D01*
X4023Y3454D01*
X4020Y3452D01*
X4015Y3454D01*
Y3620D01*
X4087Y3692D01*
X4092Y3689D01*
D02*
G37*
G36*
X5356Y3443D02*
Y3416D01*
X5351Y3415D01*
X5350Y3418D01*
X5347Y3424D01*
X5201Y3570D01*
X5199Y3571D01*
X5200Y3576D01*
X5223D01*
X5356Y3443D01*
D02*
G37*
G36*
X3062Y4413D02*
X3054Y4411D01*
X3040Y4401D01*
X3030Y4387D01*
X3027Y4370D01*
X3030Y4353D01*
X3040Y4339D01*
X3054Y4329D01*
X3055Y4329D01*
Y4295D01*
X3056Y4289D01*
X3059Y4284D01*
X3094Y4249D01*
X3092Y4244D01*
X3042D01*
X2987Y4299D01*
Y4329D01*
X2988Y4329D01*
X3002Y4339D01*
X3012Y4353D01*
X3015Y4370D01*
X3012Y4387D01*
X3002Y4401D01*
X2988Y4411D01*
X2980Y4413D01*
X2980Y4418D01*
X3062D01*
X3062Y4413D01*
D02*
G37*
G36*
X2862D02*
X2854Y4411D01*
X2840Y4401D01*
X2830Y4387D01*
X2827Y4370D01*
X2830Y4353D01*
X2840Y4339D01*
X2854Y4329D01*
X2855Y4329D01*
Y4301D01*
X2856Y4295D01*
X2859Y4290D01*
X2961Y4187D01*
X2967Y4184D01*
X2973Y4183D01*
X3033D01*
X3034Y4178D01*
X3030Y4177D01*
X3018Y4169D01*
X3010Y4157D01*
X3007Y4143D01*
X3010Y4129D01*
X3018Y4117D01*
X3030Y4109D01*
X3044Y4106D01*
X3058Y4109D01*
X3070Y4117D01*
X3076Y4127D01*
X3120D01*
X3122Y4122D01*
X3115Y4111D01*
X3112Y4097D01*
X3115Y4083D01*
X3123Y4071D01*
X3133Y4064D01*
X3132Y4059D01*
X3074D01*
X3068Y4069D01*
X3056Y4077D01*
X3042Y4080D01*
X3028Y4077D01*
X3016Y4069D01*
X3008Y4057D01*
X3005Y4043D01*
X3008Y4029D01*
X3016Y4017D01*
X3028Y4009D01*
X3042Y4006D01*
X3056Y4009D01*
X3068Y4017D01*
X3074Y4027D01*
X3184D01*
X3187Y4022D01*
X3187Y4022D01*
X3175Y4014D01*
X3167Y4002D01*
X3164Y3988D01*
X3167Y3974D01*
X3175Y3962D01*
X3187Y3954D01*
X3201Y3951D01*
X3212Y3954D01*
X3332Y3834D01*
Y3668D01*
X3327Y3666D01*
X3265Y3729D01*
X3259Y3732D01*
X3253Y3733D01*
X3229D01*
X3223Y3743D01*
X3211Y3751D01*
X3197Y3754D01*
X3183Y3751D01*
X3171Y3743D01*
X3163Y3731D01*
X3160Y3717D01*
X3163Y3703D01*
X3171Y3691D01*
X3183Y3683D01*
X3197Y3680D01*
X3211Y3683D01*
X3223Y3691D01*
X3229Y3701D01*
X3246D01*
X3281Y3666D01*
X3278Y3662D01*
X3264Y3665D01*
X3250Y3662D01*
X3238Y3654D01*
X3230Y3642D01*
X3227Y3628D01*
X3230Y3614D01*
X3238Y3602D01*
X3250Y3594D01*
X3264Y3591D01*
X3269Y3592D01*
X3273Y3589D01*
Y3562D01*
X3268Y3560D01*
X3137Y3691D01*
Y3817D01*
X3164D01*
Y3903D01*
X3078D01*
Y3817D01*
X3105D01*
Y3700D01*
X3100Y3698D01*
X3037Y3761D01*
Y3819D01*
X3038Y3819D01*
X3052Y3829D01*
X3062Y3843D01*
X3065Y3860D01*
X3062Y3877D01*
X3052Y3891D01*
X3038Y3901D01*
X3021Y3904D01*
X3004Y3901D01*
X2990Y3891D01*
X2980Y3877D01*
X2977Y3860D01*
X2980Y3843D01*
X2990Y3829D01*
X3004Y3819D01*
X3005Y3819D01*
Y3766D01*
X3000Y3764D01*
X2945Y3819D01*
X2945Y3824D01*
X2952Y3829D01*
X2962Y3843D01*
X2965Y3860D01*
X2962Y3877D01*
X2952Y3891D01*
X2938Y3901D01*
X2921Y3904D01*
X2904Y3901D01*
X2890Y3891D01*
X2880Y3877D01*
X2877Y3860D01*
X2880Y3843D01*
X2890Y3829D01*
X2904Y3819D01*
X2905Y3819D01*
X2906Y3814D01*
X2909Y3808D01*
X3059Y3659D01*
X3057Y3654D01*
X3052D01*
X3046Y3664D01*
X3034Y3672D01*
X3020Y3675D01*
X3006Y3672D01*
X2994Y3664D01*
X2986Y3652D01*
X2983Y3638D01*
X2986Y3624D01*
X2994Y3612D01*
X3006Y3604D01*
X3020Y3601D01*
X3034Y3604D01*
X3046Y3612D01*
X3052Y3622D01*
X3059D01*
X3204Y3477D01*
X3202Y3474D01*
X3202Y3472D01*
X3196Y3469D01*
X3193Y3463D01*
X3191Y3457D01*
Y3398D01*
X3193Y3391D01*
X3196Y3385D01*
X3202Y3382D01*
X3209Y3380D01*
X3215Y3382D01*
X3219Y3384D01*
X3222Y3382D01*
X3228Y3380D01*
X3235Y3382D01*
X3238Y3384D01*
X3241Y3382D01*
X3248Y3380D01*
X3255Y3382D01*
X3258Y3384D01*
X3261Y3382D01*
X3268Y3380D01*
X3274Y3382D01*
X3278Y3384D01*
X3281Y3382D01*
X3287Y3380D01*
X3294Y3382D01*
X3297Y3384D01*
X3300Y3382D01*
X3307Y3380D01*
X3314Y3382D01*
X3317Y3384D01*
X3320Y3382D01*
X3327Y3380D01*
X3333Y3382D01*
X3337Y3384D01*
X3340Y3382D01*
X3346Y3380D01*
X3353Y3382D01*
X3356Y3384D01*
X3360Y3382D01*
X3366Y3380D01*
X3373Y3382D01*
X3376Y3384D01*
X3379Y3382D01*
X3386Y3380D01*
X3392Y3382D01*
X3396Y3384D01*
X3399Y3382D01*
X3406Y3380D01*
X3412Y3382D01*
X3415Y3384D01*
X3419Y3382D01*
X3425Y3380D01*
X3432Y3382D01*
X3435Y3384D01*
X3438Y3382D01*
X3445Y3380D01*
X3451Y3382D01*
X3455Y3384D01*
X3458Y3382D01*
X3465Y3380D01*
X3471Y3382D01*
X3474Y3384D01*
X3478Y3382D01*
X3483Y3381D01*
X3484Y3377D01*
X3485Y3376D01*
X3479Y3372D01*
X3471Y3360D01*
X3468Y3346D01*
X3471Y3332D01*
X3479Y3320D01*
X3491Y3312D01*
X3505Y3309D01*
X3519Y3312D01*
X3531Y3320D01*
X3539Y3332D01*
X3542Y3346D01*
X3539Y3360D01*
X3531Y3372D01*
X3525Y3376D01*
X3526Y3381D01*
X3530Y3382D01*
X3533Y3384D01*
X3537Y3382D01*
X3543Y3380D01*
X3550Y3382D01*
X3553Y3384D01*
X3556Y3382D01*
X3563Y3380D01*
X3570Y3382D01*
X3573Y3384D01*
X3576Y3382D01*
X3583Y3380D01*
X3589Y3382D01*
X3593Y3384D01*
X3596Y3382D01*
X3602Y3380D01*
X3609Y3382D01*
X3612Y3384D01*
X3615Y3382D01*
X3622Y3380D01*
X3629Y3382D01*
X3632Y3384D01*
X3635Y3382D01*
X3642Y3380D01*
X3648Y3382D01*
X3652Y3384D01*
X3655Y3382D01*
X3661Y3380D01*
X3668Y3382D01*
X3671Y3384D01*
X3675Y3382D01*
X3681Y3380D01*
X3688Y3382D01*
X3693Y3385D01*
X3697Y3391D01*
X3698Y3398D01*
Y3457D01*
X3697Y3461D01*
Y3463D01*
X3716Y3482D01*
X3727Y3479D01*
X3741Y3482D01*
X3753Y3490D01*
X3761Y3502D01*
X3764Y3516D01*
X3761Y3530D01*
X3753Y3542D01*
X3741Y3550D01*
X3727Y3553D01*
X3713Y3550D01*
X3701Y3542D01*
X3693Y3530D01*
X3690Y3516D01*
X3693Y3505D01*
X3682Y3494D01*
X3678Y3496D01*
Y3544D01*
X3689Y3556D01*
X3700Y3553D01*
X3714Y3556D01*
X3726Y3564D01*
X3734Y3576D01*
X3737Y3590D01*
X3734Y3604D01*
X3726Y3616D01*
X3714Y3624D01*
X3700Y3627D01*
X3686Y3624D01*
X3674Y3616D01*
X3667Y3604D01*
X3664Y3590D01*
X3666Y3579D01*
X3663Y3575D01*
X3658Y3577D01*
Y3679D01*
X3669Y3690D01*
X3680Y3687D01*
X3694Y3690D01*
X3706Y3698D01*
X3714Y3710D01*
X3717Y3724D01*
X3714Y3738D01*
X3706Y3750D01*
X3694Y3758D01*
X3680Y3761D01*
X3666Y3758D01*
X3654Y3750D01*
X3646Y3738D01*
X3643Y3724D01*
X3645Y3714D01*
X3643Y3713D01*
X3638Y3715D01*
Y4067D01*
X3637Y4073D01*
X3634Y4078D01*
X3506Y4206D01*
Y4349D01*
X3571Y4414D01*
X3573Y4414D01*
X3573Y4413D01*
X3575Y4408D01*
X3567Y4397D01*
X3564Y4381D01*
X3567Y4365D01*
X3576Y4351D01*
X3589Y4343D01*
X3605Y4339D01*
X3621Y4343D01*
X3634Y4351D01*
X3643Y4365D01*
X3646Y4381D01*
X3643Y4397D01*
X3634Y4410D01*
X3633Y4411D01*
X3634Y4416D01*
X3676D01*
X3677Y4411D01*
X3676Y4410D01*
X3667Y4397D01*
X3664Y4381D01*
X3667Y4365D01*
X3676Y4351D01*
X3689Y4343D01*
X3705Y4339D01*
X3721Y4343D01*
X3734Y4351D01*
X3743Y4365D01*
X3746Y4381D01*
X3743Y4397D01*
X3734Y4410D01*
X3733Y4411D01*
X3734Y4416D01*
X3776D01*
X3777Y4411D01*
X3776Y4410D01*
X3767Y4397D01*
X3764Y4381D01*
X3767Y4365D01*
X3776Y4351D01*
X3789Y4343D01*
X3805Y4339D01*
X3820Y4342D01*
X3842Y4321D01*
Y4308D01*
X3837Y4306D01*
X3834Y4310D01*
X3821Y4319D01*
X3805Y4322D01*
X3789Y4319D01*
X3776Y4310D01*
X3767Y4297D01*
X3764Y4281D01*
X3767Y4265D01*
X3776Y4251D01*
X3789Y4243D01*
X3805Y4239D01*
X3821Y4243D01*
X3834Y4251D01*
X3837Y4255D01*
X3842Y4254D01*
Y4109D01*
X3832Y4103D01*
X3824Y4091D01*
X3821Y4077D01*
X3824Y4063D01*
X3832Y4051D01*
X3844Y4043D01*
X3858Y4040D01*
X3872Y4043D01*
X3884Y4051D01*
X3886Y4050D01*
X3889Y4050D01*
Y3976D01*
X3885Y3972D01*
X3880Y3974D01*
Y4031D01*
X3793D01*
Y4004D01*
X3754D01*
X3721Y4037D01*
Y4243D01*
X3734Y4251D01*
X3743Y4265D01*
X3746Y4281D01*
X3743Y4297D01*
X3734Y4310D01*
X3721Y4319D01*
X3705Y4322D01*
X3689Y4319D01*
X3676Y4310D01*
X3667Y4297D01*
X3664Y4281D01*
X3667Y4265D01*
X3676Y4251D01*
X3689Y4243D01*
Y4030D01*
X3690Y4024D01*
X3694Y4018D01*
X3736Y3976D01*
X3741Y3972D01*
X3748Y3971D01*
X3793D01*
Y3944D01*
X3793Y3944D01*
X3793D01*
X3794Y3939D01*
X3784Y3932D01*
X3776Y3920D01*
X3773Y3906D01*
X3776Y3892D01*
X3782Y3884D01*
X3778Y3880D01*
X3775Y3880D01*
X3742D01*
Y3842D01*
X3779D01*
Y3875D01*
X3779Y3879D01*
X3783Y3880D01*
X3784Y3880D01*
X3785Y3880D01*
X3796Y3872D01*
X3810Y3869D01*
X3819Y3871D01*
X3823Y3867D01*
X3823Y3864D01*
Y3694D01*
X3824Y3688D01*
X3827Y3682D01*
X3862Y3648D01*
Y3519D01*
X3857Y3518D01*
X3856Y3519D01*
X3844Y3527D01*
X3830Y3530D01*
X3816Y3527D01*
X3804Y3519D01*
X3796Y3507D01*
X3793Y3493D01*
X3796Y3482D01*
X3772Y3459D01*
X3769Y3453D01*
X3768Y3447D01*
Y3397D01*
X3769Y3391D01*
X3771Y3387D01*
X3769Y3382D01*
X3769Y3382D01*
X3747D01*
Y3366D01*
X3742D01*
Y3364D01*
X3713D01*
X3706Y3362D01*
X3704Y3361D01*
X3697D01*
X3698Y3360D01*
X3699Y3357D01*
X3697Y3353D01*
X3695Y3346D01*
X3697Y3340D01*
X3699Y3337D01*
X3697Y3333D01*
X3695Y3327D01*
X3697Y3320D01*
X3699Y3317D01*
X3697Y3314D01*
X3695Y3307D01*
X3697Y3300D01*
X3699Y3297D01*
X3697Y3294D01*
X3695Y3287D01*
X3697Y3281D01*
X3699Y3278D01*
X3697Y3274D01*
X3695Y3268D01*
X3697Y3261D01*
X3699Y3258D01*
X3697Y3255D01*
X3695Y3248D01*
X3697Y3241D01*
X3699Y3238D01*
X3697Y3235D01*
X3695Y3228D01*
X3697Y3222D01*
X3699Y3219D01*
X3697Y3215D01*
X3695Y3209D01*
X3697Y3202D01*
X3699Y3199D01*
X3697Y3196D01*
X3695Y3189D01*
X3697Y3182D01*
X3699Y3178D01*
X3698Y3175D01*
X3697Y3174D01*
X3704D01*
X3706Y3173D01*
X3713Y3172D01*
X3742D01*
Y3167D01*
X3713D01*
X3706Y3166D01*
X3704Y3164D01*
X3697D01*
X3698Y3163D01*
X3699Y3160D01*
X3697Y3156D01*
X3695Y3150D01*
X3697Y3143D01*
X3699Y3140D01*
X3697Y3137D01*
X3695Y3130D01*
X3695Y3129D01*
X3689Y3129D01*
X3684Y3136D01*
X3672Y3144D01*
X3658Y3147D01*
X3644Y3144D01*
X3632Y3136D01*
X3624Y3124D01*
X3622Y3110D01*
X3624Y3099D01*
X3619Y3097D01*
X3549Y3168D01*
X3543Y3171D01*
X3537Y3172D01*
X3506D01*
X3500Y3182D01*
X3488Y3190D01*
X3474Y3193D01*
X3460Y3190D01*
X3448Y3182D01*
X3440Y3170D01*
X3437Y3156D01*
X3440Y3142D01*
X3448Y3130D01*
X3460Y3122D01*
X3474Y3119D01*
X3488Y3122D01*
X3500Y3130D01*
X3506Y3140D01*
X3530D01*
X3625Y3045D01*
Y2992D01*
X3621Y2990D01*
X3562Y3049D01*
X3565Y3060D01*
X3562Y3074D01*
X3554Y3086D01*
X3542Y3094D01*
X3528Y3097D01*
X3514Y3094D01*
X3502Y3086D01*
X3494Y3074D01*
X3491Y3060D01*
X3494Y3046D01*
X3502Y3034D01*
X3514Y3026D01*
X3528Y3023D01*
X3539Y3026D01*
X3555Y3010D01*
X3553Y3005D01*
X3476D01*
X3470Y3004D01*
X3465Y3001D01*
X3446Y2982D01*
X3442Y2984D01*
Y3025D01*
X3440Y3031D01*
X3437Y3036D01*
X3391Y3082D01*
X3385Y3086D01*
X3379Y3087D01*
X3269D01*
X3263Y3097D01*
X3261Y3098D01*
Y3104D01*
X3268Y3109D01*
X3276Y3120D01*
X3278Y3129D01*
X3208D01*
X3209Y3128D01*
X3200Y3119D01*
X3194Y3120D01*
X3193Y3123D01*
X3193Y3123D01*
X3194Y3130D01*
X3193Y3137D01*
X3191Y3140D01*
X3193Y3143D01*
X3194Y3150D01*
X3193Y3156D01*
X3191Y3159D01*
X3193Y3163D01*
X3194Y3169D01*
X3193Y3176D01*
X3191Y3179D01*
X3193Y3182D01*
X3194Y3189D01*
X3194Y3193D01*
X3194Y3194D01*
X3199Y3197D01*
X3248Y3246D01*
X3253Y3245D01*
X3254Y3243D01*
X3266Y3235D01*
X3280Y3232D01*
X3294Y3235D01*
X3306Y3243D01*
X3311Y3250D01*
X3316D01*
X3321Y3242D01*
X3333Y3234D01*
X3347Y3231D01*
X3361Y3234D01*
X3373Y3242D01*
X3381Y3254D01*
X3384Y3268D01*
X3381Y3282D01*
X3373Y3294D01*
X3365Y3299D01*
X3365Y3301D01*
X3370Y3303D01*
X3370Y3302D01*
X3382Y3294D01*
X3396Y3291D01*
X3410Y3294D01*
X3422Y3302D01*
X3430Y3314D01*
X3433Y3328D01*
X3430Y3342D01*
X3422Y3354D01*
X3410Y3362D01*
X3396Y3365D01*
X3385Y3362D01*
X3381Y3367D01*
X3375Y3370D01*
X3369Y3371D01*
X3237D01*
X3231Y3370D01*
X3225Y3367D01*
X3202Y3343D01*
X3197D01*
X3194Y3346D01*
X3193Y3353D01*
X3191Y3356D01*
X3193Y3360D01*
X3194Y3366D01*
X3193Y3373D01*
X3189Y3378D01*
X3184Y3382D01*
X3177Y3383D01*
X3118D01*
X3112Y3382D01*
X3106Y3378D01*
X3102Y3373D01*
X3101Y3366D01*
X3098Y3363D01*
X3092D01*
X3084Y3371D01*
Y3411D01*
X3094Y3417D01*
X3102Y3429D01*
X3105Y3443D01*
X3102Y3457D01*
X3094Y3469D01*
X3082Y3477D01*
X3068Y3480D01*
X3054Y3477D01*
X3042Y3469D01*
X3034Y3457D01*
X3031Y3443D01*
X3034Y3429D01*
X3042Y3417D01*
X3052Y3411D01*
Y3371D01*
X3047Y3369D01*
X3038Y3379D01*
X3032Y3382D01*
X3026Y3383D01*
X2965D01*
X2964Y3388D01*
X2964Y3388D01*
Y3419D01*
X2879D01*
Y3390D01*
X2875Y3387D01*
X2861Y3402D01*
X2855Y3405D01*
X2849Y3406D01*
X2668D01*
X2662Y3405D01*
X2656Y3402D01*
X2597Y3342D01*
X2363D01*
X2357Y3352D01*
X2345Y3360D01*
X2331Y3363D01*
X2317Y3360D01*
X2305Y3352D01*
X2297Y3340D01*
X2295Y3331D01*
X2290Y3332D01*
Y3370D01*
X2382Y3462D01*
X2543D01*
X2547Y3460D01*
X2547Y3457D01*
Y3430D01*
X2632D01*
Y3456D01*
X2637Y3458D01*
X2641Y3452D01*
X2653Y3444D01*
X2667Y3441D01*
X2681Y3444D01*
X2693Y3452D01*
X2701Y3464D01*
X2704Y3478D01*
X2701Y3492D01*
X2693Y3504D01*
X2681Y3512D01*
X2667Y3515D01*
X2653Y3512D01*
X2641Y3504D01*
X2635Y3494D01*
X2375D01*
X2369Y3493D01*
X2363Y3490D01*
X2262Y3389D01*
X2259Y3383D01*
X2258Y3377D01*
Y3215D01*
X2248Y3209D01*
X2240Y3197D01*
X2237Y3183D01*
X2240Y3169D01*
X2248Y3157D01*
X2260Y3149D01*
X2274Y3146D01*
X2288Y3149D01*
X2300Y3157D01*
X2308Y3169D01*
X2311Y3183D01*
X2308Y3197D01*
X2300Y3209D01*
X2290Y3215D01*
Y3320D01*
X2295Y3321D01*
X2297Y3312D01*
X2305Y3300D01*
X2317Y3292D01*
X2331Y3289D01*
X2345Y3292D01*
X2357Y3300D01*
X2363Y3310D01*
X2562D01*
X2563Y3305D01*
X2561Y3304D01*
X2370Y3112D01*
X2203D01*
X2197Y3122D01*
X2185Y3130D01*
X2171Y3133D01*
X2157Y3130D01*
X2145Y3122D01*
X2137Y3110D01*
X2134Y3096D01*
X2137Y3082D01*
X2145Y3070D01*
X2157Y3062D01*
X2171Y3059D01*
X2185Y3062D01*
X2197Y3070D01*
X2203Y3080D01*
X2377D01*
X2383Y3081D01*
X2389Y3084D01*
X2580Y3276D01*
X2603D01*
X2606Y3271D01*
X2600Y3262D01*
X2597Y3248D01*
X2600Y3234D01*
X2608Y3222D01*
X2618Y3216D01*
Y3186D01*
X2556Y3124D01*
X2552Y3123D01*
X2544Y3128D01*
X2535Y3130D01*
X2472D01*
X2464Y3128D01*
X2456Y3123D01*
X2451Y3115D01*
X2449Y3106D01*
X2451Y3098D01*
X2456Y3090D01*
X2464Y3085D01*
X2468Y3084D01*
Y3079D01*
X2464Y3078D01*
X2456Y3073D01*
X2451Y3065D01*
X2449Y3056D01*
X2451Y3048D01*
X2456Y3040D01*
X2464Y3035D01*
X2468Y3034D01*
Y3029D01*
X2464Y3028D01*
X2456Y3023D01*
X2456Y3023D01*
X2122D01*
X2092Y3053D01*
Y3444D01*
X2136Y3488D01*
X2240D01*
X2246Y3478D01*
X2258Y3470D01*
X2272Y3467D01*
X2286Y3470D01*
X2298Y3478D01*
X2306Y3490D01*
X2309Y3504D01*
X2306Y3518D01*
X2298Y3530D01*
X2289Y3536D01*
X2289Y3541D01*
X2311Y3563D01*
X2429D01*
X2435Y3564D01*
X2441Y3567D01*
X2527Y3654D01*
X2531Y3660D01*
X2532Y3666D01*
Y3674D01*
X2558D01*
Y3704D01*
X2634D01*
X2641Y3705D01*
X2646Y3709D01*
X2700Y3762D01*
X2703Y3768D01*
X2704Y3774D01*
Y4384D01*
X2738Y4418D01*
X2767D01*
X2767Y4417D01*
X2775D01*
X2775Y4418D01*
X2862D01*
X2862Y4413D01*
D02*
G37*
G36*
X3162D02*
X3154Y4411D01*
X3140Y4401D01*
X3130Y4387D01*
X3127Y4370D01*
X3130Y4353D01*
X3140Y4339D01*
X3154Y4329D01*
X3155Y4329D01*
Y4323D01*
X3156Y4317D01*
X3159Y4312D01*
X3192Y4279D01*
X3190Y4274D01*
X3115D01*
X3087Y4302D01*
Y4329D01*
X3088Y4329D01*
X3102Y4339D01*
X3112Y4353D01*
X3115Y4370D01*
X3112Y4387D01*
X3102Y4401D01*
X3088Y4411D01*
X3080Y4413D01*
X3080Y4418D01*
X3162D01*
X3162Y4413D01*
D02*
G37*
G36*
X3977Y4411D02*
X3976Y4410D01*
X3967Y4397D01*
X3964Y4381D01*
X3967Y4365D01*
X3946Y4345D01*
X3943Y4340D01*
X3942Y4334D01*
Y4308D01*
X3937Y4306D01*
X3934Y4310D01*
X3921Y4319D01*
X3905Y4322D01*
X3889Y4319D01*
X3879Y4312D01*
X3874Y4315D01*
Y4328D01*
X3873Y4334D01*
X3870Y4339D01*
X3843Y4365D01*
X3846Y4381D01*
X3843Y4397D01*
X3834Y4410D01*
X3833Y4411D01*
X3834Y4416D01*
X3876D01*
X3877Y4411D01*
X3876Y4410D01*
X3867Y4397D01*
X3864Y4381D01*
X3867Y4365D01*
X3876Y4351D01*
X3889Y4343D01*
X3905Y4339D01*
X3921Y4343D01*
X3934Y4351D01*
X3943Y4365D01*
X3946Y4381D01*
X3943Y4397D01*
X3934Y4410D01*
X3933Y4411D01*
X3934Y4416D01*
X3976D01*
X3977Y4411D01*
D02*
G37*
G36*
X4040Y4351D02*
Y4330D01*
X4041Y4324D01*
X4044Y4318D01*
X4067Y4296D01*
X4064Y4281D01*
X4067Y4265D01*
X4076Y4251D01*
X4089Y4243D01*
X4105Y4239D01*
X4121Y4243D01*
X4133Y4250D01*
X4138Y4248D01*
Y3858D01*
X4128Y3852D01*
X4120Y3840D01*
X4117Y3826D01*
X4120Y3812D01*
X4128Y3800D01*
X4140Y3792D01*
X4154Y3789D01*
X4168Y3792D01*
X4180Y3800D01*
X4188Y3812D01*
X4191Y3826D01*
X4188Y3840D01*
X4180Y3852D01*
X4170Y3858D01*
Y4251D01*
X4175Y4253D01*
X4176Y4251D01*
X4189Y4243D01*
Y3879D01*
X4190Y3873D01*
X4194Y3867D01*
X4236Y3825D01*
X4233Y3814D01*
X4236Y3800D01*
X4244Y3788D01*
X4254Y3781D01*
X4253Y3776D01*
X4132D01*
X4126Y3775D01*
X4120Y3772D01*
X4073Y3724D01*
X4068Y3726D01*
Y3818D01*
X4120Y3869D01*
X4123Y3875D01*
X4124Y3881D01*
Y3953D01*
X4123Y3959D01*
X4120Y3965D01*
X4115Y3969D01*
X4118Y3980D01*
X4115Y3994D01*
X4107Y4006D01*
X4095Y4014D01*
X4081Y4017D01*
X4067Y4014D01*
X4055Y4006D01*
X4054Y4005D01*
X4049Y4006D01*
Y4154D01*
X4053Y4157D01*
X4057Y4156D01*
X4071Y4159D01*
X4083Y4167D01*
X4091Y4179D01*
X4094Y4193D01*
X4091Y4207D01*
X4083Y4219D01*
X4071Y4227D01*
X4057Y4230D01*
X4043Y4227D01*
X4031Y4219D01*
X4026Y4212D01*
X4021Y4214D01*
Y4243D01*
X4034Y4251D01*
X4043Y4265D01*
X4046Y4281D01*
X4043Y4297D01*
X4034Y4310D01*
X4021Y4319D01*
X4005Y4322D01*
X3989Y4319D01*
X3979Y4312D01*
X3974Y4315D01*
Y4327D01*
X3990Y4342D01*
X4005Y4339D01*
X4021Y4343D01*
X4034Y4351D01*
X4035Y4352D01*
X4040Y4351D01*
D02*
G37*
G36*
X2962Y4413D02*
X2954Y4411D01*
X2940Y4401D01*
X2930Y4387D01*
X2927Y4370D01*
X2930Y4353D01*
X2940Y4339D01*
X2954Y4329D01*
X2955Y4329D01*
Y4292D01*
X2956Y4286D01*
X2959Y4281D01*
X3020Y4220D01*
X3018Y4215D01*
X2980D01*
X2887Y4308D01*
Y4329D01*
X2888Y4329D01*
X2902Y4339D01*
X2912Y4353D01*
X2915Y4370D01*
X2912Y4387D01*
X2902Y4401D01*
X2888Y4411D01*
X2880Y4413D01*
X2880Y4418D01*
X2962D01*
X2962Y4413D01*
D02*
G37*
G36*
X2721Y2647D02*
X2721Y2646D01*
X2717Y2642D01*
X2105D01*
X2099Y2641D01*
X2093Y2638D01*
X2073Y2617D01*
X2068Y2619D01*
X2070Y2628D01*
X2067Y2639D01*
X2079Y2651D01*
X2714D01*
X2715Y2651D01*
X2721Y2647D01*
D02*
G37*
G36*
X4150Y2840D02*
Y2540D01*
X4145Y2538D01*
X4031Y2652D01*
Y2707D01*
X4036Y2709D01*
X4043Y2702D01*
X4048Y2698D01*
X4051Y2698D01*
Y2670D01*
X4138D01*
Y2757D01*
X4058D01*
Y2781D01*
X4061Y2781D01*
X4063Y2782D01*
X4078Y2772D01*
X4094Y2769D01*
X4111Y2772D01*
X4126Y2782D01*
X4135Y2796D01*
X4139Y2813D01*
X4135Y2830D01*
X4135Y2831D01*
X4144Y2839D01*
X4145Y2841D01*
X4150Y2840D01*
D02*
G37*
G36*
X3989Y4243D02*
Y4000D01*
X3979Y3990D01*
X3974Y3992D01*
Y4247D01*
X3979Y4249D01*
X3989Y4243D01*
D02*
G37*
G36*
X3271Y4159D02*
X3268Y4155D01*
X3263Y4158D01*
X3257Y4159D01*
X3076D01*
X3070Y4169D01*
X3058Y4177D01*
X3054Y4178D01*
X3055Y4183D01*
X3247D01*
X3271Y4159D01*
D02*
G37*
G36*
X3301Y2788D02*
X3307Y2787D01*
X3310Y2784D01*
Y2729D01*
X3301Y2719D01*
X3217D01*
X3215Y2724D01*
X3240Y2749D01*
X3243Y2754D01*
X3245Y2760D01*
Y2783D01*
X3248Y2786D01*
X3255Y2787D01*
X3258Y2789D01*
X3261Y2787D01*
X3268Y2786D01*
X3274Y2787D01*
X3278Y2789D01*
X3281Y2787D01*
X3287Y2786D01*
X3294Y2787D01*
X3298Y2790D01*
X3301Y2788D01*
D02*
G37*
%LPC*%
G36*
X4480Y3754D02*
X4450D01*
Y3724D01*
X4459Y3726D01*
X4470Y3734D01*
X4478Y3745D01*
X4480Y3754D01*
D02*
G37*
G36*
X3174Y1619D02*
X3157Y1616D01*
X3143Y1606D01*
X3133Y1592D01*
X3130Y1575D01*
X3133Y1558D01*
X3143Y1543D01*
X3157Y1534D01*
X3174Y1530D01*
X3191Y1534D01*
X3205Y1543D01*
X3215Y1558D01*
X3218Y1575D01*
X3215Y1592D01*
X3205Y1606D01*
X3191Y1616D01*
X3174Y1619D01*
D02*
G37*
G36*
X2766Y4412D02*
X2754Y4410D01*
X2740Y4401D01*
X2731Y4387D01*
X2729Y4375D01*
X2766D01*
Y4412D01*
D02*
G37*
G36*
X2776D02*
Y4375D01*
X2813D01*
X2811Y4387D01*
X2801Y4401D01*
X2787Y4410D01*
X2776Y4412D01*
D02*
G37*
G36*
X4374Y3696D02*
X4343D01*
Y3659D01*
X4374D01*
Y3696D01*
D02*
G37*
G36*
X4440Y3754D02*
X4410D01*
X4412Y3745D01*
X4420Y3734D01*
X4431Y3726D01*
X4440Y3724D01*
Y3754D01*
D02*
G37*
G36*
X3009Y1911D02*
Y1857D01*
X3029D01*
Y1888D01*
X3027Y1897D01*
X3021Y1905D01*
X3014Y1910D01*
X3009Y1911D01*
D02*
G37*
G36*
X2813Y4365D02*
X2776D01*
Y4328D01*
X2787Y4330D01*
X2801Y4339D01*
X2811Y4354D01*
X2813Y4365D01*
D02*
G37*
G36*
X3645Y4320D02*
X3610D01*
Y4286D01*
X3645D01*
Y4320D01*
D02*
G37*
G36*
X2766Y4365D02*
X2729D01*
X2731Y4354D01*
X2740Y4339D01*
X2754Y4330D01*
X2766Y4328D01*
Y4365D01*
D02*
G37*
G36*
X3600Y4320D02*
X3566D01*
Y4286D01*
X3600D01*
Y4320D01*
D02*
G37*
G36*
Y4276D02*
X3566D01*
Y4241D01*
X3600D01*
Y4276D01*
D02*
G37*
G36*
X3645D02*
X3610D01*
Y4241D01*
X3645D01*
Y4276D01*
D02*
G37*
G36*
X3732Y3832D02*
X3694D01*
Y3795D01*
X3732D01*
Y3832D01*
D02*
G37*
G36*
X4450Y3794D02*
Y3764D01*
X4480D01*
X4478Y3773D01*
X4470Y3784D01*
X4459Y3792D01*
X4450Y3794D01*
D02*
G37*
G36*
X3779Y3832D02*
X3742D01*
Y3795D01*
X3779D01*
Y3832D01*
D02*
G37*
G36*
X3732Y3880D02*
X3694D01*
Y3842D01*
X3732D01*
Y3880D01*
D02*
G37*
G36*
X3029Y1847D02*
X3009D01*
Y1794D01*
X3014Y1795D01*
X3021Y1800D01*
X3027Y1808D01*
X3029Y1817D01*
Y1847D01*
D02*
G37*
G36*
X2557Y2485D02*
X2541Y2482D01*
X2526Y2472D01*
X2517Y2458D01*
X2513Y2441D01*
X2517Y2424D01*
X2526Y2410D01*
X2541Y2400D01*
X2557Y2397D01*
X2574Y2400D01*
X2589Y2410D01*
X2598Y2424D01*
X2602Y2441D01*
X2598Y2458D01*
X2589Y2472D01*
X2574Y2482D01*
X2557Y2485D01*
D02*
G37*
G36*
X3831Y2535D02*
X3793D01*
Y2504D01*
X3831D01*
Y2535D01*
D02*
G37*
G36*
X2652Y2436D02*
X2615D01*
X2617Y2424D01*
X2627Y2410D01*
X2641Y2401D01*
X2652Y2399D01*
Y2436D01*
D02*
G37*
G36*
X2501Y2484D02*
X2414D01*
Y2397D01*
X2501D01*
Y2484D01*
D02*
G37*
G36*
X2995Y2790D02*
X2981Y2787D01*
X2969Y2779D01*
X2961Y2767D01*
X2958Y2753D01*
X2961Y2739D01*
X2969Y2727D01*
X2979Y2721D01*
Y2715D01*
X2790Y2526D01*
X2209D01*
X2203Y2536D01*
X2191Y2544D01*
X2177Y2547D01*
X2163Y2544D01*
X2151Y2536D01*
X2143Y2524D01*
X2140Y2510D01*
X2143Y2496D01*
X2151Y2484D01*
X2163Y2476D01*
X2177Y2473D01*
X2191Y2476D01*
X2203Y2484D01*
X2209Y2494D01*
X2797D01*
X2803Y2495D01*
X2809Y2498D01*
X3007Y2696D01*
X3010Y2702D01*
X3011Y2708D01*
Y2721D01*
X3021Y2727D01*
X3029Y2739D01*
X3032Y2753D01*
X3029Y2767D01*
X3021Y2779D01*
X3009Y2787D01*
X2995Y2790D01*
D02*
G37*
G36*
X3451Y2577D02*
X3414D01*
Y2546D01*
X3451D01*
Y2577D01*
D02*
G37*
G36*
Y2536D02*
X3414D01*
Y2505D01*
X3451D01*
Y2536D01*
D02*
G37*
G36*
X3499D02*
X3461D01*
Y2505D01*
X3499D01*
Y2536D01*
D02*
G37*
G36*
X2652Y2483D02*
X2641Y2481D01*
X2627Y2472D01*
X2617Y2458D01*
X2615Y2446D01*
X2652D01*
Y2483D01*
D02*
G37*
G36*
X2662D02*
Y2446D01*
X2700D01*
X2697Y2458D01*
X2688Y2472D01*
X2674Y2481D01*
X2662Y2483D01*
D02*
G37*
G36*
X3310Y2478D02*
X3273D01*
Y2441D01*
X3310D01*
Y2478D01*
D02*
G37*
G36*
X3263D02*
X3225D01*
Y2441D01*
X3263D01*
Y2478D01*
D02*
G37*
G36*
X3783Y2535D02*
X3746D01*
Y2504D01*
X3783D01*
Y2535D01*
D02*
G37*
G36*
X2700Y2436D02*
X2662D01*
Y2399D01*
X2674Y2401D01*
X2688Y2410D01*
X2697Y2424D01*
X2700Y2436D01*
D02*
G37*
G36*
X3263Y2526D02*
X3225D01*
Y2488D01*
X3263D01*
Y2526D01*
D02*
G37*
G36*
X3310D02*
X3273D01*
Y2488D01*
X3310D01*
Y2526D01*
D02*
G37*
G36*
X2954Y1913D02*
X2945Y1911D01*
X2936Y1906D01*
X2932Y1899D01*
X2932Y1899D01*
X2927D01*
X2927Y1899D01*
X2922Y1906D01*
X2914Y1911D01*
X2904Y1913D01*
X2895Y1911D01*
X2886Y1906D01*
X2882Y1899D01*
X2882Y1899D01*
X2877D01*
X2877Y1899D01*
X2872Y1906D01*
X2864Y1911D01*
X2854Y1913D01*
X2845Y1911D01*
X2836Y1906D01*
X2832Y1899D01*
X2832Y1899D01*
X2827D01*
X2827Y1899D01*
X2822Y1906D01*
X2814Y1911D01*
X2804Y1913D01*
X2795Y1911D01*
X2786Y1906D01*
X2782Y1899D01*
X2782Y1899D01*
X2777D01*
X2777Y1899D01*
X2772Y1906D01*
X2764Y1911D01*
X2754Y1913D01*
X2745Y1911D01*
X2736Y1906D01*
X2732Y1899D01*
X2732Y1899D01*
X2727D01*
X2727Y1899D01*
X2722Y1906D01*
X2714Y1911D01*
X2704Y1913D01*
X2695Y1911D01*
X2686Y1906D01*
X2681Y1897D01*
X2679Y1888D01*
Y1817D01*
X2681Y1807D01*
X2686Y1799D01*
X2677Y1790D01*
X2666Y1793D01*
X2652Y1790D01*
X2640Y1782D01*
X2632Y1770D01*
X2629Y1756D01*
X2632Y1742D01*
X2640Y1730D01*
X2652Y1722D01*
X2666Y1719D01*
X2667Y1719D01*
X2669Y1715D01*
X2662Y1709D01*
X2659Y1703D01*
X2658Y1697D01*
Y1618D01*
X2631D01*
Y1531D01*
X2717D01*
Y1618D01*
X2690D01*
Y1690D01*
X2766Y1766D01*
X2769Y1771D01*
X2771Y1777D01*
Y1798D01*
X2772Y1799D01*
X2777Y1806D01*
X2777Y1806D01*
X2782D01*
X2782Y1806D01*
X2786Y1799D01*
X2788Y1798D01*
Y1779D01*
X2778Y1772D01*
X2770Y1760D01*
X2768Y1746D01*
X2770Y1732D01*
X2778Y1720D01*
X2790Y1712D01*
X2804Y1710D01*
X2818Y1712D01*
X2830Y1720D01*
X2833Y1725D01*
X2838Y1723D01*
Y1718D01*
X2762Y1643D01*
X2759Y1637D01*
X2758Y1631D01*
Y1616D01*
X2757Y1616D01*
X2743Y1606D01*
X2733Y1592D01*
X2730Y1575D01*
X2733Y1558D01*
X2743Y1543D01*
X2757Y1534D01*
X2774Y1530D01*
X2791Y1534D01*
X2805Y1543D01*
X2815Y1558D01*
X2818Y1575D01*
X2815Y1592D01*
X2805Y1606D01*
X2791Y1616D01*
X2790Y1616D01*
Y1624D01*
X2866Y1700D01*
X2869Y1705D01*
X2871Y1711D01*
Y1722D01*
X2875Y1723D01*
X2878Y1719D01*
X2890Y1711D01*
X2904Y1708D01*
X2918Y1711D01*
X2930Y1719D01*
X2933Y1724D01*
X2938Y1722D01*
Y1707D01*
X2862Y1632D01*
X2859Y1626D01*
X2858Y1620D01*
Y1616D01*
X2857Y1616D01*
X2843Y1606D01*
X2833Y1592D01*
X2830Y1575D01*
X2833Y1558D01*
X2843Y1543D01*
X2857Y1534D01*
X2874Y1530D01*
X2891Y1534D01*
X2905Y1543D01*
X2915Y1558D01*
X2918Y1575D01*
X2915Y1592D01*
X2905Y1606D01*
X2895Y1613D01*
X2895Y1618D01*
X2966Y1689D01*
X2969Y1694D01*
X2971Y1700D01*
Y1798D01*
X2972Y1799D01*
X2977Y1806D01*
X2979Y1807D01*
X2980Y1807D01*
X2983Y1807D01*
X2987Y1800D01*
X2995Y1795D01*
X2999Y1794D01*
Y1852D01*
Y1911D01*
X2995Y1910D01*
X2987Y1905D01*
X2983Y1898D01*
X2980Y1898D01*
X2979Y1898D01*
X2977Y1898D01*
X2972Y1906D01*
X2964Y1911D01*
X2954Y1913D01*
D02*
G37*
G36*
X2964Y3459D02*
X2927D01*
Y3429D01*
X2964D01*
Y3459D01*
D02*
G37*
G36*
X2632Y3420D02*
X2595D01*
Y3389D01*
X2632D01*
Y3420D01*
D02*
G37*
G36*
X2917Y3459D02*
X2879D01*
Y3429D01*
X2917D01*
Y3459D01*
D02*
G37*
G36*
X4374Y3649D02*
X4343D01*
Y3611D01*
X4374D01*
Y3649D01*
D02*
G37*
G36*
X2611Y1904D02*
X2576D01*
Y1873D01*
X2611D01*
Y1904D01*
D02*
G37*
G36*
X2965Y3631D02*
X2878D01*
Y3611D01*
X2634D01*
Y3631D01*
X2547D01*
Y3558D01*
X2634D01*
Y3578D01*
X2878D01*
Y3558D01*
X2906D01*
Y3537D01*
X2896Y3531D01*
X2888Y3519D01*
X2885Y3505D01*
X2888Y3491D01*
X2896Y3479D01*
X2908Y3471D01*
X2922Y3468D01*
X2936Y3471D01*
X2948Y3479D01*
X2956Y3491D01*
X2959Y3505D01*
X2956Y3519D01*
X2948Y3531D01*
X2938Y3537D01*
Y3558D01*
X2965D01*
Y3631D01*
D02*
G37*
G36*
X4333Y3649D02*
X4303D01*
Y3611D01*
X4333D01*
Y3649D01*
D02*
G37*
G36*
X3248Y3169D02*
Y3139D01*
X3278D01*
X3276Y3148D01*
X3268Y3159D01*
X3257Y3167D01*
X3248Y3169D01*
D02*
G37*
G36*
X4290Y3269D02*
X4259D01*
Y3234D01*
X4290D01*
Y3269D01*
D02*
G37*
G36*
X3499Y2577D02*
X3461D01*
Y2546D01*
X3499D01*
Y2577D01*
D02*
G37*
G36*
X3238Y3169D02*
X3229Y3167D01*
X3218Y3159D01*
X3210Y3148D01*
X3208Y3139D01*
X3238D01*
Y3169D01*
D02*
G37*
G36*
X3737Y3382D02*
X3713D01*
X3706Y3381D01*
X3701Y3378D01*
X3698Y3372D01*
X3697Y3371D01*
X3737D01*
Y3382D01*
D02*
G37*
G36*
X2585Y3420D02*
X2547D01*
Y3389D01*
X2585D01*
Y3420D01*
D02*
G37*
G36*
X4259Y3314D02*
Y3279D01*
X4290D01*
Y3314D01*
X4259D01*
D02*
G37*
G36*
X4287Y3379D02*
X4256D01*
Y3344D01*
X4287D01*
Y3379D01*
D02*
G37*
%LPD*%
D10*
X5354Y4213D02*
D03*
Y4134D02*
D03*
Y4055D02*
D03*
Y3977D02*
D03*
Y3662D02*
D03*
Y3741D02*
D03*
Y3819D02*
D03*
Y3898D02*
D03*
X4724D02*
D03*
Y3819D02*
D03*
Y3741D02*
D03*
Y3662D02*
D03*
Y3977D02*
D03*
Y4055D02*
D03*
Y4134D02*
D03*
Y4213D02*
D03*
D11*
X4363Y2675D02*
D03*
X4473D02*
D03*
X4363Y2479D02*
D03*
X4473D02*
D03*
X4368Y2283D02*
D03*
X4478D02*
D03*
X4368Y2086D02*
D03*
X4478D02*
D03*
X2406Y3720D02*
D03*
X2516D02*
D03*
X2405Y3916D02*
D03*
X2515D02*
D03*
X2406Y4016D02*
D03*
X2516D02*
D03*
X2406Y3819D02*
D03*
X2516D02*
D03*
D12*
X2504Y3106D02*
D03*
Y3056D02*
D03*
Y3006D02*
D03*
Y2956D02*
D03*
X2693Y3106D02*
D03*
Y3056D02*
D03*
Y3006D02*
D03*
Y2956D02*
D03*
D13*
X4636Y2859D02*
D03*
Y2933D02*
D03*
X3280Y1980D02*
D03*
Y1906D02*
D03*
X2571Y1983D02*
D03*
Y1909D02*
D03*
D14*
X4509Y3985D02*
D03*
X4338D02*
D03*
X4508Y3653D02*
D03*
X4338Y3654D02*
D03*
D15*
X4795Y2974D02*
D03*
Y2803D02*
D03*
X5127Y2973D02*
D03*
X5126Y2803D02*
D03*
X2922Y3424D02*
D03*
Y3595D02*
D03*
X2590Y3425D02*
D03*
X2591Y3595D02*
D03*
X3456Y2541D02*
D03*
Y2370D02*
D03*
X3788Y2540D02*
D03*
X3787Y2370D02*
D03*
D16*
X4963Y2402D02*
D03*
X5037D02*
D03*
X4254Y3274D02*
D03*
X4180D02*
D03*
X4251Y3384D02*
D03*
X4177D02*
D03*
D17*
X3209Y3427D02*
D03*
X3228D02*
D03*
X3248D02*
D03*
X3268D02*
D03*
X3287D02*
D03*
X3307D02*
D03*
X3327D02*
D03*
X3346D02*
D03*
X3366D02*
D03*
X3386D02*
D03*
X3406D02*
D03*
X3425D02*
D03*
X3445D02*
D03*
X3465D02*
D03*
X3484D02*
D03*
X3504D02*
D03*
X3524D02*
D03*
X3543D02*
D03*
X3563D02*
D03*
X3583D02*
D03*
X3602D02*
D03*
X3622D02*
D03*
X3642D02*
D03*
X3661D02*
D03*
X3681D02*
D03*
Y2833D02*
D03*
X3661D02*
D03*
X3642D02*
D03*
X3622D02*
D03*
X3602D02*
D03*
X3583D02*
D03*
X3563D02*
D03*
X3543D02*
D03*
X3524D02*
D03*
X3504D02*
D03*
X3484D02*
D03*
X3465D02*
D03*
X3445D02*
D03*
X3425D02*
D03*
X3406D02*
D03*
X3386D02*
D03*
X3366D02*
D03*
X3346D02*
D03*
X3327D02*
D03*
X3307D02*
D03*
X3287D02*
D03*
X3268D02*
D03*
X3248D02*
D03*
X3228D02*
D03*
X3209D02*
D03*
D18*
X3742Y3366D02*
D03*
Y3346D02*
D03*
Y3327D02*
D03*
Y3307D02*
D03*
Y3287D02*
D03*
Y3268D02*
D03*
Y3248D02*
D03*
Y3228D02*
D03*
Y3209D02*
D03*
Y3189D02*
D03*
Y3169D02*
D03*
Y3150D02*
D03*
Y3130D02*
D03*
Y3110D02*
D03*
Y3091D02*
D03*
Y3071D02*
D03*
Y3051D02*
D03*
Y3031D02*
D03*
Y3012D02*
D03*
Y2992D02*
D03*
Y2972D02*
D03*
Y2953D02*
D03*
Y2933D02*
D03*
Y2913D02*
D03*
Y2894D02*
D03*
X3148D02*
D03*
Y2913D02*
D03*
Y2933D02*
D03*
Y2953D02*
D03*
Y2972D02*
D03*
Y2992D02*
D03*
Y3012D02*
D03*
Y3031D02*
D03*
Y3051D02*
D03*
Y3071D02*
D03*
Y3091D02*
D03*
Y3110D02*
D03*
Y3130D02*
D03*
Y3150D02*
D03*
Y3169D02*
D03*
Y3189D02*
D03*
Y3209D02*
D03*
Y3228D02*
D03*
Y3248D02*
D03*
Y3268D02*
D03*
Y3287D02*
D03*
Y3307D02*
D03*
Y3327D02*
D03*
Y3346D02*
D03*
Y3366D02*
D03*
D19*
X3393Y1852D02*
D03*
X3443D02*
D03*
X3493D02*
D03*
X3543D02*
D03*
X3593D02*
D03*
X3643D02*
D03*
X3693D02*
D03*
X3393Y2045D02*
D03*
X3443D02*
D03*
X3493D02*
D03*
X3543D02*
D03*
X3593D02*
D03*
X3643D02*
D03*
X3693D02*
D03*
X2704Y1852D02*
D03*
X2754D02*
D03*
X2804D02*
D03*
X2854D02*
D03*
X2904D02*
D03*
X2954D02*
D03*
X3004D02*
D03*
X2704Y2045D02*
D03*
X2754D02*
D03*
X2804D02*
D03*
X2854D02*
D03*
X2904D02*
D03*
X2954D02*
D03*
X3004D02*
D03*
D20*
X4907Y4213D02*
X4916Y4204D01*
X4665Y4213D02*
X4907D01*
X3583Y2774D02*
Y2833D01*
X3307Y2780D02*
Y2833D01*
X3406D02*
Y2889D01*
X3307Y2833D02*
Y2890D01*
X3238Y3134D02*
X3243D01*
X3195Y3091D02*
X3238Y3134D01*
X3148Y3091D02*
X3195D01*
X2883Y3003D02*
X2990Y3110D01*
X2867Y3003D02*
X2883D01*
X2990Y3110D02*
X3148D01*
X2624Y3006D02*
X2693D01*
X2600Y2982D02*
X2624Y3006D01*
X2600Y2956D02*
Y2982D01*
X3844Y3228D02*
X3949Y3333D01*
X3742Y3228D02*
X3844D01*
X2404Y1983D02*
X2545Y1842D01*
Y1576D02*
Y1842D01*
X5161Y2624D02*
X5218D01*
X5269Y2145D02*
Y2572D01*
X5218Y2624D02*
X5269Y2572D01*
X5262Y2687D02*
X5314Y2635D01*
X5028Y2687D02*
X5262D01*
X5269Y2746D02*
X5353Y2662D01*
X5235Y2793D02*
Y2878D01*
X5190Y2748D02*
X5235Y2793D01*
X4880Y2748D02*
X5190D01*
X3951Y2972D02*
X3979Y2944D01*
X3742Y2972D02*
X3951D01*
X4819Y2687D02*
X4880Y2748D01*
X5324Y2774D02*
X5492Y2606D01*
X5324Y2774D02*
Y2875D01*
X5127Y3072D02*
X5324Y2875D01*
X5127Y3072D02*
Y3144D01*
X5372Y3293D02*
Y3450D01*
X5230Y3592D02*
X5372Y3450D01*
X4460Y3592D02*
X5230D01*
X5335Y3183D02*
Y3412D01*
X5189Y3558D02*
X5335Y3412D01*
X4416Y3558D02*
X5189D01*
X5260Y3120D02*
Y3423D01*
X5160Y3523D02*
X5260Y3423D01*
X4336Y3523D02*
X5160D01*
X5260Y3120D02*
X5349Y3031D01*
X5132Y3415D02*
X5208Y3339D01*
Y3051D02*
Y3339D01*
Y3051D02*
X5328Y2931D01*
X4465Y3415D02*
X5132D01*
X4843Y3282D02*
Y3346D01*
X4818Y3257D02*
X4843Y3282D01*
X4443Y3257D02*
X4818D01*
X4289Y3103D02*
X4443Y3257D01*
X4914Y3223D02*
X4943Y3252D01*
X4453Y3223D02*
X4914D01*
X4320Y3090D02*
X4453Y3223D01*
X4320Y2848D02*
Y3090D01*
Y2848D02*
X4372Y2796D01*
X4289Y2806D02*
Y3103D01*
X4372Y3234D02*
Y3410D01*
X4307Y3169D02*
X4372Y3234D01*
X4133Y3169D02*
X4307D01*
X3177Y2365D02*
Y2612D01*
X3051Y2239D02*
X3177Y2365D01*
X2914Y2239D02*
X3051D01*
X3133Y2416D02*
Y2640D01*
X3030Y2313D02*
X3133Y2416D01*
X2834Y2313D02*
X3030D01*
X3155Y2389D02*
Y2629D01*
X3039Y2273D02*
X3155Y2389D01*
X2872Y2273D02*
X3039D01*
X3109Y2442D02*
Y2651D01*
X3012Y2345D02*
X3109Y2442D01*
X2585Y2345D02*
X3012D01*
X3081Y2465D02*
Y2659D01*
X2995Y2379D02*
X3081Y2465D01*
X2778Y2379D02*
X2995D01*
X3148Y1743D02*
Y2061D01*
X3022Y2187D02*
X3148Y2061D01*
X2936Y2187D02*
X3022D01*
X2455Y1695D02*
Y1798D01*
X2373Y1613D02*
X2455Y1695D01*
X1366Y1613D02*
X2373D01*
X1115Y1864D02*
X1366Y1613D01*
X1115Y1864D02*
Y2430D01*
X1153Y2468D01*
X1323D01*
X1388Y2533D01*
X3084Y2204D02*
X3203Y2323D01*
Y2600D01*
X3222Y2619D01*
X3378D01*
X3445Y2686D01*
Y2833D01*
X1388Y2533D02*
Y4276D01*
X1550Y4438D01*
X2364D01*
X2383Y4419D01*
Y4370D02*
Y4419D01*
X2033Y3003D02*
Y3706D01*
X1962Y3777D02*
X2033Y3706D01*
X4653Y4269D02*
X4938D01*
X4509Y4125D02*
X4653Y4269D01*
X4509Y3985D02*
Y4125D01*
X2826Y2227D02*
X2872Y2273D01*
X2648Y2227D02*
X2826D01*
X2699Y3359D02*
X2836D01*
X2632Y3292D02*
X2699Y3359D01*
X2573Y3292D02*
X2632D01*
X2668Y3390D02*
X2849D01*
X2604Y3326D02*
X2668Y3390D01*
X2331Y3326D02*
X2604D01*
X4114Y3071D02*
X4166Y3019D01*
Y2536D02*
Y3019D01*
Y2536D02*
X4368Y2334D01*
X4088Y3051D02*
X4132Y3007D01*
Y2851D02*
Y3007D01*
X4094Y2813D02*
X4132Y2851D01*
X4062Y3031D02*
X4098Y2995D01*
Y2914D02*
Y2995D01*
X4042Y2858D02*
X4098Y2914D01*
X4039Y3011D02*
X4065Y2985D01*
Y2922D02*
Y2985D01*
X4015Y2872D02*
X4065Y2922D01*
X4012Y2991D02*
X4030Y2973D01*
Y2925D02*
Y2973D01*
X3989Y2884D02*
X4030Y2925D01*
X4105Y4381D02*
Y4435D01*
X4085Y4455D02*
X4105Y4435D01*
X3539Y4455D02*
X4085D01*
X4033Y4169D02*
X4057Y4193D01*
X4033Y3957D02*
Y4169D01*
X3994Y3918D02*
X4033Y3957D01*
X3867Y3855D02*
X4005Y3993D01*
X3295Y4258D02*
X3563Y3990D01*
Y3427D02*
Y3990D01*
X3583Y3427D02*
Y3991D01*
X3563Y2833D02*
Y2919D01*
X3425Y2938D02*
X3476Y2989D01*
X3556D01*
X3602Y2943D01*
Y2833D02*
Y2943D01*
X3528Y3060D02*
X3622Y2966D01*
Y2833D02*
Y2966D01*
X3537Y3156D02*
X3642Y3051D01*
Y2833D02*
Y3051D01*
X3908Y1791D02*
X3948Y1751D01*
X3908Y1791D02*
Y2523D01*
X3938Y1895D02*
X3972Y1861D01*
X3847Y2315D02*
Y2411D01*
X3801Y2269D02*
X3847Y2315D01*
X3577Y2269D02*
X3801D01*
X3820Y2438D02*
X3847Y2411D01*
X3701Y2438D02*
X3820D01*
X3878Y2298D02*
Y2428D01*
X3811Y2231D02*
X3878Y2298D01*
X3612Y2231D02*
X3811D01*
X3841Y2465D02*
X3878Y2428D01*
X3715Y2465D02*
X3841D01*
X3858Y2619D02*
X3938Y2539D01*
Y1895D02*
Y2539D01*
X3838Y2593D02*
X3908Y2523D01*
X3624Y2593D02*
X3838D01*
X3637Y2619D02*
X3858D01*
X3524Y2732D02*
X3637Y2619D01*
X3504Y2713D02*
Y2833D01*
X3717Y2194D02*
X3850Y2061D01*
Y1665D02*
Y2061D01*
Y1665D02*
X3940Y1575D01*
X3760Y2045D02*
X3810Y1995D01*
Y1605D02*
Y1995D01*
Y1605D02*
X3840Y1575D01*
X3637Y2194D02*
X3717D01*
X3693Y2045D02*
X3760D01*
X3524Y2732D02*
Y2833D01*
X3504Y2713D02*
X3624Y2593D01*
X3484Y2696D02*
Y2833D01*
Y2696D02*
X3715Y2465D01*
X3465Y2674D02*
X3701Y2438D01*
X3742Y2894D02*
X3783D01*
X3939Y2738D01*
X4010Y1988D02*
Y2536D01*
X3939Y2607D02*
X4010Y2536D01*
X3939Y2607D02*
Y2738D01*
X4037Y2000D02*
Y2547D01*
X3964Y2620D02*
X4037Y2547D01*
X3964Y2620D02*
Y2750D01*
X4161Y2261D02*
Y2462D01*
X3989Y2634D02*
X4161Y2462D01*
X3989Y2634D02*
Y2884D01*
X3742Y2913D02*
X3801D01*
Y2913D02*
X3964Y2750D01*
X4015Y2645D02*
Y2872D01*
Y2645D02*
X4192Y2468D01*
X3465Y2674D02*
Y2833D01*
X4192Y2184D02*
Y2468D01*
X2709Y2777D02*
X2944Y3012D01*
X1990Y2744D02*
X2710D01*
X2958Y2992D01*
X3148D01*
X3052Y3051D02*
X3148D01*
X2711Y2708D02*
X2975Y2972D01*
X2029Y2708D02*
X2711D01*
X2975Y2972D02*
X3148D01*
X2827Y3026D02*
Y3104D01*
X2757Y2956D02*
X2827Y3026D01*
X2693Y2956D02*
X2757D01*
X2812Y3244D02*
X2865D01*
X2778Y3210D02*
X2812Y3244D01*
X2778Y3031D02*
Y3210D01*
X2865Y3244D02*
X2920Y3189D01*
X2827Y3104D02*
X2873Y3150D01*
X2854Y3169D02*
X3148D01*
X2753Y3006D02*
X2778Y3031D01*
X2693Y3006D02*
X2753D01*
X1950Y3138D02*
X2001Y3087D01*
Y2796D02*
Y3087D01*
Y2796D02*
X2020Y2777D01*
X2709D01*
X2930Y3130D02*
X3148D01*
X2944Y3012D02*
X3148D01*
X2033Y3003D02*
X2122Y2914D01*
X1522Y3138D02*
X1950D01*
X1181Y2246D02*
X1435D01*
X1489Y2300D01*
Y3105D01*
X1522Y3138D01*
X3643Y2114D02*
X3672Y2143D01*
X3643Y2045D02*
Y2114D01*
X3593Y1772D02*
X3639Y1726D01*
X3593Y1772D02*
Y1852D01*
X3493Y1738D02*
Y1852D01*
X3393Y1669D02*
Y1852D01*
X3540Y1575D02*
Y1616D01*
X3443Y1713D02*
X3540Y1616D01*
X3443Y1713D02*
Y1852D01*
X3740Y1575D02*
Y1695D01*
X3643Y1792D02*
X3740Y1695D01*
X3643Y1792D02*
Y1852D01*
X4433Y1710D02*
X4553Y1830D01*
X4267Y1710D02*
X4433D01*
X2246Y1510D02*
X2300Y1564D01*
X1655Y1510D02*
X2246D01*
X1600Y1564D02*
X1655Y1510D01*
X3229Y1509D02*
X3258Y1538D01*
X2612Y1509D02*
X3229D01*
X2545Y1576D02*
X2612Y1509D01*
X4461D02*
X4467Y1515D01*
X3287Y1509D02*
X4461D01*
X3258Y1538D02*
X3287Y1509D01*
X4963Y2149D02*
Y2402D01*
X4467Y1653D02*
X4963Y2149D01*
X4467Y1575D02*
Y1653D01*
X3456Y4372D02*
X3539Y4455D01*
X3456Y4189D02*
Y4372D01*
Y4189D02*
X3602Y4043D01*
X3543Y3427D02*
Y3955D01*
X3543D02*
Y3958D01*
X3273Y4228D02*
X3543Y3958D01*
X3035Y4228D02*
X3273D01*
X3582Y3991D02*
Y3992D01*
X3582Y3992D02*
X3582Y3992D01*
X3582Y3992D02*
Y4017D01*
X3312Y4287D02*
X3582Y4017D01*
X3602Y3427D02*
Y4001D01*
X3602D02*
Y4043D01*
X3490Y4199D02*
X3622Y4067D01*
Y3427D02*
Y4067D01*
X3490Y4199D02*
Y4356D01*
X4056Y4330D02*
Y4420D01*
X4044Y4432D02*
X4056Y4420D01*
X3566Y4432D02*
X4044D01*
X3490Y4356D02*
X3566Y4432D01*
X3256Y4434D02*
X3271Y4419D01*
X2731Y4434D02*
X3256D01*
X2688Y4391D02*
X2731Y4434D01*
X2688Y3774D02*
Y4391D01*
X3044Y4143D02*
X3257D01*
Y4097D02*
X3395Y3959D01*
X3149Y4097D02*
X3257D01*
X3042Y4043D02*
X3240D01*
X3371Y3912D01*
X3994Y3731D02*
Y3918D01*
X3929Y3666D02*
X3994Y3731D01*
X3929Y3346D02*
Y3666D01*
X4023Y3871D02*
X4054Y3902D01*
X4023Y3728D02*
Y3871D01*
X3949Y3654D02*
X4023Y3728D01*
X4052Y3825D02*
X4108Y3881D01*
X4052Y3719D02*
Y3825D01*
X3973Y3640D02*
X4052Y3719D01*
X2849Y3390D02*
X2872Y3367D01*
X2836Y3359D02*
X2861Y3334D01*
X3027D01*
X3015Y3305D02*
X3072Y3248D01*
X2803Y3305D02*
X3015D01*
X3072Y3248D02*
X3148D01*
X3049Y3228D02*
X3148D01*
X3028Y3249D02*
X3049Y3228D01*
X2981Y3249D02*
X3028D01*
X3093Y3268D02*
X3148D01*
X3027Y3334D02*
X3093Y3268D01*
X4192Y3542D02*
Y3681D01*
X4143Y3728D02*
X4342D01*
X4126Y3711D02*
X4143Y3728D01*
X4126Y3678D02*
Y3711D01*
X4315Y3760D02*
X4405Y3850D01*
X4132Y3760D02*
X4315D01*
X3999Y3627D02*
X4132Y3760D01*
X4405Y3850D02*
Y4281D01*
X4342Y3728D02*
X4455Y3841D01*
X4205Y3879D02*
Y4281D01*
Y3879D02*
X4270Y3814D01*
X5269Y2145D02*
X5327Y2087D01*
X5353Y2314D02*
Y2662D01*
Y2314D02*
X5380Y2287D01*
X5492Y2003D02*
Y2606D01*
X5476Y1987D02*
X5492Y2003D01*
X4368Y2283D02*
Y2334D01*
X3543Y2162D02*
X3612Y2231D01*
X3543Y2045D02*
Y2162D01*
X3443Y2135D02*
X3577Y2269D01*
X3258Y1538D02*
Y1669D01*
X3182Y1745D02*
X3258Y1669D01*
X3182Y1745D02*
Y1955D01*
X3074Y1669D02*
X3148Y1743D01*
X2864Y2189D02*
X2914Y2239D01*
X3109Y2651D02*
X3161Y2703D01*
X3155Y2629D02*
X3189Y2663D01*
X3206Y2641D02*
X3348D01*
X3177Y2612D02*
X3206Y2641D01*
X3189Y2663D02*
X3330D01*
X3176Y2683D02*
X3321D01*
X3133Y2640D02*
X3176Y2683D01*
X3161Y2703D02*
X3308D01*
X3145Y2723D02*
X3191D01*
X3081Y2659D02*
X3145Y2723D01*
X3421Y3590D02*
Y3979D01*
X3257Y4143D02*
X3421Y3979D01*
X3395Y3584D02*
Y3959D01*
X2072Y2667D02*
X2714D01*
X2033Y2628D02*
X2072Y2667D01*
X2714D02*
X3000Y2953D01*
X2724Y2626D02*
X3011Y2913D01*
X2105Y2626D02*
X2724D01*
X2028Y2549D02*
X2105Y2626D01*
X3895Y2855D02*
X3931D01*
X3817Y2933D02*
X3895Y2855D01*
X3859Y2953D02*
X3893Y2919D01*
X3742Y2953D02*
X3859D01*
X3950Y2991D02*
X4012D01*
X3949Y2991D02*
X3950Y2991D01*
X3913Y2991D02*
X3949D01*
X3963Y3011D02*
X4039D01*
X3962Y3011D02*
X3963Y3011D01*
X3742Y3051D02*
X4052D01*
X3742Y2992D02*
X3893D01*
X3893Y2992D01*
X3913D01*
X3893D02*
X3893D01*
X3913D02*
X3913Y2991D01*
X4144Y2244D02*
X4161Y2261D01*
X4094Y2244D02*
X4144D01*
X4152Y2144D02*
X4192Y2184D01*
X3742Y3012D02*
X3921D01*
X3922Y3011D01*
X3962D01*
X3921D02*
X3922D01*
X3742Y3031D02*
X3971D01*
X4042Y2726D02*
Y2858D01*
Y2726D02*
X4055Y2713D01*
X3971Y3031D02*
X3971Y3031D01*
X4043D01*
X3971D02*
X3971D01*
X4043D02*
X4044Y3031D01*
X4062D01*
X4055Y2713D02*
X4094D01*
X4052Y3051D02*
X4088D01*
X5433Y1987D02*
X5476D01*
X5327Y2087D02*
X5433D01*
X5314Y2232D02*
Y2635D01*
Y2232D02*
X5359Y2187D01*
X5433D01*
X5380Y2287D02*
X5433D01*
X3958Y4334D02*
X4005Y4381D01*
X3958Y3983D02*
Y4334D01*
X3524Y3427D02*
Y3796D01*
X3523D02*
Y3930D01*
X3254Y4199D02*
X3523Y3930D01*
X2871Y4301D02*
X2973Y4199D01*
X2871Y4301D02*
Y4370D01*
X2971Y4292D02*
Y4370D01*
Y4292D02*
X3035Y4228D01*
X3071Y4295D02*
X3108Y4258D01*
X3071Y4295D02*
Y4370D01*
X3171Y4323D02*
X3207Y4287D01*
X3171Y4323D02*
Y4370D01*
X3395Y3584D02*
X3445Y3534D01*
Y3427D02*
Y3534D01*
X3421Y3590D02*
X3465Y3546D01*
Y3427D02*
Y3546D01*
X3484Y3608D02*
X3504Y3588D01*
X3470Y3622D02*
X3484Y3608D01*
Y3427D02*
Y3608D01*
X3504Y3427D02*
Y3588D01*
X4056Y4330D02*
X4105Y4281D01*
X2562Y3056D02*
X2723Y3217D01*
X2504Y3056D02*
X2562D01*
X2873Y3150D02*
X3148D01*
X2504Y3006D02*
X2568D01*
X2618Y3056D01*
X2693D01*
X4252Y1973D02*
X4293Y1932D01*
X4572D01*
X4963Y2402D02*
Y2574D01*
X4939Y2598D02*
X4963Y2574D01*
X4906Y2598D02*
X4939D01*
X4819Y2244D02*
Y2687D01*
X4804Y2229D02*
X4819Y2244D01*
X4751Y2505D02*
X4757Y2511D01*
X4751Y2094D02*
Y2505D01*
Y2094D02*
X4775Y2070D01*
X4709Y2566D02*
X4728Y2585D01*
X4709Y2067D02*
Y2566D01*
X3041Y2894D02*
X3148D01*
X3057Y2913D02*
X3057Y2913D01*
X3348Y2641D02*
X3386Y2679D01*
Y2833D01*
X3182Y2745D02*
X3209Y2772D01*
Y2833D01*
X2757Y2400D02*
Y2441D01*
Y2400D02*
X2778Y2379D01*
X3191Y2723D02*
X3228Y2760D01*
Y2833D01*
X3308Y2703D02*
X3327Y2722D01*
Y2833D01*
X3321Y2683D02*
X3346Y2708D01*
Y2833D01*
X3330Y2663D02*
X3366Y2699D01*
Y2833D01*
X3237Y3071D02*
X3379D01*
X3425Y3025D01*
Y2938D02*
Y3025D01*
X3000Y2953D02*
X3148D01*
X3068Y3364D02*
Y3443D01*
Y3364D02*
X3086Y3346D01*
X3148D01*
X3742Y3150D02*
X3859D01*
X4035Y3326D02*
Y3425D01*
X2516Y3720D02*
X2634D01*
X2688Y3774D01*
X3271Y4370D02*
Y4419D01*
X2429Y3579D02*
X2516Y3666D01*
Y3720D01*
X3694Y2768D02*
X3753D01*
X3681Y2781D02*
X3694Y2768D01*
X3681Y2781D02*
Y2833D01*
X4467Y1515D02*
Y1575D01*
X3182Y1955D02*
X3207Y1980D01*
X3280D01*
X4094Y2144D02*
X4152D01*
X2954Y2045D02*
Y2137D01*
X2904Y2155D02*
X2936Y2187D01*
X2904Y2045D02*
Y2155D01*
X2666Y1756D02*
X2704Y1794D01*
Y1852D01*
X2804Y1746D02*
Y1852D01*
X3490Y2924D02*
X3543Y2871D01*
Y2833D02*
Y2871D01*
X2904Y1852D02*
X2904Y1852D01*
X2904Y1745D02*
Y1852D01*
X2754Y2045D02*
Y2118D01*
X2515Y3916D02*
X2621D01*
X3593Y2045D02*
Y2150D01*
X3637Y2194D01*
X3533Y1947D02*
X3752D01*
X3493Y1987D02*
X3533Y1947D01*
X3493Y1987D02*
Y2045D01*
X3074Y1575D02*
Y1669D01*
X2974Y1575D02*
Y1634D01*
X3112Y1772D01*
Y1995D01*
X3062Y2045D02*
X3112Y1995D01*
X3004Y2045D02*
X3062D01*
X2836Y1947D02*
X3058D01*
X2804Y1979D02*
X2836Y1947D01*
X2804Y1979D02*
Y2045D01*
X3543Y1750D02*
Y1852D01*
Y1750D02*
X3640Y1653D01*
Y1575D02*
Y1653D01*
X2954Y1700D02*
Y1852D01*
X2874Y1620D02*
X2954Y1700D01*
X2874Y1575D02*
Y1620D01*
X2854Y1711D02*
Y1852D01*
X2774Y1631D02*
X2854Y1711D01*
X2774Y1575D02*
Y1631D01*
X2754Y1777D02*
Y1852D01*
X2674Y1697D02*
X2754Y1777D01*
X2674Y1575D02*
Y1697D01*
X2504Y3106D02*
X2561D01*
X2634Y3179D01*
Y3248D01*
X2693Y2874D02*
Y2956D01*
X3367Y2370D02*
X3456D01*
X3354Y2383D02*
X3367Y2370D01*
X3268Y2383D02*
X3354D01*
X3659Y2370D02*
X3787D01*
X3456D02*
X3627D01*
X3643Y2386D01*
X3324Y2938D02*
X3425D01*
X3287Y2901D02*
X3324Y2938D01*
X3287Y2833D02*
Y2901D01*
X3425Y2833D02*
Y2938D01*
X3658Y3110D02*
X3742D01*
X3148Y3071D02*
X3237D01*
X2591Y3595D02*
X2922D01*
X3969Y3228D02*
X4035D01*
X3871Y3130D02*
X3969Y3228D01*
X2875Y3075D02*
X2930Y3130D01*
X2693Y3056D02*
Y3106D01*
X3742Y2933D02*
X3817D01*
X4180Y1971D02*
X4297Y1854D01*
X4370D01*
X4037Y2000D02*
X4066Y1971D01*
X4180D01*
X4055Y1943D02*
X4170D01*
X4313Y1800D01*
X4434D01*
X4010Y1988D02*
X4055Y1943D01*
X3661Y2768D02*
X3707Y2722D01*
X3819D01*
X3661Y2768D02*
Y2833D01*
X3443Y2045D02*
Y2135D01*
X3805Y4381D02*
X3858Y4328D01*
X3742Y3268D02*
X3821D01*
X4005Y3993D02*
Y4281D01*
X3905Y3969D02*
Y4281D01*
X3842Y3906D02*
X3905Y3969D01*
X3810Y3906D02*
X3842D01*
X3742Y3189D02*
X3866D01*
X3742Y3130D02*
X3871D01*
X3859Y3150D02*
X4035Y3326D01*
X3742Y3209D02*
X3856D01*
X3866Y3189D02*
X3999Y3322D01*
X3949Y3333D02*
Y3654D01*
X3856Y3209D02*
X3973Y3326D01*
Y3640D01*
X4108Y3881D02*
Y3953D01*
X4081Y3980D02*
X4108Y3953D01*
X3999Y3322D02*
Y3627D01*
X4405Y4381D02*
X4455Y4331D01*
Y3841D02*
Y4331D01*
X2973Y4199D02*
X3254D01*
X3108Y4258D02*
X3295D01*
X3207Y4287D02*
X3312D01*
X3425Y3427D02*
Y3519D01*
X3371Y3573D02*
X3425Y3519D01*
X3406Y3427D02*
Y3502D01*
X3348Y3560D02*
X3406Y3502D01*
X3348Y3560D02*
Y3841D01*
X3386Y3427D02*
Y3486D01*
X3328Y3544D02*
X3386Y3486D01*
X3328Y3544D02*
Y3642D01*
X3264Y3628D02*
X3289Y3603D01*
Y3547D02*
X3327Y3509D01*
X3289Y3547D02*
Y3603D01*
X3327Y3427D02*
Y3509D01*
X3307Y3427D02*
Y3498D01*
X3121Y3684D02*
X3307Y3498D01*
X3287Y3427D02*
Y3488D01*
X3021Y3754D02*
X3287Y3488D01*
X3021Y3754D02*
Y3860D01*
X3121Y3684D02*
Y3860D01*
X3268Y3427D02*
Y3473D01*
X2921Y3820D02*
X3268Y3473D01*
X2921Y3820D02*
Y3860D01*
X3228Y3427D02*
Y3476D01*
X3066Y3638D02*
X3228Y3476D01*
X3020Y3638D02*
X3066D01*
X3748Y3987D02*
X3837D01*
X3705Y4030D02*
X3748Y3987D01*
X3705Y4030D02*
Y4281D01*
X3858Y4077D02*
Y4328D01*
X3253Y3717D02*
X3328Y3642D01*
X3197Y3717D02*
X3253D01*
X2309Y3636D02*
Y3842D01*
X2267Y3884D02*
X2309Y3842D01*
X4154Y4330D02*
X4205Y4381D01*
X3201Y3988D02*
X3348Y3841D01*
X3371Y3573D02*
Y3912D01*
X3742Y3091D02*
X4132D01*
X3742Y3071D02*
X4114D01*
X4132Y3091D02*
X4197Y3026D01*
Y2723D02*
Y3026D01*
Y2723D02*
X4245Y2675D01*
X4363D01*
X4154Y3826D02*
Y4330D01*
X3504Y3347D02*
Y3427D01*
Y3347D02*
X3505Y3346D01*
X4035Y3425D02*
X4087D01*
X4128Y3384D02*
X4177D01*
X4087Y3425D02*
X4128Y3384D01*
X4081Y3274D02*
X4180D01*
X4035Y3228D02*
X4081Y3274D01*
X4267Y3515D02*
Y3678D01*
Y3515D02*
X4372Y3410D01*
X4192Y3542D02*
X4339Y3395D01*
Y3249D02*
Y3395D01*
X4294Y3204D02*
X4339Y3249D01*
X4105Y3141D02*
X4133Y3169D01*
X4092Y3204D02*
X4294D01*
X4045Y3157D02*
X4092Y3204D01*
X3978Y3157D02*
X4045D01*
X3474Y3156D02*
X3537D01*
X3602Y2767D02*
Y2833D01*
Y2767D02*
X3618Y2751D01*
X3831Y3248D02*
X3929Y3346D01*
X3642Y3427D02*
Y3686D01*
X3680Y3724D01*
X3661Y3427D02*
Y3551D01*
X3839Y3864D02*
X3958Y3983D01*
X3867Y3707D02*
Y3855D01*
Y3707D02*
X3906Y3668D01*
Y3353D02*
Y3668D01*
X3839Y3694D02*
Y3864D01*
Y3694D02*
X3878Y3655D01*
X3742Y3248D02*
X3831D01*
X3742Y3287D02*
X3808D01*
X3821Y3268D02*
X3906Y3353D01*
X3866Y3345D02*
X3878Y3357D01*
Y3655D01*
X3808Y3287D02*
X3866Y3345D01*
X3742Y3307D02*
X3795D01*
X3832Y3344D01*
Y3415D01*
X3742Y3346D02*
X3795D01*
X3681Y3427D02*
Y3470D01*
X3784Y3397D02*
Y3447D01*
X3830Y3493D01*
X3795Y3346D02*
X3804Y3355D01*
Y3377D01*
X3784Y3397D02*
X3804Y3377D01*
X5203Y4154D02*
X5262Y4213D01*
X5354D01*
X5251Y4089D02*
X5296Y4134D01*
X5354D01*
X5251Y4050D02*
Y4089D01*
X5201Y4117D02*
X5203Y4119D01*
Y4154D01*
X4916Y4203D02*
X5169Y3950D01*
Y3758D02*
Y3950D01*
X4916Y4203D02*
Y4204D01*
X5309Y3898D02*
X5354D01*
X4938Y4269D02*
X5309Y3898D01*
X5372Y3293D02*
X5433Y3231D01*
X5387Y3131D02*
X5433D01*
X5335Y3183D02*
X5387Y3131D01*
X5349Y3031D02*
X5433D01*
X5328Y2931D02*
X5433D01*
X4943Y3252D02*
Y3346D01*
X3681Y3470D02*
X3727Y3516D01*
X4423Y3629D02*
X4460Y3592D01*
X4423Y3629D02*
Y3665D01*
X3661Y3551D02*
X3700Y3590D01*
X4323Y3536D02*
X4336Y3523D01*
X4411Y3563D02*
X4416Y3558D01*
X3643Y2386D02*
X3659Y2370D01*
X4601Y3681D02*
Y4149D01*
X4665Y4213D01*
X1677Y1771D02*
X2166D01*
X2200Y1737D01*
Y1664D02*
Y1737D01*
X2722Y2150D02*
X2754Y2118D01*
X1924Y2246D02*
X2020Y2150D01*
X2722D01*
X1968Y2257D02*
X2042Y2183D01*
X2794D01*
X2854Y2123D01*
Y2045D02*
Y2123D01*
X2835Y3188D02*
X2854Y3169D01*
X2920Y3189D02*
X3148D01*
X3086Y3307D02*
X3148D01*
Y3209D02*
X3188D01*
X3148Y3327D02*
X3209D01*
X3237Y3355D01*
X3369D01*
X3396Y3328D01*
X3219Y3287D02*
X3257Y3325D01*
X3148Y3287D02*
X3219D01*
X3257Y3325D02*
X3323D01*
X3347Y3301D01*
Y3268D02*
Y3301D01*
X3188Y3209D02*
X3248Y3269D01*
X3280D01*
X2872Y3367D02*
X3026D01*
X3086Y3307D01*
X2030Y2406D02*
Y2466D01*
X1924Y2246D02*
Y2678D01*
X1990Y2744D01*
X1968Y2257D02*
Y2647D01*
X2029Y2708D01*
X2517Y2277D02*
X2585Y2345D01*
X2857Y2441D02*
Y2512D01*
X3090Y2745D01*
X3182D01*
X3011Y2913D02*
X3057D01*
X3057Y2913D02*
X3148D01*
X2030Y2466D02*
X2156Y2592D01*
X2739D01*
X3041Y2894D01*
X3323Y2993D02*
X3370D01*
X3263Y2933D02*
X3323Y2993D01*
X3148Y2933D02*
X3263D01*
X3220Y3031D02*
X3254Y2997D01*
X3148Y3031D02*
X3220D01*
X3220Y3031D01*
X2797Y2510D02*
X2995Y2708D01*
Y2753D01*
X1622Y2944D02*
X1919D01*
X1948Y2973D01*
Y3017D01*
X2177Y2510D02*
X2797D01*
X2922Y3505D02*
Y3595D01*
X2272Y3504D02*
Y3547D01*
X2304Y3579D01*
X2429D01*
X2116Y3006D02*
X2504D01*
X2129Y3504D02*
X2272D01*
X2274Y3183D02*
Y3377D01*
X2375Y3478D01*
X2667D01*
X2076Y3046D02*
X2116Y3006D01*
X2076Y3046D02*
Y3451D01*
X2129Y3504D01*
X2171Y3096D02*
X2377D01*
X2573Y3292D01*
X2793Y2272D02*
X2834Y2313D01*
X2598Y2277D02*
X2648Y2227D01*
D21*
X1542Y2459D02*
X1573Y2428D01*
X2404Y1983D02*
X2571D01*
X2333Y2054D02*
X2404Y1983D01*
X2191Y2054D02*
X2333D01*
X1573Y2428D02*
X1947Y2054D01*
X1573Y2428D02*
Y2431D01*
Y2427D02*
Y2428D01*
X1947Y2054D02*
X2191D01*
X1542Y2459D02*
Y3004D01*
D22*
X1435Y3105D02*
X1903Y3573D01*
X1435Y2416D02*
Y3105D01*
X3312Y2045D02*
X3393D01*
X3280Y2013D02*
X3312Y2045D01*
X3280Y1980D02*
Y2013D01*
X2589Y2045D02*
X2704D01*
X2571Y2027D02*
X2589Y2045D01*
X2571Y1983D02*
Y2027D01*
X4970Y2803D02*
X5126D01*
X4795D02*
X4970D01*
X5043Y2876D01*
Y3346D01*
X4738Y2803D02*
X4795D01*
X4682Y2859D02*
X4738Y2803D01*
X4636Y2859D02*
X4682D01*
X4724Y3661D02*
X4860D01*
X4724Y4055D02*
X4858D01*
X4508Y3653D02*
X4509Y3654D01*
Y3985D01*
X2406Y3720D02*
Y3819D01*
X2405Y3916D02*
X2406Y3917D01*
Y4016D01*
X4478Y2086D02*
Y2283D01*
X4473Y2479D02*
Y2675D01*
D23*
X2126Y3810D02*
X2191Y3745D01*
Y3615D02*
Y3745D01*
X2502Y4239D02*
Y4354D01*
X2434Y4171D02*
X2502Y4239D01*
X2334Y4171D02*
X2434D01*
X2126Y3963D02*
X2334Y4171D01*
X2126Y3810D02*
Y3963D01*
X1891Y4222D02*
X2126D01*
X1875Y4238D02*
X1891Y4222D01*
D24*
X2486Y4370D02*
X2502Y4354D01*
D25*
X4567Y1575D02*
D03*
X4467D02*
D03*
X1181Y2246D02*
D03*
Y2836D02*
D03*
X1181Y3425D02*
D03*
Y3525D02*
D03*
X2921Y3860D02*
D03*
X3021D02*
D03*
X3640Y1575D02*
D03*
X3740D02*
D03*
X3840D02*
D03*
X3940D02*
D03*
X4040D02*
D03*
X2774D02*
D03*
X2874D02*
D03*
X2974D02*
D03*
X3074D02*
D03*
X3174D02*
D03*
X4743Y3346D02*
D03*
X4843D02*
D03*
X4943D02*
D03*
X5043D02*
D03*
X5433Y2931D02*
D03*
Y3031D02*
D03*
Y3131D02*
D03*
Y3231D02*
D03*
Y3331D02*
D03*
Y2387D02*
D03*
Y2287D02*
D03*
Y2187D02*
D03*
Y2087D02*
D03*
Y1987D02*
D03*
Y2487D02*
D03*
X3171Y4370D02*
D03*
X3071D02*
D03*
X2971D02*
D03*
X2871D02*
D03*
X2771D02*
D03*
X2283D02*
D03*
X2383D02*
D03*
X3268Y2383D02*
D03*
X2557Y2441D02*
D03*
X2657D02*
D03*
X2757D02*
D03*
X2857D02*
D03*
X2957D02*
D03*
X4094Y2813D02*
D03*
Y2144D02*
D03*
Y2244D02*
D03*
Y2344D02*
D03*
X5118Y1575D02*
D03*
X5018D02*
D03*
X5118Y1890D02*
D03*
X5018D02*
D03*
D26*
X4367Y1575D02*
D03*
X3121Y3860D02*
D03*
X3540Y1575D02*
D03*
X2674D02*
D03*
X4643Y3346D02*
D03*
X3737Y3837D02*
D03*
X3271Y4370D02*
D03*
X2483D02*
D03*
X2457Y2441D02*
D03*
X4918Y1575D02*
D03*
X4918Y1890D02*
D03*
D27*
X1700Y1664D02*
D03*
Y1564D02*
D03*
X1800Y1664D02*
D03*
Y1564D02*
D03*
X2300D02*
D03*
X2200Y1664D02*
D03*
Y1564D02*
D03*
X2100Y1664D02*
D03*
Y1564D02*
D03*
X2000Y1664D02*
D03*
Y1564D02*
D03*
X1900Y1664D02*
D03*
Y1564D02*
D03*
X1600D02*
D03*
Y1664D02*
D03*
X1500Y1564D02*
D03*
Y1664D02*
D03*
X1400Y1564D02*
D03*
Y1664D02*
D03*
X4205Y4281D02*
D03*
Y4381D02*
D03*
X4105Y4281D02*
D03*
Y4381D02*
D03*
X3605D02*
D03*
X3705Y4281D02*
D03*
Y4381D02*
D03*
X3805Y4281D02*
D03*
Y4381D02*
D03*
X3905Y4281D02*
D03*
Y4381D02*
D03*
X4005Y4281D02*
D03*
Y4381D02*
D03*
X4305D02*
D03*
Y4281D02*
D03*
X4405Y4381D02*
D03*
Y4281D02*
D03*
X4505Y4381D02*
D03*
Y4281D02*
D03*
D28*
X2300Y1664D02*
D03*
X3605Y4281D02*
D03*
D29*
X4454Y2985D02*
D03*
X5472Y4409D02*
D03*
Y1535D02*
D03*
X1142D02*
D03*
Y4409D02*
D03*
D30*
X2126Y3810D02*
D03*
D31*
Y4222D02*
D03*
D32*
X1181Y2346D02*
D03*
Y2936D02*
D03*
X1181Y3625D02*
D03*
X5433Y2831D02*
D03*
Y1887D02*
D03*
X3837Y3987D02*
D03*
X3937Y3837D02*
D03*
X3268Y2483D02*
D03*
X4094Y2713D02*
D03*
Y2044D02*
D03*
D33*
X2191Y3615D02*
D03*
X1510D02*
D03*
X2191Y2054D02*
D03*
X1510D02*
D03*
D34*
X1675Y4238D02*
D03*
X1875D02*
D03*
X1478D02*
D03*
D35*
X4035Y3228D02*
D03*
Y3425D02*
D03*
D36*
X3276Y2747D02*
D03*
X4298Y3330D02*
D03*
X3862Y2506D02*
D03*
X3010Y1746D02*
D03*
X3243Y3134D02*
D03*
X4445Y3759D02*
D03*
X2600Y2956D02*
D03*
X1542Y3004D02*
D03*
X5028Y2687D02*
D03*
X5161Y2624D02*
D03*
X5269Y2746D02*
D03*
X5235Y2878D02*
D03*
X3979Y2944D02*
D03*
X5127Y3144D02*
D03*
X4372Y2796D02*
D03*
X4289Y2806D02*
D03*
X3084Y2204D02*
D03*
X2455Y1798D02*
D03*
X3563Y2919D02*
D03*
X3948Y1751D02*
D03*
X3972Y1861D02*
D03*
X3052Y3051D02*
D03*
X2867Y3003D02*
D03*
X2122Y2914D02*
D03*
X3672Y2143D02*
D03*
X3639Y1726D02*
D03*
X3493Y1738D02*
D03*
X3393Y1669D02*
D03*
X1903Y3573D02*
D03*
X1435Y2416D02*
D03*
X4553Y1830D02*
D03*
X4267Y1710D02*
D03*
X3044Y4143D02*
D03*
X3042Y4043D02*
D03*
X3149Y4097D02*
D03*
X2981Y3249D02*
D03*
X3931Y2855D02*
D03*
X3893Y2919D02*
D03*
X3470Y3622D02*
D03*
X2723Y3217D02*
D03*
X2835Y3188D02*
D03*
X4252Y1973D02*
D03*
X4572Y1932D02*
D03*
X4906Y2598D02*
D03*
X4370Y1854D02*
D03*
X4434Y1800D02*
D03*
X4804Y2229D02*
D03*
X4757Y2511D02*
D03*
X4728Y2585D02*
D03*
X2598Y2277D02*
D03*
X2517D02*
D03*
X1962Y3777D02*
D03*
X1622Y2944D02*
D03*
X3068Y3443D02*
D03*
X3753Y2768D02*
D03*
X3819Y2722D02*
D03*
X2954Y2137D02*
D03*
X2666Y1756D02*
D03*
X2804Y1746D02*
D03*
X3490Y2924D02*
D03*
X2904Y1745D02*
D03*
X2621Y3916D02*
D03*
X3752Y1947D02*
D03*
X3058D02*
D03*
X2634Y3248D02*
D03*
X2693Y2874D02*
D03*
X3643Y2386D02*
D03*
X3425Y2938D02*
D03*
X3658Y3110D02*
D03*
X3237Y3071D02*
D03*
X4775Y2070D02*
D03*
X4709Y2067D02*
D03*
X4860Y3661D02*
D03*
X4858Y4055D02*
D03*
X1573Y2431D02*
D03*
X2875Y3075D02*
D03*
X3810Y3906D02*
D03*
X4054Y3902D02*
D03*
X4081Y3980D02*
D03*
X4126Y3678D02*
D03*
X4057Y4193D02*
D03*
X3264Y3628D02*
D03*
X3020Y3638D02*
D03*
X3197Y3717D02*
D03*
X2309Y3636D02*
D03*
X2267Y3884D02*
D03*
X3201Y3988D02*
D03*
X3858Y4077D02*
D03*
X4154Y3826D02*
D03*
X4192Y3681D02*
D03*
X4270Y3814D02*
D03*
X4267Y3678D02*
D03*
X3505Y3346D02*
D03*
X3978Y3157D02*
D03*
X4105Y3141D02*
D03*
X3474Y3156D02*
D03*
X3528Y3060D02*
D03*
X3618Y2751D02*
D03*
X3680Y3724D02*
D03*
X3832Y3415D02*
D03*
X3830Y3493D02*
D03*
X5251Y4050D02*
D03*
X5201Y4117D02*
D03*
X5169Y3758D02*
D03*
X4916Y4204D02*
D03*
X4465Y3415D02*
D03*
X4323Y3536D02*
D03*
X3727Y3516D02*
D03*
X4423Y3665D02*
D03*
X3700Y3590D02*
D03*
X4411Y3563D02*
D03*
X4601Y3681D02*
D03*
X1677Y1771D02*
D03*
X3396Y3328D02*
D03*
X3347Y3268D02*
D03*
X3280Y3269D02*
D03*
X2803Y3305D02*
D03*
X2030Y2406D02*
D03*
X1948Y3017D02*
D03*
X2028Y2549D02*
D03*
X2033Y2628D02*
D03*
X2864Y2189D02*
D03*
X3370Y2993D02*
D03*
X3254Y2997D02*
D03*
X2995Y2753D02*
D03*
X2667Y3478D02*
D03*
X2177Y2510D02*
D03*
X2922Y3505D02*
D03*
X2272Y3504D02*
D03*
X2331Y3326D02*
D03*
X2274Y3183D02*
D03*
X2171Y3096D02*
D03*
X2793Y2272D02*
D03*
%TF.MD5,0FE3773159691886C78970BFF221B294*%
M02*
