G04 Layer_Color=49087*
%FSLAX23Y23*%
%MOIN*%
%TF.FileFunction,Legend,Bot*%
%TF.Part,Single*%
G01*
G75*
%ADD20C,0.010*%
%ADD47C,0.010*%
%ADD49C,0.008*%
%ADD50C,0.009*%
%ADD52C,0.008*%
D20*
X5045Y2125D02*
Y2075D01*
X5035Y2065D01*
X5015D01*
X5005Y2075D01*
Y2125D01*
X4945D02*
X4965Y2115D01*
X4985Y2095D01*
Y2075D01*
X4975Y2065D01*
X4955D01*
X4945Y2075D01*
Y2085D01*
X4955Y2095D01*
X4985D01*
X2036Y2773D02*
Y2723D01*
X2026Y2713D01*
X2006D01*
X1996Y2723D01*
Y2773D01*
X1936Y2713D02*
X1976D01*
X1936Y2753D01*
Y2763D01*
X1946Y2773D01*
X1966D01*
X1976Y2763D01*
X2030Y3443D02*
Y3393D01*
X2020Y3383D01*
X2000D01*
X1990Y3393D01*
Y3443D01*
X1970Y3383D02*
X1950D01*
X1960D01*
Y3443D01*
X1970Y3433D01*
X2836Y4130D02*
Y4190D01*
X2806D01*
X2796Y4180D01*
Y4160D01*
X2806Y4150D01*
X2836D01*
X2816D02*
X2796Y4130D01*
X2776D02*
X2756D01*
X2766D01*
Y4190D01*
X2776Y4180D01*
X2686Y4190D02*
X2726D01*
Y4160D01*
X2706Y4170D01*
X2696D01*
X2686Y4160D01*
Y4140D01*
X2696Y4130D01*
X2716D01*
X2726Y4140D01*
X4252Y3373D02*
X4202D01*
Y3348D01*
X4210Y3340D01*
X4227D01*
X4235Y3348D01*
Y3373D01*
Y3356D02*
X4252Y3340D01*
Y3323D02*
Y3306D01*
Y3315D01*
X4202D01*
X4210Y3323D01*
X4252Y3256D02*
X4202D01*
X4227Y3281D01*
Y3248D01*
X1407Y3546D02*
Y3606D01*
X1377D01*
X1367Y3596D01*
Y3576D01*
X1377Y3566D01*
X1407D01*
X1387D02*
X1367Y3546D01*
X1347D02*
X1327D01*
X1337D01*
Y3606D01*
X1347Y3596D01*
X1297D02*
X1287Y3606D01*
X1267D01*
X1257Y3596D01*
Y3586D01*
X1267Y3576D01*
X1277D01*
X1267D01*
X1257Y3566D01*
Y3556D01*
X1267Y3546D01*
X1287D01*
X1297Y3556D01*
X1360Y3987D02*
Y4047D01*
X1330D01*
X1320Y4037D01*
Y4017D01*
X1330Y4007D01*
X1360D01*
X1340D02*
X1320Y3987D01*
X1300D02*
X1280D01*
X1290D01*
Y4047D01*
X1300Y4037D01*
X1210Y3987D02*
X1250D01*
X1210Y4027D01*
Y4037D01*
X1220Y4047D01*
X1240D01*
X1250Y4037D01*
X1360Y2116D02*
Y2176D01*
X1330D01*
X1320Y2166D01*
Y2146D01*
X1330Y2136D01*
X1360D01*
X1340D02*
X1320Y2116D01*
X1300Y2126D02*
X1290Y2116D01*
X1270D01*
X1260Y2126D01*
Y2166D01*
X1270Y2176D01*
X1290D01*
X1300Y2166D01*
Y2156D01*
X1290Y2146D01*
X1260D01*
X1360Y2707D02*
Y2767D01*
X1330D01*
X1320Y2757D01*
Y2737D01*
X1330Y2727D01*
X1360D01*
X1340D02*
X1320Y2707D01*
X1260Y2767D02*
X1300D01*
Y2737D01*
X1280Y2747D01*
X1270D01*
X1260Y2737D01*
Y2717D01*
X1270Y2707D01*
X1290D01*
X1300Y2717D01*
X1655Y3987D02*
Y4047D01*
X1625D01*
X1615Y4037D01*
Y4017D01*
X1625Y4007D01*
X1655D01*
X1635D02*
X1615Y3987D01*
X1555D02*
X1595D01*
X1555Y4027D01*
Y4037D01*
X1565Y4047D01*
X1585D01*
X1595Y4037D01*
X1951Y3987D02*
Y4047D01*
X1921D01*
X1911Y4037D01*
Y4017D01*
X1921Y4007D01*
X1951D01*
X1931D02*
X1911Y3987D01*
X1891D02*
X1871D01*
X1881D01*
Y4047D01*
X1891Y4037D01*
X1361Y3276D02*
X1371Y3286D01*
X1391D01*
X1401Y3276D01*
Y3236D01*
X1391Y3226D01*
X1371D01*
X1361Y3236D01*
X1341Y3226D02*
X1321D01*
X1331D01*
Y3286D01*
X1341Y3276D01*
X1251Y3286D02*
X1291D01*
Y3256D01*
X1271Y3266D01*
X1261D01*
X1251Y3256D01*
Y3236D01*
X1261Y3226D01*
X1281D01*
X1291Y3236D01*
X3684Y3290D02*
X3694Y3300D01*
X3714D01*
X3724Y3290D01*
Y3250D01*
X3714Y3240D01*
X3694D01*
X3684Y3250D01*
X3664Y3240D02*
X3644D01*
X3654D01*
Y3300D01*
X3664Y3290D01*
X3614Y3240D02*
X3594D01*
X3604D01*
Y3300D01*
X3614Y3290D01*
X3617Y3566D02*
X3627Y3576D01*
X3647D01*
X3657Y3566D01*
Y3526D01*
X3647Y3516D01*
X3627D01*
X3617Y3526D01*
X3597D02*
X3587Y3516D01*
X3567D01*
X3557Y3526D01*
Y3566D01*
X3567Y3576D01*
X3587D01*
X3597Y3566D01*
Y3556D01*
X3587Y3546D01*
X3557D01*
X3439Y3790D02*
X3431Y3798D01*
Y3815D01*
X3439Y3823D01*
X3473D01*
X3481Y3815D01*
Y3798D01*
X3473Y3790D01*
X3439Y3773D02*
X3431Y3765D01*
Y3748D01*
X3439Y3740D01*
X3448D01*
X3456Y3748D01*
Y3756D01*
Y3748D01*
X3464Y3740D01*
X3473D01*
X3481Y3748D01*
Y3765D01*
X3473Y3773D01*
D47*
X1917Y3218D02*
G03*
X1917Y3218I-5J0D01*
G01*
Y2529D02*
G03*
X1917Y2529I-5J0D01*
G01*
X5099Y2571D02*
G03*
X5099Y2571I-5J0D01*
G01*
D49*
X4165Y3315D02*
Y3339D01*
X4102Y3315D02*
Y3339D01*
Y3315D02*
X4165D01*
X4102Y3322D02*
X4165D01*
X2795Y3996D02*
Y4020D01*
X2733Y3996D02*
Y4020D01*
Y3996D02*
X2795D01*
X2733Y4004D02*
X2795D01*
X2787Y3039D02*
Y3063D01*
X2724Y3039D02*
Y3063D01*
Y3039D02*
X2787D01*
X2724Y3047D02*
X2787D01*
X3575Y2429D02*
Y2453D01*
X3512Y2429D02*
Y2453D01*
Y2429D02*
X3575D01*
X3512Y2437D02*
X3575D01*
X4965Y2165D02*
X5035D01*
X4965Y2559D02*
X5035D01*
X4965Y2165D02*
Y2559D01*
X5035Y2165D02*
Y2559D01*
X4953Y3925D02*
Y3949D01*
X4890Y3925D02*
Y3949D01*
Y3925D02*
X4953D01*
X4890Y3933D02*
X4953D01*
X5034Y3923D02*
Y3947D01*
X5096Y3923D02*
Y3947D01*
X5034D02*
X5096D01*
X5034Y3939D02*
X5096D01*
X2449Y3535D02*
X2472D01*
X2449Y3472D02*
X2472D01*
Y3535D01*
X2465Y3472D02*
Y3535D01*
X2449Y3280D02*
X2472D01*
X2449Y3217D02*
X2472D01*
Y3280D01*
X2465Y3217D02*
Y3280D01*
X2449Y2846D02*
X2472D01*
X2449Y2783D02*
X2472D01*
Y2846D01*
X2465Y2783D02*
Y2846D01*
X2961Y3181D02*
X2984D01*
X2961Y3118D02*
X2984D01*
Y3181D01*
X2977Y3118D02*
Y3181D01*
X1767Y2982D02*
Y3081D01*
X1760Y2982D02*
Y3081D01*
X1783D01*
X1760Y2982D02*
X1783D01*
X1767Y2293D02*
Y2392D01*
X1760Y2293D02*
Y2392D01*
X1783D01*
X1760Y2293D02*
X1783D01*
X1268Y3949D02*
X1291D01*
X1268Y3886D02*
X1291D01*
Y3949D01*
X1284Y3886D02*
Y3949D01*
X1409Y3413D02*
Y3437D01*
X1346Y3413D02*
Y3437D01*
Y3413D02*
X1409D01*
X1346Y3421D02*
X1409D01*
X1268Y2606D02*
X1291D01*
X1268Y2669D02*
X1291D01*
X1268Y2606D02*
Y2669D01*
X1275Y2606D02*
Y2669D01*
X1268Y2079D02*
X1291D01*
X1268Y2016D02*
X1291D01*
Y2079D01*
X1284Y2016D02*
Y2079D01*
X1858Y3949D02*
X1882D01*
X1858Y3886D02*
X1882D01*
Y3949D01*
X1874Y3886D02*
Y3949D01*
X1563D02*
X1587D01*
X1563Y3886D02*
X1587D01*
Y3949D01*
X1579Y3886D02*
Y3949D01*
X3524Y3743D02*
X3622D01*
X3524Y3735D02*
X3622D01*
X3524D02*
Y3759D01*
X3622Y3735D02*
Y3759D01*
D50*
X1301Y1760D02*
G03*
X1301Y1760I-60J0D01*
G01*
X2687Y3119D02*
X2637D01*
Y3094D01*
X2645Y3086D01*
X2662D01*
X2670Y3094D01*
Y3119D01*
Y3102D02*
X2687Y3086D01*
Y3069D02*
Y3052D01*
Y3061D01*
X2637D01*
X2645Y3069D01*
Y3027D02*
X2637Y3019D01*
Y3002D01*
X2645Y2994D01*
X2654D01*
X2662Y3002D01*
X2670Y2994D01*
X2679D01*
X2687Y3002D01*
Y3019D01*
X2679Y3027D01*
X2670D01*
X2662Y3019D01*
X2654Y3027D01*
X2645D01*
X2662Y3019D02*
Y3002D01*
X3373Y3117D02*
X3365Y3125D01*
Y3142D01*
X3373Y3150D01*
X3407D01*
X3415Y3142D01*
Y3125D01*
X3407Y3117D01*
X3373Y3100D02*
X3365Y3092D01*
Y3075D01*
X3373Y3067D01*
X3382D01*
X3390Y3075D01*
X3398Y3067D01*
X3407D01*
X3415Y3075D01*
Y3092D01*
X3407Y3100D01*
X3398D01*
X3390Y3092D01*
X3382Y3100D01*
X3373D01*
X3390Y3092D02*
Y3075D01*
X1783Y2237D02*
X1791Y2245D01*
X1806D01*
X1813Y2237D01*
Y2207D01*
X1806Y2200D01*
X1791D01*
X1783Y2207D01*
X1738Y2200D02*
X1768D01*
X1738Y2230D01*
Y2237D01*
X1746Y2245D01*
X1761D01*
X1768Y2237D01*
X1776Y2936D02*
X1784Y2944D01*
X1799D01*
X1806Y2936D01*
Y2906D01*
X1799Y2899D01*
X1784D01*
X1776Y2906D01*
X1761Y2899D02*
X1746D01*
X1754D01*
Y2944D01*
X1761Y2936D01*
D52*
X5094Y3822D02*
X5044D01*
Y3797D01*
X5052Y3789D01*
X5069D01*
X5077Y3797D01*
Y3822D01*
Y3805D02*
X5094Y3789D01*
Y3739D02*
Y3772D01*
X5061Y3739D01*
X5052D01*
X5044Y3747D01*
Y3764D01*
X5052Y3772D01*
Y3722D02*
X5044Y3714D01*
Y3697D01*
X5052Y3689D01*
X5086D01*
X5094Y3697D01*
Y3714D01*
X5086Y3722D01*
X5052D01*
X4945Y3825D02*
X4895D01*
Y3800D01*
X4903Y3792D01*
X4920D01*
X4928Y3800D01*
Y3825D01*
Y3808D02*
X4945Y3792D01*
Y3775D02*
Y3758D01*
Y3767D01*
X4895D01*
X4903Y3775D01*
X4937Y3733D02*
X4945Y3725D01*
Y3708D01*
X4937Y3700D01*
X4903D01*
X4895Y3708D01*
Y3725D01*
X4903Y3733D01*
X4912D01*
X4920Y3725D01*
Y3700D01*
X2520Y2874D02*
Y2924D01*
X2495D01*
X2486Y2916D01*
Y2899D01*
X2495Y2891D01*
X2520D01*
X2503D02*
X2486Y2874D01*
X2470D02*
X2453D01*
X2461D01*
Y2924D01*
X2470Y2916D01*
X2428Y2924D02*
X2395D01*
Y2916D01*
X2428Y2882D01*
Y2874D01*
X2520Y3307D02*
Y3357D01*
X2495D01*
X2486Y3349D01*
Y3332D01*
X2495Y3324D01*
X2520D01*
X2503D02*
X2486Y3307D01*
X2470D02*
X2453D01*
X2461D01*
Y3357D01*
X2470Y3349D01*
X2395Y3357D02*
X2411Y3349D01*
X2428Y3332D01*
Y3315D01*
X2420Y3307D01*
X2403D01*
X2395Y3315D01*
Y3324D01*
X2403Y3332D01*
X2428D01*
X3191Y3121D02*
Y3171D01*
X3166D01*
X3158Y3163D01*
Y3146D01*
X3166Y3138D01*
X3191D01*
X3174D02*
X3158Y3121D01*
X3141D02*
X3124D01*
X3133D01*
Y3171D01*
X3141Y3163D01*
X3099Y3121D02*
X3083D01*
X3091D01*
Y3171D01*
X3099Y3163D01*
X2520Y3563D02*
Y3613D01*
X2495D01*
X2486Y3605D01*
Y3588D01*
X2495Y3580D01*
X2520D01*
X2503D02*
X2486Y3563D01*
X2470D02*
X2453D01*
X2461D01*
Y3613D01*
X2470Y3605D01*
X2428D02*
X2420Y3613D01*
X2403D01*
X2395Y3605D01*
Y3571D01*
X2403Y3563D01*
X2420D01*
X2428Y3571D01*
Y3605D01*
X3571Y2272D02*
Y2317D01*
X3549D01*
X3541Y2309D01*
Y2294D01*
X3549Y2287D01*
X3571D01*
X3556D02*
X3541Y2272D01*
X3526Y2309D02*
X3519Y2317D01*
X3504D01*
X3496Y2309D01*
Y2302D01*
X3504Y2294D01*
X3496Y2287D01*
Y2279D01*
X3504Y2272D01*
X3519D01*
X3526Y2279D01*
Y2287D01*
X3519Y2294D01*
X3526Y2302D01*
Y2309D01*
X3519Y2294D02*
X3504D01*
X2487Y3115D02*
X2495Y3123D01*
X2512D01*
X2520Y3115D01*
Y3081D01*
X2512Y3073D01*
X2495D01*
X2487Y3081D01*
X2437Y3073D02*
X2470D01*
X2437Y3106D01*
Y3115D01*
X2445Y3123D01*
X2462D01*
X2470Y3115D01*
X2420D02*
X2412Y3123D01*
X2395D01*
X2387Y3115D01*
Y3106D01*
X2395Y3098D01*
X2403D01*
X2395D01*
X2387Y3090D01*
Y3081D01*
X2395Y3073D01*
X2412D01*
X2420Y3081D01*
X4652Y2610D02*
X4660Y2618D01*
X4675D01*
X4682Y2610D01*
Y2580D01*
X4675Y2573D01*
X4660D01*
X4652Y2580D01*
X4607Y2573D02*
X4637D01*
X4607Y2603D01*
Y2610D01*
X4615Y2618D01*
X4630D01*
X4637Y2610D01*
X4592Y2573D02*
X4577D01*
X4585D01*
Y2618D01*
X4592Y2610D01*
X4656Y2364D02*
X4664Y2372D01*
X4679D01*
X4686Y2364D01*
Y2334D01*
X4679Y2327D01*
X4664D01*
X4656Y2334D01*
X4611Y2327D02*
X4641D01*
X4611Y2357D01*
Y2364D01*
X4619Y2372D01*
X4634D01*
X4641Y2364D01*
X4596D02*
X4589Y2372D01*
X4574D01*
X4566Y2364D01*
Y2334D01*
X4574Y2327D01*
X4589D01*
X4596Y2334D01*
Y2364D01*
X5288Y2359D02*
X5296Y2367D01*
X5311D01*
X5318Y2359D01*
Y2329D01*
X5311Y2322D01*
X5296D01*
X5288Y2329D01*
X5273Y2322D02*
X5258D01*
X5266D01*
Y2367D01*
X5273Y2359D01*
X5236Y2329D02*
X5228Y2322D01*
X5213D01*
X5206Y2329D01*
Y2359D01*
X5213Y2367D01*
X5228D01*
X5236Y2359D01*
Y2352D01*
X5228Y2344D01*
X5206D01*
X5284Y2611D02*
X5292Y2619D01*
X5307D01*
X5314Y2611D01*
Y2581D01*
X5307Y2574D01*
X5292D01*
X5284Y2581D01*
X5269Y2574D02*
X5254D01*
X5262D01*
Y2619D01*
X5269Y2611D01*
X5232D02*
X5224Y2619D01*
X5209D01*
X5202Y2611D01*
Y2604D01*
X5209Y2596D01*
X5202Y2589D01*
Y2581D01*
X5209Y2574D01*
X5224D01*
X5232Y2581D01*
Y2589D01*
X5224Y2596D01*
X5232Y2604D01*
Y2611D01*
X5224Y2596D02*
X5209D01*
X2860Y3644D02*
X2869Y3652D01*
X2885D01*
X2894Y3644D01*
Y3611D01*
X2885Y3602D01*
X2869D01*
X2860Y3611D01*
X2844Y3602D02*
X2827D01*
X2835D01*
Y3652D01*
X2844Y3644D01*
X2777Y3602D02*
Y3652D01*
X2802Y3627D01*
X2769D01*
X3760Y2333D02*
X3768Y2341D01*
X3785D01*
X3793Y2333D01*
Y2299D01*
X3785Y2291D01*
X3768D01*
X3760Y2299D01*
X3743Y2291D02*
X3726D01*
X3735D01*
Y2341D01*
X3743Y2333D01*
X3701D02*
X3693Y2341D01*
X3676D01*
X3668Y2333D01*
Y2324D01*
X3676Y2316D01*
X3685D01*
X3676D01*
X3668Y2308D01*
Y2299D01*
X3676Y2291D01*
X3693D01*
X3701Y2299D01*
X3158Y3364D02*
X3166Y3372D01*
X3183D01*
X3191Y3364D01*
Y3330D01*
X3183Y3322D01*
X3166D01*
X3158Y3330D01*
X3141Y3322D02*
X3124D01*
X3133D01*
Y3372D01*
X3141Y3364D01*
X3066Y3322D02*
X3099D01*
X3066Y3355D01*
Y3364D01*
X3074Y3372D01*
X3091D01*
X3099Y3364D01*
X3221Y2694D02*
X3229Y2702D01*
X3246D01*
X3254Y2694D01*
Y2660D01*
X3246Y2652D01*
X3229D01*
X3221Y2660D01*
X3204Y2652D02*
X3187D01*
X3196D01*
Y2702D01*
X3204Y2694D01*
X3162D02*
X3154Y2702D01*
X3137D01*
X3129Y2694D01*
Y2660D01*
X3137Y2652D01*
X3154D01*
X3162Y2660D01*
Y2694D01*
X3727Y2696D02*
X3735Y2704D01*
X3752D01*
X3760Y2696D01*
Y2662D01*
X3752Y2654D01*
X3735D01*
X3727Y2662D01*
X3710Y2704D02*
X3677D01*
Y2696D01*
X3710Y2662D01*
Y2654D01*
X3116Y3644D02*
X3125Y3652D01*
X3141D01*
X3150Y3644D01*
Y3611D01*
X3141Y3602D01*
X3125D01*
X3116Y3611D01*
X3075Y3602D02*
Y3652D01*
X3100Y3627D01*
X3066D01*
X1275Y1781D02*
Y1741D01*
X1273Y1781D02*
Y1741D01*
X1286Y1781D02*
X1288Y1770D01*
Y1781D01*
X1259D01*
Y1770D01*
X1261Y1781D01*
X1280Y1741D02*
X1267D01*
X1248Y1781D02*
Y1741D01*
X1246Y1781D02*
Y1741D01*
X1254Y1781D02*
X1240D01*
X1254Y1741D02*
X1240D01*
X1227Y1781D02*
Y1741D01*
X1226Y1781D02*
X1214Y1747D01*
X1227Y1781D02*
X1214Y1741D01*
X1201Y1781D02*
X1214Y1741D01*
X1201Y1781D02*
Y1741D01*
X1199Y1781D02*
Y1741D01*
X1233Y1781D02*
X1226D01*
X1201D02*
X1193D01*
X1233Y1741D02*
X1222D01*
X1206D02*
X1193D01*
%TF.MD5,E80BD1D07916BBAEE5907720B2E931B4*%
M02*
