G04 Layer_Color=128*
%FSLAX23Y23*%
%MOIN*%
%TF.FileFunction,Drillmap*%
%TF.Part,Single*%
G01*
G75*
%ADD93C,0.005*%
D93*
X4547Y1575D02*
X4587D01*
X4567Y1555D02*
Y1594D01*
X4447Y1575D02*
X4487D01*
X4467Y1555D02*
Y1594D01*
X4347Y1575D02*
X4387D01*
X4367Y1555D02*
Y1594D01*
X1683Y1664D02*
X1718D01*
X1700Y1646D02*
Y1682D01*
X1683Y1564D02*
X1718D01*
X1700Y1546D02*
Y1582D01*
X1783Y1664D02*
X1818D01*
X1800Y1646D02*
Y1682D01*
X1783Y1564D02*
X1818D01*
X1800Y1546D02*
Y1582D01*
X2283Y1664D02*
X2318D01*
X2300Y1646D02*
Y1682D01*
X2283Y1564D02*
X2318D01*
X2300Y1546D02*
Y1582D01*
X2183Y1664D02*
X2218D01*
X2200Y1646D02*
Y1682D01*
X2183Y1564D02*
X2218D01*
X2200Y1546D02*
Y1582D01*
X2083Y1664D02*
X2118D01*
X2100Y1646D02*
Y1682D01*
X2083Y1564D02*
X2118D01*
X2100Y1546D02*
Y1582D01*
X1983Y1664D02*
X2018D01*
X2000Y1646D02*
Y1682D01*
X1983Y1564D02*
X2018D01*
X2000Y1546D02*
Y1582D01*
X1883Y1664D02*
X1918D01*
X1900Y1646D02*
Y1682D01*
X1883Y1564D02*
X1918D01*
X1900Y1546D02*
Y1582D01*
X1583Y1564D02*
X1618D01*
X1600Y1546D02*
Y1582D01*
X1583Y1664D02*
X1618D01*
X1600Y1646D02*
Y1682D01*
X1483Y1564D02*
X1518D01*
X1500Y1546D02*
Y1582D01*
X1483Y1664D02*
X1518D01*
X1500Y1646D02*
Y1682D01*
X1383Y1564D02*
X1418D01*
X1400Y1546D02*
Y1582D01*
X1383Y1664D02*
X1418D01*
X1400Y1646D02*
Y1682D01*
X4395Y2985D02*
X4513D01*
X4454Y2926D02*
Y3044D01*
X5413Y4409D02*
X5531D01*
X5472Y4350D02*
Y4469D01*
X5413Y1535D02*
X5531D01*
X5472Y1476D02*
Y1594D01*
X1083Y1535D02*
X1201D01*
X1142Y1476D02*
Y1594D01*
X1083Y4409D02*
X1201D01*
X1142Y4350D02*
Y4469D01*
X2102Y3810D02*
X2150D01*
X2126Y3786D02*
Y3833D01*
X2102Y4222D02*
X2150D01*
X2126Y4198D02*
Y4245D01*
X1161Y2246D02*
X1201D01*
X1181Y2226D02*
Y2265D01*
X1161Y2346D02*
X1201D01*
X1181Y2326D02*
Y2365D01*
X1161Y2836D02*
X1201D01*
X1181Y2817D02*
Y2856D01*
X1161Y2936D02*
X1201D01*
X1181Y2917D02*
Y2956D01*
X1161Y3425D02*
X1201D01*
X1181Y3406D02*
Y3445D01*
X1161Y3525D02*
X1201D01*
X1181Y3506D02*
Y3545D01*
X1161Y3625D02*
X1201D01*
X1181Y3606D02*
Y3645D01*
X2171Y3615D02*
X2211D01*
X2191Y3595D02*
Y3635D01*
X1490Y3615D02*
X1530D01*
X1510Y3595D02*
Y3635D01*
X2171Y2054D02*
X2211D01*
X2191Y2034D02*
Y2074D01*
X1490Y2054D02*
X1530D01*
X1510Y2034D02*
Y2074D01*
X2901Y3860D02*
X2941D01*
X2921Y3840D02*
Y3880D01*
X3001Y3860D02*
X3041D01*
X3021Y3840D02*
Y3880D01*
X3101Y3860D02*
X3141D01*
X3121Y3840D02*
Y3880D01*
X3520Y1575D02*
X3560D01*
X3540Y1555D02*
Y1594D01*
X3620Y1575D02*
X3660D01*
X3640Y1555D02*
Y1594D01*
X3720Y1575D02*
X3760D01*
X3740Y1555D02*
Y1594D01*
X3820Y1575D02*
X3860D01*
X3840Y1555D02*
Y1594D01*
X3920Y1575D02*
X3960D01*
X3940Y1555D02*
Y1594D01*
X4020Y1575D02*
X4060D01*
X4040Y1555D02*
Y1594D01*
X2654Y1575D02*
X2694D01*
X2674Y1555D02*
Y1594D01*
X2754Y1575D02*
X2794D01*
X2774Y1555D02*
Y1594D01*
X2854Y1575D02*
X2894D01*
X2874Y1555D02*
Y1594D01*
X2954Y1575D02*
X2994D01*
X2974Y1555D02*
Y1594D01*
X3054Y1575D02*
X3094D01*
X3074Y1555D02*
Y1594D01*
X3154Y1575D02*
X3194D01*
X3174Y1555D02*
Y1594D01*
X4623Y3346D02*
X4662D01*
X4643Y3327D02*
Y3366D01*
X4723Y3346D02*
X4762D01*
X4743Y3327D02*
Y3366D01*
X4823Y3346D02*
X4862D01*
X4843Y3327D02*
Y3366D01*
X4923Y3346D02*
X4962D01*
X4943Y3327D02*
Y3366D01*
X5023Y3346D02*
X5062D01*
X5043Y3327D02*
Y3366D01*
X5413Y2831D02*
X5453D01*
X5433Y2812D02*
Y2851D01*
X5413Y2931D02*
X5453D01*
X5433Y2912D02*
Y2951D01*
X5413Y3031D02*
X5453D01*
X5433Y3012D02*
Y3051D01*
X5413Y3131D02*
X5453D01*
X5433Y3112D02*
Y3151D01*
X5413Y3231D02*
X5453D01*
X5433Y3212D02*
Y3251D01*
X5413Y3331D02*
X5453D01*
X5433Y3312D02*
Y3351D01*
X5413Y2387D02*
X5453D01*
X5433Y2367D02*
Y2406D01*
X5413Y2287D02*
X5453D01*
X5433Y2267D02*
Y2306D01*
X5413Y2187D02*
X5453D01*
X5433Y2167D02*
Y2206D01*
X5413Y2087D02*
X5453D01*
X5433Y2067D02*
Y2106D01*
X5413Y1987D02*
X5453D01*
X5433Y1967D02*
Y2006D01*
X5413Y1887D02*
X5453D01*
X5433Y1867D02*
Y1906D01*
X5413Y2487D02*
X5453D01*
X5433Y2467D02*
Y2506D01*
X4187Y4281D02*
X4223D01*
X4205Y4263D02*
Y4298D01*
X4187Y4381D02*
X4223D01*
X4205Y4363D02*
Y4398D01*
X4087Y4281D02*
X4123D01*
X4105Y4263D02*
Y4298D01*
X4087Y4381D02*
X4123D01*
X4105Y4363D02*
Y4398D01*
X3587Y4281D02*
X3623D01*
X3605Y4263D02*
Y4298D01*
X3587Y4381D02*
X3623D01*
X3605Y4363D02*
Y4398D01*
X3687Y4281D02*
X3723D01*
X3705Y4263D02*
Y4298D01*
X3687Y4381D02*
X3723D01*
X3705Y4363D02*
Y4398D01*
X3787Y4281D02*
X3823D01*
X3805Y4263D02*
Y4298D01*
X3787Y4381D02*
X3823D01*
X3805Y4363D02*
Y4398D01*
X3887Y4281D02*
X3923D01*
X3905Y4263D02*
Y4298D01*
X3887Y4381D02*
X3923D01*
X3905Y4363D02*
Y4398D01*
X3987Y4281D02*
X4023D01*
X4005Y4263D02*
Y4298D01*
X3987Y4381D02*
X4023D01*
X4005Y4363D02*
Y4398D01*
X4287Y4381D02*
X4323D01*
X4305Y4363D02*
Y4398D01*
X4287Y4281D02*
X4323D01*
X4305Y4263D02*
Y4298D01*
X4387Y4381D02*
X4423D01*
X4405Y4363D02*
Y4398D01*
X4387Y4281D02*
X4423D01*
X4405Y4263D02*
Y4298D01*
X4487Y4381D02*
X4523D01*
X4505Y4363D02*
Y4398D01*
X4487Y4281D02*
X4523D01*
X4505Y4263D02*
Y4298D01*
X3717Y3837D02*
X3756D01*
X3737Y3818D02*
Y3857D01*
X3817Y3987D02*
X3856D01*
X3837Y3968D02*
Y4007D01*
X3917Y3837D02*
X3956D01*
X3937Y3818D02*
Y3857D01*
X3251Y4370D02*
X3291D01*
X3271Y4350D02*
Y4390D01*
X3151Y4370D02*
X3191D01*
X3171Y4350D02*
Y4390D01*
X3051Y4370D02*
X3091D01*
X3071Y4350D02*
Y4390D01*
X2951Y4370D02*
X2991D01*
X2971Y4350D02*
Y4390D01*
X2851Y4370D02*
X2891D01*
X2871Y4350D02*
Y4390D01*
X2751Y4370D02*
X2791D01*
X2771Y4350D02*
Y4390D01*
X2264Y4370D02*
X2303D01*
X2283Y4350D02*
Y4390D01*
X2364Y4370D02*
X2403D01*
X2383Y4350D02*
Y4390D01*
X2464Y4370D02*
X2503D01*
X2483Y4350D02*
Y4390D01*
X1644Y4238D02*
X1707D01*
X1675Y4206D02*
Y4269D01*
X1844Y4238D02*
X1907D01*
X1875Y4206D02*
Y4269D01*
X1447Y4238D02*
X1510D01*
X1478Y4206D02*
Y4269D01*
X3248Y2383D02*
X3287D01*
X3268Y2364D02*
Y2403D01*
X3248Y2483D02*
X3287D01*
X3268Y2464D02*
Y2503D01*
X4026Y3228D02*
X4045D01*
X4035Y3219D02*
Y3238D01*
X4026Y3425D02*
X4045D01*
X4035Y3415D02*
Y3435D01*
X2438Y2441D02*
X2477D01*
X2457Y2421D02*
Y2461D01*
X2538Y2441D02*
X2577D01*
X2557Y2421D02*
Y2461D01*
X2638Y2441D02*
X2677D01*
X2657Y2421D02*
Y2461D01*
X2738Y2441D02*
X2777D01*
X2757Y2421D02*
Y2461D01*
X2838Y2441D02*
X2877D01*
X2857Y2421D02*
Y2461D01*
X2938Y2441D02*
X2977D01*
X2957Y2421D02*
Y2461D01*
X4075Y2813D02*
X4114D01*
X4094Y2794D02*
Y2833D01*
X4075Y2713D02*
X4114D01*
X4094Y2694D02*
Y2733D01*
X4075Y2044D02*
X4114D01*
X4094Y2024D02*
Y2064D01*
X4075Y2144D02*
X4114D01*
X4094Y2124D02*
Y2164D01*
X4075Y2244D02*
X4114D01*
X4094Y2224D02*
Y2264D01*
X4075Y2344D02*
X4114D01*
X4094Y2324D02*
Y2364D01*
X5098Y1575D02*
X5138D01*
X5118Y1555D02*
Y1594D01*
X4998Y1575D02*
X5038D01*
X5018Y1555D02*
Y1594D01*
X4898Y1575D02*
X4938D01*
X4918Y1555D02*
Y1594D01*
X5098Y1890D02*
X5138D01*
X5118Y1870D02*
Y1909D01*
X4998Y1890D02*
X5038D01*
X5018Y1870D02*
Y1909D01*
X4898Y1890D02*
X4938D01*
X4918Y1870D02*
Y1909D01*
X3262Y2747D02*
X3290D01*
X3276Y2733D02*
Y2761D01*
X4284Y3330D02*
X4312D01*
X4298Y3316D02*
Y3344D01*
X3848Y2506D02*
X3876D01*
X3862Y2492D02*
Y2520D01*
X2996Y1746D02*
X3024D01*
X3010Y1732D02*
Y1760D01*
X3229Y3134D02*
X3257D01*
X3243Y3120D02*
Y3148D01*
X4431Y3759D02*
X4459D01*
X4445Y3745D02*
Y3773D01*
X2586Y2956D02*
X2614D01*
X2600Y2942D02*
Y2970D01*
X1528Y3004D02*
X1556D01*
X1542Y2990D02*
Y3018D01*
X5014Y2687D02*
X5042D01*
X5028Y2673D02*
Y2701D01*
X5147Y2624D02*
X5174D01*
X5161Y2609D02*
Y2638D01*
X5255Y2746D02*
X5283D01*
X5269Y2732D02*
Y2760D01*
X5221Y2878D02*
X5249D01*
X5235Y2864D02*
Y2892D01*
X3965Y2944D02*
X3993D01*
X3979Y2930D02*
Y2958D01*
X5113Y3144D02*
X5141D01*
X5127Y3130D02*
Y3158D01*
X4358Y2796D02*
X4386D01*
X4372Y2782D02*
Y2810D01*
X4275Y2806D02*
X4303D01*
X4289Y2792D02*
Y2820D01*
X3070Y2204D02*
X3098D01*
X3084Y2190D02*
Y2218D01*
X2441Y1798D02*
X2469D01*
X2455Y1784D02*
Y1812D01*
X3549Y2919D02*
X3577D01*
X3563Y2905D02*
Y2933D01*
X3934Y1751D02*
X3962D01*
X3948Y1737D02*
Y1765D01*
X3958Y1861D02*
X3986D01*
X3972Y1847D02*
Y1875D01*
X3038Y3051D02*
X3066D01*
X3052Y3037D02*
Y3065D01*
X2853Y3003D02*
X2881D01*
X2867Y2989D02*
Y3017D01*
X2108Y2914D02*
X2136D01*
X2122Y2900D02*
Y2928D01*
X3658Y2143D02*
X3686D01*
X3672Y2129D02*
Y2157D01*
X3625Y1726D02*
X3653D01*
X3639Y1712D02*
Y1740D01*
X3479Y1738D02*
X3507D01*
X3493Y1724D02*
Y1752D01*
X3379Y1669D02*
X3407D01*
X3393Y1655D02*
Y1683D01*
X1889Y3573D02*
X1917D01*
X1903Y3559D02*
Y3587D01*
X1421Y2416D02*
X1449D01*
X1435Y2402D02*
Y2430D01*
X4539Y1830D02*
X4567D01*
X4553Y1816D02*
Y1844D01*
X4253Y1710D02*
X4281D01*
X4267Y1696D02*
Y1724D01*
X3030Y4143D02*
X3058D01*
X3044Y4129D02*
Y4157D01*
X3028Y4043D02*
X3056D01*
X3042Y4029D02*
Y4057D01*
X3135Y4097D02*
X3163D01*
X3149Y4083D02*
Y4111D01*
X2967Y3249D02*
X2995D01*
X2981Y3235D02*
Y3263D01*
X3917Y2855D02*
X3945D01*
X3931Y2841D02*
Y2869D01*
X3879Y2919D02*
X3907D01*
X3893Y2905D02*
Y2933D01*
X3456Y3622D02*
X3484D01*
X3470Y3608D02*
Y3636D01*
X2709Y3217D02*
X2737D01*
X2723Y3203D02*
Y3231D01*
X2821Y3188D02*
X2849D01*
X2835Y3174D02*
Y3202D01*
X4238Y1973D02*
X4266D01*
X4252Y1959D02*
Y1987D01*
X4558Y1932D02*
X4586D01*
X4572Y1918D02*
Y1946D01*
X4892Y2598D02*
X4920D01*
X4906Y2584D02*
Y2612D01*
X4356Y1854D02*
X4384D01*
X4370Y1840D02*
Y1868D01*
X4420Y1800D02*
X4448D01*
X4434Y1786D02*
Y1814D01*
X4790Y2229D02*
X4818D01*
X4804Y2215D02*
Y2243D01*
X4743Y2511D02*
X4771D01*
X4757Y2497D02*
Y2525D01*
X4714Y2585D02*
X4742D01*
X4728Y2571D02*
Y2599D01*
X2584Y2277D02*
X2612D01*
X2598Y2263D02*
Y2291D01*
X2503Y2277D02*
X2531D01*
X2517Y2263D02*
Y2291D01*
X1948Y3777D02*
X1976D01*
X1962Y3763D02*
Y3791D01*
X1608Y2944D02*
X1636D01*
X1622Y2930D02*
Y2958D01*
X3054Y3443D02*
X3082D01*
X3068Y3429D02*
Y3457D01*
X3739Y2768D02*
X3767D01*
X3753Y2754D02*
Y2782D01*
X3805Y2722D02*
X3833D01*
X3819Y2708D02*
Y2736D01*
X2940Y2137D02*
X2968D01*
X2954Y2123D02*
Y2151D01*
X2652Y1756D02*
X2680D01*
X2666Y1742D02*
Y1770D01*
X2790Y1746D02*
X2818D01*
X2804Y1732D02*
Y1760D01*
X3476Y2924D02*
X3504D01*
X3490Y2910D02*
Y2938D01*
X2890Y1745D02*
X2918D01*
X2904Y1731D02*
Y1759D01*
X2607Y3916D02*
X2635D01*
X2621Y3902D02*
Y3930D01*
X3738Y1947D02*
X3766D01*
X3752Y1933D02*
Y1961D01*
X3044Y1947D02*
X3072D01*
X3058Y1933D02*
Y1961D01*
X2620Y3248D02*
X2648D01*
X2634Y3234D02*
Y3262D01*
X2679Y2874D02*
X2707D01*
X2693Y2860D02*
Y2888D01*
X3629Y2386D02*
X3657D01*
X3643Y2372D02*
Y2400D01*
X3411Y2938D02*
X3439D01*
X3425Y2924D02*
Y2952D01*
X3644Y3110D02*
X3672D01*
X3658Y3096D02*
Y3124D01*
X3223Y3071D02*
X3251D01*
X3237Y3057D02*
Y3085D01*
X4761Y2070D02*
X4789D01*
X4775Y2056D02*
Y2084D01*
X4695Y2067D02*
X4723D01*
X4709Y2053D02*
Y2081D01*
X4846Y3661D02*
X4874D01*
X4860Y3647D02*
Y3675D01*
X4844Y4055D02*
X4872D01*
X4858Y4041D02*
Y4069D01*
X1559Y2431D02*
X1587D01*
X1573Y2417D02*
Y2445D01*
X2861Y3075D02*
X2889D01*
X2875Y3061D02*
Y3089D01*
X3796Y3906D02*
X3824D01*
X3810Y3892D02*
Y3920D01*
X4040Y3902D02*
X4068D01*
X4054Y3888D02*
Y3916D01*
X4067Y3980D02*
X4095D01*
X4081Y3966D02*
Y3994D01*
X4112Y3678D02*
X4140D01*
X4126Y3664D02*
Y3692D01*
X4043Y4193D02*
X4071D01*
X4057Y4179D02*
Y4207D01*
X3250Y3628D02*
X3278D01*
X3264Y3614D02*
Y3642D01*
X3006Y3638D02*
X3034D01*
X3020Y3624D02*
Y3652D01*
X3183Y3717D02*
X3211D01*
X3197Y3703D02*
Y3731D01*
X2295Y3636D02*
X2323D01*
X2309Y3622D02*
Y3650D01*
X2253Y3884D02*
X2281D01*
X2267Y3870D02*
Y3898D01*
X3187Y3988D02*
X3215D01*
X3201Y3974D02*
Y4002D01*
X3844Y4077D02*
X3872D01*
X3858Y4063D02*
Y4091D01*
X4140Y3826D02*
X4168D01*
X4154Y3812D02*
Y3840D01*
X4178Y3681D02*
X4206D01*
X4192Y3667D02*
Y3695D01*
X4256Y3814D02*
X4284D01*
X4270Y3800D02*
Y3828D01*
X4253Y3678D02*
X4281D01*
X4267Y3664D02*
Y3692D01*
X3491Y3346D02*
X3519D01*
X3505Y3332D02*
Y3360D01*
X3964Y3157D02*
X3992D01*
X3978Y3143D02*
Y3171D01*
X4091Y3141D02*
X4119D01*
X4105Y3127D02*
Y3155D01*
X3460Y3156D02*
X3488D01*
X3474Y3142D02*
Y3170D01*
X3514Y3060D02*
X3542D01*
X3528Y3046D02*
Y3074D01*
X3604Y2751D02*
X3632D01*
X3618Y2737D02*
Y2765D01*
X3666Y3724D02*
X3694D01*
X3680Y3710D02*
Y3738D01*
X3818Y3415D02*
X3846D01*
X3832Y3401D02*
Y3429D01*
X3816Y3493D02*
X3844D01*
X3830Y3479D02*
Y3507D01*
X5236Y4050D02*
X5265D01*
X5251Y4036D02*
Y4064D01*
X5187Y4117D02*
X5215D01*
X5201Y4103D02*
Y4131D01*
X5155Y3758D02*
X5183D01*
X5169Y3744D02*
Y3772D01*
X4902Y4204D02*
X4930D01*
X4916Y4190D02*
Y4218D01*
X4451Y3415D02*
X4479D01*
X4465Y3401D02*
Y3429D01*
X4309Y3536D02*
X4337D01*
X4323Y3522D02*
Y3550D01*
X3713Y3516D02*
X3741D01*
X3727Y3502D02*
Y3530D01*
X4409Y3665D02*
X4437D01*
X4423Y3651D02*
Y3679D01*
X3686Y3590D02*
X3714D01*
X3700Y3576D02*
Y3604D01*
X4397Y3563D02*
X4425D01*
X4411Y3549D02*
Y3577D01*
X4587Y3681D02*
X4615D01*
X4601Y3667D02*
Y3695D01*
X1663Y1771D02*
X1691D01*
X1677Y1757D02*
Y1785D01*
X3382Y3328D02*
X3410D01*
X3396Y3314D02*
Y3342D01*
X3333Y3268D02*
X3361D01*
X3347Y3254D02*
Y3282D01*
X3266Y3269D02*
X3294D01*
X3280Y3255D02*
Y3283D01*
X2789Y3305D02*
X2817D01*
X2803Y3291D02*
Y3319D01*
X2016Y2406D02*
X2044D01*
X2030Y2392D02*
Y2420D01*
X1934Y3017D02*
X1962D01*
X1948Y3003D02*
Y3031D01*
X2014Y2549D02*
X2042D01*
X2028Y2535D02*
Y2563D01*
X2019Y2628D02*
X2047D01*
X2033Y2614D02*
Y2642D01*
X2850Y2189D02*
X2878D01*
X2864Y2175D02*
Y2203D01*
X3356Y2993D02*
X3384D01*
X3370Y2979D02*
Y3007D01*
X3240Y2997D02*
X3268D01*
X3254Y2983D02*
Y3011D01*
X2981Y2753D02*
X3009D01*
X2995Y2739D02*
Y2767D01*
X2653Y3478D02*
X2681D01*
X2667Y3464D02*
Y3492D01*
X2163Y2510D02*
X2191D01*
X2177Y2496D02*
Y2524D01*
X2908Y3505D02*
X2936D01*
X2922Y3491D02*
Y3519D01*
X2258Y3504D02*
X2286D01*
X2272Y3490D02*
Y3518D01*
X2317Y3326D02*
X2345D01*
X2331Y3312D02*
Y3340D01*
X2260Y3183D02*
X2288D01*
X2274Y3169D02*
Y3197D01*
X2157Y3096D02*
X2185D01*
X2171Y3082D02*
Y3110D01*
X2779Y2272D02*
X2807D01*
X2793Y2258D02*
Y2286D01*
%TF.MD5,0B672245DF46260D8EDEF1D7625C77EC*%
M02*
