G04 Layer_Color=255*
%FSLAX23Y23*%
%MOIN*%
%TF.FileFunction,Pads,Top*%
%TF.Part,Single*%
G01*
G75*
%TA.AperFunction,SMDPad*%
%ADD10R,0.079X0.039*%
%TA.AperFunction,SMDPad*%
%ADD11R,0.063X0.071*%
%TA.AperFunction,SMDPad*%
%ADD12O,0.087X0.024*%
%TA.AperFunction,SMDPad*%
%ADD13R,0.059X0.051*%
%TA.AperFunction,SMDPad*%
%ADD14R,0.051X0.065*%
%TA.AperFunction,SMDPad*%
%ADD15R,0.065X0.051*%
%TA.AperFunction,SMDPad*%
%ADD16R,0.051X0.059*%
%TA.AperFunction,SMDPad*%
%ADD17O,0.012X0.071*%
%TA.AperFunction,SMDPad*%
%ADD18O,0.071X0.012*%
%TA.AperFunction,SMDPad*%
%ADD19O,0.028X0.098*%
%TA.AperFunction,ViaPad*%
%ADD25C,0.065*%
%TA.AperFunction,ViaPad*%
%ADD26R,0.065X0.065*%
%TA.AperFunction,ViaPad*%
%ADD27C,0.059*%
%TA.AperFunction,ViaPad*%
%ADD28R,0.059X0.059*%
%TA.AperFunction,ConnectorPad*%
%ADD29C,0.197*%
%TA.AperFunction,ViaPad*%
%ADD30C,0.079*%
%TA.AperFunction,ViaPad*%
%ADD31R,0.079X0.079*%
%TA.AperFunction,ViaPad*%
%ADD32R,0.065X0.065*%
%TA.AperFunction,ViaPad*%
%ADD33R,0.079X0.079*%
%TA.AperFunction,ViaPad*%
%ADD34C,0.075*%
%TA.AperFunction,ViaPad*%
%ADD35C,0.039*%
D10*
X5354Y4213D02*
D03*
Y4134D02*
D03*
Y4055D02*
D03*
Y3977D02*
D03*
Y3662D02*
D03*
Y3741D02*
D03*
Y3819D02*
D03*
Y3898D02*
D03*
X4724D02*
D03*
Y3819D02*
D03*
Y3741D02*
D03*
Y3662D02*
D03*
Y3977D02*
D03*
Y4055D02*
D03*
Y4134D02*
D03*
Y4213D02*
D03*
D11*
X4363Y2675D02*
D03*
X4473D02*
D03*
X4363Y2479D02*
D03*
X4473D02*
D03*
X4368Y2283D02*
D03*
X4478D02*
D03*
X4368Y2086D02*
D03*
X4478D02*
D03*
X2406Y3720D02*
D03*
X2516D02*
D03*
X2405Y3916D02*
D03*
X2515D02*
D03*
X2406Y4016D02*
D03*
X2516D02*
D03*
X2406Y3819D02*
D03*
X2516D02*
D03*
D12*
X2504Y3106D02*
D03*
Y3056D02*
D03*
Y3006D02*
D03*
Y2956D02*
D03*
X2693Y3106D02*
D03*
Y3056D02*
D03*
Y3006D02*
D03*
Y2956D02*
D03*
D13*
X4636Y2859D02*
D03*
Y2933D02*
D03*
X3280Y1980D02*
D03*
Y1906D02*
D03*
X2571Y1983D02*
D03*
Y1909D02*
D03*
D14*
X4509Y3985D02*
D03*
X4338D02*
D03*
X4508Y3653D02*
D03*
X4338Y3654D02*
D03*
D15*
X4795Y2974D02*
D03*
Y2803D02*
D03*
X5127Y2973D02*
D03*
X5126Y2803D02*
D03*
X2922Y3424D02*
D03*
Y3595D02*
D03*
X2590Y3425D02*
D03*
X2591Y3595D02*
D03*
X3456Y2541D02*
D03*
Y2370D02*
D03*
X3788Y2540D02*
D03*
X3787Y2370D02*
D03*
D16*
X4963Y2402D02*
D03*
X5037D02*
D03*
X4254Y3274D02*
D03*
X4180D02*
D03*
X4251Y3384D02*
D03*
X4177D02*
D03*
D17*
X3209Y3427D02*
D03*
X3228D02*
D03*
X3248D02*
D03*
X3268D02*
D03*
X3287D02*
D03*
X3307D02*
D03*
X3327D02*
D03*
X3346D02*
D03*
X3366D02*
D03*
X3386D02*
D03*
X3406D02*
D03*
X3425D02*
D03*
X3445D02*
D03*
X3465D02*
D03*
X3484D02*
D03*
X3504D02*
D03*
X3524D02*
D03*
X3543D02*
D03*
X3563D02*
D03*
X3583D02*
D03*
X3602D02*
D03*
X3622D02*
D03*
X3642D02*
D03*
X3661D02*
D03*
X3681D02*
D03*
Y2833D02*
D03*
X3661D02*
D03*
X3642D02*
D03*
X3622D02*
D03*
X3602D02*
D03*
X3583D02*
D03*
X3563D02*
D03*
X3543D02*
D03*
X3524D02*
D03*
X3504D02*
D03*
X3484D02*
D03*
X3465D02*
D03*
X3445D02*
D03*
X3425D02*
D03*
X3406D02*
D03*
X3386D02*
D03*
X3366D02*
D03*
X3346D02*
D03*
X3327D02*
D03*
X3307D02*
D03*
X3287D02*
D03*
X3268D02*
D03*
X3248D02*
D03*
X3228D02*
D03*
X3209D02*
D03*
D18*
X3742Y3366D02*
D03*
Y3346D02*
D03*
Y3327D02*
D03*
Y3307D02*
D03*
Y3287D02*
D03*
Y3268D02*
D03*
Y3248D02*
D03*
Y3228D02*
D03*
Y3209D02*
D03*
Y3189D02*
D03*
Y3169D02*
D03*
Y3150D02*
D03*
Y3130D02*
D03*
Y3110D02*
D03*
Y3091D02*
D03*
Y3071D02*
D03*
Y3051D02*
D03*
Y3031D02*
D03*
Y3012D02*
D03*
Y2992D02*
D03*
Y2972D02*
D03*
Y2953D02*
D03*
Y2933D02*
D03*
Y2913D02*
D03*
Y2894D02*
D03*
X3148D02*
D03*
Y2913D02*
D03*
Y2933D02*
D03*
Y2953D02*
D03*
Y2972D02*
D03*
Y2992D02*
D03*
Y3012D02*
D03*
Y3031D02*
D03*
Y3051D02*
D03*
Y3071D02*
D03*
Y3091D02*
D03*
Y3110D02*
D03*
Y3130D02*
D03*
Y3150D02*
D03*
Y3169D02*
D03*
Y3189D02*
D03*
Y3209D02*
D03*
Y3228D02*
D03*
Y3248D02*
D03*
Y3268D02*
D03*
Y3287D02*
D03*
Y3307D02*
D03*
Y3327D02*
D03*
Y3346D02*
D03*
Y3366D02*
D03*
D19*
X3393Y1852D02*
D03*
X3443D02*
D03*
X3493D02*
D03*
X3543D02*
D03*
X3593D02*
D03*
X3643D02*
D03*
X3693D02*
D03*
X3393Y2045D02*
D03*
X3443D02*
D03*
X3493D02*
D03*
X3543D02*
D03*
X3593D02*
D03*
X3643D02*
D03*
X3693D02*
D03*
X2704Y1852D02*
D03*
X2754D02*
D03*
X2804D02*
D03*
X2854D02*
D03*
X2904D02*
D03*
X2954D02*
D03*
X3004D02*
D03*
X2704Y2045D02*
D03*
X2754D02*
D03*
X2804D02*
D03*
X2854D02*
D03*
X2904D02*
D03*
X2954D02*
D03*
X3004D02*
D03*
D25*
X4567Y1575D02*
D03*
X4467D02*
D03*
X1181Y2246D02*
D03*
Y2836D02*
D03*
X1181Y3425D02*
D03*
Y3525D02*
D03*
X2921Y3860D02*
D03*
X3021D02*
D03*
X3640Y1575D02*
D03*
X3740D02*
D03*
X3840D02*
D03*
X3940D02*
D03*
X4040D02*
D03*
X2774D02*
D03*
X2874D02*
D03*
X2974D02*
D03*
X3074D02*
D03*
X3174D02*
D03*
X4743Y3346D02*
D03*
X4843D02*
D03*
X4943D02*
D03*
X5043D02*
D03*
X5433Y2931D02*
D03*
Y3031D02*
D03*
Y3131D02*
D03*
Y3231D02*
D03*
Y3331D02*
D03*
Y2387D02*
D03*
Y2287D02*
D03*
Y2187D02*
D03*
Y2087D02*
D03*
Y1987D02*
D03*
Y2487D02*
D03*
X3171Y4370D02*
D03*
X3071D02*
D03*
X2971D02*
D03*
X2871D02*
D03*
X2771D02*
D03*
X2283D02*
D03*
X2383D02*
D03*
X3268Y2383D02*
D03*
X2557Y2441D02*
D03*
X2657D02*
D03*
X2757D02*
D03*
X2857D02*
D03*
X2957D02*
D03*
X4094Y2813D02*
D03*
Y2144D02*
D03*
Y2244D02*
D03*
Y2344D02*
D03*
X5118Y1575D02*
D03*
X5018D02*
D03*
X5118Y1890D02*
D03*
X5018D02*
D03*
D26*
X4367Y1575D02*
D03*
X3121Y3860D02*
D03*
X3540Y1575D02*
D03*
X2674D02*
D03*
X4643Y3346D02*
D03*
X3737Y3837D02*
D03*
X3271Y4370D02*
D03*
X2483D02*
D03*
X2457Y2441D02*
D03*
X4918Y1575D02*
D03*
X4918Y1890D02*
D03*
D27*
X1700Y1664D02*
D03*
Y1564D02*
D03*
X1800Y1664D02*
D03*
Y1564D02*
D03*
X2300D02*
D03*
X2200Y1664D02*
D03*
Y1564D02*
D03*
X2100Y1664D02*
D03*
Y1564D02*
D03*
X2000Y1664D02*
D03*
Y1564D02*
D03*
X1900Y1664D02*
D03*
Y1564D02*
D03*
X1600D02*
D03*
Y1664D02*
D03*
X1500Y1564D02*
D03*
Y1664D02*
D03*
X1400Y1564D02*
D03*
Y1664D02*
D03*
X4205Y4281D02*
D03*
Y4381D02*
D03*
X4105Y4281D02*
D03*
Y4381D02*
D03*
X3605D02*
D03*
X3705Y4281D02*
D03*
Y4381D02*
D03*
X3805Y4281D02*
D03*
Y4381D02*
D03*
X3905Y4281D02*
D03*
Y4381D02*
D03*
X4005Y4281D02*
D03*
Y4381D02*
D03*
X4305D02*
D03*
Y4281D02*
D03*
X4405Y4381D02*
D03*
Y4281D02*
D03*
X4505Y4381D02*
D03*
Y4281D02*
D03*
D28*
X2300Y1664D02*
D03*
X3605Y4281D02*
D03*
D29*
X4454Y2985D02*
D03*
X5472Y4409D02*
D03*
Y1535D02*
D03*
X1142D02*
D03*
Y4409D02*
D03*
D30*
X2126Y3810D02*
D03*
D31*
Y4222D02*
D03*
D32*
X1181Y2346D02*
D03*
Y2936D02*
D03*
X1181Y3625D02*
D03*
X5433Y2831D02*
D03*
Y1887D02*
D03*
X3837Y3987D02*
D03*
X3937Y3837D02*
D03*
X3268Y2483D02*
D03*
X4094Y2713D02*
D03*
Y2044D02*
D03*
D33*
X2191Y3615D02*
D03*
X1510D02*
D03*
X2191Y2054D02*
D03*
X1510D02*
D03*
D34*
X1675Y4238D02*
D03*
X1875D02*
D03*
X1478D02*
D03*
D35*
X4035Y3228D02*
D03*
Y3425D02*
D03*
%TF.MD5,404F531249562E0CD41B4BFEE0D1992E*%
M02*
