G04 Layer_Color=32768*
%FSLAX23Y23*%
%MOIN*%
%TF.FileFunction,Mechanical*%
%TF.Part,Single*%
G01*
G75*
%ADD20C,0.010*%
%ADD51C,0.004*%
%ADD81C,0.002*%
D20*
X1943Y3173D02*
Y3523D01*
X1600D02*
X1943D01*
X1602Y3173D02*
X1943D01*
X1600Y3175D02*
X1602Y3173D01*
X1600Y3175D02*
Y3523D01*
Y2486D02*
Y2834D01*
Y2486D02*
X1602Y2484D01*
X1943D01*
X1600Y2834D02*
X1943D01*
Y2484D02*
Y2834D01*
D51*
X5039Y3878D02*
Y3918D01*
X5019Y3898D02*
X5059D01*
X1752Y3228D02*
X1791D01*
X1772Y3209D02*
Y3248D01*
Y2520D02*
Y2559D01*
X1752Y2539D02*
X1791D01*
X2451Y2923D02*
Y3151D01*
X2746Y2923D02*
Y3151D01*
X2451D02*
X2746D01*
X2451Y2923D02*
X2746D01*
X2579Y3031D02*
X2618D01*
X2598Y3012D02*
Y3051D01*
X5000Y2343D02*
Y2382D01*
X4980Y2362D02*
X5020D01*
X4852Y2156D02*
X5148D01*
X4852Y2569D02*
X5148D01*
X4852Y2156D02*
Y2569D01*
X5148Y2156D02*
Y2569D01*
X3445Y3110D02*
Y3150D01*
X3425Y3130D02*
X3465D01*
X3102Y2787D02*
X3787D01*
X3102Y3472D02*
X3787D01*
Y2787D02*
Y3472D01*
X3102Y2787D02*
Y3472D01*
D81*
X4670Y3597D02*
X5410D01*
X4670Y4412D02*
X5410D01*
Y3597D02*
Y4412D01*
X4670Y3597D02*
Y4412D01*
%TF.MD5,11D4604E6D78EB18A41043173D969BEF*%
M02*
