G04 Layer_Color=16711935*
%FSLAX23Y23*%
%MOIN*%
%TF.FileFunction,Mechanical*%
%TF.Part,Single*%
G01*
G75*
%ADD20C,0.010*%
%ADD51C,0.004*%
D20*
X4306Y3612D02*
Y4026D01*
X4374Y3612D02*
X4544D01*
Y4026D01*
X4306D02*
X4544D01*
X4306Y3612D02*
X4376D01*
X4754Y2771D02*
X5168D01*
Y2839D02*
Y3009D01*
X4754D02*
X5168D01*
X4754Y2771D02*
Y3009D01*
X5168Y2771D02*
Y2841D01*
X2549Y3627D02*
X2963D01*
X2549Y3389D02*
Y3559D01*
Y3389D02*
X2963D01*
Y3627D01*
X2549Y3557D02*
Y3627D01*
X3415Y2338D02*
X3829D01*
Y2406D02*
Y2576D01*
X3415D02*
X3829D01*
X3415Y2338D02*
Y2576D01*
X3829Y2338D02*
Y2408D01*
D51*
X2575Y3094D02*
G03*
X2575Y3094I-20J0D01*
G01*
X5061Y2522D02*
G03*
X5061Y2522I-20J0D01*
G01*
X3224Y3370D02*
G03*
X3224Y3370I-20J0D01*
G01*
X3426Y1906D02*
G03*
X3426Y1906I-20J0D01*
G01*
X2737D02*
G03*
X2737Y1906I-20J0D01*
G01*
X4702Y4406D02*
X5371D01*
X4702Y3606D02*
Y4406D01*
Y3606D02*
X5371D01*
Y4406D01*
X1923Y3265D02*
Y3438D01*
X1620Y3265D02*
Y3438D01*
X1923D01*
X1620Y3265D02*
X1923D01*
X1620Y2576D02*
X1923D01*
X1620Y2749D02*
X1923D01*
X1620Y2576D02*
Y2749D01*
X1923Y2576D02*
Y2749D01*
X2520Y2933D02*
Y3130D01*
X2677Y2933D02*
Y3130D01*
X2520D02*
X2677D01*
X2520Y2933D02*
X2677D01*
X4923Y2167D02*
X5077D01*
X4923Y2557D02*
X5077D01*
X4923Y2167D02*
Y2557D01*
X5077Y2167D02*
Y2557D01*
X3169Y2854D02*
X3720D01*
X3169Y3406D02*
X3720D01*
Y2854D02*
Y3406D01*
X3169Y2854D02*
Y3406D01*
%TF.MD5,1CC80782E05CF463667D1CFBFC281C83*%
M02*
