G04 Layer_Color=255*
%FSLAX23Y23*%
%MOIN*%
%TF.FileFunction,Pads,Bot*%
%TF.Part,Single*%
G01*
G75*
%TA.AperFunction,SMDPad*%
%ADD11R,0.063X0.071*%
%TA.AperFunction,SMDPad*%
%ADD12O,0.087X0.024*%
%TA.AperFunction,SMDPad*%
%ADD13R,0.059X0.051*%
%TA.AperFunction,SMDPad*%
%ADD16R,0.051X0.059*%
%TA.AperFunction,ViaPad*%
%ADD25C,0.065*%
%TA.AperFunction,ViaPad*%
%ADD26R,0.065X0.065*%
%TA.AperFunction,ViaPad*%
%ADD27C,0.059*%
%TA.AperFunction,ViaPad*%
%ADD28R,0.059X0.059*%
%TA.AperFunction,ConnectorPad*%
%ADD29C,0.197*%
%TA.AperFunction,ViaPad*%
%ADD30C,0.079*%
%TA.AperFunction,ViaPad*%
%ADD31R,0.079X0.079*%
%TA.AperFunction,ViaPad*%
%ADD32R,0.065X0.065*%
%TA.AperFunction,ViaPad*%
%ADD33R,0.079X0.079*%
%TA.AperFunction,ViaPad*%
%ADD34C,0.075*%
%TA.AperFunction,ViaPad*%
%ADD35C,0.039*%
%TA.AperFunction,SMDPad*%
%ADD37R,0.071X0.063*%
%TA.AperFunction,SMDPad*%
%ADD38R,0.125X0.075*%
%TA.AperFunction,SMDPad*%
%ADD39R,0.047X0.083*%
%TA.AperFunction,SMDPad*%
%ADD40R,0.063X0.106*%
%TA.AperFunction,SMDPad*%
%ADD41R,0.106X0.063*%
D11*
X2516Y3504D02*
D03*
X2406D02*
D03*
X2516Y3248D02*
D03*
X2406D02*
D03*
X2516Y2815D02*
D03*
X2406D02*
D03*
X3028Y3150D02*
D03*
X2917D02*
D03*
X1335Y3917D02*
D03*
X1224D02*
D03*
X1224Y2638D02*
D03*
X1335D02*
D03*
X1335Y2047D02*
D03*
X1224D02*
D03*
X1925Y3917D02*
D03*
X1815D02*
D03*
X1630D02*
D03*
X1520D02*
D03*
D12*
X4906Y2187D02*
D03*
Y2237D02*
D03*
Y2287D02*
D03*
Y2337D02*
D03*
Y2387D02*
D03*
Y2437D02*
D03*
Y2487D02*
D03*
Y2537D02*
D03*
X5094Y2187D02*
D03*
Y2237D02*
D03*
Y2287D02*
D03*
Y2337D02*
D03*
Y2387D02*
D03*
Y2437D02*
D03*
Y2487D02*
D03*
Y2537D02*
D03*
D13*
X3307Y3073D02*
D03*
Y3148D02*
D03*
X4635Y2195D02*
D03*
Y2269D02*
D03*
X4634Y2516D02*
D03*
Y2442D02*
D03*
X5258Y2265D02*
D03*
Y2191D02*
D03*
X5258Y2522D02*
D03*
Y2448D02*
D03*
X3740Y2404D02*
D03*
Y2478D02*
D03*
X2835Y3541D02*
D03*
Y3467D02*
D03*
X1378Y3167D02*
D03*
Y3093D02*
D03*
D16*
X3502Y3543D02*
D03*
X3427D02*
D03*
X3010Y3346D02*
D03*
X2935D02*
D03*
X3542Y3269D02*
D03*
X3468D02*
D03*
X3384Y2677D02*
D03*
X3309D02*
D03*
X3620D02*
D03*
X3545D02*
D03*
X3073Y3543D02*
D03*
X3148D02*
D03*
X2423Y3012D02*
D03*
X2498D02*
D03*
D25*
X4567Y1575D02*
D03*
X4467D02*
D03*
X1181Y2246D02*
D03*
Y2836D02*
D03*
X1181Y3425D02*
D03*
Y3525D02*
D03*
X2921Y3860D02*
D03*
X3021D02*
D03*
X3640Y1575D02*
D03*
X3740D02*
D03*
X3840D02*
D03*
X3940D02*
D03*
X4040D02*
D03*
X2774D02*
D03*
X2874D02*
D03*
X2974D02*
D03*
X3074D02*
D03*
X3174D02*
D03*
X4743Y3346D02*
D03*
X4843D02*
D03*
X4943D02*
D03*
X5043D02*
D03*
X5433Y2931D02*
D03*
Y3031D02*
D03*
Y3131D02*
D03*
Y3231D02*
D03*
Y3331D02*
D03*
Y2387D02*
D03*
Y2287D02*
D03*
Y2187D02*
D03*
Y2087D02*
D03*
Y1987D02*
D03*
Y2487D02*
D03*
X3171Y4370D02*
D03*
X3071D02*
D03*
X2971D02*
D03*
X2871D02*
D03*
X2771D02*
D03*
X2283D02*
D03*
X2383D02*
D03*
X3268Y2383D02*
D03*
X2557Y2441D02*
D03*
X2657D02*
D03*
X2757D02*
D03*
X2857D02*
D03*
X2957D02*
D03*
X4094Y2813D02*
D03*
Y2144D02*
D03*
Y2244D02*
D03*
Y2344D02*
D03*
X5118Y1575D02*
D03*
X5018D02*
D03*
X5118Y1890D02*
D03*
X5018D02*
D03*
D26*
X4367Y1575D02*
D03*
X3121Y3860D02*
D03*
X3540Y1575D02*
D03*
X2674D02*
D03*
X4643Y3346D02*
D03*
X3737Y3837D02*
D03*
X3271Y4370D02*
D03*
X2483D02*
D03*
X2457Y2441D02*
D03*
X4918Y1575D02*
D03*
X4918Y1890D02*
D03*
D27*
X1700Y1664D02*
D03*
Y1564D02*
D03*
X1800Y1664D02*
D03*
Y1564D02*
D03*
X2300D02*
D03*
X2200Y1664D02*
D03*
Y1564D02*
D03*
X2100Y1664D02*
D03*
Y1564D02*
D03*
X2000Y1664D02*
D03*
Y1564D02*
D03*
X1900Y1664D02*
D03*
Y1564D02*
D03*
X1600D02*
D03*
Y1664D02*
D03*
X1500Y1564D02*
D03*
Y1664D02*
D03*
X1400Y1564D02*
D03*
Y1664D02*
D03*
X4205Y4281D02*
D03*
Y4381D02*
D03*
X4105Y4281D02*
D03*
Y4381D02*
D03*
X3605D02*
D03*
X3705Y4281D02*
D03*
Y4381D02*
D03*
X3805Y4281D02*
D03*
Y4381D02*
D03*
X3905Y4281D02*
D03*
Y4381D02*
D03*
X4005Y4281D02*
D03*
Y4381D02*
D03*
X4305D02*
D03*
Y4281D02*
D03*
X4405Y4381D02*
D03*
Y4281D02*
D03*
X4505Y4381D02*
D03*
Y4281D02*
D03*
D28*
X2300Y1664D02*
D03*
X3605Y4281D02*
D03*
D29*
X4454Y2985D02*
D03*
X5472Y4409D02*
D03*
Y1535D02*
D03*
X1142D02*
D03*
Y4409D02*
D03*
D30*
X2126Y3810D02*
D03*
D31*
Y4222D02*
D03*
D32*
X1181Y2346D02*
D03*
Y2936D02*
D03*
X1181Y3625D02*
D03*
X5433Y2831D02*
D03*
Y1887D02*
D03*
X3837Y3987D02*
D03*
X3937Y3837D02*
D03*
X3268Y2483D02*
D03*
X4094Y2713D02*
D03*
Y2044D02*
D03*
D33*
X2191Y3615D02*
D03*
X1510D02*
D03*
X2191Y2054D02*
D03*
X1510D02*
D03*
D34*
X1675Y4238D02*
D03*
X1875D02*
D03*
X1478D02*
D03*
D35*
X4035Y3228D02*
D03*
Y3425D02*
D03*
D37*
X4134Y3272D02*
D03*
Y3382D02*
D03*
X2764Y3953D02*
D03*
Y4063D02*
D03*
X2756Y2996D02*
D03*
Y3106D02*
D03*
X3543Y2386D02*
D03*
Y2496D02*
D03*
X4921Y3882D02*
D03*
Y3992D02*
D03*
X5065Y3990D02*
D03*
Y3880D02*
D03*
X1378Y3370D02*
D03*
Y3480D02*
D03*
D38*
X1772Y3463D02*
D03*
Y2774D02*
D03*
D39*
X1862Y3228D02*
D03*
X1772D02*
D03*
X1681D02*
D03*
Y2539D02*
D03*
X1772D02*
D03*
X1862D02*
D03*
D40*
X1827Y3031D02*
D03*
X1717D02*
D03*
X1827Y2343D02*
D03*
X1717D02*
D03*
D41*
X3573Y3802D02*
D03*
Y3692D02*
D03*
%TF.MD5,557D90AACD643EB7A4ABF4C41FEA0B46*%
M02*
