G04 Layer_Color=65535*
%FSLAX23Y23*%
%MOIN*%
%TF.FileFunction,Legend,Top*%
%TF.Part,Single*%
G01*
G75*
%ADD20C,0.010*%
%ADD46C,0.006*%
%ADD47C,0.010*%
%ADD48C,0.024*%
%ADD49C,0.008*%
%ADD50C,0.009*%
%ADD51C,0.004*%
%ADD52C,0.008*%
%ADD53R,0.110X0.031*%
D20*
X4664Y3568D02*
X5419D01*
X4659Y3570D02*
Y4443D01*
X4859D02*
X5219D01*
X5419Y3568D02*
Y4443D01*
X4659D02*
X4859D01*
X5219D02*
X5419D01*
X3693Y4052D02*
X3981D01*
X3693Y3777D02*
Y4052D01*
X3981Y3777D02*
Y4052D01*
X3693Y3777D02*
X3981D01*
X5303Y3539D02*
Y3493D01*
X5312Y3484D01*
X5330D01*
X5340Y3493D01*
Y3539D01*
X5358Y3530D02*
X5367Y3539D01*
X5385D01*
X5395Y3530D01*
Y3521D01*
X5385Y3511D01*
X5395Y3502D01*
Y3493D01*
X5385Y3484D01*
X5367D01*
X5358Y3493D01*
Y3502D01*
X5367Y3511D01*
X5358Y3521D01*
Y3530D01*
X5367Y3511D02*
X5385D01*
X3962Y3657D02*
Y3647D01*
X3982Y3627D01*
X4002Y3647D01*
Y3657D01*
X3982Y3627D02*
Y3597D01*
X4022D02*
X4042D01*
X4032D01*
Y3657D01*
X4022Y3647D01*
X2480Y4192D02*
Y4242D01*
X2470Y4252D01*
X2450D01*
X2440Y4242D01*
Y4192D01*
X2380Y4202D02*
X2390Y4192D01*
X2410D01*
X2420Y4202D01*
Y4212D01*
X2410Y4222D01*
X2390D01*
X2380Y4232D01*
Y4242D01*
X2390Y4252D01*
X2410D01*
X2420Y4242D01*
X2320Y4202D02*
X2330Y4192D01*
X2350D01*
X2360Y4202D01*
Y4212D01*
X2350Y4222D01*
X2330D01*
X2320Y4232D01*
Y4242D01*
X2330Y4252D01*
X2350D01*
X2360Y4242D01*
X4829Y1744D02*
Y1694D01*
X4839Y1684D01*
X4859D01*
X4869Y1694D01*
Y1744D01*
X4889Y1684D02*
Y1724D01*
X4909Y1744D01*
X4929Y1724D01*
Y1684D01*
Y1714D01*
X4889D01*
X4949Y1684D02*
Y1744D01*
X4979D01*
X4989Y1734D01*
Y1714D01*
X4979Y1704D01*
X4949D01*
X4969D02*
X4989Y1684D01*
X5009Y1744D02*
X5049D01*
X5029D01*
Y1684D01*
X5109D02*
X5069D01*
X5109Y1724D01*
Y1734D01*
X5099Y1744D01*
X5079D01*
X5069Y1734D01*
X4829Y2058D02*
Y2008D01*
X4839Y1998D01*
X4859D01*
X4869Y2008D01*
Y2058D01*
X4889Y1998D02*
Y2038D01*
X4909Y2058D01*
X4929Y2038D01*
Y1998D01*
Y2028D01*
X4889D01*
X4949Y1998D02*
Y2058D01*
X4979D01*
X4989Y2048D01*
Y2028D01*
X4979Y2018D01*
X4949D01*
X4969D02*
X4989Y1998D01*
X5009Y2058D02*
X5049D01*
X5029D01*
Y1998D01*
X5069D02*
X5089D01*
X5079D01*
Y2058D01*
X5069Y2048D01*
X2564Y2899D02*
Y2861D01*
X2571Y2854D01*
X2586D01*
X2594Y2861D01*
Y2899D01*
X2609D02*
X2639D01*
Y2891D01*
X2609Y2861D01*
Y2854D01*
X2670Y2207D02*
Y2157D01*
X2680Y2147D01*
X2700D01*
X2710Y2157D01*
Y2207D01*
X2770D02*
X2730D01*
Y2177D01*
X2750Y2187D01*
X2760D01*
X2770Y2177D01*
Y2157D01*
X2760Y2147D01*
X2740D01*
X2730Y2157D01*
X3359Y2207D02*
Y2157D01*
X3369Y2147D01*
X3389D01*
X3399Y2157D01*
Y2207D01*
X3449Y2147D02*
Y2207D01*
X3419Y2177D01*
X3459D01*
X3110Y3564D02*
Y3514D01*
X3120Y3504D01*
X3140D01*
X3150Y3514D01*
Y3564D01*
X3170Y3554D02*
X3180Y3564D01*
X3200D01*
X3210Y3554D01*
Y3544D01*
X3200Y3534D01*
X3190D01*
X3200D01*
X3210Y3524D01*
Y3514D01*
X3200Y3504D01*
X3180D01*
X3170Y3514D01*
X1359Y3642D02*
Y3602D01*
Y3622D01*
X1299D01*
X1349Y3542D02*
X1359Y3552D01*
Y3572D01*
X1349Y3582D01*
X1339D01*
X1329Y3572D01*
Y3552D01*
X1319Y3542D01*
X1309D01*
X1299Y3552D01*
Y3572D01*
X1309Y3582D01*
X1359Y3492D02*
Y3512D01*
X1349Y3522D01*
X1309D01*
X1299Y3512D01*
Y3492D01*
X1309Y3482D01*
X1349D01*
X1359Y3492D01*
X1299Y3462D02*
X1359D01*
Y3432D01*
X1349Y3422D01*
X1329D01*
X1319Y3432D01*
Y3462D01*
X1349Y2362D02*
X1359Y2372D01*
Y2392D01*
X1349Y2402D01*
X1339D01*
X1329Y2392D01*
Y2372D01*
X1319Y2362D01*
X1309D01*
X1299Y2372D01*
Y2392D01*
X1309Y2402D01*
X1359Y2342D02*
X1299D01*
X1319Y2322D01*
X1299Y2302D01*
X1359D01*
X1299Y2242D02*
Y2282D01*
X1339Y2242D01*
X1349D01*
X1359Y2252D01*
Y2272D01*
X1349Y2282D01*
X3234Y2663D02*
X3224Y2673D01*
X3204D01*
X3194Y2663D01*
Y2653D01*
X3204Y2643D01*
X3224D01*
X3234Y2633D01*
Y2623D01*
X3224Y2613D01*
X3204D01*
X3194Y2623D01*
X3254Y2673D02*
Y2613D01*
X3274Y2633D01*
X3294Y2613D01*
Y2673D01*
X3314Y2613D02*
X3334D01*
X3324D01*
Y2673D01*
X3314Y2663D01*
X5265Y2205D02*
X5255Y2195D01*
Y2175D01*
X5265Y2165D01*
X5275D01*
X5285Y2175D01*
Y2195D01*
X5295Y2205D01*
X5305D01*
X5315Y2195D01*
Y2175D01*
X5305Y2165D01*
X5315Y2225D02*
X5255D01*
Y2255D01*
X5265Y2265D01*
X5285D01*
X5295Y2255D01*
Y2225D01*
X5255Y2285D02*
Y2305D01*
Y2295D01*
X5315D01*
Y2285D01*
Y2305D01*
X2602Y3306D02*
Y3366D01*
X2632D01*
X2642Y3356D01*
Y3336D01*
X2632Y3326D01*
X2602D01*
X2622D02*
X2642Y3306D01*
X2702Y3356D02*
X2692Y3366D01*
X2672D01*
X2662Y3356D01*
Y3346D01*
X2672Y3336D01*
X2692D01*
X2702Y3326D01*
Y3316D01*
X2692Y3306D01*
X2672D01*
X2662Y3316D01*
X2722Y3366D02*
X2762D01*
X2742D01*
Y3306D01*
X4312Y1682D02*
Y1742D01*
X4342D01*
X4352Y1732D01*
Y1712D01*
X4342Y1702D01*
X4312D01*
X4332D02*
X4352Y1682D01*
X4412Y1742D02*
X4372D01*
Y1712D01*
X4392D01*
X4372D01*
Y1682D01*
X4432Y1742D02*
X4452D01*
X4442D01*
Y1682D01*
X4432D01*
X4452D01*
X4482Y1742D02*
Y1682D01*
X4512D01*
X4522Y1692D01*
Y1732D01*
X4512Y1742D01*
X4482D01*
X4542Y1672D02*
X4582D01*
X4602Y1742D02*
Y1692D01*
X4612Y1682D01*
X4632D01*
X4642Y1692D01*
Y1742D01*
X4662Y1682D02*
X4682D01*
X4672D01*
Y1742D01*
X4662Y1732D01*
X2358Y2555D02*
Y2615D01*
X2388D01*
X2398Y2605D01*
Y2585D01*
X2388Y2575D01*
X2358D01*
X2418Y2555D02*
Y2615D01*
X2448D01*
X2458Y2605D01*
Y2585D01*
X2448Y2575D01*
X2418D01*
X2438D02*
X2458Y2555D01*
X2508Y2615D02*
X2488D01*
X2478Y2605D01*
Y2565D01*
X2488Y2555D01*
X2508D01*
X2518Y2565D01*
Y2605D01*
X2508Y2615D01*
X2578Y2605D02*
X2568Y2615D01*
X2548D01*
X2538Y2605D01*
Y2565D01*
X2548Y2555D01*
X2568D01*
X2578Y2565D01*
Y2585D01*
X2558D01*
X3650Y3837D02*
X3610D01*
X3590Y3857D01*
X3610Y3877D01*
X3650D01*
X3620D01*
Y3837D01*
X3590Y3937D02*
X3650D01*
Y3907D01*
X3640Y3897D01*
X3620D01*
X3610Y3907D01*
Y3937D01*
X3670Y3957D02*
Y3967D01*
X3660Y3977D01*
X3610D01*
X5264Y3036D02*
Y3016D01*
X5274Y3006D01*
X5314D01*
X5324Y3016D01*
Y3036D01*
X5314Y3046D01*
X5274D01*
X5264Y3036D01*
X5274Y3106D02*
X5264Y3096D01*
Y3076D01*
X5274Y3066D01*
X5314D01*
X5324Y3076D01*
Y3096D01*
X5314Y3106D01*
X2037Y2109D02*
Y2169D01*
X2057Y2149D01*
X2077Y2169D01*
Y2109D01*
X2097D02*
X2117D01*
X2107D01*
Y2169D01*
X2097Y2159D01*
X1359Y2972D02*
X1299D01*
Y2932D01*
X1359Y2872D02*
Y2912D01*
X1299D01*
Y2872D01*
X1329Y2912D02*
Y2892D01*
X1359Y2852D02*
X1299D01*
Y2822D01*
X1309Y2812D01*
X1349D01*
X1359Y2822D01*
Y2852D01*
X3996Y4127D02*
Y4187D01*
X3956D01*
X3896Y4137D02*
X3906Y4127D01*
X3926D01*
X3936Y4137D01*
Y4177D01*
X3926Y4187D01*
X3906D01*
X3896Y4177D01*
X3876Y4127D02*
Y4187D01*
X3846D01*
X3836Y4177D01*
Y4137D01*
X3846Y4127D01*
X3876D01*
X1749Y1820D02*
X1769D01*
X1759D01*
Y1760D01*
X1749D01*
X1769D01*
X1799D02*
Y1820D01*
X1829D01*
X1839Y1810D01*
Y1790D01*
X1829Y1780D01*
X1799D01*
X1819D02*
X1839Y1760D01*
X1859Y1750D02*
X1899D01*
X1919Y1760D02*
X1949D01*
X1959Y1770D01*
X1949Y1780D01*
X1929D01*
X1919Y1790D01*
X1929Y1800D01*
X1959D01*
X2009Y1760D02*
X1989D01*
X1979Y1770D01*
Y1790D01*
X1989Y1800D01*
X2009D01*
X2019Y1790D01*
Y1780D01*
X1979D01*
X2039Y1760D02*
Y1800D01*
X2069D01*
X2079Y1790D01*
Y1760D01*
X2099D02*
X2129D01*
X2139Y1770D01*
X2129Y1780D01*
X2109D01*
X2099Y1790D01*
X2109Y1800D01*
X2139D01*
X2169Y1760D02*
X2189D01*
X2199Y1770D01*
Y1790D01*
X2189Y1800D01*
X2169D01*
X2159Y1790D01*
Y1770D01*
X2169Y1760D01*
X2219Y1800D02*
Y1760D01*
Y1780D01*
X2229Y1790D01*
X2239Y1800D01*
X2249D01*
X4021Y2513D02*
X4041D01*
X4031D01*
Y2453D01*
X4021D01*
X4041D01*
X4071D02*
Y2513D01*
X4091Y2493D01*
X4111Y2513D01*
Y2453D01*
X4131Y2513D02*
Y2463D01*
X4141Y2453D01*
X4161D01*
X4171Y2463D01*
Y2513D01*
X4191Y2453D02*
X4211D01*
X4201D01*
Y2513D01*
X4191Y2503D01*
X4021Y2977D02*
X4041D01*
X4031D01*
Y2917D01*
X4021D01*
X4041D01*
X4111D02*
X4071D01*
X4111Y2957D01*
Y2967D01*
X4101Y2977D01*
X4081D01*
X4071Y2967D01*
X4171D02*
X4161Y2977D01*
X4141D01*
X4131Y2967D01*
Y2927D01*
X4141Y2917D01*
X4161D01*
X4171Y2927D01*
X3008Y1742D02*
Y1682D01*
X3038D01*
X3048Y1692D01*
Y1732D01*
X3038Y1742D01*
X3008D01*
X3068Y1682D02*
Y1742D01*
X3098D01*
X3108Y1732D01*
Y1712D01*
X3098Y1702D01*
X3068D01*
X3088D02*
X3108Y1682D01*
X3128Y1742D02*
Y1702D01*
X3148Y1682D01*
X3168Y1702D01*
Y1742D01*
X3228Y1682D02*
X3188D01*
X3228Y1722D01*
Y1732D01*
X3218Y1742D01*
X3198D01*
X3188Y1732D01*
X3703Y1741D02*
Y1681D01*
X3733D01*
X3743Y1691D01*
Y1731D01*
X3733Y1741D01*
X3703D01*
X3763Y1681D02*
Y1741D01*
X3793D01*
X3803Y1731D01*
Y1711D01*
X3793Y1701D01*
X3763D01*
X3783D02*
X3803Y1681D01*
X3823Y1741D02*
Y1701D01*
X3843Y1681D01*
X3863Y1701D01*
Y1741D01*
X3883Y1681D02*
X3903D01*
X3893D01*
Y1741D01*
X3883Y1731D01*
X3068Y4208D02*
X3078Y4198D01*
X3098D01*
X3108Y4208D01*
Y4248D01*
X3098Y4258D01*
X3078D01*
X3068Y4248D01*
X3048Y4258D02*
Y4198D01*
X3008Y4258D01*
Y4198D01*
X1811Y3818D02*
Y3878D01*
X1781D01*
X1771Y3868D01*
Y3858D01*
X1781Y3848D01*
X1811D01*
X1781D01*
X1771Y3838D01*
Y3828D01*
X1781Y3818D01*
X1811D01*
X1751Y3878D02*
Y3838D01*
X1731Y3818D01*
X1711Y3838D01*
Y3878D01*
Y3848D01*
X1751D01*
X1691Y3818D02*
X1651D01*
X1671D01*
Y3878D01*
X1631Y3818D02*
X1591D01*
X1611D01*
Y3878D01*
X1249Y4204D02*
X1258Y4214D01*
Y4232D01*
X1249Y4241D01*
X1240D01*
X1230Y4232D01*
Y4214D01*
X1221Y4204D01*
X1212D01*
X1203Y4214D01*
Y4232D01*
X1212Y4241D01*
X1203Y4186D02*
X1240D01*
Y4177D01*
X1230Y4168D01*
X1203D01*
X1230D01*
X1240Y4159D01*
X1230Y4149D01*
X1203D01*
X1240Y4122D02*
Y4104D01*
X1230Y4094D01*
X1203D01*
Y4122D01*
X1212Y4131D01*
X1221Y4122D01*
Y4094D01*
X1240Y4076D02*
X1203D01*
X1221D01*
X1230Y4067D01*
X1240Y4058D01*
Y4049D01*
X1249Y4012D02*
X1240D01*
Y4021D01*
Y4003D01*
Y4012D01*
X1212D01*
X1203Y4003D01*
X1249Y3939D02*
X1258Y3948D01*
Y3966D01*
X1249Y3975D01*
X1212D01*
X1203Y3966D01*
Y3948D01*
X1212Y3939D01*
X1240Y3911D02*
Y3893D01*
X1230Y3884D01*
X1203D01*
Y3911D01*
X1212Y3920D01*
X1221Y3911D01*
Y3884D01*
X1240Y3865D02*
X1203D01*
X1221D01*
X1230Y3856D01*
X1240Y3847D01*
Y3838D01*
X1249Y3801D02*
X1240D01*
Y3810D01*
Y3792D01*
Y3801D01*
X1212D01*
X1203Y3792D01*
X1144Y4128D02*
X1104Y4108D01*
X1144Y4088D01*
X1104Y4028D02*
Y4068D01*
X1144Y4028D01*
X1154D01*
X1164Y4038D01*
Y4058D01*
X1154Y4068D01*
X1104Y4008D02*
X1114D01*
Y3998D01*
X1104D01*
Y4008D01*
X1154Y3958D02*
X1164Y3948D01*
Y3928D01*
X1154Y3918D01*
X1114D01*
X1104Y3928D01*
Y3948D01*
X1114Y3958D01*
X1154D01*
D46*
X4680Y4253D02*
G03*
X4680Y4253I-1J0D01*
G01*
X4297Y1545D02*
X4317D01*
X4307D01*
Y1604D01*
X4297Y1594D01*
X2379Y1542D02*
X2352D01*
X2379Y1568D01*
Y1575D01*
X2372Y1582D01*
X2359D01*
X2352Y1575D01*
X2361Y1643D02*
X2375D01*
X2368D01*
Y1683D01*
X2361Y1676D01*
X1151Y2416D02*
Y2396D01*
Y2406D01*
X1210D01*
X1200Y2416D01*
X1151Y3006D02*
Y2987D01*
Y2996D01*
X1210D01*
X1200Y3006D01*
X1151Y3695D02*
Y3676D01*
Y3685D01*
X1210D01*
X1200Y3695D01*
X3191Y3890D02*
X3171D01*
X3181D01*
Y3831D01*
X3191Y3841D01*
X3460Y1545D02*
X3480D01*
X3470D01*
Y1604D01*
X3460Y1594D01*
X2594Y1545D02*
X2614D01*
X2604D01*
Y1604D01*
X2594Y1594D01*
X4563Y3321D02*
X4582D01*
X4572D01*
Y3380D01*
X4563Y3371D01*
X5463Y2751D02*
Y2771D01*
Y2761D01*
X5404D01*
X5414Y2751D01*
X5463Y1807D02*
Y1826D01*
Y1816D01*
X5404D01*
X5414Y1807D01*
X3527Y4403D02*
X3553D01*
X3527Y4376D01*
Y4370D01*
X3533Y4363D01*
X3547D01*
X3553Y4370D01*
X3544Y4302D02*
X3531D01*
X3538D01*
Y4262D01*
X3544Y4269D01*
X3351Y4400D02*
X3331D01*
X3341D01*
Y4341D01*
X3351Y4351D01*
X2553Y4400D02*
X2534D01*
X2544D01*
Y4341D01*
X2553Y4351D01*
X1960Y4263D02*
X1941D01*
X1951D01*
Y4204D01*
X1960Y4213D01*
X3238Y2553D02*
Y2534D01*
Y2544D01*
X3297D01*
X3287Y2553D01*
X2377Y2411D02*
X2397D01*
X2387D01*
Y2470D01*
X2377Y2460D01*
X4124Y2643D02*
Y2663D01*
Y2653D01*
X4065D01*
X4075Y2643D01*
X4124Y1964D02*
Y1984D01*
Y1974D01*
X4065D01*
X4075Y1964D01*
X4848Y1545D02*
X4868D01*
X4858D01*
Y1604D01*
X4848Y1594D01*
Y1860D02*
X4868D01*
X4858D01*
Y1919D01*
X4848Y1909D01*
D47*
X2509Y3140D02*
G03*
X2509Y3140I-5J0D01*
G01*
X4337Y1520D02*
G03*
X4337Y1520I-5J0D01*
G01*
X2382Y1711D02*
G03*
X2382Y1711I-5J0D01*
G01*
X1136Y2381D02*
G03*
X1136Y2381I-5J0D01*
G01*
Y2971D02*
G03*
X1136Y2971I-5J0D01*
G01*
X1131Y3660D02*
G03*
X1131Y3660I-5J0D01*
G01*
X3161Y3915D02*
G03*
X3161Y3915I-5J0D01*
G01*
X4576Y3977D02*
G03*
X4576Y3977I-5J0D01*
G01*
X3500Y1520D02*
G03*
X3500Y1520I-5J0D01*
G01*
X2634D02*
G03*
X2634Y1520I-5J0D01*
G01*
X4808Y3035D02*
G03*
X4808Y3035I-5J0D01*
G01*
X4607Y3291D02*
G03*
X4607Y3291I-5J0D01*
G01*
X5493Y2786D02*
G03*
X5493Y2786I-5J0D01*
G01*
Y1842D02*
G03*
X5493Y1842I-5J0D01*
G01*
X2919Y3362D02*
G03*
X2919Y3362I-5J0D01*
G01*
X3533Y4234D02*
G03*
X3533Y4234I-5J0D01*
G01*
X3321Y4425D02*
G03*
X3321Y4425I-5J0D01*
G01*
X2523D02*
G03*
X2523Y4425I-5J0D01*
G01*
X3153Y3394D02*
G03*
X3153Y3394I-5J0D01*
G01*
X3223Y2518D02*
G03*
X3223Y2518I-5J0D01*
G01*
X3469Y2602D02*
G03*
X3469Y2602I-5J0D01*
G01*
X2417Y2386D02*
G03*
X2417Y2386I-5J0D01*
G01*
X4149Y2678D02*
G03*
X4149Y2678I-5J0D01*
G01*
X4154Y2009D02*
G03*
X4154Y2009I-5J0D01*
G01*
X3368Y1844D02*
G03*
X3368Y1844I-5J0D01*
G01*
X2679D02*
G03*
X2679Y1844I-5J0D01*
G01*
X4888Y1520D02*
G03*
X4888Y1520I-5J0D01*
G01*
Y1835D02*
G03*
X4888Y1835I-5J0D01*
G01*
D48*
X3250Y3337D02*
G03*
X3250Y3337I-12J0D01*
G01*
D49*
X4406Y2707D02*
X4430D01*
X4406Y2644D02*
X4430D01*
X4406D02*
Y2707D01*
X4414Y2644D02*
Y2707D01*
X4406Y2510D02*
X4430D01*
X4406Y2447D02*
X4430D01*
X4406D02*
Y2510D01*
X4414Y2447D02*
Y2510D01*
X4411Y2315D02*
X4435D01*
X4411Y2252D02*
X4435D01*
X4411D02*
Y2315D01*
X4419Y2252D02*
Y2315D01*
X4411Y2118D02*
X4435D01*
X4411Y2055D02*
X4435D01*
X4411D02*
Y2118D01*
X4419Y2055D02*
Y2118D01*
X2563Y2933D02*
Y3130D01*
X2634Y2933D02*
Y3130D01*
X2563D02*
X2634D01*
X2563Y2933D02*
X2634D01*
X4272Y1650D02*
X4637D01*
X4272Y1495D02*
X4637D01*
X4272Y1496D02*
Y1650D01*
X4637Y1496D02*
Y1650D01*
X1315Y1494D02*
Y1734D01*
X2405Y1494D02*
Y1734D01*
X1315D02*
X2405D01*
X1315Y1494D02*
X2405D01*
X2449Y3752D02*
X2472D01*
X2449Y3689D02*
X2472D01*
X2449D02*
Y3752D01*
X2456Y3689D02*
Y3752D01*
X2448Y3947D02*
X2472D01*
X2448Y3885D02*
X2472D01*
X2448D02*
Y3947D01*
X2456Y3885D02*
Y3947D01*
X2071Y3911D02*
X2181D01*
X2071D02*
Y4120D01*
X2181Y3911D02*
Y4120D01*
X1261Y2176D02*
Y2441D01*
X1101Y2176D02*
Y2441D01*
X1102D02*
X1260D01*
X1101Y2176D02*
X1261D01*
Y2766D02*
Y3031D01*
X1101Y2766D02*
Y3031D01*
X1102D02*
X1260D01*
X1101Y2766D02*
X1261D01*
X1256Y3355D02*
Y3720D01*
X1101Y3355D02*
Y3720D01*
X1102D02*
X1256D01*
X1102Y3355D02*
X1256D01*
X2851Y3785D02*
X3216D01*
X2851Y3940D02*
X3216D01*
Y3785D02*
Y3939D01*
X2851Y3785D02*
Y3939D01*
X2449Y4047D02*
X2472D01*
X2449Y3984D02*
X2472D01*
X2449D02*
Y4047D01*
X2456Y3984D02*
Y4047D01*
X2449Y3850D02*
X2472D01*
X2449Y3787D02*
X2472D01*
X2449D02*
Y3850D01*
X2456Y3787D02*
Y3850D01*
X4100Y1495D02*
Y1655D01*
X3435Y1495D02*
X4100D01*
X3435Y1655D02*
X4100D01*
X3435Y1496D02*
Y1654D01*
X3234Y1495D02*
Y1655D01*
X2569Y1495D02*
X3234D01*
X2569Y1655D02*
X3234D01*
X2569Y1496D02*
Y1654D01*
X5108Y3266D02*
Y3426D01*
X4543Y3268D02*
Y3425D01*
Y3266D02*
X5108D01*
X4543Y3426D02*
X5108D01*
X5353Y3391D02*
X5513D01*
Y2726D02*
Y3391D01*
X5353Y2726D02*
Y3391D01*
X5354Y2726D02*
X5512D01*
X5354Y1782D02*
X5512D01*
X5353D02*
Y2547D01*
X5513Y1782D02*
Y2547D01*
X5353D02*
X5513D01*
X4590Y4211D02*
Y4451D01*
X3500Y4211D02*
Y4451D01*
Y4211D02*
X4590D01*
X3500Y4451D02*
X4590D01*
X2711Y4290D02*
Y4450D01*
X3376D01*
X2711Y4290D02*
X3376D01*
Y4291D02*
Y4449D01*
X2213Y4295D02*
X2578D01*
X2213Y4450D02*
X2578D01*
Y4295D02*
Y4449D01*
X2213Y4295D02*
Y4449D01*
X1355Y4018D02*
Y4438D01*
Y4018D02*
X2000D01*
Y4438D01*
X1355D02*
X2000D01*
X3199Y2884D02*
X3691D01*
X3199Y3376D02*
X3691D01*
Y2884D02*
Y3376D01*
X3199Y2884D02*
Y3376D01*
X3348Y2313D02*
Y2578D01*
X3188Y2313D02*
Y2578D01*
X3189D02*
X3346D01*
X3188Y2313D02*
X3348D01*
X3955Y3090D02*
X4114D01*
X3955Y3091D02*
Y3563D01*
X4113Y3091D02*
Y3563D01*
X3955Y3563D02*
X4114D01*
X3017Y2361D02*
Y2521D01*
X2352Y2361D02*
X3017D01*
X2352Y2521D02*
X3017D01*
X2352Y2362D02*
Y2520D01*
X4014Y2618D02*
Y2883D01*
X4174Y2618D02*
Y2883D01*
X4016Y2618D02*
X4173D01*
X4014Y2883D02*
X4174D01*
X4014Y2419D02*
X4174D01*
X4016Y1944D02*
X4173D01*
X4174D02*
Y2419D01*
X4014Y1944D02*
Y2419D01*
X4823Y1650D02*
X5188D01*
X4823Y1495D02*
X5188D01*
X4823Y1496D02*
Y1650D01*
X5188Y1496D02*
Y1650D01*
X4823Y1965D02*
X5188D01*
X4823Y1810D02*
X5188D01*
X4823Y1811D02*
Y1965D01*
X5188Y1811D02*
Y1965D01*
D50*
X1417Y3917D02*
X1909D01*
X4625Y3027D02*
X4618Y3034D01*
X4605D01*
X4598Y3027D01*
Y3001D01*
X4605Y2994D01*
X4618D01*
X4625Y3001D01*
X4665Y2994D02*
X4638D01*
X4665Y3021D01*
Y3027D01*
X4658Y3034D01*
X4645D01*
X4638Y3027D01*
X4698Y2994D02*
Y3034D01*
X4678Y3014D01*
X4705D01*
X4972Y2501D02*
X4964Y2509D01*
X4949D01*
X4942Y2501D01*
Y2471D01*
X4949Y2464D01*
X4964D01*
X4972Y2471D01*
X5017Y2464D02*
X4987D01*
X5017Y2494D01*
Y2501D01*
X5009Y2509D01*
X4994D01*
X4987Y2501D01*
X5062Y2464D02*
X5032D01*
X5062Y2494D01*
Y2501D01*
X5054Y2509D01*
X5039D01*
X5032Y2501D01*
D51*
X3350Y1783D02*
X3736D01*
X3350Y2114D02*
X3736D01*
X3350Y1783D02*
Y2114D01*
X3736Y1783D02*
Y2114D01*
X2661Y1783D02*
X3047D01*
X2661Y2114D02*
X3047D01*
X2661Y1783D02*
Y2114D01*
X3047Y1783D02*
Y2114D01*
D52*
X4832Y3080D02*
Y3035D01*
X4847Y3050D01*
X4862Y3035D01*
Y3080D01*
X4877D02*
X4892D01*
X4884D01*
Y3035D01*
X4877D01*
X4892D01*
X4944Y3080D02*
X4914D01*
Y3057D01*
X4929D01*
X4914D01*
Y3035D01*
X4959Y3080D02*
X4974D01*
X4967D01*
Y3035D01*
X4959D01*
X4974D01*
X4997Y3028D02*
X5027D01*
X5042Y3035D02*
Y3080D01*
X5064D01*
X5072Y3072D01*
Y3057D01*
X5064Y3050D01*
X5042D01*
X5057D02*
X5072Y3035D01*
X5117Y3072D02*
X5109Y3080D01*
X5094D01*
X5087Y3072D01*
Y3065D01*
X5094Y3057D01*
X5109D01*
X5117Y3050D01*
Y3042D01*
X5109Y3035D01*
X5094D01*
X5087Y3042D01*
X5132Y3080D02*
X5162D01*
X5147D01*
Y3035D01*
X4613Y3509D02*
Y3459D01*
X4630Y3476D01*
X4646Y3459D01*
Y3509D01*
X4663Y3459D02*
X4680D01*
X4671D01*
Y3492D01*
X4663D01*
X4713Y3459D02*
Y3501D01*
Y3484D01*
X4705D01*
X4721D01*
X4713D01*
Y3501D01*
X4721Y3509D01*
X4746Y3459D02*
X4763D01*
X4755D01*
Y3492D01*
X4746D01*
X4788Y3451D02*
X4821D01*
X4838Y3459D02*
Y3509D01*
X4863D01*
X4871Y3501D01*
Y3484D01*
X4863Y3476D01*
X4838D01*
X4888Y3459D02*
Y3509D01*
X4913D01*
X4921Y3501D01*
Y3484D01*
X4913Y3476D01*
X4888D01*
X4905D02*
X4921Y3459D01*
X4963Y3509D02*
X4946D01*
X4938Y3501D01*
Y3467D01*
X4946Y3459D01*
X4963D01*
X4971Y3467D01*
Y3501D01*
X4963Y3509D01*
X5021Y3501D02*
X5013Y3509D01*
X4996D01*
X4988Y3501D01*
Y3467D01*
X4996Y3459D01*
X5013D01*
X5021Y3467D01*
Y3484D01*
X5005D01*
X4347Y2372D02*
Y2417D01*
X4369D01*
X4377Y2409D01*
Y2394D01*
X4369Y2387D01*
X4347D01*
X4362D02*
X4377Y2372D01*
X4392Y2417D02*
X4422D01*
Y2409D01*
X4392Y2379D01*
Y2372D01*
X4344Y1978D02*
Y2023D01*
X4366D01*
X4374Y2015D01*
Y2000D01*
X4366Y1993D01*
X4344D01*
X4359D02*
X4374Y1978D01*
X4419Y2023D02*
X4404Y2015D01*
X4389Y2000D01*
Y1985D01*
X4396Y1978D01*
X4411D01*
X4419Y1985D01*
Y1993D01*
X4411Y2000D01*
X4389D01*
X2355Y3674D02*
X2305D01*
Y3699D01*
X2313Y3707D01*
X2330D01*
X2338Y3699D01*
Y3674D01*
Y3691D02*
X2355Y3707D01*
Y3749D02*
X2305D01*
X2330Y3724D01*
Y3757D01*
X2355Y3873D02*
X2305D01*
Y3898D01*
X2313Y3906D01*
X2330D01*
X2338Y3898D01*
Y3873D01*
Y3890D02*
X2355Y3906D01*
X2313Y3923D02*
X2305Y3931D01*
Y3948D01*
X2313Y3956D01*
X2322D01*
X2330Y3948D01*
Y3940D01*
Y3948D01*
X2338Y3956D01*
X2347D01*
X2355Y3948D01*
Y3931D01*
X2347Y3923D01*
X4271Y4051D02*
Y4099D01*
X4295D01*
X4303Y4091D01*
Y4075D01*
X4295Y4067D01*
X4271D01*
X4319Y4051D02*
Y4099D01*
X4343D01*
X4351Y4091D01*
Y4075D01*
X4343Y4067D01*
X4319D01*
X4335D02*
X4351Y4051D01*
X4391Y4099D02*
X4375D01*
X4367Y4091D01*
Y4059D01*
X4375Y4051D01*
X4391D01*
X4399Y4059D01*
Y4091D01*
X4391Y4099D01*
X4447Y4091D02*
X4439Y4099D01*
X4423D01*
X4415Y4091D01*
Y4059D01*
X4423Y4051D01*
X4439D01*
X4447Y4059D01*
Y4075D01*
X4431D01*
X4463Y4043D02*
X4495D01*
X4543Y4091D02*
X4535Y4099D01*
X4519D01*
X4511Y4091D01*
Y4083D01*
X4519Y4075D01*
X4535D01*
X4543Y4067D01*
Y4059D01*
X4535Y4051D01*
X4519D01*
X4511Y4059D01*
X4559Y4099D02*
Y4051D01*
X4575Y4067D01*
X4591Y4051D01*
Y4099D01*
X4332Y2611D02*
Y2563D01*
X4364D01*
X4412Y2611D02*
X4380D01*
Y2563D01*
X4412D01*
X4380Y2587D02*
X4396D01*
X4428Y2611D02*
Y2563D01*
X4452D01*
X4460Y2571D01*
Y2603D01*
X4452Y2611D01*
X4428D01*
X4508Y2563D02*
X4476D01*
X4508Y2595D01*
Y2603D01*
X4500Y2611D01*
X4484D01*
X4476Y2603D01*
X4335Y2215D02*
Y2167D01*
X4367D01*
X4415Y2215D02*
X4383D01*
Y2167D01*
X4415D01*
X4383Y2191D02*
X4399D01*
X4431Y2215D02*
Y2167D01*
X4455D01*
X4463Y2175D01*
Y2207D01*
X4455Y2215D01*
X4431D01*
X4479Y2167D02*
X4495D01*
X4487D01*
Y2215D01*
X4479Y2207D01*
X2577Y3834D02*
X2584Y3842D01*
X2599D01*
X2607Y3834D01*
Y3827D01*
X2599Y3819D01*
X2592D01*
X2599D01*
X2607Y3812D01*
Y3804D01*
X2599Y3797D01*
X2584D01*
X2577Y3804D01*
X2622Y3797D02*
Y3804D01*
X2629D01*
Y3797D01*
X2622D01*
X2659Y3834D02*
X2667Y3842D01*
X2682D01*
X2689Y3834D01*
Y3827D01*
X2682Y3819D01*
X2674D01*
X2682D01*
X2689Y3812D01*
Y3804D01*
X2682Y3797D01*
X2667D01*
X2659Y3804D01*
X2704Y3827D02*
X2719Y3797D01*
X2734Y3827D01*
X2608Y4039D02*
X2578D01*
Y4016D01*
X2593Y4024D01*
X2600D01*
X2608Y4016D01*
Y4001D01*
X2600Y3994D01*
X2585D01*
X2578Y4001D01*
X2623Y4024D02*
X2638Y3994D01*
X2653Y4024D01*
X2205Y4016D02*
Y3976D01*
X2225D01*
X2231Y3983D01*
Y4010D01*
X2225Y4016D01*
X2205D01*
X2245Y3976D02*
X2258D01*
X2251D01*
Y4016D01*
X2245Y4010D01*
X2470Y1916D02*
X2462Y1908D01*
Y1891D01*
X2470Y1883D01*
X2504D01*
X2512Y1891D01*
Y1908D01*
X2504Y1916D01*
X2512Y1933D02*
Y1950D01*
Y1941D01*
X2462D01*
X2470Y1933D01*
X2462Y1975D02*
Y2008D01*
X2470D01*
X2504Y1975D01*
X2512D01*
X3182Y1915D02*
X3174Y1907D01*
Y1892D01*
X3182Y1885D01*
X3212D01*
X3219Y1892D01*
Y1907D01*
X3212Y1915D01*
X3219Y1930D02*
Y1945D01*
Y1937D01*
X3174D01*
X3182Y1930D01*
X3174Y1997D02*
X3182Y1982D01*
X3197Y1967D01*
X3212D01*
X3219Y1975D01*
Y1990D01*
X3212Y1997D01*
X3204D01*
X3197Y1990D01*
Y1967D01*
X4210Y3217D02*
X4202Y3225D01*
X4187D01*
X4180Y3217D01*
Y3187D01*
X4187Y3180D01*
X4202D01*
X4210Y3187D01*
X4255Y3225D02*
X4240Y3217D01*
X4225Y3202D01*
Y3187D01*
X4232Y3180D01*
X4247D01*
X4255Y3187D01*
Y3195D01*
X4247Y3202D01*
X4225D01*
X4208Y3478D02*
X4200Y3486D01*
X4185D01*
X4178Y3478D01*
Y3448D01*
X4185Y3441D01*
X4200D01*
X4208Y3448D01*
X4253Y3486D02*
X4223D01*
Y3463D01*
X4238Y3471D01*
X4245D01*
X4253Y3463D01*
Y3448D01*
X4245Y3441D01*
X4230D01*
X4223Y3448D01*
X3147Y3712D02*
X3130D01*
X3139D01*
Y3762D01*
X3147D01*
X3130D01*
X3105D02*
X3072Y3729D01*
X3030Y3712D02*
X3047D01*
X3055Y3720D01*
Y3754D01*
X3047Y3762D01*
X3030D01*
X3022Y3754D01*
Y3720D01*
X3030Y3712D01*
X2989Y3762D02*
X3005Y3745D01*
Y3729D01*
X2989Y3712D01*
X2930D02*
X2964D01*
Y3737D01*
X2947Y3729D01*
X2939D01*
X2930Y3737D01*
Y3754D01*
X2939Y3762D01*
X2955D01*
X2964Y3754D01*
X2914Y3729D02*
X2897Y3762D01*
X2880Y3729D01*
X2864Y3762D02*
X2847Y3745D01*
Y3729D01*
X2864Y3712D01*
X1929Y3996D02*
X1912D01*
X1921D01*
Y3946D01*
X1929Y3954D01*
X1854Y3996D02*
X1887D01*
X1854Y3963D01*
Y3954D01*
X1862Y3946D01*
X1879D01*
X1887Y3954D01*
X1837Y3963D02*
X1821Y3996D01*
X1804Y3963D01*
X1704Y3954D02*
X1713Y3946D01*
X1729D01*
X1738Y3954D01*
Y3988D01*
X1729Y3996D01*
X1713D01*
X1704Y3988D01*
Y3971D01*
X1721D01*
X1688Y3996D02*
Y3963D01*
X1663D01*
X1654Y3971D01*
Y3996D01*
X1604Y3946D02*
Y3996D01*
X1629D01*
X1638Y3988D01*
Y3971D01*
X1629Y3963D01*
X1604D01*
X1504Y3996D02*
X1538D01*
X1504Y3963D01*
Y3954D01*
X1513Y3946D01*
X1529D01*
X1538Y3954D01*
X1463Y3996D02*
Y3946D01*
X1488Y3971D01*
X1454D01*
X1438Y3963D02*
X1421Y3996D01*
X1404Y3963D01*
D53*
X2126Y4108D02*
D03*
%TF.MD5,5E8505B1B5B2735C1FF79AE4770BECBF*%
M02*
